<?xml version="1.0" encoding="UTF-8"?>
<svg xmlns="http://www.w3.org/2000/svg" xmlns:xlink="http://www.w3.org/1999/xlink" version="1.2" >
<font id="KfWCentroSlab-Medium">
<font-face  font-family="KfW Centro Slab" units-per-em="1000" ascent="750" descent="-250" font-style="normal" font-weight="500" font-stretch="normal" cap-height="686" x-height="489" underline-position="-85" underline-thickness="60" />
<missing-glyph  horiz-adv-x="440" d="M0 686 L440 686 L440 0 L0 0 L0 686 Z M360 49 L220 298 L80 49 L360 49 Z M360 637 L79 637 L220 388 L360 637 Z M49 93 L190 344 L49 594 L49 93 Z M390 91 L390 596 L249 342 L390 91 Z " />
<glyph glyph-name=".null" d="" />
<glyph glyph-name="nonmarkingreturn" unicode="&#xd;" horiz-adv-x="283" d="" />
<glyph glyph-name="space" unicode="&#x20;" horiz-adv-x="283" d="" />
<glyph glyph-name="exclam" unicode="&#x21;" horiz-adv-x="249" d="M176 700 L174 416 L163 180 L89 180 L78 416 L74 700 L176 700 Z M125 109 Q152 109 169.5 91.5 Q187 74 187 49 Q187 24 169 6 Q151 -12 125 -12 Q97 -12 79.5 6 Q62 24 62 49 Q62 74 80 91.5 Q98 109 125 109 Z " />
<glyph glyph-name="quotedbl" unicode="&#x22;" horiz-adv-x="311" d="M196 467 L180 687 L271 687 L256 467 L196 467 Z M60 467 L44 687 L136 687 L119 467 L60 467 Z " />
<glyph glyph-name="numbersign" unicode="&#x23;" horiz-adv-x="575" d="M441 402 L408 254 L484 254 L477 195 L396 195 L352 0 L287 0 L329 195 L202 195 L157 0 L91 0 L135 195 L61 195 L68 254 L148 254 L182 402 L101 402 L108 459 L194 459 L234 632 L299 632 L259 459 L389 459 L428 632 L493 632 L454 459 L525 459 L518 402 L441 402 Z M214 254 L343 254 L375 402 L248 402 L214 254 Z " />
<glyph glyph-name="dollar" unicode="&#x24;" horiz-adv-x="575" d="M300 750 L340 750 L340 669 Q372 667 405.5 658.5 Q439 650 468 633 L468 498 L399 498 L399 579 Q385 585 371 588.5 Q357 592 340 594 L340 373 Q372 361 403.5 347.5 Q435 334 459.5 314 Q484 294 499 265 Q514 236 514 194 Q514 112 465.5 66.5 Q417 21 340 9 L340 -89 L300 -89 L300 750 Z M267 -89 L228 -89 L228 6 Q187 10 149 19.5 Q111 29 72 52 L72 189 L141 189 L141 108 Q168 96 187 91.5 Q206 87 228 84 L228 321 Q196 331 168 345 Q140 359 119 378.5 Q98 398 85.5 424.5 Q73 451 73 488 Q73 563 115.5 608.5 Q158 654 228 667 L228 750 L267 750 L267 -89 Z M426 192 Q426 230 402 251.5 Q378 273 340 287 L340 88 Q377 96 401.5 120.5 Q426 145 426 192 Z M159 497 Q159 458 178.5 439.5 Q198 421 228 408 L228 589 Q199 581 179 559 Q159 537 159 497 Z " />
<glyph glyph-name="percent" unicode="&#x25;" horiz-adv-x="850" d="M356 464 Q356 426 347.5 390 Q339 354 319.5 325.5 Q300 297 268 279.5 Q236 262 188 262 Q136 262 103 279 Q70 296 51 324 Q32 352 25 388 Q18 424 18 463 Q18 499 25 536 Q32 573 51.5 602.5 Q71 632 104 651 Q137 670 190 670 Q243 670 275.5 650.5 Q308 631 326 601 Q344 571 350 534.5 Q356 498 356 464 Z M273 463 Q273 484 271 509.5 Q269 535 260.5 557 Q252 579 235.5 593.5 Q219 608 190 608 Q160 608 142 594 Q124 580 115 558.5 Q106 537 103 511 Q100 485 100 462 Q100 433 103.5 407.5 Q107 382 116.5 363 Q126 344 143.5 333 Q161 322 190 322 Q216 322 232 334.5 Q248 347 257 367 Q266 387 269.5 412 Q273 437 273 463 Z M308 -21 L241 -21 L544 704 L610 704 L308 -21 Z M830 199 Q830 161 821.5 125 Q813 89 793.5 60.5 Q774 32 742 14.5 Q710 -3 662 -3 Q610 -3 577 14 Q544 31 525 59 Q506 87 499 123 Q492 159 492 198 Q492 234 499 271 Q506 308 525.5 337.5 Q545 367 578 386 Q611 405 664 405 Q717 405 749.5 385.5 Q782 366 800 336 Q818 306 824 269.5 Q830 233 830 199 Z M747 198 Q747 219 745 244.5 Q743 270 734.5 292 Q726 314 709.5 328.5 Q693 343 664 343 Q634 343 616 329 Q598 315 589 293.5 Q580 272 577 246 Q574 220 574 197 Q574 168 577.5 142.5 Q581 117 590.5 98 Q600 79 617.5 68 Q635 57 664 57 Q690 57 706 69.5 Q722 82 731 102 Q740 122 743.5 147 Q747 172 747 198 Z " />
<glyph glyph-name="ampersand" unicode="&#x26;" horiz-adv-x="753" d="M268 -13 Q220 -13 178.5 -0.5 Q137 12 106.5 36.5 Q76 61 58 98 Q40 135 40 184 Q40 311 203 399 Q174 438 162 470 Q150 502 150 534 Q150 560 158.5 586.5 Q167 613 185.5 634 Q204 655 233 668 Q262 681 303 681 Q346 681 376 668 Q406 655 424.5 635 Q443 615 451 591 Q459 567 459 545 Q459 516 448.5 492.5 Q438 469 419 448.5 Q400 428 375 410 Q350 392 322 375 Q344 344 369.5 310.5 Q395 277 423 243 Q441 222 458.5 201.5 Q476 181 495 161 Q530 196 556 239.5 Q582 283 590 337 L510 337 L510 408 L743 408 L743 337 L675 337 Q667 271 634.5 213 Q602 155 553 107 Q588 75 626 49 Q664 23 700 8 L662 -59 Q644 -52 622 -39.5 Q600 -27 576.5 -11.5 Q553 4 529.5 21.5 Q506 39 487 57 Q439 23 382 5 Q325 -13 268 -13 Z M345 209 Q319 241 294 273 Q269 305 247 334 Q199 308 167 273.5 Q135 239 135 189 Q135 157 146 133 Q157 109 175.5 93 Q194 77 219.5 69 Q245 61 274 61 Q312 61 351.5 74 Q391 87 428 112 Q405 136 385 160.5 Q365 185 345 209 Z M239 539 Q239 516 250.5 491 Q262 466 282 437 Q301 447 318.5 457.5 Q336 468 349 481 Q362 494 370 509.5 Q378 525 378 545 Q378 576 358.5 594.5 Q339 613 304 613 Q286 613 273.5 605.5 Q261 598 253.5 587 Q246 576 242.5 563 Q239 550 239 539 Z " />
<glyph glyph-name="quotesingle" unicode="&#x27;" horiz-adv-x="213" d="M76 467 L60 687 L153 687 L136 467 L76 467 Z " />
<glyph glyph-name="parenleft" unicode="&#x28;" horiz-adv-x="305" d="M61 283 Q61 361 77 428.5 Q93 496 116.5 550.5 Q140 605 167 646 Q194 687 217 713 L263 684 Q251 666 232.5 632 Q214 598 197 547.5 Q180 497 167.5 431.5 Q155 366 155 285 Q155 195 167.5 124.5 Q180 54 197 2 Q214 -50 233 -85 Q252 -120 264 -138 L217 -170 Q195 -145 168 -103.5 Q141 -62 117 -5 Q93 52 77 124 Q61 196 61 283 Z " />
<glyph glyph-name="parenright" unicode="&#x29;" horiz-adv-x="307" d="M237 283 Q237 196 221 124.5 Q205 53 181 -4 Q157 -61 129.5 -102.5 Q102 -144 80 -170 L35 -138 Q47 -120 65.5 -85 Q84 -50 101.5 2 Q119 54 131.5 124.5 Q144 195 144 285 Q144 366 131.5 432 Q119 498 101.5 548 Q84 598 65.5 632.5 Q47 667 35 684 L81 713 Q103 687 130.5 646 Q158 605 181.5 550.5 Q205 496 221 428.5 Q237 361 237 283 Z " />
<glyph glyph-name="asterisk" unicode="&#x2a;" horiz-adv-x="403" d="M227 578 Q252 591 278 605 Q304 619 330 633 Q345 612 350.5 590.5 Q356 569 359 545 Q329 541 299.5 537 Q270 533 240 530 Q261 510 282.5 490 Q304 470 325 450 Q295 416 252 395 L201 503 Q189 476 176.5 449.5 Q164 423 152 396 Q130 406 112 418.5 Q94 431 77 450 Q98 470 120 490.5 Q142 511 162 531 Q133 535 104.5 538.5 Q76 542 47 546 Q51 572 57.5 593.5 Q64 615 76 636 Q101 621 126.5 606.5 Q152 592 178 578 Q173 606 166.5 635 Q160 664 155 692 Q167 695 179 695.5 Q191 696 204 696 Q216 696 227.5 695.5 Q239 695 250 692 Q244 664 238.5 635 Q233 606 227 578 Z " />
<glyph glyph-name="plus" unicode="&#x2b;" horiz-adv-x="575" d="M329 266 L329 97 L258 97 L258 266 L94 266 L94 335 L258 335 L258 498 L329 498 L329 335 L492 335 L492 266 L329 266 Z " />
<glyph glyph-name="comma" unicode="&#x2c;" horiz-adv-x="232" d="M49 56 Q49 80 67 98.5 Q85 117 114 117 Q146 117 164 95 Q182 73 182 42 Q182 -4 153 -52.5 Q124 -101 73 -134 L45 -101 Q69 -77 81.5 -52.5 Q94 -28 97 -1 Q70 1 59.5 18 Q49 35 49 56 Z " />
<glyph glyph-name="hyphen" unicode="&#x2d;" horiz-adv-x="377" d="M56 225 L56 307 L321 307 L321 225 L56 225 Z " />
<glyph glyph-name="period" unicode="&#x2e;" horiz-adv-x="231" d="M179 55 Q179 28 160 9 Q141 -10 115 -10 Q88 -10 68.5 9 Q49 28 49 55 Q49 82 68.5 101 Q88 120 114 120 Q141 120 160 101 Q179 82 179 55 Z " />
<glyph glyph-name="slash" unicode="&#x2f;" horiz-adv-x="349" d="M85 -30 L12 -30 L269 703 L342 703 L85 -30 Z " />
<glyph glyph-name="zero" unicode="0" horiz-adv-x="575" d="M542 341 Q542 276 529.5 213.5 Q517 151 487.5 102 Q458 53 409.5 23 Q361 -7 290 -7 Q211 -7 160.5 22 Q110 51 81.5 99.5 Q53 148 42 210.5 Q31 273 31 339 Q31 400 42 464 Q53 528 82 579.5 Q111 631 161.5 664 Q212 697 290 697 Q370 697 419.5 663 Q469 629 496 577 Q523 525 532.5 462 Q542 399 542 341 Z M435 339 Q435 381 431 430 Q427 479 412.5 520 Q398 561 369 588.5 Q340 616 290 616 Q240 616 210 589.5 Q180 563 164 522 Q148 481 143.5 431.5 Q139 382 139 337 Q139 280 145 231.5 Q151 183 167.5 147.5 Q184 112 213.5 92 Q243 72 290 72 Q334 72 362 94.5 Q390 117 406.5 154.5 Q423 192 429 240 Q435 288 435 339 Z " />
<glyph glyph-name="one" unicode="1" horiz-adv-x="575" d="M97 75 L241 75 L241 588 L87 567 L74 627 L252 686 L347 686 L347 75 L485 75 L485 0 L97 0 L97 75 Z " />
<glyph glyph-name="two" unicode="2" horiz-adv-x="575" d="M188 75 L422 75 L422 159 L506 159 L506 0 L41 0 L41 68 Q72 96 108 129.5 Q144 163 180.5 199 Q217 235 251 273 Q285 311 311 349 Q337 387 353 423.5 Q369 460 369 493 Q369 554 334 582 Q299 610 242 610 Q215 610 171.5 600.5 Q128 591 74 557 L40 621 Q103 667 161.5 682 Q220 697 264 697 Q312 697 351.5 684.5 Q391 672 419 647.5 Q447 623 462.5 586.5 Q478 550 478 501 Q478 441 447.5 382 Q417 323 372.5 268.5 Q328 214 277 166 Q226 118 186 80 L188 75 Z " />
<glyph glyph-name="three" unicode="3" horiz-adv-x="575" d="M73 685 L477 685 L493 623 L298 423 L301 415 Q345 410 383 398.5 Q421 387 449 364.5 Q477 342 493 306.5 Q509 271 509 219 Q509 161 488.5 118.5 Q468 76 433 47.5 Q398 19 352 5 Q306 -9 254 -9 Q196 -9 142.5 1 Q89 11 44 34 L70 107 Q163 76 234 76 Q309 76 354.5 109 Q400 142 400 217 Q400 277 356.5 310.5 Q313 344 227 344 Q214 344 202 343 Q190 342 176 340 L159 400 L354 601 Q353 603 352 604.5 Q351 606 350 608 L156 608 L156 521 L73 521 L73 685 Z " />
<glyph glyph-name="four" unicode="4" horiz-adv-x="575" d="M447 191 L447 75 L517 75 L517 0 L277 0 L277 75 L345 75 L345 191 L31 191 L31 260 L334 686 L447 686 L447 265 L544 265 L544 191 L447 191 Z M340 565 Q286 490 234.5 415 Q183 340 128 265 L346 265 L346 565 L340 565 Z " />
<glyph glyph-name="five" unicode="5" horiz-adv-x="575" d="M399 608 L197 608 L185 416 Q195 420 221 426.5 Q247 433 286 433 Q331 433 372 420.5 Q413 408 444.5 382.5 Q476 357 494.5 316.5 Q513 276 513 221 Q513 163 493 119.5 Q473 76 438.5 47.5 Q404 19 358.5 5 Q313 -9 263 -9 Q212 -9 155 0.5 Q98 10 49 35 L74 108 Q131 90 170.5 83.5 Q210 77 241 77 Q317 77 361.5 112 Q406 147 406 220 Q406 254 394 279.5 Q382 305 361.5 322 Q341 339 314 347.5 Q287 356 257 356 Q230 356 202 349.5 Q174 343 148 329 L89 364 L111 686 L482 686 L482 537 L399 537 L399 608 Z " />
<glyph glyph-name="six" unicode="6" horiz-adv-x="575" d="M159 384 Q197 404 236 417.5 Q275 431 322 431 Q362 431 398.5 419 Q435 407 463 381 Q491 355 508 315 Q525 275 525 219 Q525 165 508 123 Q491 81 460 52 Q429 23 386 8 Q343 -7 292 -7 Q222 -7 175 18 Q128 43 100 86 Q72 129 60.5 187.5 Q49 246 49 313 Q49 395 65 465.5 Q81 536 115 587.5 Q149 639 201.5 668 Q254 697 327 697 Q380 697 417.5 686.5 Q455 676 474 667 L455 594 Q418 608 386.5 612.5 Q355 617 332 617 Q280 617 246.5 592 Q213 567 193 531.5 Q173 496 164.5 456.5 Q156 417 154 387 L159 384 Z M299 354 Q270 354 245 347 Q220 340 201 331.5 Q182 323 170.5 315.5 Q159 308 156 306 L156 285 Q156 253 160.5 216 Q165 179 179 147 Q193 115 220.5 93.5 Q248 72 293 72 Q357 72 390 112 Q423 152 423 215 Q423 245 417 270.5 Q411 296 396.5 314.5 Q382 333 358 343.5 Q334 354 299 354 Z " />
<glyph glyph-name="seven" unicode="7" horiz-adv-x="575" d="M79 686 L501 686 L501 615 L231 0 L130 0 L396 608 L164 608 L164 512 L79 512 L79 686 Z " />
<glyph glyph-name="eight" unicode="8" horiz-adv-x="575" d="M181 520 Q181 496 192.5 478.5 Q204 461 223.5 446.5 Q243 432 269 420 Q295 408 325 396 Q371 429 389.5 457.5 Q408 486 408 515 Q408 532 401.5 550 Q395 568 381 583 Q367 598 345 607.5 Q323 617 292 617 Q262 617 240.5 607 Q219 597 206 582 Q193 567 187 550 Q181 533 181 520 Z M286 71 Q350 71 385.5 105 Q421 139 421 190 Q421 217 409 237.5 Q397 258 374 275 Q351 292 317.5 307.5 Q284 323 242 341 Q215 323 198 303.5 Q181 284 170.5 263.5 Q160 243 156 223 Q152 203 152 184 Q152 137 185.5 104 Q219 71 286 71 Z M506 525 Q506 507 502 487.5 Q498 468 487.5 447 Q477 426 458.5 404 Q440 382 411 360 Q459 334 492 291 Q525 248 525 185 Q525 144 508 108.5 Q491 73 459.5 47 Q428 21 383 6.5 Q338 -8 283 -8 Q168 -8 106.5 42 Q45 92 45 175 Q45 200 51 227.5 Q57 255 71 282.5 Q85 310 108 335 Q131 360 165 380 Q121 407 100 438.5 Q79 470 79 518 Q79 556 94.5 589 Q110 622 138.5 646 Q167 670 206.5 683.5 Q246 697 294 697 Q330 697 368 687.5 Q406 678 436.5 657.5 Q467 637 486.5 604 Q506 571 506 525 Z " />
<glyph glyph-name="nine" unicode="9" horiz-adv-x="575" d="M408 305 Q376 286 336.5 271.5 Q297 257 245 257 Q204 257 167 269 Q130 281 102.5 307 Q75 333 58.5 373.5 Q42 414 42 470 Q42 524 59.5 566 Q77 608 108 637 Q139 666 182 681.5 Q225 697 276 697 Q345 697 391.5 672 Q438 647 466 603.5 Q494 560 506 501.5 Q518 443 518 376 Q518 294 502 224 Q486 154 452 102.5 Q418 51 365.5 22 Q313 -7 241 -7 Q187 -7 146 3 Q105 13 86 22 L105 94 Q141 81 176.5 76.5 Q212 72 236 72 Q270 72 296 84 Q322 96 341.5 115 Q361 134 374 158.5 Q387 183 395.5 208.5 Q404 234 408 258.5 Q412 283 413 302 L408 305 Z M268 334 Q298 334 323.5 340.5 Q349 347 367.5 355.5 Q386 364 397 372 Q408 380 411 382 L411 404 Q411 435 406.5 471.5 Q402 508 388 539.5 Q374 571 346.5 592 Q319 613 274 613 Q210 613 177.5 574.5 Q145 536 145 473 Q145 443 151 418 Q157 393 171 374 Q185 355 209 344.5 Q233 334 268 334 Z " />
<glyph glyph-name="colon" unicode="&#x3a;" horiz-adv-x="228" d="M179 55 Q179 28 160 9 Q141 -10 115 -10 Q88 -10 68.5 9 Q49 28 49 55 Q49 82 68.5 101 Q88 120 114 120 Q141 120 160 101 Q179 82 179 55 Z M179 360 Q179 332 160 313 Q141 294 115 294 Q88 294 68.5 313 Q49 332 49 360 Q49 386 68.5 405 Q88 424 114 424 Q141 424 160 405 Q179 386 179 360 Z " />
<glyph glyph-name="semicolon" unicode="&#x3b;" horiz-adv-x="228" d="M179 360 Q179 332 160 313 Q141 294 115 294 Q88 294 68.5 313 Q49 332 49 360 Q49 386 68.5 405 Q88 424 114 424 Q141 424 160 405 Q179 386 179 360 Z M50 56 Q50 80 67.5 98.5 Q85 117 114 117 Q147 117 165 95 Q183 73 183 42 Q183 -4 154 -52.5 Q125 -101 73 -134 L46 -101 Q70 -77 82.5 -52.5 Q95 -28 98 -1 Q71 1 60.5 18 Q50 35 50 56 Z " />
<glyph glyph-name="less" unicode="&#x3c;" horiz-adv-x="575" d="M500 61 L82 269 L82 326 L500 534 L500 454 L172 298 L500 140 L500 61 Z " />
<glyph glyph-name="equal" unicode="&#x3d;" horiz-adv-x="575" d="M81 343 L81 411 L493 411 L493 343 L81 343 Z M81 191 L81 258 L493 258 L493 191 L81 191 Z " />
<glyph glyph-name="greater" unicode="&#x3e;" horiz-adv-x="575" d="M82 140 L410 298 L82 454 L82 534 L500 326 L500 269 L82 61 L82 140 Z " />
<glyph glyph-name="question" unicode="&#x3f;" horiz-adv-x="464" d="M235 706 Q327 706 380.5 669 Q434 632 434 567 Q434 533 418.5 503.5 Q403 474 380 447.5 Q357 421 330 396.5 Q303 372 280 347 Q257 322 241.5 296.5 Q226 271 226 242 Q226 228 227.5 213 Q229 198 231 179 Q209 177 189 175.5 Q169 174 147 172 Q142 198 139.5 219.5 Q137 241 137 256 Q137 287 147 313 Q157 339 174 362.5 Q191 386 214.5 409 Q238 432 265 458 Q291 483 306.5 503.5 Q322 524 322 552 Q322 590 293.5 606.5 Q265 623 221 623 Q198 623 173 619.5 Q148 616 122 608 L122 521 L42 521 L42 672 Q94 690 145 698 Q196 706 235 706 Z M267 47 Q267 23 249 6.5 Q231 -10 206 -10 Q180 -10 162 6.5 Q144 23 144 47 Q144 72 161.5 89.5 Q179 107 205 107 Q231 107 249 89.5 Q267 72 267 47 Z " />
<glyph glyph-name="at" unicode="&#x40;" horiz-adv-x="897" d="M512 343 Q488 340 462 338.5 Q436 337 415 331.5 Q394 326 380.5 314 Q367 302 367 279 Q367 251 380.5 235.5 Q394 220 426 220 Q468 220 512 258 L512 343 Z M465 694 Q547 694 612.5 670.5 Q678 647 724 603.5 Q770 560 794 499 Q818 438 818 364 Q817 314 802 275.5 Q787 237 761.5 211 Q736 185 703.5 172 Q671 159 636 159 Q620 159 603 162 Q586 165 570.5 172.5 Q555 180 542.5 191.5 Q530 203 524 220 Q501 196 465.5 180.5 Q430 165 393 165 Q360 165 339 176 Q318 187 306.5 202.5 Q295 218 290.5 236.5 Q286 255 286 270 Q286 310 306.5 332 Q327 354 360 365 Q393 376 433 379.5 Q473 383 512 386 L512 408 Q512 450 497.5 465.5 Q483 481 441 481 Q388 481 331 463 Q327 475 323.5 488 Q320 501 316 514 Q348 528 385 535.5 Q422 543 459 543 Q516 543 551 516 Q586 489 586 422 L586 271 Q586 246 601.5 230.5 Q617 215 649 215 Q665 215 684 223 Q703 231 719 248.5 Q735 266 745.5 294 Q756 322 756 361 Q756 425 735.5 476.5 Q715 528 677.5 564 Q640 600 586 619 Q532 638 465 638 Q397 638 337 615 Q277 592 232.5 551.5 Q188 511 162 455.5 Q136 400 136 336 Q136 270 159 214.5 Q182 159 222.5 118 Q263 77 318.5 54 Q374 31 439 31 Q466 31 497 35.5 Q528 40 566 52 Q571 40 575 28 Q579 16 584 3 Q554 -10 515.5 -17 Q477 -24 440 -24 Q357 -24 289.5 3 Q222 30 174.5 77.5 Q127 125 101 190.5 Q75 256 75 333 Q75 411 105.5 477.5 Q136 544 189 592 Q242 640 313 667 Q384 694 465 694 Z " />
<glyph glyph-name="A" unicode="A" horiz-adv-x="697" d="M510 76 Q502 102 492 133.5 Q482 165 474 189 L217 189 Q210 168 200 136 Q190 104 182 76 L250 76 L250 0 L20 0 L20 76 L76 76 Q100 148 126.5 226 Q153 304 180 382.5 Q207 461 233 538.5 Q259 616 283 686 L420 686 Q469 537 521 381 Q573 225 622 76 L678 76 L678 0 L444 0 L444 76 L510 76 Z M451 265 Q431 333 410 399.5 Q389 466 367 534 Q363 549 358.5 564 Q354 579 349 594 L347 594 Q345 590 342 578 Q339 566 328 533 Q319 506 308 471.5 Q297 437 285 400.5 Q273 364 262 328.5 Q251 293 243 265 L451 265 Z " />
<glyph glyph-name="B" unicode="B" horiz-adv-x="648" d="M44 608 L44 685 L358 685 Q473 685 529 638.5 Q585 592 585 507 Q585 492 582 472.5 Q579 453 569 432.5 Q559 412 541 392.5 Q523 373 493 359 L493 358 Q526 348 547.5 329.5 Q569 311 582 288 Q595 265 600.5 239.5 Q606 214 606 190 Q606 146 590 111 Q574 76 546 51.5 Q518 27 481 13.5 Q444 0 401 0 L40 0 L40 76 L110 76 L110 608 L44 608 Z M493 196 Q493 220 485 241.5 Q477 263 461.5 279.5 Q446 296 422 306 Q398 316 366 316 L221 316 L221 76 L366 76 Q400 76 424 85.5 Q448 95 463.5 111.5 Q479 128 486 150 Q493 172 493 196 Z M474 499 Q474 547 445 577.5 Q416 608 351 608 L221 608 L221 392 L351 392 Q411 392 442.5 421.5 Q474 451 474 499 Z " />
<glyph glyph-name="C" unicode="C" horiz-adv-x="593" d="M165 341 Q165 281 175 233 Q185 185 209.5 151 Q234 117 275.5 99 Q317 81 380 81 Q393 81 412.5 82 Q432 83 454 86 Q476 89 499 93 Q522 97 542 103 L560 25 Q540 17 515.5 11 Q491 5 464 0.5 Q437 -4 409.5 -6.5 Q382 -9 357 -9 Q270 -9 211 17.5 Q152 44 116.5 90.5 Q81 137 65.5 201 Q50 265 50 340 Q50 397 63.5 460.5 Q77 524 112 576.5 Q147 629 208 663.5 Q269 698 364 698 Q420 698 464 690 Q508 682 542 670 L542 496 L462 496 L462 601 Q439 607 414 609.5 Q389 612 367 612 Q313 612 275 592.5 Q237 573 212.5 537.5 Q188 502 176.5 452 Q165 402 165 341 Z " />
<glyph glyph-name="D" unicode="D" horiz-adv-x="692" d="M42 0 L42 77 L112 77 L112 607 L46 607 L46 686 L350 686 Q437 686 493.5 658.5 Q550 631 583 584 Q616 537 629 475.5 Q642 414 642 345 Q642 275 627.5 212.5 Q613 150 578.5 102.5 Q544 55 486.5 27.5 Q429 0 343 0 L42 0 Z M224 607 L224 77 L330 77 Q355 77 389 84.5 Q423 92 453.5 119 Q484 146 505.5 198 Q527 250 527 339 Q527 429 507.5 482.5 Q488 536 459 563.5 Q430 591 396 599 Q362 607 334 607 L224 607 Z " />
<glyph glyph-name="E" unicode="E" horiz-adv-x="607" d="M42 0 L42 78 L110 78 L110 608 L44 608 L44 685 L563 685 L563 506 L482 506 L482 608 L220 608 L220 393 L463 398 L463 319 L220 323 L220 78 L495 78 L495 183 L577 183 L577 0 L42 0 Z " />
<glyph glyph-name="F" unicode="F" horiz-adv-x="587" d="M42 0 L42 77 L110 77 L110 608 L44 608 L44 685 L564 685 L564 506 L482 506 L482 608 L220 608 L220 393 L463 398 L463 319 L220 323 L220 77 L315 77 L315 0 L42 0 Z " />
<glyph glyph-name="G" unicode="G" horiz-adv-x="657" d="M377 698 Q433 698 480 690 Q527 682 561 670 L561 499 L481 499 L481 599 Q461 604 434 607.5 Q407 611 381 611 Q324 611 283.5 591.5 Q243 572 216.5 537 Q190 502 177.5 452 Q165 402 165 341 Q165 284 174.5 236 Q184 188 206.5 153.5 Q229 119 267 99.5 Q305 80 363 80 Q387 80 419 83.5 Q451 87 473 94 L473 286 L374 286 L374 361 L624 361 L624 286 L574 286 L574 25 Q520 8 464 -0.5 Q408 -9 356 -9 Q270 -9 211.5 17.5 Q153 44 117 90.5 Q81 137 65.5 201 Q50 265 50 340 Q50 397 63.5 460 Q77 523 113.5 576 Q150 629 213.5 663.5 Q277 698 377 698 Z " />
<glyph glyph-name="H" unicode="H" horiz-adv-x="739" d="M457 0 L457 77 L519 77 L519 321 L218 321 L218 77 L281 77 L281 0 L41 0 L41 77 L108 77 L108 608 L41 608 L41 685 L281 685 L281 608 L218 608 L218 395 L519 395 L519 608 L457 608 L457 685 L697 685 L697 608 L630 608 L630 77 L697 77 L697 0 L457 0 Z " />
<glyph glyph-name="I" unicode="I" horiz-adv-x="381" d="M70 0 L70 77 L135 77 L135 608 L70 608 L70 686 L311 686 L311 608 L245 608 L245 77 L311 77 L311 0 L70 0 Z " />
<glyph glyph-name="J" unicode="J" horiz-adv-x="393" d="M65 686 L340 686 L340 608 L263 608 L262 145 Q262 78 245.5 26 Q229 -26 196.5 -65 Q164 -104 116 -132 Q68 -160 5 -178 L-24 -107 Q30 -78 64.5 -51.5 Q99 -25 118.5 4.5 Q138 34 145 68.5 Q152 103 152 148 L152 608 L65 608 L65 686 Z " />
<glyph glyph-name="K" unicode="K" horiz-adv-x="678" d="M375 416 L603 77 L661 77 L661 0 L416 0 L415 77 L478 77 L296 349 L216 273 L216 76 L279 76 L279 0 L42 0 L42 76 L108 76 L108 611 L42 611 L42 685 L280 685 L280 611 L216 611 L216 372 L466 610 L403 610 L403 685 L640 685 L640 610 L582 610 L375 416 Z " />
<glyph glyph-name="L" unicode="L" horiz-adv-x="591" d="M42 0 L42 77 L110 77 L110 608 L44 608 L44 685 L293 685 L293 608 L221 608 L221 77 L500 77 L500 199 L582 199 L582 0 L42 0 Z " />
<glyph glyph-name="M" unicode="M" horiz-adv-x="910" d="M458 200 Q470 226 481.5 254 Q493 282 504 308 Q509 319 520.5 345 Q532 371 547 405.5 Q562 440 578.5 479 Q595 518 611 554 Q631 600 646.5 635.5 Q662 671 668 685 L874 685 L874 608 L812 608 L812 76 L874 76 L874 0 L640 0 L640 76 L701 76 L701 529 L699 529 Q689 506 679 482 Q669 458 659 435 Q643 398 627.5 361 Q612 324 595 287 Q572 237 550.5 187.5 Q529 138 507 87 L403 87 Q380 138 356.5 188.5 Q333 239 310 290 Q293 328 276.5 365.5 Q260 403 243 441 Q234 463 224 485 Q214 507 205 529 L202 529 Q202 415 201.5 302.5 Q201 190 201 76 L266 76 L266 0 L31 0 L31 76 L97 76 L97 608 L31 608 L31 685 L240 685 Q254 656 270.5 619.5 Q287 583 305 541 Q328 490 352 434.5 Q376 379 399 326 Q415 291 428.5 258.5 Q442 226 453 200 L458 200 Z " />
<glyph glyph-name="N" unicode="N" horiz-adv-x="770" d="M558 169 L558 608 L489 608 L489 685 L727 685 L727 608 L661 608 L661 0 L555 0 Q515 62 475 123 Q435 184 395 246 Q365 292 334.5 338.5 Q304 385 274 433 Q259 457 244 481.5 Q229 506 213 530 Q212 530 212 529.5 Q212 529 211 529 L211 76 L279 76 Q279 57 279.5 38 Q280 19 280 0 L40 0 Q40 19 39.5 38 Q39 57 39 76 L108 76 Q108 210 108.5 342 Q109 474 109 608 L40 608 L40 685 L226 685 Q274 610 309.5 553.5 Q345 497 374 453 Q383 439 399.5 412.5 Q416 386 434 358.5 Q452 331 466.5 308 Q481 285 485 278 Q502 251 519 224 Q536 197 553 169 L558 169 Z " />
<glyph glyph-name="O" unicode="O" horiz-adv-x="705" d="M655 342 Q655 267 636 203 Q617 139 579.5 91.5 Q542 44 486 17.5 Q430 -9 356 -9 Q275 -9 217 16 Q159 41 122 86.5 Q85 132 67.5 196 Q50 260 50 339 Q50 411 66.5 476 Q83 541 120 590 Q157 639 215 668 Q273 697 356 697 Q440 697 497.5 668 Q555 639 590 590.5 Q625 542 640 477.5 Q655 413 655 342 Z M539 339 Q539 388 532 437.5 Q525 487 505 526 Q485 565 449 589.5 Q413 614 356 614 Q299 614 262 591 Q225 568 203.5 529.5 Q182 491 173.5 441 Q165 391 165 338 Q165 209 209.5 141.5 Q254 74 356 74 Q404 74 438.5 94.5 Q473 115 495.5 150.5 Q518 186 528.5 234.5 Q539 283 539 339 Z " />
<glyph glyph-name="P" unicode="P" horiz-adv-x="598" d="M569 483 Q569 449 558 412.5 Q547 376 522.5 345.5 Q498 315 457.5 295 Q417 275 358 275 L217 275 L217 77 L304 77 L304 0 L42 0 L42 77 L107 77 L107 608 L42 608 L42 686 L347 686 Q451 686 510 633.5 Q569 581 569 483 Z M217 608 L217 351 L333 351 Q357 351 379 357.5 Q401 364 418 379 Q435 394 445 418.5 Q455 443 455 479 Q455 546 422 577 Q389 608 330 608 L217 608 Z " />
<glyph glyph-name="Q" unicode="Q" horiz-adv-x="706" d="M653 340 Q653 232 615 149 Q577 66 501 26 L657 -12 L622 -101 L355 -14 Q329 -12 305.5 -7.5 Q282 -3 262 2 Q150 31 100 116.5 Q50 202 50 339 Q50 411 66.5 476 Q83 541 119.5 590 Q156 639 214 668 Q272 697 355 697 Q439 697 496 668 Q553 639 588 590 Q623 541 638 476 Q653 411 653 340 Z M538 339 Q538 388 531 437 Q524 486 504 525.5 Q484 565 448.5 589.5 Q413 614 355 614 Q298 614 261 590.5 Q224 567 202.5 528.5 Q181 490 172.5 440 Q164 390 164 337 Q164 208 208.5 141 Q253 74 355 74 Q403 74 437.5 94 Q472 114 494.5 149.5 Q517 185 527.5 233.5 Q538 282 538 339 Z " />
<glyph glyph-name="R" unicode="R" horiz-adv-x="648" d="M460 491 Q460 523 450 545.5 Q440 568 423.5 582 Q407 596 384.5 602 Q362 608 338 608 L217 608 L217 369 L338 369 Q358 369 379.5 374 Q401 379 419 392.5 Q437 406 448.5 429.5 Q460 453 460 491 Z M217 294 L217 78 L294 78 L294 0 L43 0 L43 78 L107 78 L107 608 L43 608 L43 686 L356 686 Q461 686 518 636 Q575 586 575 492 Q575 468 569 441 Q563 414 548.5 388.5 Q534 363 510 342.5 Q486 322 451 311 L559 75 L633 65 L633 5 Q613 -3 586.5 -7 Q560 -11 543 -11 Q507 -11 490 5 Q473 21 459 51 L352 294 L217 294 Z " />
<glyph glyph-name="S" unicode="S" horiz-adv-x="575" d="M117 187 L118 105 Q155 88 193 81.5 Q231 75 264 75 Q303 75 332 85 Q361 95 380 110.5 Q399 126 408.5 146.5 Q418 167 418 188 Q418 219 406.5 238 Q395 257 374.5 269 Q354 281 326.5 289.5 Q299 298 266 307 Q220 317 180 332 Q140 347 110 368.5 Q80 390 62.5 421 Q45 452 45 495 Q46 544 65 581.5 Q84 619 116.5 644 Q149 669 192.5 682 Q236 695 287 695 Q309 695 335 693 Q361 691 387.5 686.5 Q414 682 440 673.5 Q466 665 488 653 L489 510 L408 510 L407 593 Q384 603 349.5 607 Q315 611 288 611 Q262 611 238.5 604.5 Q215 598 197.5 585 Q180 572 169.5 552.5 Q159 533 159 508 Q159 484 171.5 466.5 Q184 449 205 436 Q226 423 253.5 413.5 Q281 404 311 397 Q353 387 393.5 373.5 Q434 360 466 337.5 Q498 315 517.5 280.5 Q537 246 537 193 Q537 140 517.5 102 Q498 64 463 39 Q428 14 379 2.5 Q330 -9 271 -9 Q213 -9 152 2 Q91 13 38 41 Q38 77 37.5 113.5 Q37 150 37 187 L117 187 Z " />
<glyph glyph-name="T" unicode="T" horiz-adv-x="587" d="M158 0 L158 77 L240 77 L240 608 L95 608 L95 499 L15 499 L15 686 L573 686 L573 499 L492 499 L492 608 L349 608 L349 77 L431 77 L431 0 L158 0 Z " />
<glyph glyph-name="U" unicode="U" horiz-adv-x="728" d="M635 249 Q635 131 568.5 61.5 Q502 -8 363 -8 Q291 -8 239.5 9.5 Q188 27 155 60 Q122 93 106.5 141 Q91 189 91 249 L91 608 L32 608 L32 686 L267 686 L267 608 L199 608 L199 250 Q199 162 241.5 119 Q284 76 364 76 Q442 76 485 118 Q528 160 528 250 L528 608 L461 608 L461 686 L696 686 L696 608 L635 608 L635 249 Z " />
<glyph glyph-name="V" unicode="V" horiz-adv-x="672" d="M435 685 L663 685 L663 607 L603 607 Q553 455 504 303 Q455 151 404 0 L270 0 Q219 151 169 303 Q119 455 68 607 L9 607 L9 685 L243 685 Q243 665 242.5 646 Q242 627 242 607 L183 607 Q214 505 244 408.5 Q274 312 306 211 Q314 184 322 156.5 Q330 129 338 101 L342 101 Q350 129 358.5 156.5 Q367 184 375 213 Q406 311 435 409.5 Q464 508 494 607 L435 607 L435 685 Z " />
<glyph glyph-name="W" unicode="W" horiz-adv-x="966" d="M481 523 Q474 495 468.5 466.5 Q463 438 455 406 L358 0 L221 0 L70 606 L10 606 L10 686 L245 686 L245 606 L185 606 L292 137 L296 137 L421 686 L544 686 L671 137 L675 137 L780 606 L720 606 L720 686 L955 686 L955 606 L896 606 L744 0 L608 0 L511 406 Q504 435 497.5 464.5 Q491 494 485 523 L481 523 Z " />
<glyph glyph-name="X" unicode="X" horiz-adv-x="667" d="M408 686 L636 686 L636 607 L573 607 L401 352 L578 78 L644 78 L645 0 L386 0 L386 78 L449 78 L318 288 L184 78 L250 78 L250 0 L18 0 L18 78 L79 78 L262 356 L105 607 L33 607 L34 686 L288 686 L288 607 L230 607 L347 417 L468 607 L408 607 L408 686 Z " />
<glyph glyph-name="Y" unicode="Y" horiz-adv-x="621" d="M445 607 L386 607 L386 686 L610 686 L610 607 L554 607 L365 287 L365 77 L445 77 L445 0 L172 0 L172 77 L252 77 L252 284 L67 607 L12 607 L12 686 L239 686 L239 607 L181 607 L309 366 L313 366 L445 607 Z " />
<glyph glyph-name="Z" unicode="Z" horiz-adv-x="565" d="M156 78 L461 78 L461 199 L544 199 L544 0 L23 0 L23 76 L390 608 L129 608 L129 501 L47 501 L47 686 L524 686 L524 610 L156 78 Z " />
<glyph glyph-name="bracketleft" unicode="&#x5b;" horiz-adv-x="282" d="M58 -160 L58 698 L247 698 L247 633 L151 633 L151 -96 L247 -96 L247 -160 L58 -160 Z " />
<glyph glyph-name="backslash" unicode="&#x5c;" horiz-adv-x="349" d="M12 703 L84 703 L342 -30 L269 -30 L12 703 Z " />
<glyph glyph-name="bracketright" unicode="&#x5d;" horiz-adv-x="282" d="M35 -160 L35 -96 L132 -96 L132 633 L35 633 L35 698 L224 698 L224 -160 L35 -160 Z " />
<glyph glyph-name="asciicircum" unicode="&#x5e;" horiz-adv-x="461" d="M358 370 Q325 428 292.5 485.5 Q260 543 227 600 Q197 545 162.5 486.5 Q128 428 96 370 L20 370 Q65 448 110 525 Q155 602 200 680 L256 680 Q301 602 345 525 Q389 448 434 370 L358 370 Z " />
<glyph glyph-name="underscore" unicode="&#x5f;" horiz-adv-x="500" d="M0 -138 L0 -81 L500 -81 L500 -138 L0 -138 Z " />
<glyph glyph-name="grave" unicode="&#x60;" horiz-adv-x="503" d="M140 682 Q143 685 153.5 695.5 Q164 706 175 718 Q186 730 196.5 741 Q207 752 210 755 Q214 750 224.5 737 Q235 724 249 707.5 Q263 691 278 672.5 Q293 654 307 637.5 Q321 621 331.5 608 Q342 595 346 590 L301 544 L140 682 Z " />
<glyph glyph-name="a" unicode="a" horiz-adv-x="537" d="M230 220 Q188 217 166 195.5 Q144 174 144 143 Q144 104 163 85.5 Q182 67 225 67 Q252 67 283.5 81 Q315 95 339 118 L339 228 L230 220 Z M442 75 L518 75 L524 15 Q514 9 499 5 Q484 1 468 -1.5 Q452 -4 437 -5 Q422 -6 412 -6 Q383 -6 364.5 5 Q346 16 345 55 Q344 55 344 55.5 Q344 56 343 56 Q316 32 291 19 Q266 6 244.5 -0.5 Q223 -7 206 -8 Q189 -9 178 -9 Q134 -9 106 5 Q78 19 61.5 40 Q45 61 39 86 Q33 111 33 132 Q33 162 43.5 187 Q54 212 77 231 Q100 250 136 262.5 Q172 275 223 278 L341 286 L341 315 Q341 370 320 393 Q299 416 243 416 Q207 416 167.5 409 Q128 402 93 390 Q88 407 83 424 Q78 441 73 458 Q115 477 167.5 487 Q220 497 268 497 Q350 497 396 460.5 Q442 424 442 332 L442 75 Z " />
<glyph glyph-name="b" unicode="b" horiz-adv-x="568" d="M299 -8 Q251 -8 191 3 Q131 14 77 39 L77 637 L2 637 L2 713 L184 713 L184 458 Q226 481 262.5 491 Q299 501 328 501 Q384 501 421.5 481.5 Q459 462 481 427.5 Q503 393 512 346 Q521 299 521 243 Q521 192 510.5 146.5 Q500 101 474.5 66.5 Q449 32 406 12 Q363 -8 299 -8 Z M306 419 Q274 419 242 407 Q210 395 184 381 L184 93 Q213 81 241 76.5 Q269 72 292 72 Q320 72 342 80 Q364 88 380 107.5 Q396 127 404.5 159.5 Q413 192 413 241 Q413 296 405 330.5 Q397 365 382.5 384.5 Q368 404 348.5 411.5 Q329 419 306 419 Z " />
<glyph glyph-name="c" unicode="c" horiz-adv-x="471" d="M272 500 Q313 500 351 493.5 Q389 487 421 474 L421 337 L345 337 L345 408 Q336 410 323.5 411.5 Q311 413 302 413 Q220 413 183.5 372.5 Q147 332 147 241 Q147 155 180.5 114 Q214 73 279 73 Q316 73 350 80 Q384 87 419 101 Q425 84 430.5 66 Q436 48 442 31 Q408 12 361.5 2 Q315 -8 266 -8 Q200 -8 156.5 11 Q113 30 87 63.5 Q61 97 50.5 142 Q40 187 40 239 Q40 279 49 325 Q58 371 83.5 410 Q109 449 154.5 474.5 Q200 500 272 500 Z " />
<glyph glyph-name="d" unicode="d" horiz-adv-x="572" d="M381 45 Q350 20 308.5 6 Q267 -8 231 -8 Q177 -8 140 11.5 Q103 31 81 64 Q59 97 49.5 141 Q40 185 40 235 Q40 292 51 340.5 Q62 389 86 424.5 Q110 460 148.5 480.5 Q187 501 243 501 Q270 501 306.5 494.5 Q343 488 377 470 L377 637 L299 637 L299 713 L484 713 L484 75 L557 75 L557 0 L383 0 L383 44 L381 45 Z M264 419 Q241 419 220 411 Q199 403 183 382.5 Q167 362 157.5 326.5 Q148 291 148 236 Q148 188 156.5 156.5 Q165 125 180 106.5 Q195 88 215.5 80.5 Q236 73 260 73 Q292 73 325.5 87.5 Q359 102 377 118 L377 387 Q369 393 356 398.5 Q343 404 327.5 408.5 Q312 413 295.5 416 Q279 419 264 419 Z " />
<glyph glyph-name="e" unicode="e" horiz-adv-x="505" d="M264 422 Q235 422 214 410.5 Q193 399 179.5 380.5 Q166 362 158.5 338.5 Q151 315 150 291 L368 291 Q367 318 362 341.5 Q357 365 345 383 Q333 401 313.5 411.5 Q294 422 264 422 Z M265 500 Q336 500 376.5 473.5 Q417 447 437.5 409.5 Q458 372 463 332 Q468 292 468 265 L468 217 L148 217 Q148 184 154 157 Q160 130 175 111 Q190 92 215.5 81.5 Q241 71 279 71 Q321 71 356 79 Q391 87 431 104 L458 37 Q412 13 363.5 2 Q315 -9 266 -9 Q197 -9 153.5 12 Q110 33 84.5 68 Q59 103 49.5 148.5 Q40 194 40 243 Q40 279 49 323.5 Q58 368 83 407.5 Q108 447 152 473.5 Q196 500 265 500 Z " />
<glyph glyph-name="f" unicode="f" horiz-adv-x="383" d="M29 75 L97 75 L97 413 L28 413 L28 473 L98 492 L98 565 Q98 636 137.5 679 Q177 722 267 722 Q290 722 322 719 Q354 716 383 708 L368 633 Q348 636 327.5 638 Q307 640 291 640 Q247 640 224 623 Q201 606 201 563 L201 489 L344 489 L344 413 L201 413 L201 75 L283 75 L283 0 L29 0 L29 75 Z " />
<glyph glyph-name="g" unicode="g" horiz-adv-x="540" d="M441 428 Q457 410 465.5 382 Q474 354 474 326 Q474 285 457.5 254 Q441 223 412.5 201.5 Q384 180 345 168.5 Q306 157 260 157 L205 157 Q170 157 152 150 Q134 143 134 123 Q134 92 180 92 L312 92 Q403 92 454 55.5 Q505 19 505 -54 Q505 -89 489.5 -118.5 Q474 -148 441.5 -170 Q409 -192 360.5 -204.5 Q312 -217 246 -217 Q183 -217 141.5 -205.5 Q100 -194 75 -175.5 Q50 -157 40 -132 Q30 -107 30 -80 Q30 -38 50.5 -8 Q71 22 94 35 Q65 41 50 61 Q35 81 35 110 Q35 131 43 145.5 Q51 160 63 170 Q75 180 89.5 186 Q104 192 118 195 Q91 207 70 237.5 Q49 268 49 322 Q49 370 67 404 Q85 438 114.5 459.5 Q144 481 181.5 491 Q219 501 257 501 Q283 501 308.5 497.5 Q334 494 354 489 L519 489 L519 430 L444 430 L441 428 Z M187 21 Q178 18 168.5 10 Q159 2 151.5 -8.5 Q144 -19 139.5 -31.5 Q135 -44 135 -56 Q135 -71 140.5 -86 Q146 -101 160 -112 Q174 -123 198.5 -130 Q223 -137 262 -137 Q328 -137 361.5 -114.5 Q395 -92 395 -56 Q395 -42 390 -28.5 Q385 -15 373 -4 Q361 7 341.5 14 Q322 21 293 21 L187 21 Z M366 327 Q366 342 361 359 Q356 376 344 390.5 Q332 405 311.5 414.5 Q291 424 260 424 Q209 424 183 397.5 Q157 371 157 326 Q157 282 182 257 Q207 232 252 232 Q301 232 333.5 255.5 Q366 279 366 327 Z " />
<glyph glyph-name="h" unicode="h" horiz-adv-x="608" d="M90 0 L90 637 L20 637 L20 713 L196 713 L196 445 Q238 471 282 485.5 Q326 500 364 500 Q417 500 447 482.5 Q477 465 491.5 440 Q506 415 509.5 386.5 Q513 358 513 337 L513 76 L587 76 L587 13 Q566 3 537 -1.5 Q508 -6 488 -6 Q458 -6 442 5 Q426 16 418 31 Q410 46 408.5 60.5 Q407 75 407 83 L407 317 Q407 342 404 360 Q401 378 393 390 Q385 402 369 408 Q353 414 328 414 Q297 414 260.5 400 Q224 386 196 369 L196 0 L90 0 Z " />
<glyph glyph-name="i" unicode="i" horiz-adv-x="315" d="M53 412 L53 488 L210 488 L210 77 L282 77 L282 13 Q261 3 233.5 -2 Q206 -7 186 -7 Q143 -7 124 10.5 Q105 28 104 72 L104 412 L53 412 Z M220 625 Q220 598 200.5 578.5 Q181 559 153 559 Q126 559 107 578.5 Q88 598 88 625 Q88 653 107 672 Q126 691 153 691 Q181 691 200.5 672 Q220 653 220 625 Z " />
<glyph glyph-name="j" unicode="j" horiz-adv-x="300" d="M37 488 L209 488 L209 41 Q209 -14 199 -56 Q189 -98 166 -130 Q143 -162 105 -186.5 Q67 -211 11 -230 L-21 -162 Q19 -138 43.5 -117 Q68 -96 81 -73.5 Q94 -51 98.5 -25 Q103 1 103 34 L103 412 L37 412 L37 488 Z M215 625 Q215 598 195 578.5 Q175 559 149 559 Q121 559 102 578.5 Q83 598 83 625 Q83 653 102 672 Q121 691 149 691 Q175 691 195 672 Q215 653 215 625 Z " />
<glyph glyph-name="k" unicode="k" horiz-adv-x="558" d="M303 488 L515 488 L515 416 L470 416 L339 304 L481 72 Q497 70 513 67.5 Q529 65 545 63 L545 6 Q526 -1 503.5 -4 Q481 -7 465 -7 Q445 -7 426.5 -1 Q408 5 393 30 L264 247 Q247 233 231.5 219 Q216 205 199 191 L199 71 L261 71 L261 0 L25 0 L25 71 L93 71 L93 640 L18 640 L18 711 L199 711 L199 289 L347 416 L303 416 L303 488 Z " />
<glyph glyph-name="l" unicode="l" horiz-adv-x="320" d="M218 75 L287 75 L287 0 L44 0 L44 75 L112 75 L112 637 L37 637 L37 713 L218 713 L218 75 Z " />
<glyph glyph-name="m" unicode="m" horiz-adv-x="905" d="M365 498 Q449 498 484 437 Q502 450 524 461.5 Q546 473 569 481 Q592 489 615 494 Q638 499 659 499 Q709 499 739 484.5 Q769 470 785 446 Q801 422 806 392.5 Q811 363 811 333 L811 76 L879 76 L879 13 Q857 3 831 -1.5 Q805 -6 785 -6 Q740 -6 723.5 11 Q707 28 705 64 L705 313 Q705 362 689.5 385.5 Q674 409 624 409 Q610 409 593.5 406 Q577 403 560 398 Q543 393 527 386 Q511 379 499 371 Q503 355 503.5 338.5 Q504 322 504 310 L504 0 L398 0 L398 326 Q398 374 377 391.5 Q356 409 322 409 Q293 409 259 396.5 Q225 384 199 367 L199 0 L92 0 L92 412 L20 412 L20 489 L196 489 L196 446 Q197 445 198 444.5 Q199 444 200 443 Q241 470 284.5 484 Q328 498 365 498 Z " />
<glyph glyph-name="n" unicode="n" horiz-adv-x="611" d="M365 500 Q418 500 448 482.5 Q478 465 492.5 440 Q507 415 510.5 386.5 Q514 358 514 337 L514 76 L588 76 L588 13 Q567 3 538 -1.5 Q509 -6 489 -6 Q459 -6 443 3.5 Q427 13 419 26 Q411 39 409.5 52 Q408 65 408 73 L408 317 Q408 342 405 360 Q402 378 394 390 Q386 402 370 408 Q354 414 329 414 Q298 414 261.5 400 Q225 386 197 369 L197 0 L91 0 L91 413 L21 413 L21 489 L197 489 L197 446 L202 445 Q244 472 286 486 Q328 500 365 500 Z " />
<glyph glyph-name="o" unicode="o" horiz-adv-x="538" d="M498 244 Q498 195 486 149.5 Q474 104 446.5 69 Q419 34 374.5 13 Q330 -8 264 -8 Q202 -8 159.5 12 Q117 32 90.5 66.5 Q64 101 52 146 Q40 191 40 242 Q40 292 53 338.5 Q66 385 94 420.5 Q122 456 166 477.5 Q210 499 272 499 Q335 499 378.5 477.5 Q422 456 448.5 421 Q475 386 486.5 339.5 Q498 293 498 244 Z M389 242 Q389 273 384.5 304.5 Q380 336 367.5 361.5 Q355 387 332.5 403 Q310 419 274 419 Q237 419 213 403.5 Q189 388 175 363 Q161 338 155.5 306.5 Q150 275 150 242 Q150 208 154.5 177 Q159 146 172 122.5 Q185 99 208.5 85 Q232 71 271 71 Q307 71 330 86 Q353 101 366 125 Q379 149 384 179.5 Q389 210 389 242 Z " />
<glyph glyph-name="p" unicode="p" horiz-adv-x="568" d="M16 -134 L89 -134 L89 412 L16 412 L16 488 L189 488 L189 443 L191 442 Q221 467 263 481.5 Q305 496 341 496 Q396 496 432.5 476.5 Q469 457 491.5 424 Q514 391 523.5 346.5 Q533 302 533 253 Q533 196 522 148 Q511 100 487 65 Q463 30 424 10 Q385 -10 329 -10 Q303 -10 266.5 -3 Q230 4 195 22 L195 -134 L273 -134 L273 -210 L16 -210 L16 -134 Z M309 74 Q331 74 352 81.5 Q373 89 389 108.5 Q405 128 414.5 163 Q424 198 424 252 Q424 300 415.5 330.5 Q407 361 392.5 379 Q378 397 357.5 403.5 Q337 410 313 410 Q297 410 280 406 Q263 402 247 395.5 Q231 389 217.5 381 Q204 373 195 365 L195 107 Q204 101 217 95 Q230 89 245.5 84.5 Q261 80 277.5 77 Q294 74 309 74 Z " />
<glyph glyph-name="q" unicode="q" horiz-adv-x="566" d="M304 -134 L385 -134 L385 31 Q343 8 306.5 -1.5 Q270 -11 241 -11 Q187 -11 149.5 7 Q112 25 89.5 58 Q67 91 57 136.5 Q47 182 48 237 Q49 289 60.5 336 Q72 383 98.5 419 Q125 455 169 476 Q213 497 279 497 Q327 497 383.5 486.5 Q440 476 491 453 L491 -134 L565 -134 L565 -210 L304 -210 L304 -134 Z M263 76 Q295 76 327 87 Q359 98 385 112 L385 395 Q359 406 332.5 410 Q306 414 282 414 Q226 414 191.5 376 Q157 338 156 243 Q155 191 163 158.5 Q171 126 185.5 107.5 Q200 89 220 82.5 Q240 76 263 76 Z " />
<glyph glyph-name="r" unicode="r" horiz-adv-x="416" d="M208 419 Q223 432 244 446.5 Q265 461 289 473 Q313 485 338 493 Q363 501 386 501 Q400 501 407 493.5 Q414 486 414 467 Q414 447 406 419 Q398 391 381 373 L207 372 L207 75 L280 75 L280 0 L32 0 L32 75 L100 75 L100 413 L34 413 L34 489 L205 489 L205 420 L208 419 Z " />
<glyph glyph-name="s" unicode="s" horiz-adv-x="464" d="M107 149 Q108 134 108.5 118.5 Q109 103 110 87 Q130 76 158 71.5 Q186 67 209 67 Q254 67 285.5 81.5 Q317 96 317 132 Q317 150 309.5 162 Q302 174 289 182.5 Q276 191 258.5 197 Q241 203 222 209 Q188 219 155 229 Q122 239 96 255 Q70 271 54 294.5 Q38 318 38 355 Q38 393 52.5 420 Q67 447 92.5 464.5 Q118 482 153.5 490.5 Q189 499 231 499 Q274 499 316.5 490.5 Q359 482 392 462 Q392 433 392.5 403.5 Q393 374 394 344 L315 344 Q314 361 314 376.5 Q314 392 313 409 Q279 423 238 423 Q200 423 173.5 408.5 Q147 394 147 359 Q147 344 156.5 333.5 Q166 323 180.5 315.5 Q195 308 211 303 Q227 298 241 294 Q271 285 304 275.5 Q337 266 364.5 249 Q392 232 409.5 204.5 Q427 177 427 132 Q427 96 412 69.5 Q397 43 369.5 26 Q342 9 303 0.5 Q264 -8 217 -8 Q174 -8 123 -0.5 Q72 7 32 30 Q31 59 31 89.5 Q31 120 30 149 L107 149 Z " />
<glyph glyph-name="t" unicode="t" horiz-adv-x="391" d="M194 618 L194 489 L339 489 L339 413 L193 413 L193 158 Q193 139 195.5 124.5 Q198 110 205 100 Q212 90 225 84.5 Q238 79 260 79 Q277 79 299.5 82 Q322 85 350 93 L366 21 Q337 8 301.5 1 Q266 -6 235 -6 Q193 -6 164.5 3 Q136 12 119 29 Q102 46 95 70 Q88 94 88 124 L88 413 L18 413 L18 473 L93 496 L123 609 L194 618 Z " />
<glyph glyph-name="u" unicode="u" horiz-adv-x="601" d="M238 -11 Q191 -11 162.5 2 Q134 15 118.5 37 Q103 59 97.5 87 Q92 115 92 145 L92 412 L22 412 L22 489 L199 489 L199 163 Q199 142 201 126 Q203 110 210.5 99 Q218 88 232 82.5 Q246 77 270 77 Q294 77 330.5 89 Q367 101 400 132 L400 412 L337 412 L337 489 L507 489 L507 76 L576 76 L576 13 Q548 2 522 -2 Q496 -6 479 -6 Q442 -6 424.5 7.5 Q407 21 403 57 Q358 16 314 2.5 Q270 -11 238 -11 Z " />
<glyph glyph-name="v" unicode="v" horiz-adv-x="549" d="M15 489 L211 489 L211 411 L168 411 L227 230 Q238 196 250 158 Q262 120 272 86 L276 86 Q287 128 300.5 167.5 Q314 207 327 246 L381 411 L339 411 L339 489 L533 489 L533 411 L486 411 L338 0 L208 0 L61 411 L15 411 L15 489 Z " />
<glyph glyph-name="w" unicode="w" horiz-adv-x="820" d="M407 349 Q401 323 394.5 295 Q388 267 377 227 L317 0 L182 0 L58 410 L12 410 L12 489 L209 489 L209 410 L167 410 L249 98 L253 98 L357 489 L468 489 L571 94 L575 94 L653 410 L611 410 L611 489 L808 489 L808 410 L762 410 L639 0 L504 0 L445 224 Q426 294 413 349 L407 349 Z " />
<glyph glyph-name="x" unicode="x" horiz-adv-x="505" d="M252 309 L320 413 L288 413 L288 490 L483 490 L483 413 L438 413 L312 250 L447 75 L495 75 L495 0 L291 0 L291 75 L324 75 L252 188 L178 75 L214 75 L214 0 L10 0 L10 75 L56 75 L192 249 L69 413 L23 413 L23 490 L216 490 L216 413 L185 413 L252 309 Z " />
<glyph glyph-name="y" unicode="y" horiz-adv-x="561" d="M20 488 L226 488 L226 411 L172 411 L241 183 Q249 155 257.5 128.5 Q266 102 274 75 L278 75 Q280 83 289 111 Q298 139 310 175 L388 411 L333 411 L333 488 L537 488 L537 411 L489 411 L307 -115 Q287 -173 254 -193.5 Q221 -214 168 -214 Q145 -214 115.5 -210 Q86 -206 53 -196 L70 -111 Q92 -116 111.5 -118.5 Q131 -121 148 -121 Q178 -121 193.5 -112.5 Q209 -104 219 -78 L250 6 L199 6 L69 411 L20 411 L20 488 Z " />
<glyph glyph-name="z" unicode="z" horiz-adv-x="475" d="M157 73 L369 73 L369 148 L446 148 L446 0 L26 0 L26 67 L306 415 L121 415 L121 338 L45 338 L45 489 L437 489 L437 423 L157 73 Z " />
<glyph glyph-name="braceleft" unicode="&#x7b;" horiz-adv-x="291" d="M203 -168 Q168 -168 147.5 -158 Q127 -148 115.5 -130.5 Q104 -113 100.5 -89.5 Q97 -66 97 -39 L97 162 Q97 200 82 228.5 Q67 257 29 262 L29 319 Q67 326 82 354 Q97 382 97 425 L97 558 Q97 581 99.5 606.5 Q102 632 112 653 Q122 674 142 688 Q162 702 197 702 L269 702 L269 638 L244 638 Q214 638 202.5 619 Q191 600 191 572 L191 418 Q191 396 189 375.5 Q187 355 180 338.5 Q173 322 160.5 310 Q148 298 127 293 L127 292 Q149 281 162 267.5 Q175 254 181.5 236.5 Q188 219 189.5 196 Q191 173 191 145 L191 -39 Q191 -65 200 -84.5 Q209 -104 241 -104 L269 -104 L269 -168 L203 -168 Z " />
<glyph glyph-name="bar" unicode="&#x7c;" horiz-adv-x="272" d="M97 -142 L97 703 L170 703 L170 -142 L97 -142 Z " />
<glyph glyph-name="braceright" unicode="&#x7d;" horiz-adv-x="291" d="M23 -168 L23 -104 L51 -104 Q83 -104 92 -84.5 Q101 -65 101 -39 L101 145 Q101 173 102.5 196 Q104 219 110.5 236.5 Q117 254 130 267.5 Q143 281 165 292 L165 293 Q144 298 131.5 310 Q119 322 112 338.5 Q105 355 103 375.5 Q101 396 101 418 L101 572 Q101 600 89.5 619 Q78 638 48 638 L23 638 L23 702 L95 702 Q130 702 150 688 Q170 674 180 653 Q190 632 192.5 606.5 Q195 581 195 558 L195 425 Q195 382 210 354 Q225 326 263 319 L263 262 Q225 257 210 228.5 Q195 200 195 162 L195 -39 Q195 -66 191.5 -89.5 Q188 -113 176.5 -130.5 Q165 -148 144 -158 Q123 -168 89 -168 L23 -168 Z " />
<glyph glyph-name="asciitilde" unicode="&#x7e;" horiz-adv-x="575" d="M397 240 Q367 240 337.5 247.5 Q308 255 281 263.5 Q254 272 230 279.5 Q206 287 185 287 L113 240 L72 272 Q92 318 123 342 Q154 366 193 366 Q218 366 246.5 359 Q275 352 304 343 Q333 334 360.5 327 Q388 320 409 320 L477 368 L516 337 Q499 292 469 266 Q439 240 397 240 Z " />
<glyph glyph-name="uni00A0" unicode="&#xa0;" horiz-adv-x="283" d="" />
<glyph glyph-name="exclamdown" unicode="&#xa1;" horiz-adv-x="249" d="M74 -213 L78 71 L89 307 L163 307 L174 71 L176 -213 L74 -213 Z M125 378 Q98 378 80 395.5 Q62 413 62 438 Q62 463 79.5 481 Q97 499 125 499 Q151 499 169 481 Q187 463 187 438 Q187 413 169.5 395.5 Q152 378 125 378 Z " />
<glyph glyph-name="cent" unicode="&#xa2;" horiz-adv-x="575" d="M389 411 Q360 418 326 418 Q266 418 228 376.5 Q190 335 190 247 Q190 211 196 179 Q202 147 217.5 123.5 Q233 100 259 86.5 Q285 73 324 73 Q366 73 398 81 Q430 89 462 102 L487 33 Q462 19 426 9 Q390 -1 348 -5 L348 -104 L274 -104 L274 -5 Q220 0 183 20.5 Q146 41 123.5 73 Q101 105 91 147.5 Q81 190 81 239 Q81 283 90.5 326 Q100 369 122 404.5 Q144 440 181 465 Q218 490 274 497 L274 597 L348 597 L348 498 Q411 495 465 474 L465 336 L389 336 L389 411 Z " />
<glyph glyph-name="sterling" unicode="&#xa3;" horiz-adv-x="575" d="M442 601 Q419 608 397.5 610.5 Q376 613 359 613 Q327 613 305.5 603.5 Q284 594 271 576 Q258 558 252 532.5 Q246 507 245 476 L240 378 L412 378 L412 316 L235 316 L232 242 Q231 218 228 193 Q225 168 219 146 Q213 124 204 105 Q195 86 181 74 L517 74 L517 0 L58 0 L58 73 Q79 84 93.5 102.5 Q108 121 116.5 143.5 Q125 166 129 191.5 Q133 217 134 244 L137 316 L72 316 L72 378 L141 378 L146 475 Q149 524 162 564.5 Q175 605 199.5 634.5 Q224 664 261.5 680 Q299 696 351 696 Q405 696 448.5 685.5 Q492 675 523 661 L523 521 L442 521 L442 601 Z " />
<glyph glyph-name="currency" unicode="&#xa4;" horiz-adv-x="556" d="M151 306 Q151 280 161 257 Q171 234 188 217 Q205 200 228 190.5 Q251 181 277 181 Q302 181 325 190.5 Q348 200 365 217 Q382 234 392 257 Q402 280 402 306 Q402 332 392 354.5 Q382 377 365 394 Q348 411 325.5 421 Q303 431 277 431 Q251 431 228 421 Q205 411 188 394 Q171 377 161 354.5 Q151 332 151 306 Z M54 482 L101 529 L165 465 Q189 482 217.5 492 Q246 502 278 502 Q339 502 390 465 L454 529 L502 481 L436 419 Q455 393 463.5 365 Q472 337 472 307 Q472 276 462.5 247.5 Q453 219 436 194 L502 133 L454 84 L389 148 Q363 128 335 120 Q307 112 278 112 Q248 112 220.5 120 Q193 128 166 148 L101 83 L54 132 L118 194 Q97 222 89 250.5 Q81 279 81 305 Q81 334 89.5 363.5 Q98 393 118 418 L54 482 Z " />
<glyph glyph-name="yen" unicode="&#xa5;" horiz-adv-x="575" d="M152 75 L230 75 L230 204 L67 204 L67 253 L230 253 L230 276 L217 303 L67 303 L67 351 L194 351 L71 609 L15 609 L15 685 L230 685 L230 609 L175 609 L227 493 Q241 461 256 429 Q271 397 284 365 L288 365 Q300 393 311.5 420 Q323 447 335 473 L398 609 L343 609 L343 685 L554 685 L554 609 L499 609 L373 351 L503 351 L503 303 L350 303 L338 278 L338 253 L503 253 L503 204 L338 204 L338 75 L416 75 L416 0 L152 0 L152 75 Z " />
<glyph glyph-name="brokenbar" unicode="&#xa6;" horiz-adv-x="272" d="M97 359 L97 703 L170 703 L170 359 L97 359 Z M170 229 L170 -142 L97 -142 L97 229 L170 229 Z " />
<glyph glyph-name="section" unicode="&#xa7;" horiz-adv-x="495" d="M436 286 Q436 250 420 218.5 Q404 187 368 155 Q412 127 428 94 Q444 61 444 33 Q444 -7 428 -37 Q412 -67 384 -87.5 Q356 -108 316.5 -118 Q277 -128 231 -128 Q180 -128 141.5 -119 Q103 -110 72 -100 L72 29 L147 29 Q147 11 146.5 -7 Q146 -25 146 -44 Q167 -49 188.5 -53 Q210 -57 233 -57 Q288 -57 317.5 -33 Q347 -9 347 24 Q347 60 317.5 82.5 Q288 105 237 126 Q205 139 173 153 Q141 167 115.5 185.5 Q90 204 74.5 229 Q59 254 59 289 Q59 327 76.5 360.5 Q94 394 132 420 Q100 442 84.5 466.5 Q69 491 69 526 Q69 565 84.5 594.5 Q100 624 126.5 643.5 Q153 663 189 673 Q225 683 267 683 Q319 683 356.5 674.5 Q394 666 422 656 L422 524 L346 524 L346 601 Q326 606 308.5 609.5 Q291 613 265 613 Q247 613 228.5 608 Q210 603 195 593 Q180 583 171 568 Q162 553 162 533 Q162 515 174.5 500 Q187 485 206.5 473 Q226 461 249.5 451 Q273 441 294 432 Q321 421 346.5 408 Q372 395 392 378 Q412 361 424 338.5 Q436 316 436 286 Z M351 268 Q351 293 336.5 310 Q322 327 299.5 340 Q277 353 249.5 364.5 Q222 376 195 389 Q148 351 148 308 Q148 280 162 263.5 Q176 247 198.5 235 Q221 223 249.5 212.5 Q278 202 307 186 Q328 206 339.5 228.5 Q351 251 351 268 Z " />
<glyph glyph-name="dieresis" unicode="&#xa8;" horiz-adv-x="506" d="M212 643 Q212 619 196.5 603 Q181 587 153 587 Q127 587 111.5 603 Q96 619 96 643 Q96 668 111.5 683.5 Q127 699 153 699 Q181 699 196.5 684 Q212 669 212 643 Z M411 643 Q411 619 395.5 603 Q380 587 351 587 Q325 587 310.5 603 Q296 619 296 643 Q296 668 311.5 683.5 Q327 699 351 699 Q380 699 395.5 684 Q411 669 411 643 Z " />
<glyph glyph-name="copyright" unicode="&#xa9;" horiz-adv-x="845" d="M795 332 Q795 255 765.5 188 Q736 121 685 70.5 Q634 20 566 -9 Q498 -38 422 -38 Q345 -38 277 -9 Q209 20 158.5 70.5 Q108 121 78.5 188 Q49 255 49 332 Q49 408 78.5 475 Q108 542 158.5 592.5 Q209 643 277 672 Q345 701 422 701 Q498 701 566 672 Q634 643 685 592.5 Q736 542 765.5 475 Q795 408 795 332 Z M744 332 Q744 398 719 456 Q694 514 650.5 557.5 Q607 601 548 626 Q489 651 422 651 Q356 651 297 626 Q238 601 194 557.5 Q150 514 124.5 456 Q99 398 99 332 Q99 266 124.5 208 Q150 150 194 106.5 Q238 63 297 38 Q356 13 422 13 Q489 13 548 38 Q607 63 650.5 106.5 Q694 150 719 208 Q744 266 744 332 Z M293 325 Q293 283 300.5 249 Q308 215 325.5 191 Q343 167 372 154 Q401 141 445 141 Q455 141 469 142 Q483 143 499 145 Q515 147 531 149.5 Q547 152 560 156 L572 101 Q546 90 505 84 Q464 78 429 78 Q368 78 326.5 96.5 Q285 115 259.5 147.5 Q234 180 223 225 Q212 270 212 324 Q212 364 222 409 Q232 454 257 491.5 Q282 529 325.5 553.5 Q369 578 437 578 Q478 578 508.5 572 Q539 566 562 558 L562 436 L505 436 L505 508 Q473 515 440 515 Q364 515 328.5 464 Q293 413 293 325 Z " />
<glyph glyph-name="ordfeminine" unicode="&#xaa;" horiz-adv-x="364" d="M307 325 L350 325 L355 277 Q340 271 319.5 267 Q299 263 284 263 Q265 263 250.5 271 Q236 279 233 301 Q216 287 200 279 Q184 271 170 267 Q156 263 144.5 262.5 Q133 262 126 262 Q94 262 73.5 271.5 Q53 281 41 295 Q29 309 24.5 325.5 Q20 342 20 357 Q20 392 37.5 412 Q55 432 84 442 Q113 452 151 455 Q189 458 230 460 L230 475 Q230 509 217 523 Q204 537 167 537 Q144 537 116.5 532 Q89 527 63 519 Q59 531 55.5 543.5 Q52 556 47 569 Q78 582 114.5 589 Q151 596 185 596 Q242 596 274.5 571.5 Q307 547 307 485 L307 325 Z M230 415 Q204 414 181 413 Q158 412 140.5 406.5 Q123 401 113 390.5 Q103 380 103 361 Q103 316 155 316 Q172 316 192.5 324.5 Q213 333 230 346 L230 415 Z " />
<glyph glyph-name="guillemotleft" unicode="&#xab;" horiz-adv-x="459" d="M55 211 L210 379 L253 347 L151 192 L253 38 L210 6 L55 173 L55 211 Z M218 211 L374 379 L417 347 L315 192 L417 38 L374 6 L218 173 L218 211 Z " />
<glyph glyph-name="logicalnot" unicode="&#xac;" horiz-adv-x="572" d="M491 97 L419 97 L419 266 L93 266 L93 335 L491 335 L491 97 Z " />
<glyph glyph-name="sfthyphen" unicode="&#xad;" horiz-adv-x="378" d="M56 225 L56 307 L322 307 L322 225 L56 225 Z " />
<glyph glyph-name="registered" unicode="&#xae;" horiz-adv-x="593" d="M541 469 Q541 418 522 373 Q503 328 469.5 295 Q436 262 390.5 242.5 Q345 223 293 223 Q240 223 194.5 242.5 Q149 262 115.5 295 Q82 328 62.5 373 Q43 418 43 469 Q43 520 62 565 Q81 610 115 643.5 Q149 677 194.5 696 Q240 715 293 715 Q345 715 390.5 696 Q436 677 469.5 643.5 Q503 610 522 565 Q541 520 541 469 Z M501 469 Q501 512 485 549.5 Q469 587 441 615.5 Q413 644 375 660.5 Q337 677 293 677 Q249 677 210.5 660.5 Q172 644 144 615.5 Q116 587 100 549.5 Q84 512 84 469 Q84 427 100 389 Q116 351 144 323 Q172 295 210 278.5 Q248 262 293 262 Q338 262 376.5 278.5 Q415 295 442.5 323 Q470 351 485.5 389 Q501 427 501 469 Z M351 535 Q351 561 337 571.5 Q323 582 303 582 L256 582 L256 487 L302 487 Q322 487 336.5 496.5 Q351 506 351 535 Z M256 450 L256 365 L287 365 L287 328 L176 328 L176 365 L203 365 L203 581 L176 581 L176 619 L310 619 Q356 619 380 597 Q404 575 404 535 Q404 516 392 493 Q380 470 352 458 L398 365 Q403 364 413.5 363 Q424 362 429 361 L429 329 Q420 327 407.5 325.5 Q395 324 386 324 Q371 324 362.5 332 Q354 340 349 351 L302 450 L256 450 Z " />
<glyph glyph-name="macron" unicode="&#xaf;" horiz-adv-x="529" d="M90 678 L436 678 L436 600 L90 600 L90 678 Z " />
<glyph glyph-name="degree" unicode="&#xb0;" horiz-adv-x="358" d="M322 538 Q322 509 311 483.5 Q300 458 281.5 439 Q263 420 237.5 409 Q212 398 183 398 Q119 398 80.5 437.5 Q42 477 42 538 Q42 566 53 592 Q64 618 83.5 637 Q103 656 128.5 667.5 Q154 679 183 679 Q212 679 237.5 669.5 Q263 660 281.5 641.5 Q300 623 311 597 Q322 571 322 538 Z M264 535 Q264 571 242.5 597.5 Q221 624 181 624 Q146 624 122.5 597.5 Q99 571 99 535 Q99 500 122.5 476.5 Q146 453 181 453 Q216 453 240 476.5 Q264 500 264 535 Z " />
<glyph glyph-name="plusminus" unicode="&#xb1;" horiz-adv-x="575" d="M329 272 L329 114 L257 114 L257 272 L94 272 L94 341 L257 341 L257 495 L329 495 L329 341 L491 341 L491 272 L329 272 Z M491 64 L491 0 L94 0 L94 64 L491 64 Z " />
<glyph glyph-name="twosuperior" unicode="&#xb2;" horiz-adv-x="376" d="M314 647 Q314 615 296 582.5 Q278 550 251 520.5 Q224 491 193 464.5 Q162 438 135 418 L264 418 L264 464 L332 464 L332 355 L23 355 L23 409 Q58 435 94.5 466 Q131 497 161 528.5 Q191 560 210 589 Q229 618 229 641 Q229 670 209.5 682.5 Q190 695 157 695 Q141 695 114 689.5 Q87 684 48 662 L18 714 Q60 743 99 752.5 Q138 762 167 762 Q234 762 274 733 Q314 704 314 647 Z " />
<glyph glyph-name="threesuperior" unicode="&#xb3;" horiz-adv-x="376" d="M327 712 Q297 684 267.5 657 Q238 630 208 602 Q235 599 258 591 Q281 583 298 568.5 Q315 554 325 534 Q335 514 335 487 Q335 454 321 428.5 Q307 403 284 386 Q261 369 230 360 Q199 351 165 351 Q126 351 89.5 356.5 Q53 362 21 378 Q26 392 31.5 407 Q37 422 42 436 Q84 423 112 420.5 Q140 418 158 418 Q200 418 225.5 436.5 Q251 455 251 487 Q251 515 227.5 532 Q204 549 156 549 Q143 549 132 548 Q121 547 108 545 L95 585 Q125 613 156.5 640.5 Q188 668 217 694 L106 694 L106 645 L40 645 L40 756 L315 756 Q318 745 320.5 734 Q323 723 327 712 Z " />
<glyph glyph-name="acute" unicode="&#xb4;" horiz-adv-x="507" d="M233 545 L190 586 L326 752 L393 684 L233 545 Z " />
<glyph glyph-name="mu" unicode="&#xb5;" horiz-adv-x="578" d="M256 -7 Q231 -7 214 -6 Q197 -5 184 0 L184 -134 L256 -134 L256 -208 L8 -208 L8 -134 L76 -134 L76 412 L8 412 L8 488 L183 488 L183 168 Q183 126 201.5 100 Q220 74 272 74 Q297 74 328 87 Q359 100 390 129 L390 412 L328 412 L328 489 L497 489 Q497 385 496.5 282.5 Q496 180 496 76 L563 76 Q563 59 564 43.5 Q565 28 566 13 Q538 2 512 -2 Q486 -6 469 -6 Q432 -6 414.5 7.5 Q397 21 393 57 Q372 38 353 26.5 Q334 15 316.5 8 Q299 1 283.5 -2.5 Q268 -6 256 -7 Z " />
<glyph glyph-name="paragraph" unicode="&#xb6;" horiz-adv-x="564" d="M233 312 Q192 312 157.5 326 Q123 340 97.5 365.5 Q72 391 57.5 426 Q43 461 43 502 Q43 542 57 577.5 Q71 613 96 639.5 Q121 666 156 681.5 Q191 697 233 697 L533 697 L533 624 L466 624 L466 -199 L392 -199 L392 624 L327 624 L328 -199 L169 -199 L169 -129 L252 -129 L252 312 L233 312 Z " />
<glyph glyph-name="periodcentered" unicode="&#xb7;" horiz-adv-x="229" d="M181 281 Q181 255 163 237 Q145 219 116 219 Q87 219 69.5 237 Q52 255 52 281 Q52 308 69.5 325.5 Q87 343 116 343 Q145 343 163 325.5 Q181 308 181 281 Z " />
<glyph glyph-name="cedilla" unicode="&#xb8;" horiz-adv-x="460" d="M299 17 Q285 -1 269 -21 Q253 -41 239 -61 Q288 -63 317.5 -83.5 Q347 -104 347 -145 Q346 -166 335 -184.5 Q324 -203 301.5 -217 Q279 -231 244.5 -239 Q210 -247 163 -247 L163 -206 Q217 -201 248 -187 Q279 -173 279 -149 Q279 -136 270 -128 Q261 -120 247 -116 Q233 -112 215.5 -111 Q198 -110 181 -110 Q174 -99 167 -89 Q192 -57 216 -25 Q240 7 265 38 Q273 32 282 27.5 Q291 23 299 17 Z " />
<glyph glyph-name="onesuperior" unicode="&#xb9;" horiz-adv-x="376" d="M58 417 L148 417 L148 681 Q128 679 100.5 675 Q73 671 53 668 L42 721 L161 756 L233 756 L233 417 L319 417 L319 355 L58 355 L58 417 Z " />
<glyph glyph-name="ordmasculine" unicode="&#xba;" horiz-adv-x="372" d="M346 429 Q346 397 337.5 367 Q329 337 309.5 314 Q290 291 259 277 Q228 263 182 263 Q139 263 109 276.5 Q79 290 60.5 312.5 Q42 335 34 365.5 Q26 396 26 429 Q26 462 35 492.5 Q44 523 63.5 546 Q83 569 113.5 583 Q144 597 188 597 Q232 597 262.5 583 Q293 569 311.5 546 Q330 523 338 492.5 Q346 462 346 429 Z M264 429 Q264 448 261 468 Q258 488 250 504 Q242 520 227 530.5 Q212 541 188 541 Q164 541 148.5 531 Q133 521 124 504.5 Q115 488 111.5 468 Q108 448 108 428 Q108 407 111 387.5 Q114 368 122.5 353.5 Q131 339 146.5 330 Q162 321 188 321 Q212 321 226.5 330.5 Q241 340 249.5 355.5 Q258 371 261 390 Q264 409 264 429 Z " />
<glyph glyph-name="guillemotright" unicode="&#xbb;" horiz-adv-x="459" d="M410 173 L255 6 L212 38 L313 192 L212 347 L256 379 L410 211 L410 173 Z M246 173 L91 6 L48 38 L150 192 L48 347 L91 379 L246 211 L246 173 Z " />
<glyph glyph-name="onequarter" unicode="&#xbc;" horiz-adv-x="850" d="M84 327 L174 327 L174 591 Q154 589 126.5 585 Q99 581 79 578 L68 631 L187 666 L259 666 L259 327 L345 327 L345 265 L84 265 L84 327 Z M324 -21 L257 -21 L560 704 L626 704 L324 -21 Z M718 401 L718 169 L780 169 L780 112 L718 112 L718 57 L763 57 L763 0 L597 0 L597 57 L638 57 L638 112 L439 112 L439 161 Q481 212 513.5 251.5 Q546 291 570.5 320 Q595 349 611.5 368.5 Q628 388 639 401 L718 401 Z M639 314 Q608 274 577.5 239 Q547 204 521 169 L639 169 L639 314 Z " />
<glyph glyph-name="onehalf" unicode="&#xbd;" horiz-adv-x="850" d="M72 327 L162 327 L162 591 Q142 589 114.5 585 Q87 581 67 578 L56 631 L175 666 L247 666 L247 327 L333 327 L333 265 L72 265 L72 327 Z M303 -21 L236 -21 L539 704 L605 704 L303 -21 Z M773 292 Q773 260 755 227.5 Q737 195 710 165.5 Q683 136 652 109.5 Q621 83 594 63 L723 63 L723 109 L791 109 L791 0 L482 0 L482 54 Q517 80 553.5 111 Q590 142 620 173.5 Q650 205 669 234 Q688 263 688 286 Q688 315 668.5 327.5 Q649 340 616 340 Q600 340 573 334.5 Q546 329 507 307 L477 359 Q519 388 558 397.5 Q597 407 626 407 Q693 407 733 378 Q773 349 773 292 Z " />
<glyph glyph-name="threequarters" unicode="&#xbe;" horiz-adv-x="850" d="M360 622 Q330 594 300.5 567 Q271 540 241 512 Q268 509 291 501 Q314 493 331 478.5 Q348 464 358 444 Q368 424 368 397 Q368 364 354 338.5 Q340 313 317 296 Q294 279 263 270 Q232 261 198 261 Q159 261 122.5 266.5 Q86 272 54 288 Q59 302 64.5 317 Q70 332 75 346 Q117 333 145 330.5 Q173 328 191 328 Q233 328 258.5 346.5 Q284 365 284 397 Q284 425 260.5 442 Q237 459 189 459 Q176 459 165 458 Q154 457 141 455 L128 495 Q158 523 189.5 550.5 Q221 578 250 604 L139 604 L139 555 L73 555 L73 666 L348 666 Q351 655 353.5 644 Q356 633 360 622 Z M327 -21 L260 -21 L563 704 L629 704 L327 -21 Z M735 401 L735 169 L797 169 L797 112 L735 112 L735 57 L780 57 L780 0 L614 0 L614 57 L655 57 L655 112 L456 112 L456 161 Q498 212 530.5 251.5 Q563 291 587.5 320 Q612 349 628.5 368.5 Q645 388 656 401 L735 401 Z M656 314 Q625 274 594.5 239 Q564 204 538 169 L656 169 L656 314 Z " />
<glyph glyph-name="questiondown" unicode="&#xbf;" horiz-adv-x="464" d="M125 74 Q156 99 179.5 120.5 Q203 142 219.5 161.5 Q236 181 244.5 200.5 Q253 220 253 242 Q253 256 250.5 270.5 Q248 285 246 305 Q268 307 288.5 308.5 Q309 310 332 312 Q337 285 339.5 264.5 Q342 244 342 229 Q342 197 332.5 170.5 Q323 144 305.5 120.5 Q288 97 264.5 74 Q241 51 214 26 Q188 3 172.5 -17 Q157 -37 157 -65 Q157 -103 184.5 -120 Q212 -137 257 -137 Q280 -137 305.5 -134 Q331 -131 357 -123 L357 -36 L437 -36 L437 -185 Q384 -205 333 -212.5 Q282 -220 243 -220 Q148 -220 96.5 -183 Q45 -146 45 -81 Q45 -28 66 7 Q87 42 125 74 Z M211 436 Q211 462 229 479.5 Q247 497 272 497 Q298 497 316.5 479 Q335 461 335 436 Q335 413 317 395 Q299 377 273 377 Q247 377 229 394 Q211 411 211 436 Z " />
<glyph glyph-name="Agrave" unicode="&#xc0;" horiz-adv-x="697" d="M510 76 Q502 102 492 133.5 Q482 165 474 189 L217 189 Q210 168 200 136 Q190 104 182 76 L250 76 L250 0 L20 0 L20 76 L76 76 Q100 148 126.5 226 Q153 304 180 382.5 Q207 461 233 538.5 Q259 616 283 686 L420 686 Q469 537 521 381 Q573 225 622 76 L678 76 L678 0 L444 0 L444 76 L510 76 Z M451 265 Q431 333 410 399.5 Q389 466 367 534 Q363 549 358.5 564 Q354 579 349 594 L347 594 Q345 590 342 578 Q339 566 328 533 Q319 506 308 471.5 Q297 437 285 400.5 Q273 364 262 328.5 Q251 293 243 265 L451 265 Z M187 881 L254 948 L390 784 L346 742 L187 881 Z " />
<glyph glyph-name="Aacute" unicode="&#xc1;" horiz-adv-x="697" d="M510 76 Q502 102 492 133.5 Q482 165 474 189 L217 189 Q210 168 200 136 Q190 104 182 76 L250 76 L250 0 L20 0 L20 76 L76 76 Q100 148 126.5 226 Q153 304 180 382.5 Q207 461 233 538.5 Q259 616 283 686 L420 686 Q469 537 521 381 Q573 225 622 76 L678 76 L678 0 L444 0 L444 76 L510 76 Z M451 265 Q431 333 410 399.5 Q389 466 367 534 Q363 549 358.5 564 Q354 579 349 594 L347 594 Q345 590 342 578 Q339 566 328 533 Q319 506 308 471.5 Q297 437 285 400.5 Q273 364 262 328.5 Q251 293 243 265 L451 265 Z M362 741 L320 781 L455 946 L523 880 L362 741 Z " />
<glyph glyph-name="Acircumflex" unicode="&#xc2;" horiz-adv-x="697" d="M510 76 Q502 102 492 133.5 Q482 165 474 189 L217 189 Q210 168 200 136 Q190 104 182 76 L250 76 L250 0 L20 0 L20 76 L76 76 Q100 148 126.5 226 Q153 304 180 382.5 Q207 461 233 538.5 Q259 616 283 686 L420 686 Q469 537 521 381 Q573 225 622 76 L678 76 L678 0 L444 0 L444 76 L510 76 Z M451 265 Q431 333 410 399.5 Q389 466 367 534 Q363 549 358.5 564 Q354 579 349 594 L347 594 Q345 590 342 578 Q339 566 328 533 Q319 506 308 471.5 Q297 437 285 400.5 Q273 364 262 328.5 Q251 293 243 265 L451 265 Z M509 743 L349 833 L190 742 L162 777 L314 919 L385 919 L539 778 L509 743 Z " />
<glyph glyph-name="Atilde" unicode="&#xc3;" horiz-adv-x="697" d="M510 76 Q502 102 492 133.5 Q482 165 474 189 L217 189 Q210 168 200 136 Q190 104 182 76 L250 76 L250 0 L20 0 L20 76 L76 76 Q100 148 126.5 226 Q153 304 180 382.5 Q207 461 233 538.5 Q259 616 283 686 L420 686 Q469 537 521 381 Q573 225 622 76 L678 76 L678 0 L444 0 L444 76 L510 76 Z M451 265 Q431 333 410 399.5 Q389 466 367 534 Q363 549 358.5 564 Q354 579 349 594 L347 594 Q345 590 342 578 Q339 566 328 533 Q319 506 308 471.5 Q297 437 285 400.5 Q273 364 262 328.5 Q251 293 243 265 L451 265 Z M427 774 Q403 774 380.5 780 Q358 786 338 793.5 Q318 801 300.5 807 Q283 813 268 813 L211 774 L177 801 Q191 842 215.5 863 Q240 884 272 884 Q291 884 312 878 Q333 872 354 865 Q375 858 394.5 852 Q414 846 430 846 L486 886 L521 859 Q507 819 483 796.5 Q459 774 427 774 Z " />
<glyph glyph-name="Adieresis" unicode="&#xc4;" horiz-adv-x="697" d="M510 76 Q502 102 492 133.5 Q482 165 474 189 L217 189 Q210 168 200 136 Q190 104 182 76 L250 76 L250 0 L20 0 L20 76 L76 76 Q100 148 126.5 226 Q153 304 180 382.5 Q207 461 233 538.5 Q259 616 283 686 L420 686 Q469 537 521 381 Q573 225 622 76 L678 76 L678 0 L444 0 L444 76 L510 76 Z M451 265 Q431 333 410 399.5 Q389 466 367 534 Q363 549 358.5 564 Q354 579 349 594 L347 594 Q345 590 342 578 Q339 566 328 533 Q319 506 308 471.5 Q297 437 285 400.5 Q273 364 262 328.5 Q251 293 243 265 L451 265 Z M313 830 Q313 806 297.5 790 Q282 774 254 774 Q228 774 212.5 790 Q197 806 197 830 Q197 855 212.5 870.5 Q228 886 254 886 Q282 886 297.5 871 Q313 856 313 830 Z M512 830 Q512 806 496.5 790 Q481 774 452 774 Q426 774 411.5 790 Q397 806 397 830 Q397 855 412.5 870.5 Q428 886 452 886 Q481 886 496.5 871 Q512 856 512 830 Z " />
<glyph glyph-name="Aring" unicode="&#xc5;" horiz-adv-x="697" d="M510 76 Q502 102 492 133.5 Q482 165 474 189 L217 189 Q210 168 200 136 Q190 104 182 76 L250 76 L250 0 L20 0 L20 76 L76 76 Q100 148 126.5 226 Q153 304 180 382.5 Q207 461 233 538.5 Q259 616 283 686 L420 686 Q469 537 521 381 Q573 225 622 76 L678 76 L678 0 L444 0 L444 76 L510 76 Z M451 265 Q431 333 410 399.5 Q389 466 367 534 Q363 549 358.5 564 Q354 579 349 594 L347 594 Q345 590 342 578 Q339 566 328 533 Q319 506 308 471.5 Q297 437 285 400.5 Q273 364 262 328.5 Q251 293 243 265 L451 265 Z M353 666 Q329 666 307.5 675 Q286 684 270.5 699 Q255 714 246 734 Q237 754 237 777 Q237 799 246 819 Q255 839 270.5 854.5 Q286 870 307.5 879 Q329 888 353 888 Q377 888 397.5 879 Q418 870 433 855 Q448 840 456.5 819.5 Q465 799 465 777 Q465 753 456 733 Q447 713 432 698 Q417 683 396.5 674.5 Q376 666 353 666 Z M353 833 Q328 833 311 815.5 Q294 798 294 774 Q294 752 310.5 735 Q327 718 353 718 Q376 718 392 735 Q408 752 408 774 Q408 797 392.5 815 Q377 833 353 833 Z " />
<glyph glyph-name="AE" unicode="&#xc6;" horiz-adv-x="985" d="M509 205 L259 205 L179 75 L247 75 L247 0 L6 0 L6 75 L65 75 L399 609 L344 609 L344 685 L931 685 L931 512 L850 512 L850 611 L619 611 L619 393 L836 398 L836 319 L619 323 L619 75 L863 75 L863 177 L945 177 L945 0 L440 0 L440 75 L509 75 L509 205 Z M302 280 L509 280 L509 605 L504 605 L302 280 Z " />
<glyph glyph-name="Ccedilla" unicode="&#xc7;" horiz-adv-x="593" d="M165 341 Q165 281 175 233 Q185 185 209.5 151 Q234 117 275.5 99 Q317 81 380 81 Q393 81 412.5 82 Q432 83 454 86 Q476 89 499 93 Q522 97 542 103 L560 25 Q540 17 515.5 11 Q491 5 464 0.5 Q437 -4 409.5 -6.5 Q382 -9 357 -9 Q270 -9 211 17.5 Q152 44 116.5 90.5 Q81 137 65.5 201 Q50 265 50 340 Q50 397 63.5 460.5 Q77 524 112 576.5 Q147 629 208 663.5 Q269 698 364 698 Q420 698 464 690 Q508 682 542 670 L542 496 L462 496 L462 601 Q439 607 414 609.5 Q389 612 367 612 Q313 612 275 592.5 Q237 573 212.5 537.5 Q188 502 176.5 452 Q165 402 165 341 Z M392 0 Q378 -18 362 -38 Q346 -58 332 -78 Q381 -80 410.5 -100.5 Q440 -121 440 -162 Q439 -183 428 -201.5 Q417 -220 394.5 -234 Q372 -248 337.5 -256 Q303 -264 256 -264 L256 -223 Q310 -218 341 -204 Q372 -190 372 -166 Q372 -153 363 -145 Q354 -137 340 -133 Q326 -129 308.5 -128 Q291 -127 274 -127 Q267 -116 260 -106 Q285 -74 309 -42 Q333 -10 358 21 Q366 15 375 10.5 Q384 6 392 0 Z " />
<glyph glyph-name="Egrave" unicode="&#xc8;" horiz-adv-x="607" d="M42 0 L42 78 L110 78 L110 608 L44 608 L44 685 L563 685 L563 506 L482 506 L482 608 L220 608 L220 393 L463 398 L463 319 L220 323 L220 78 L495 78 L495 183 L577 183 L577 0 L42 0 Z M187 881 L254 948 L390 784 L346 742 L187 881 Z " />
<glyph glyph-name="Eacute" unicode="&#xc9;" horiz-adv-x="607" d="M42 0 L42 78 L110 78 L110 608 L44 608 L44 685 L563 685 L563 506 L482 506 L482 608 L220 608 L220 393 L463 398 L463 319 L220 323 L220 78 L495 78 L495 183 L577 183 L577 0 L42 0 Z M316 741 L274 781 L409 946 L477 880 L316 741 Z " />
<glyph glyph-name="Ecircumflex" unicode="&#xca;" horiz-adv-x="607" d="M42 0 L42 78 L110 78 L110 608 L44 608 L44 685 L563 685 L563 506 L482 506 L482 608 L220 608 L220 393 L463 398 L463 319 L220 323 L220 78 L495 78 L495 183 L577 183 L577 0 L42 0 Z M487 743 L327 833 L168 742 L140 777 L292 919 L363 919 L517 778 L487 743 Z " />
<glyph glyph-name="Edieresis" unicode="&#xcb;" horiz-adv-x="607" d="M42 0 L42 78 L110 78 L110 608 L44 608 L44 685 L563 685 L563 506 L482 506 L482 608 L220 608 L220 393 L463 398 L463 319 L220 323 L220 78 L495 78 L495 183 L577 183 L577 0 L42 0 Z M286 830 Q286 806 270.5 790 Q255 774 227 774 Q201 774 185.5 790 Q170 806 170 830 Q170 855 185.5 870.5 Q201 886 227 886 Q255 886 270.5 871 Q286 856 286 830 Z M485 830 Q485 806 469.5 790 Q454 774 425 774 Q399 774 384.5 790 Q370 806 370 830 Q370 855 385.5 870.5 Q401 886 425 886 Q454 886 469.5 871 Q485 856 485 830 Z " />
<glyph glyph-name="Igrave" unicode="&#xcc;" horiz-adv-x="381" d="M70 0 L70 77 L135 77 L135 608 L70 608 L70 686 L311 686 L311 608 L245 608 L245 77 L311 77 L311 0 L70 0 Z M38 881 L105 948 L241 784 L197 742 L38 881 Z " />
<glyph glyph-name="Iacute" unicode="&#xcd;" horiz-adv-x="381" d="M70 0 L70 77 L135 77 L135 608 L70 608 L70 686 L311 686 L311 608 L245 608 L245 77 L311 77 L311 0 L70 0 Z M198 741 L156 781 L291 946 L359 880 L198 741 Z " />
<glyph glyph-name="Icircumflex" unicode="&#xce;" horiz-adv-x="381" d="M70 0 L70 77 L135 77 L135 608 L70 608 L70 686 L311 686 L311 608 L245 608 L245 77 L311 77 L311 0 L70 0 Z M353 743 L193 833 L34 742 L6 777 L158 919 L229 919 L383 778 L353 743 Z " />
<glyph glyph-name="Idieresis" unicode="&#xcf;" horiz-adv-x="381" d="M70 0 L70 77 L135 77 L135 608 L70 608 L70 686 L311 686 L311 608 L245 608 L245 77 L311 77 L311 0 L70 0 Z M151 830 Q151 806 135.5 790 Q120 774 92 774 Q66 774 50.5 790 Q35 806 35 830 Q35 855 50.5 870.5 Q66 886 92 886 Q120 886 135.5 871 Q151 856 151 830 Z M350 830 Q350 806 334.5 790 Q319 774 290 774 Q264 774 249.5 790 Q235 806 235 830 Q235 855 250.5 870.5 Q266 886 290 886 Q319 886 334.5 871 Q350 856 350 830 Z " />
<glyph glyph-name="Eth" unicode="&#xd0;" horiz-adv-x="692" d="M42 0 L42 77 L112 77 L112 337 L46 337 L46 392 L112 392 L112 607 L46 607 L46 686 L350 686 Q437 686 493.5 658.5 Q550 631 583 584 Q616 537 629 475.5 Q642 414 642 345 Q642 275 627.5 212.5 Q613 150 578.5 102.5 Q544 55 486.5 27.5 Q429 0 343 0 L42 0 Z M224 607 L224 392 L357 392 L357 337 L224 337 L224 77 L330 77 Q355 77 389 84.5 Q423 92 453.5 119 Q484 146 505.5 198 Q527 250 527 339 Q527 429 507.5 482.5 Q488 536 459 563.5 Q430 591 396 599 Q362 607 334 607 L224 607 Z " />
<glyph glyph-name="Ntilde" unicode="&#xd1;" horiz-adv-x="770" d="M558 169 L558 608 L489 608 L489 685 L727 685 L727 608 L661 608 L661 0 L555 0 Q515 62 475 123 Q435 184 395 246 Q365 292 334.5 338.5 Q304 385 274 433 Q259 457 244 481.5 Q229 506 213 530 Q212 530 212 529.5 Q212 529 211 529 L211 76 L279 76 Q279 57 279.5 38 Q280 19 280 0 L40 0 Q40 19 39.5 38 Q39 57 39 76 L108 76 Q108 210 108.5 342 Q109 474 109 608 L40 608 L40 685 L226 685 Q274 610 309.5 553.5 Q345 497 374 453 Q383 439 399.5 412.5 Q416 386 434 358.5 Q452 331 466.5 308 Q481 285 485 278 Q502 251 519 224 Q536 197 553 169 L558 169 Z M472 777 Q448 777 425.5 783 Q403 789 383 796.5 Q363 804 345.5 810 Q328 816 313 816 L256 777 L222 804 Q236 845 260.5 866 Q285 887 317 887 Q336 887 357 881 Q378 875 399 868 Q420 861 439.5 855 Q459 849 475 849 L531 889 L566 862 Q552 822 528 799.5 Q504 777 472 777 Z " />
<glyph glyph-name="Ograve" unicode="&#xd2;" horiz-adv-x="705" d="M655 342 Q655 267 636 203 Q617 139 579.5 91.5 Q542 44 486 17.5 Q430 -9 356 -9 Q275 -9 217 16 Q159 41 122 86.5 Q85 132 67.5 196 Q50 260 50 339 Q50 411 66.5 476 Q83 541 120 590 Q157 639 215 668 Q273 697 356 697 Q440 697 497.5 668 Q555 639 590 590.5 Q625 542 640 477.5 Q655 413 655 342 Z M539 339 Q539 388 532 437.5 Q525 487 505 526 Q485 565 449 589.5 Q413 614 356 614 Q299 614 262 591 Q225 568 203.5 529.5 Q182 491 173.5 441 Q165 391 165 338 Q165 209 209.5 141.5 Q254 74 356 74 Q404 74 438.5 94.5 Q473 115 495.5 150.5 Q518 186 528.5 234.5 Q539 283 539 339 Z M197 881 L264 948 L400 784 L356 742 L197 881 Z " />
<glyph glyph-name="Oacute" unicode="&#xd3;" horiz-adv-x="705" d="M655 342 Q655 267 636 203 Q617 139 579.5 91.5 Q542 44 486 17.5 Q430 -9 356 -9 Q275 -9 217 16 Q159 41 122 86.5 Q85 132 67.5 196 Q50 260 50 339 Q50 411 66.5 476 Q83 541 120 590 Q157 639 215 668 Q273 697 356 697 Q440 697 497.5 668 Q555 639 590 590.5 Q625 542 640 477.5 Q655 413 655 342 Z M539 339 Q539 388 532 437.5 Q525 487 505 526 Q485 565 449 589.5 Q413 614 356 614 Q299 614 262 591 Q225 568 203.5 529.5 Q182 491 173.5 441 Q165 391 165 338 Q165 209 209.5 141.5 Q254 74 356 74 Q404 74 438.5 94.5 Q473 115 495.5 150.5 Q518 186 528.5 234.5 Q539 283 539 339 Z M356 741 L314 781 L449 946 L517 880 L356 741 Z " />
<glyph glyph-name="Ocircumflex" unicode="&#xd4;" horiz-adv-x="705" d="M655 342 Q655 267 636 203 Q617 139 579.5 91.5 Q542 44 486 17.5 Q430 -9 356 -9 Q275 -9 217 16 Q159 41 122 86.5 Q85 132 67.5 196 Q50 260 50 339 Q50 411 66.5 476 Q83 541 120 590 Q157 639 215 668 Q273 697 356 697 Q440 697 497.5 668 Q555 639 590 590.5 Q625 542 640 477.5 Q655 413 655 342 Z M539 339 Q539 388 532 437.5 Q525 487 505 526 Q485 565 449 589.5 Q413 614 356 614 Q299 614 262 591 Q225 568 203.5 529.5 Q182 491 173.5 441 Q165 391 165 338 Q165 209 209.5 141.5 Q254 74 356 74 Q404 74 438.5 94.5 Q473 115 495.5 150.5 Q518 186 528.5 234.5 Q539 283 539 339 Z M518 743 L358 833 L199 742 L171 777 L323 919 L394 919 L548 778 L518 743 Z " />
<glyph glyph-name="Otilde" unicode="&#xd5;" horiz-adv-x="705" d="M655 342 Q655 267 636 203 Q617 139 579.5 91.5 Q542 44 486 17.5 Q430 -9 356 -9 Q275 -9 217 16 Q159 41 122 86.5 Q85 132 67.5 196 Q50 260 50 339 Q50 411 66.5 476 Q83 541 120 590 Q157 639 215 668 Q273 697 356 697 Q440 697 497.5 668 Q555 639 590 590.5 Q625 542 640 477.5 Q655 413 655 342 Z M539 339 Q539 388 532 437.5 Q525 487 505 526 Q485 565 449 589.5 Q413 614 356 614 Q299 614 262 591 Q225 568 203.5 529.5 Q182 491 173.5 441 Q165 391 165 338 Q165 209 209.5 141.5 Q254 74 356 74 Q404 74 438.5 94.5 Q473 115 495.5 150.5 Q518 186 528.5 234.5 Q539 283 539 339 Z M446 779 Q422 779 399.5 785 Q377 791 357 798.5 Q337 806 319.5 812 Q302 818 287 818 L230 779 L196 806 Q210 847 234.5 868 Q259 889 291 889 Q310 889 331 883 Q352 877 373 870 Q394 863 413.5 857 Q433 851 449 851 L505 891 L540 864 Q526 824 502 801.5 Q478 779 446 779 Z " />
<glyph glyph-name="Odieresis" unicode="&#xd6;" horiz-adv-x="705" d="M655 342 Q655 267 636 203 Q617 139 579.5 91.5 Q542 44 486 17.5 Q430 -9 356 -9 Q275 -9 217 16 Q159 41 122 86.5 Q85 132 67.5 196 Q50 260 50 339 Q50 411 66.5 476 Q83 541 120 590 Q157 639 215 668 Q273 697 356 697 Q440 697 497.5 668 Q555 639 590 590.5 Q625 542 640 477.5 Q655 413 655 342 Z M539 339 Q539 388 532 437.5 Q525 487 505 526 Q485 565 449 589.5 Q413 614 356 614 Q299 614 262 591 Q225 568 203.5 529.5 Q182 491 173.5 441 Q165 391 165 338 Q165 209 209.5 141.5 Q254 74 356 74 Q404 74 438.5 94.5 Q473 115 495.5 150.5 Q518 186 528.5 234.5 Q539 283 539 339 Z M313 830 Q313 806 297.5 790 Q282 774 254 774 Q228 774 212.5 790 Q197 806 197 830 Q197 855 212.5 870.5 Q228 886 254 886 Q282 886 297.5 871 Q313 856 313 830 Z M512 830 Q512 806 496.5 790 Q481 774 452 774 Q426 774 411.5 790 Q397 806 397 830 Q397 855 412.5 870.5 Q428 886 452 886 Q481 886 496.5 871 Q512 856 512 830 Z " />
<glyph glyph-name="multiply" unicode="&#xd7;" horiz-adv-x="575" d="M292 243 L162 113 L112 164 L242 293 L114 421 L163 470 L290 341 L415 468 L466 417 L341 291 L468 165 L419 115 L292 243 Z " />
<glyph glyph-name="Oslash" unicode="&#xd8;" horiz-adv-x="705" d="M53 0 L121 87 Q84 133 67 196.5 Q50 260 50 339 Q50 411 66.5 476 Q83 541 120 590 Q157 639 215 668 Q273 697 356 697 Q420 697 467.5 680.5 Q515 664 550 633 L590 686 L648 686 L581 603 Q621 552 638 484.5 Q655 417 655 342 Q655 267 636 203 Q617 139 579.5 91.5 Q542 44 486 17.5 Q430 -9 356 -9 Q288 -9 237.5 8 Q187 25 151 57 L106 0 L53 0 Z M539 339 Q539 384 532 430 Q525 476 507 514 L214 133 Q238 102 272.5 87 Q307 72 356 72 Q404 72 438.5 92.5 Q473 113 495.5 149 Q518 185 528.5 234 Q539 283 539 339 Z M165 338 Q165 234 194 176 L486 556 Q465 584 433.5 600.5 Q402 617 356 617 Q299 617 262 593.5 Q225 570 203.5 531 Q182 492 173.5 441.5 Q165 391 165 338 Z " />
<glyph glyph-name="Ugrave" unicode="&#xd9;" horiz-adv-x="728" d="M635 249 Q635 131 568.5 61.5 Q502 -8 363 -8 Q291 -8 239.5 9.5 Q188 27 155 60 Q122 93 106.5 141 Q91 189 91 249 L91 608 L32 608 L32 686 L267 686 L267 608 L199 608 L199 250 Q199 162 241.5 119 Q284 76 364 76 Q442 76 485 118 Q528 160 528 250 L528 608 L461 608 L461 686 L696 686 L696 608 L635 608 L635 249 Z M211 881 L278 948 L414 784 L370 742 L211 881 Z " />
<glyph glyph-name="Uacute" unicode="&#xda;" horiz-adv-x="728" d="M635 249 Q635 131 568.5 61.5 Q502 -8 363 -8 Q291 -8 239.5 9.5 Q188 27 155 60 Q122 93 106.5 141 Q91 189 91 249 L91 608 L32 608 L32 686 L267 686 L267 608 L199 608 L199 250 Q199 162 241.5 119 Q284 76 364 76 Q442 76 485 118 Q528 160 528 250 L528 608 L461 608 L461 686 L696 686 L696 608 L635 608 L635 249 Z M374 741 L332 781 L467 946 L535 880 L374 741 Z " />
<glyph glyph-name="Ucircumflex" unicode="&#xdb;" horiz-adv-x="728" d="M635 249 Q635 131 568.5 61.5 Q502 -8 363 -8 Q291 -8 239.5 9.5 Q188 27 155 60 Q122 93 106.5 141 Q91 189 91 249 L91 608 L32 608 L32 686 L267 686 L267 608 L199 608 L199 250 Q199 162 241.5 119 Q284 76 364 76 Q442 76 485 118 Q528 160 528 250 L528 608 L461 608 L461 686 L696 686 L696 608 L635 608 L635 249 Z M535.649 743.169 L369.497 831.493 L204.383 742.187 L175.306 776.536 L333.151 915.892 L406.881 915.892 L566.803 777.517 L535.649 743.169 Z " />
<glyph glyph-name="Udieresis" unicode="&#xdc;" horiz-adv-x="728" d="M635 249 Q635 131 568.5 61.5 Q502 -8 363 -8 Q291 -8 239.5 9.5 Q188 27 155 60 Q122 93 106.5 141 Q91 189 91 249 L91 608 L32 608 L32 686 L267 686 L267 608 L199 608 L199 250 Q199 162 241.5 119 Q284 76 364 76 Q442 76 485 118 Q528 160 528 250 L528 608 L461 608 L461 686 L696 686 L696 608 L635 608 L635 249 Z M327 830 Q327 806 311.5 790 Q296 774 268 774 Q242 774 226.5 790 Q211 806 211 830 Q211 855 226.5 870.5 Q242 886 268 886 Q296 886 311.5 871 Q327 856 327 830 Z M526 830 Q526 806 510.5 790 Q495 774 466 774 Q440 774 425.5 790 Q411 806 411 830 Q411 855 426.5 870.5 Q442 886 466 886 Q495 886 510.5 871 Q526 856 526 830 Z " />
<glyph glyph-name="Yacute" unicode="&#xdd;" horiz-adv-x="621" d="M445 607 L386 607 L386 686 L610 686 L610 607 L554 607 L365 287 L365 77 L445 77 L445 0 L172 0 L172 77 L252 77 L252 284 L67 607 L12 607 L12 686 L239 686 L239 607 L181 607 L309 366 L313 366 L445 607 Z M319 740 L277 780 L412 945 L480 879 L319 740 Z " />
<glyph glyph-name="Thorn" unicode="&#xde;" horiz-adv-x="598" d="M218 545 L348 545 Q453 545 512 497.5 Q571 450 571 356 Q571 323 560 288 Q549 253 524.5 224.5 Q500 196 459 177.5 Q418 159 358 160 L218 160 L218 71 L296 71 L296 0 L40 0 L40 71 L108 71 L108 612 L40 612 L40 686 L296 686 L296 612 L218 612 L218 545 Z M218 478 L218 227 L336 227 Q360 227 382 233.5 Q404 240 420.5 255 Q437 270 447 294 Q457 318 457 353 Q457 418 421.5 448 Q386 478 332 478 L218 478 Z " />
<glyph glyph-name="germandbls" unicode="&#xdf;" horiz-adv-x="619" d="M481 120 Q481 144 472.5 162 Q464 180 451 195 Q438 210 422 223 Q406 236 391 250 Q373 267 354.5 284.5 Q336 302 321 321 Q306 340 296.5 360 Q287 380 287 402 Q287 431 303 453.5 Q319 476 338 496 Q357 516 373 535 Q389 554 389 577 Q389 584 386.5 596 Q384 608 375 619.5 Q366 631 348 639.5 Q330 648 299 648 Q272 648 253.5 639.5 Q235 631 223.5 616 Q212 601 206.5 581 Q201 561 201 539 L201 0 L22 0 L22 73 L95 73 L95 381 L26 381 L26 445 L95 445 L95 519 Q95 531 96.5 551 Q98 571 104 594 Q110 617 122.5 640.5 Q135 664 158 683 Q181 702 215.5 714 Q250 726 300 726 Q356 726 392.5 712 Q429 698 450 677.5 Q471 657 479.5 634 Q488 611 488 592 Q488 555 471.5 528.5 Q455 502 435.5 481 Q416 460 400 442.5 Q384 425 384 406 Q384 382 406.5 358 Q429 334 463 309 Q487 291 509 274 Q531 257 548 236 Q565 215 575 189 Q585 163 585 128 Q585 100 574.5 74.5 Q564 49 542 29.5 Q520 10 486.5 -1.5 Q453 -13 407 -13 Q369 -13 330 -6.5 Q291 0 262 11 L262 137 L329 137 L329 71 Q355 63 374 60.5 Q393 58 406 58 Q441 58 461 75.5 Q481 93 481 120 Z " />
<glyph glyph-name="agrave" unicode="&#xe0;" horiz-adv-x="537" d="M230 220 Q188 217 166 195.5 Q144 174 144 143 Q144 104 163 85.5 Q182 67 225 67 Q252 67 283.5 81 Q315 95 339 118 L339 228 L230 220 Z M442 75 L518 75 L524 15 Q514 9 499 5 Q484 1 468 -1.5 Q452 -4 437 -5 Q422 -6 412 -6 Q383 -6 364.5 5 Q346 16 345 55 Q344 55 344 55.5 Q344 56 343 56 Q316 32 291 19 Q266 6 244.5 -0.5 Q223 -7 206 -8 Q189 -9 178 -9 Q134 -9 106 5 Q78 19 61.5 40 Q45 61 39 86 Q33 111 33 132 Q33 162 43.5 187 Q54 212 77 231 Q100 250 136 262.5 Q172 275 223 278 L341 286 L341 315 Q341 370 320 393 Q299 416 243 416 Q207 416 167.5 409 Q128 402 93 390 Q88 407 83 424 Q78 441 73 458 Q115 477 167.5 487 Q220 497 268 497 Q350 497 396 460.5 Q442 424 442 332 L442 75 Z M136 682 Q139 685 149.5 695.5 Q160 706 171 718 Q182 730 192.5 741 Q203 752 206 755 Q210 750 220.5 737 Q231 724 245 707.5 Q259 691 274 672.5 Q289 654 303 637.5 Q317 621 327.5 608 Q338 595 342 590 L297 544 L136 682 Z " />
<glyph glyph-name="aacute" unicode="&#xe1;" horiz-adv-x="537" d="M230 220 Q188 217 166 195.5 Q144 174 144 143 Q144 104 163 85.5 Q182 67 225 67 Q252 67 283.5 81 Q315 95 339 118 L339 228 L230 220 Z M442 75 L518 75 L524 15 Q514 9 499 5 Q484 1 468 -1.5 Q452 -4 437 -5 Q422 -6 412 -6 Q383 -6 364.5 5 Q346 16 345 55 Q344 55 344 55.5 Q344 56 343 56 Q316 32 291 19 Q266 6 244.5 -0.5 Q223 -7 206 -8 Q189 -9 178 -9 Q134 -9 106 5 Q78 19 61.5 40 Q45 61 39 86 Q33 111 33 132 Q33 162 43.5 187 Q54 212 77 231 Q100 250 136 262.5 Q172 275 223 278 L341 286 L341 315 Q341 370 320 393 Q299 416 243 416 Q207 416 167.5 409 Q128 402 93 390 Q88 407 83 424 Q78 441 73 458 Q115 477 167.5 487 Q220 497 268 497 Q350 497 396 460.5 Q442 424 442 332 L442 75 Z M240 545 L197 586 L333 752 L400 684 L240 545 Z " />
<glyph glyph-name="acircumflex" unicode="&#xe2;" horiz-adv-x="537" d="M230 220 Q188 217 166 195.5 Q144 174 144 143 Q144 104 163 85.5 Q182 67 225 67 Q252 67 283.5 81 Q315 95 339 118 L339 228 L230 220 Z M442 75 L518 75 L524 15 Q514 9 499 5 Q484 1 468 -1.5 Q452 -4 437 -5 Q422 -6 412 -6 Q383 -6 364.5 5 Q346 16 345 55 Q344 55 344 55.5 Q344 56 343 56 Q316 32 291 19 Q266 6 244.5 -0.5 Q223 -7 206 -8 Q189 -9 178 -9 Q134 -9 106 5 Q78 19 61.5 40 Q45 61 39 86 Q33 111 33 132 Q33 162 43.5 187 Q54 212 77 231 Q100 250 136 262.5 Q172 275 223 278 L341 286 L341 315 Q341 370 320 393 Q299 416 243 416 Q207 416 167.5 409 Q128 402 93 390 Q88 407 83 424 Q78 441 73 458 Q115 477 167.5 487 Q220 497 268 497 Q350 497 396 460.5 Q442 424 442 332 L442 75 Z M423 551 L263 645 L104 550 L76 585 L228 733 L300 733 L454 587 L423 551 Z " />
<glyph glyph-name="atilde" unicode="&#xe3;" horiz-adv-x="537" d="M230 220 Q188 217 166 195.5 Q144 174 144 143 Q144 104 163 85.5 Q182 67 225 67 Q252 67 283.5 81 Q315 95 339 118 L339 228 L230 220 Z M442 75 L518 75 L524 15 Q514 9 499 5 Q484 1 468 -1.5 Q452 -4 437 -5 Q422 -6 412 -6 Q383 -6 364.5 5 Q346 16 345 55 Q344 55 344 55.5 Q344 56 343 56 Q316 32 291 19 Q266 6 244.5 -0.5 Q223 -7 206 -8 Q189 -9 178 -9 Q134 -9 106 5 Q78 19 61.5 40 Q45 61 39 86 Q33 111 33 132 Q33 162 43.5 187 Q54 212 77 231 Q100 250 136 262.5 Q172 275 223 278 L341 286 L341 315 Q341 370 320 393 Q299 416 243 416 Q207 416 167.5 409 Q128 402 93 390 Q88 407 83 424 Q78 441 73 458 Q115 477 167.5 487 Q220 497 268 497 Q350 497 396 460.5 Q442 424 442 332 L442 75 Z M346 584 Q322 584 299.5 590 Q277 596 257 603.5 Q237 611 219.5 617 Q202 623 187 623 L130 584 L96 611 Q110 652 134.5 673 Q159 694 191 694 Q210 694 231 688 Q252 682 273 675 Q294 668 313.5 662 Q333 656 349 656 L405 696 L440 669 Q426 629 402 606.5 Q378 584 346 584 Z " />
<glyph glyph-name="adieresis" unicode="&#xe4;" horiz-adv-x="537" d="M230 220 Q188 217 166 195.5 Q144 174 144 143 Q144 104 163 85.5 Q182 67 225 67 Q252 67 283.5 81 Q315 95 339 118 L339 228 L230 220 Z M442 75 L518 75 L524 15 Q514 9 499 5 Q484 1 468 -1.5 Q452 -4 437 -5 Q422 -6 412 -6 Q383 -6 364.5 5 Q346 16 345 55 Q344 55 344 55.5 Q344 56 343 56 Q316 32 291 19 Q266 6 244.5 -0.5 Q223 -7 206 -8 Q189 -9 178 -9 Q134 -9 106 5 Q78 19 61.5 40 Q45 61 39 86 Q33 111 33 132 Q33 162 43.5 187 Q54 212 77 231 Q100 250 136 262.5 Q172 275 223 278 L341 286 L341 315 Q341 370 320 393 Q299 416 243 416 Q207 416 167.5 409 Q128 402 93 390 Q88 407 83 424 Q78 441 73 458 Q115 477 167.5 487 Q220 497 268 497 Q350 497 396 460.5 Q442 424 442 332 L442 75 Z M224 643 Q224 619 208.5 603 Q193 587 165 587 Q139 587 123.5 603 Q108 619 108 643 Q108 668 123.5 683.5 Q139 699 165 699 Q193 699 208.5 684 Q224 669 224 643 Z M423 643 Q423 619 407.5 603 Q392 587 363 587 Q337 587 322.5 603 Q308 619 308 643 Q308 668 323.5 683.5 Q339 699 363 699 Q392 699 407.5 684 Q423 669 423 643 Z " />
<glyph glyph-name="aring" unicode="&#xe5;" horiz-adv-x="537" d="M230 220 Q188 217 166 195.5 Q144 174 144 143 Q144 104 163 85.5 Q182 67 225 67 Q252 67 283.5 81 Q315 95 339 118 L339 228 L230 220 Z M442 75 L518 75 L524 15 Q514 9 499 5 Q484 1 468 -1.5 Q452 -4 437 -5 Q422 -6 412 -6 Q383 -6 364.5 5 Q346 16 345 55 Q344 55 344 55.5 Q344 56 343 56 Q316 32 291 19 Q266 6 244.5 -0.5 Q223 -7 206 -8 Q189 -9 178 -9 Q134 -9 106 5 Q78 19 61.5 40 Q45 61 39 86 Q33 111 33 132 Q33 162 43.5 187 Q54 212 77 231 Q100 250 136 262.5 Q172 275 223 278 L341 286 L341 315 Q341 370 320 393 Q299 416 243 416 Q207 416 167.5 409 Q128 402 93 390 Q88 407 83 424 Q78 441 73 458 Q115 477 167.5 487 Q220 497 268 497 Q350 497 396 460.5 Q442 424 442 332 L442 75 Z M254 554 Q230 554 208.5 563 Q187 572 171.5 587 Q156 602 147 622 Q138 642 138 665 Q138 687 147 707 Q156 727 171.5 742.5 Q187 758 208.5 767 Q230 776 254 776 Q278 776 298.5 767 Q319 758 334 743 Q349 728 357.5 707.5 Q366 687 366 665 Q366 641 357 621 Q348 601 333 586 Q318 571 297.5 562.5 Q277 554 254 554 Z M254 721 Q229 721 212 703.5 Q195 686 195 662 Q195 640 211.5 623 Q228 606 254 606 Q277 606 293 623 Q309 640 309 662 Q309 685 293.5 703 Q278 721 254 721 Z " />
<glyph glyph-name="ae" unicode="&#xe6;" horiz-adv-x="809" d="M575 500 Q646 500 686 473.5 Q726 447 746 409.5 Q766 372 771 332 Q776 292 776 265 L776 226 L458 226 Q458 193 464 165 Q470 137 485 116.5 Q500 96 525.5 84 Q551 72 589 72 Q630 72 665.5 80 Q701 88 741 104 L763 39 Q718 15 671 4 Q624 -7 576 -7 Q505 -7 463.5 12.5 Q422 32 397 68 Q361 40 329 24.5 Q297 9 269.5 1.5 Q242 -6 220 -7.5 Q198 -9 183 -9 Q137 -9 108 5.5 Q79 20 62 41 Q45 62 38.5 86.5 Q32 111 32 132 Q32 161 42.5 188 Q53 215 74.5 235.5 Q96 256 129.5 268 Q163 280 209 280 L353 280 L353 316 Q353 373 327 395 Q301 417 244 417 Q204 417 164.5 410 Q125 403 90 391 L70 459 Q112 478 165 488.5 Q218 499 266 499 Q315 499 356.5 482 Q398 465 416 425 Q440 458 478.5 479 Q517 500 575 500 Z M227 63 Q239 63 257 66.5 Q275 70 294.5 77.5 Q314 85 334 95 Q354 105 369 119 Q361 143 357 169.5 Q353 196 352 225 L240 225 Q192 225 167.5 203.5 Q143 182 143 145 Q143 63 227 63 Z M575 423 Q544 423 523 411 Q502 399 488.5 379.5 Q475 360 468.5 334 Q462 308 460 280 L679 280 Q679 312 674 338.5 Q669 365 657 383.5 Q645 402 625 412.5 Q605 423 575 423 Z " />
<glyph glyph-name="ccedilla" unicode="&#xe7;" horiz-adv-x="471" d="M272 500 Q313 500 351 493.5 Q389 487 421 474 L421 337 L345 337 L345 408 Q336 410 323.5 411.5 Q311 413 302 413 Q220 413 183.5 372.5 Q147 332 147 241 Q147 155 180.5 114 Q214 73 279 73 Q316 73 350 80 Q384 87 419 101 Q425 84 430.5 66 Q436 48 442 31 Q408 12 361.5 2 Q315 -8 266 -8 Q200 -8 156.5 11 Q113 30 87 63.5 Q61 97 50.5 142 Q40 187 40 239 Q40 279 49 325 Q58 371 83.5 410 Q109 449 154.5 474.5 Q200 500 272 500 Z M301 17 Q287 -1 271 -21 Q255 -41 241 -61 Q290 -63 319.5 -83.5 Q349 -104 349 -145 Q348 -166 337 -184.5 Q326 -203 303.5 -217 Q281 -231 246.5 -239 Q212 -247 165 -247 L165 -206 Q219 -201 250 -187 Q281 -173 281 -149 Q281 -136 272 -128 Q263 -120 249 -116 Q235 -112 217.5 -111 Q200 -110 183 -110 Q176 -99 169 -89 Q194 -57 218 -25 Q242 7 267 38 Q275 32 284 27.5 Q293 23 301 17 Z " />
<glyph glyph-name="egrave" unicode="&#xe8;" horiz-adv-x="505" d="M264 422 Q235 422 214 410.5 Q193 399 179.5 380.5 Q166 362 158.5 338.5 Q151 315 150 291 L368 291 Q367 318 362 341.5 Q357 365 345 383 Q333 401 313.5 411.5 Q294 422 264 422 Z M265 500 Q336 500 376.5 473.5 Q417 447 437.5 409.5 Q458 372 463 332 Q468 292 468 265 L468 217 L148 217 Q148 184 154 157 Q160 130 175 111 Q190 92 215.5 81.5 Q241 71 279 71 Q321 71 356 79 Q391 87 431 104 L458 37 Q412 13 363.5 2 Q315 -9 266 -9 Q197 -9 153.5 12 Q110 33 84.5 68 Q59 103 49.5 148.5 Q40 194 40 243 Q40 279 49 323.5 Q58 368 83 407.5 Q108 447 152 473.5 Q196 500 265 500 Z M116 682 Q119 685 129.5 695.5 Q140 706 151 718 Q162 730 172.5 741 Q183 752 186 755 Q190 750 200.5 737 Q211 724 225 707.5 Q239 691 254 672.5 Q269 654 283 637.5 Q297 621 307.5 608 Q318 595 322 590 L277 544 L116 682 Z " />
<glyph glyph-name="eacute" unicode="&#xe9;" horiz-adv-x="505" d="M264 422 Q235 422 214 410.5 Q193 399 179.5 380.5 Q166 362 158.5 338.5 Q151 315 150 291 L368 291 Q367 318 362 341.5 Q357 365 345 383 Q333 401 313.5 411.5 Q294 422 264 422 Z M265 500 Q336 500 376.5 473.5 Q417 447 437.5 409.5 Q458 372 463 332 Q468 292 468 265 L468 217 L148 217 Q148 184 154 157 Q160 130 175 111 Q190 92 215.5 81.5 Q241 71 279 71 Q321 71 356 79 Q391 87 431 104 L458 37 Q412 13 363.5 2 Q315 -9 266 -9 Q197 -9 153.5 12 Q110 33 84.5 68 Q59 103 49.5 148.5 Q40 194 40 243 Q40 279 49 323.5 Q58 368 83 407.5 Q108 447 152 473.5 Q196 500 265 500 Z M247 545 L204 586 L340 752 L407 684 L247 545 Z " />
<glyph glyph-name="ecircumflex" unicode="&#xea;" horiz-adv-x="505" d="M264 422 Q235 422 214 410.5 Q193 399 179.5 380.5 Q166 362 158.5 338.5 Q151 315 150 291 L368 291 Q367 318 362 341.5 Q357 365 345 383 Q333 401 313.5 411.5 Q294 422 264 422 Z M265 500 Q336 500 376.5 473.5 Q417 447 437.5 409.5 Q458 372 463 332 Q468 292 468 265 L468 217 L148 217 Q148 184 154 157 Q160 130 175 111 Q190 92 215.5 81.5 Q241 71 279 71 Q321 71 356 79 Q391 87 431 104 L458 37 Q412 13 363.5 2 Q315 -9 266 -9 Q197 -9 153.5 12 Q110 33 84.5 68 Q59 103 49.5 148.5 Q40 194 40 243 Q40 279 49 323.5 Q58 368 83 407.5 Q108 447 152 473.5 Q196 500 265 500 Z M426 551 L266 645 L107 550 L79 585 L231 733 L303 733 L457 587 L426 551 Z " />
<glyph glyph-name="edieresis" unicode="&#xeb;" horiz-adv-x="505" d="M264 422 Q235 422 214 410.5 Q193 399 179.5 380.5 Q166 362 158.5 338.5 Q151 315 150 291 L368 291 Q367 318 362 341.5 Q357 365 345 383 Q333 401 313.5 411.5 Q294 422 264 422 Z M265 500 Q336 500 376.5 473.5 Q417 447 437.5 409.5 Q458 372 463 332 Q468 292 468 265 L468 217 L148 217 Q148 184 154 157 Q160 130 175 111 Q190 92 215.5 81.5 Q241 71 279 71 Q321 71 356 79 Q391 87 431 104 L458 37 Q412 13 363.5 2 Q315 -9 266 -9 Q197 -9 153.5 12 Q110 33 84.5 68 Q59 103 49.5 148.5 Q40 194 40 243 Q40 279 49 323.5 Q58 368 83 407.5 Q108 447 152 473.5 Q196 500 265 500 Z M227 643 Q227 619 211.5 603 Q196 587 168 587 Q142 587 126.5 603 Q111 619 111 643 Q111 668 126.5 683.5 Q142 699 168 699 Q196 699 211.5 684 Q227 669 227 643 Z M426 643 Q426 619 410.5 603 Q395 587 366 587 Q340 587 325.5 603 Q311 619 311 643 Q311 668 326.5 683.5 Q342 699 366 699 Q395 699 410.5 684 Q426 669 426 643 Z " />
<glyph glyph-name="igrave" unicode="&#xec;" horiz-adv-x="315" d="M49 417 L49 489 L210 489 L210 77 L282 77 L282 13 Q261 3 233.5 -2 Q206 -7 186 -7 Q143 -7 124.5 10.5 Q106 28 105 72 L105 417 L49 417 Z M2 682 Q5 685 15.5 695.5 Q26 706 37 718 Q48 730 58.5 741 Q69 752 72 755 Q76 750 86.5 737 Q97 724 111 707.5 Q125 691 140 672.5 Q155 654 169 637.5 Q183 621 193.5 608 Q204 595 208 590 L163 544 L2 682 Z " />
<glyph glyph-name="iacute" unicode="&#xed;" horiz-adv-x="315" d="M49 417 L49 489 L210 489 L210 77 L282 77 L282 13 Q261 3 233.5 -2 Q206 -7 186 -7 Q143 -7 124.5 10.5 Q106 28 105 72 L105 417 L49 417 Z M129 545 L86 586 L222 752 L289 684 L129 545 Z " />
<glyph glyph-name="icircumflex" unicode="&#xee;" horiz-adv-x="334" d="M59 417 L59 489 L220 489 L220 77 L292 77 L292 13 Q271 3 243.5 -2 Q216 -7 196 -7 Q153 -7 134.5 10.5 Q116 28 115 72 L115 417 L59 417 Z M327 551 L167 645 L8 550 L-20 585 L132 733 L204 733 L358 587 L327 551 Z " />
<glyph glyph-name="idieresis" unicode="&#xef;" horiz-adv-x="315" d="M49 417 L49 489 L210 489 L210 77 L282 77 L282 13 Q261 3 233.5 -2 Q206 -7 186 -7 Q143 -7 124.5 10.5 Q106 28 105 72 L105 417 L49 417 Z M108 643 Q108 619 92.5 603 Q77 587 49 587 Q23 587 7.5 603 Q-8 619 -8 643 Q-8 668 7.5 683.5 Q23 699 49 699 Q77 699 92.5 684 Q108 669 108 643 Z M307 643 Q307 619 291.5 603 Q276 587 247 587 Q221 587 206.5 603 Q192 619 192 643 Q192 668 207.5 683.5 Q223 699 247 699 Q276 699 291.5 684 Q307 669 307 643 Z " />
<glyph glyph-name="eth" unicode="&#xf0;" horiz-adv-x="540" d="M426 702 L452 666 L371 612 Q434 546 466.5 462.5 Q499 379 499 281 Q499 237 490 186 Q481 135 455.5 92 Q430 49 384 20.5 Q338 -8 263 -8 Q196 -8 153 13 Q110 34 85.5 66.5 Q61 99 51.5 139 Q42 179 42 217 Q42 263 56 305.5 Q70 348 98 381 Q126 414 166 434 Q206 454 259 454 Q285 454 316 448.5 Q347 443 376 427 Q349 508 301 565 L211 504 L185 540 L270 597 Q226 639 172 675 L203 731 Q279 695 337 643 L426 702 Z M270 379 Q236 379 212.5 364.5 Q189 350 174.5 327.5 Q160 305 153.5 276.5 Q147 248 147 221 Q147 196 151 169.5 Q155 143 168 120.5 Q181 98 205 83.5 Q229 69 269 69 Q308 69 332.5 87.5 Q357 106 370.5 133 Q384 160 389 192 Q394 224 394 251 Q394 276 391.5 297.5 Q389 319 384 345 Q352 366 322.5 372.5 Q293 379 270 379 Z " />
<glyph glyph-name="ntilde" unicode="&#xf1;" horiz-adv-x="611" d="M365 500 Q418 500 448 482.5 Q478 465 492.5 440 Q507 415 510.5 386.5 Q514 358 514 337 L514 76 L588 76 L588 13 Q567 3 538 -1.5 Q509 -6 489 -6 Q459 -6 443 3.5 Q427 13 419 26 Q411 39 409.5 52 Q408 65 408 73 L408 317 Q408 342 405 360 Q402 378 394 390 Q386 402 370 408 Q354 414 329 414 Q298 414 261.5 400 Q225 386 197 369 L197 0 L91 0 L91 413 L21 413 L21 489 L197 489 L197 446 L202 445 Q244 472 286 486 Q328 500 365 500 Z M364 595 Q340 595 317.5 601 Q295 607 275 614.5 Q255 622 237.5 628 Q220 634 205 634 L148 595 L114 622 Q128 663 152.5 684 Q177 705 209 705 Q228 705 249 699 Q270 693 291 686 Q312 679 331.5 673 Q351 667 367 667 L423 707 L458 680 Q444 640 420 617.5 Q396 595 364 595 Z " />
<glyph glyph-name="ograve" unicode="&#xf2;" horiz-adv-x="538" d="M498 244 Q498 195 486 149.5 Q474 104 446.5 69 Q419 34 374.5 13 Q330 -8 264 -8 Q202 -8 159.5 12 Q117 32 90.5 66.5 Q64 101 52 146 Q40 191 40 242 Q40 292 53 338.5 Q66 385 94 420.5 Q122 456 166 477.5 Q210 499 272 499 Q335 499 378.5 477.5 Q422 456 448.5 421 Q475 386 486.5 339.5 Q498 293 498 244 Z M389 242 Q389 273 384.5 304.5 Q380 336 367.5 361.5 Q355 387 332.5 403 Q310 419 274 419 Q237 419 213 403.5 Q189 388 175 363 Q161 338 155.5 306.5 Q150 275 150 242 Q150 208 154.5 177 Q159 146 172 122.5 Q185 99 208.5 85 Q232 71 271 71 Q307 71 330 86 Q353 101 366 125 Q379 149 384 179.5 Q389 210 389 242 Z M120 682 Q123 685 133.5 695.5 Q144 706 155 718 Q166 730 176.5 741 Q187 752 190 755 Q194 750 204.5 737 Q215 724 229 707.5 Q243 691 258 672.5 Q273 654 287 637.5 Q301 621 311.5 608 Q322 595 326 590 L281 544 L120 682 Z " />
<glyph glyph-name="oacute" unicode="&#xf3;" horiz-adv-x="538" d="M498 244 Q498 195 486 149.5 Q474 104 446.5 69 Q419 34 374.5 13 Q330 -8 264 -8 Q202 -8 159.5 12 Q117 32 90.5 66.5 Q64 101 52 146 Q40 191 40 242 Q40 292 53 338.5 Q66 385 94 420.5 Q122 456 166 477.5 Q210 499 272 499 Q335 499 378.5 477.5 Q422 456 448.5 421 Q475 386 486.5 339.5 Q498 293 498 244 Z M389 242 Q389 273 384.5 304.5 Q380 336 367.5 361.5 Q355 387 332.5 403 Q310 419 274 419 Q237 419 213 403.5 Q189 388 175 363 Q161 338 155.5 306.5 Q150 275 150 242 Q150 208 154.5 177 Q159 146 172 122.5 Q185 99 208.5 85 Q232 71 271 71 Q307 71 330 86 Q353 101 366 125 Q379 149 384 179.5 Q389 210 389 242 Z M254 545 L211 586 L347 752 L414 684 L254 545 Z " />
<glyph glyph-name="ocircumflex" unicode="&#xf4;" horiz-adv-x="538" d="M498 244 Q498 195 486 149.5 Q474 104 446.5 69 Q419 34 374.5 13 Q330 -8 264 -8 Q202 -8 159.5 12 Q117 32 90.5 66.5 Q64 101 52 146 Q40 191 40 242 Q40 292 53 338.5 Q66 385 94 420.5 Q122 456 166 477.5 Q210 499 272 499 Q335 499 378.5 477.5 Q422 456 448.5 421 Q475 386 486.5 339.5 Q498 293 498 244 Z M389 242 Q389 273 384.5 304.5 Q380 336 367.5 361.5 Q355 387 332.5 403 Q310 419 274 419 Q237 419 213 403.5 Q189 388 175 363 Q161 338 155.5 306.5 Q150 275 150 242 Q150 208 154.5 177 Q159 146 172 122.5 Q185 99 208.5 85 Q232 71 271 71 Q307 71 330 86 Q353 101 366 125 Q379 149 384 179.5 Q389 210 389 242 Z M432 551 L272 645 L113 550 L85 585 L237 733 L309 733 L463 587 L432 551 Z " />
<glyph glyph-name="otilde" unicode="&#xf5;" horiz-adv-x="538" d="M498 244 Q498 195 486 149.5 Q474 104 446.5 69 Q419 34 374.5 13 Q330 -8 264 -8 Q202 -8 159.5 12 Q117 32 90.5 66.5 Q64 101 52 146 Q40 191 40 242 Q40 292 53 338.5 Q66 385 94 420.5 Q122 456 166 477.5 Q210 499 272 499 Q335 499 378.5 477.5 Q422 456 448.5 421 Q475 386 486.5 339.5 Q498 293 498 244 Z M389 242 Q389 273 384.5 304.5 Q380 336 367.5 361.5 Q355 387 332.5 403 Q310 419 274 419 Q237 419 213 403.5 Q189 388 175 363 Q161 338 155.5 306.5 Q150 275 150 242 Q150 208 154.5 177 Q159 146 172 122.5 Q185 99 208.5 85 Q232 71 271 71 Q307 71 330 86 Q353 101 366 125 Q379 149 384 179.5 Q389 210 389 242 Z M360 582 Q336 582 313.5 588 Q291 594 271 601.5 Q251 609 233.5 615 Q216 621 201 621 L144 582 L110 609 Q124 650 148.5 671 Q173 692 205 692 Q224 692 245 686 Q266 680 287 673 Q308 666 327.5 660 Q347 654 363 654 L419 694 L454 667 Q440 627 416 604.5 Q392 582 360 582 Z " />
<glyph glyph-name="odieresis" unicode="&#xf6;" horiz-adv-x="538" d="M498 244 Q498 195 486 149.5 Q474 104 446.5 69 Q419 34 374.5 13 Q330 -8 264 -8 Q202 -8 159.5 12 Q117 32 90.5 66.5 Q64 101 52 146 Q40 191 40 242 Q40 292 53 338.5 Q66 385 94 420.5 Q122 456 166 477.5 Q210 499 272 499 Q335 499 378.5 477.5 Q422 456 448.5 421 Q475 386 486.5 339.5 Q498 293 498 244 Z M389 242 Q389 273 384.5 304.5 Q380 336 367.5 361.5 Q355 387 332.5 403 Q310 419 274 419 Q237 419 213 403.5 Q189 388 175 363 Q161 338 155.5 306.5 Q150 275 150 242 Q150 208 154.5 177 Q159 146 172 122.5 Q185 99 208.5 85 Q232 71 271 71 Q307 71 330 86 Q353 101 366 125 Q379 149 384 179.5 Q389 210 389 242 Z M231 643 Q231 619 215.5 603 Q200 587 172 587 Q146 587 130.5 603 Q115 619 115 643 Q115 668 130.5 683.5 Q146 699 172 699 Q200 699 215.5 684 Q231 669 231 643 Z M430 643 Q430 619 414.5 603 Q399 587 370 587 Q344 587 329.5 603 Q315 619 315 643 Q315 668 330.5 683.5 Q346 699 370 699 Q399 699 414.5 684 Q430 669 430 643 Z " />
<glyph glyph-name="divide" unicode="&#xf7;" horiz-adv-x="575" d="M345 464 Q345 441 328.5 424 Q312 407 289 407 Q265 407 248 424 Q231 441 231 464 Q231 488 247.5 504.5 Q264 521 288 521 Q312 521 328.5 504.5 Q345 488 345 464 Z M87 266 L87 335 L488 335 L488 266 L87 266 Z M345 136 Q345 113 328.5 96 Q312 79 289 79 Q265 79 248 96 Q231 113 231 136 Q231 160 247.5 176 Q264 192 288 192 Q312 192 328.5 176 Q345 160 345 136 Z " />
<glyph glyph-name="oslash" unicode="&#xf8;" horiz-adv-x="538" d="M42 0 L92 60 Q63 95 51.5 142 Q40 189 40 242 Q40 292 53 338.5 Q66 385 93.5 420.5 Q121 456 165 477.5 Q209 499 271 499 Q319 499 354.5 486.5 Q390 474 416 452 L446 489 L492 489 L442 428 Q472 392 485 344 Q498 296 498 243 Q498 194 486 149 Q474 104 446.5 69.5 Q419 35 374 14 Q329 -7 263 -7 Q170 -7 119 35 L90 0 L42 0 Z M387 242 Q387 268 383.5 296 Q380 324 369 347 Q321 286 275.5 225.5 Q230 165 182 104 Q196 88 217.5 78.5 Q239 69 271 69 Q307 69 330 84 Q353 99 365.5 123.5 Q378 148 382.5 179 Q387 210 387 242 Z M271 420 Q236 420 212.5 405 Q189 390 175 365.5 Q161 341 155 310 Q149 279 149 248 Q149 221 152 193 Q155 165 166 142 Q213 202 259 262 Q305 322 353 382 Q339 399 319.5 409.5 Q300 420 271 420 Z " />
<glyph glyph-name="ugrave" unicode="&#xf9;" horiz-adv-x="601" d="M238 -11 Q191 -11 162.5 2 Q134 15 118.5 37 Q103 59 97.5 87 Q92 115 92 145 L92 412 L22 412 L22 489 L199 489 L199 163 Q199 142 201 126 Q203 110 210.5 99 Q218 88 232 82.5 Q246 77 270 77 Q294 77 330.5 89 Q367 101 400 132 L400 412 L337 412 L337 489 L507 489 L507 76 L576 76 L576 13 Q548 2 522 -2 Q496 -6 479 -6 Q442 -6 424.5 7.5 Q407 21 403 57 Q358 16 314 2.5 Q270 -11 238 -11 Z M143 682 Q146 685 156.5 695.5 Q167 706 178 718 Q189 730 199.5 741 Q210 752 213 755 Q217 750 227.5 737 Q238 724 252 707.5 Q266 691 281 672.5 Q296 654 310 637.5 Q324 621 334.5 608 Q345 595 349 590 L304 544 L143 682 Z " />
<glyph glyph-name="uacute" unicode="&#xfa;" horiz-adv-x="601" d="M238 -11 Q191 -11 162.5 2 Q134 15 118.5 37 Q103 59 97.5 87 Q92 115 92 145 L92 412 L22 412 L22 489 L199 489 L199 163 Q199 142 201 126 Q203 110 210.5 99 Q218 88 232 82.5 Q246 77 270 77 Q294 77 330.5 89 Q367 101 400 132 L400 412 L337 412 L337 489 L507 489 L507 76 L576 76 L576 13 Q548 2 522 -2 Q496 -6 479 -6 Q442 -6 424.5 7.5 Q407 21 403 57 Q358 16 314 2.5 Q270 -11 238 -11 Z M263 545 L220 586 L356 752 L423 684 L263 545 Z " />
<glyph glyph-name="ucircumflex" unicode="&#xfb;" horiz-adv-x="601" d="M238 -11 Q191 -11 162.5 2 Q134 15 118.5 37 Q103 59 97.5 87 Q92 115 92 145 L92 412 L22 412 L22 489 L199 489 L199 163 Q199 142 201 126 Q203 110 210.5 99 Q218 88 232 82.5 Q246 77 270 77 Q294 77 330.5 89 Q367 101 400 132 L400 412 L337 412 L337 489 L507 489 L507 76 L576 76 L576 13 Q548 2 522 -2 Q496 -6 479 -6 Q442 -6 424.5 7.5 Q407 21 403 57 Q358 16 314 2.5 Q270 -11 238 -11 Z M451 559 L291 653 L132 558 L104 593 L256 741 L328 741 L482 595 L451 559 Z " />
<glyph glyph-name="udieresis" unicode="&#xfc;" horiz-adv-x="601" d="M238 -11 Q191 -11 162.5 2 Q134 15 118.5 37 Q103 59 97.5 87 Q92 115 92 145 L92 412 L22 412 L22 489 L199 489 L199 163 Q199 142 201 126 Q203 110 210.5 99 Q218 88 232 82.5 Q246 77 270 77 Q294 77 330.5 89 Q367 101 400 132 L400 412 L337 412 L337 489 L507 489 L507 76 L576 76 L576 13 Q548 2 522 -2 Q496 -6 479 -6 Q442 -6 424.5 7.5 Q407 21 403 57 Q358 16 314 2.5 Q270 -11 238 -11 Z M243 647 Q243 623 227.5 607 Q212 591 184 591 Q158 591 142.5 607 Q127 623 127 647 Q127 672 142.5 687.5 Q158 703 184 703 Q212 703 227.5 688 Q243 673 243 647 Z M442 647 Q442 623 426.5 607 Q411 591 382 591 Q356 591 341.5 607 Q327 623 327 647 Q327 672 342.5 687.5 Q358 703 382 703 Q411 703 426.5 688 Q442 673 442 647 Z " />
<glyph glyph-name="yacute" unicode="&#xfd;" horiz-adv-x="561" d="M20 488 L226 488 L226 411 L172 411 L241 183 Q249 155 257.5 128.5 Q266 102 274 75 L278 75 Q280 83 289 111 Q298 139 310 175 L388 411 L333 411 L333 488 L537 488 L537 411 L489 411 L307 -115 Q287 -173 254 -193.5 Q221 -214 168 -214 Q145 -214 115.5 -210 Q86 -206 53 -196 L70 -111 Q92 -116 111.5 -118.5 Q131 -121 148 -121 Q178 -121 193.5 -112.5 Q209 -104 219 -78 L250 6 L199 6 L69 411 L20 411 L20 488 Z M266 545 L223 586 L359 752 L426 684 L266 545 Z " />
<glyph glyph-name="thorn" unicode="&#xfe;" horiz-adv-x="568" d="M11 -137 L84 -137 L84 613 L9 613 L9 686 L189 686 L189 444 Q189 444 190 443 Q220 467 260.5 481 Q301 495 337 495 Q391 495 428 475.5 Q465 456 487 423 Q509 390 518.5 346 Q528 302 528 253 Q528 196 517 148 Q506 100 482 65 Q458 30 419.5 10 Q381 -10 325 -10 Q311 -10 294 -8 Q277 -6 259 -2 Q241 2 223.5 8 Q206 14 191 23 L191 -137 L269 -137 L269 -208 L11 -208 L11 -137 Z M191 101 Q199 95 212 89.5 Q225 84 240.5 79.5 Q256 75 272.5 72 Q289 69 304 69 Q327 69 348 77.5 Q369 86 385 107.5 Q401 129 410.5 164.5 Q420 200 420 254 Q420 302 411.5 333 Q403 364 388 382.5 Q373 401 352.5 408.5 Q332 416 308 416 Q294 416 277.5 412 Q261 408 244.5 401.5 Q228 395 214 387 Q200 379 191 371 L191 101 Z " />
<glyph glyph-name="ydieresis" unicode="&#xff;" horiz-adv-x="561" d="M20 488 L226 488 L226 411 L172 411 L241 183 Q249 155 257.5 128.5 Q266 102 274 75 L278 75 Q280 83 289 111 Q298 139 310 175 L388 411 L333 411 L333 488 L537 488 L537 411 L489 411 L307 -115 Q287 -173 254 -193.5 Q221 -214 168 -214 Q145 -214 115.5 -210 Q86 -206 53 -196 L70 -111 Q92 -116 111.5 -118.5 Q131 -121 148 -121 Q178 -121 193.5 -112.5 Q209 -104 219 -78 L250 6 L199 6 L69 411 L20 411 L20 488 Z M238 643 Q238 619 222.5 603 Q207 587 179 587 Q153 587 137.5 603 Q122 619 122 643 Q122 668 137.5 683.5 Q153 699 179 699 Q207 699 222.5 684 Q238 669 238 643 Z M437 643 Q437 619 421.5 603 Q406 587 377 587 Q351 587 336.5 603 Q322 619 322 643 Q322 668 337.5 683.5 Q353 699 377 699 Q406 699 421.5 684 Q437 669 437 643 Z " />
<glyph glyph-name="Amacron" unicode="&#x100;" horiz-adv-x="697" d="M510 76 Q502 102 492 133.5 Q482 165 474 189 L217 189 Q210 168 200 136 Q190 104 182 76 L250 76 L250 0 L20 0 L20 76 L76 76 Q100 148 126.5 226 Q153 304 180 382.5 Q207 461 233 538.5 Q259 616 283 686 L420 686 Q469 537 521 381 Q573 225 622 76 L678 76 L678 0 L444 0 L444 76 L510 76 Z M451 265 Q431 333 410 399.5 Q389 466 367 534 Q363 549 358.5 564 Q354 579 349 594 L347 594 Q345 590 342 578 Q339 566 328 533 Q319 506 308 471.5 Q297 437 285 400.5 Q273 364 262 328.5 Q251 293 243 265 L451 265 Z M176 871 L516 871 L516 793 L176 793 L176 871 Z " />
<glyph glyph-name="amacron" unicode="&#x101;" horiz-adv-x="537" d="M230 220 Q188 217 166 195.5 Q144 174 144 143 Q144 104 163 85.5 Q182 67 225 67 Q252 67 283.5 81 Q315 95 339 118 L339 228 L230 220 Z M442 75 L518 75 L524 15 Q514 9 499 5 Q484 1 468 -1.5 Q452 -4 437 -5 Q422 -6 412 -6 Q383 -6 364.5 5 Q346 16 345 55 Q344 55 344 55.5 Q344 56 343 56 Q316 32 291 19 Q266 6 244.5 -0.5 Q223 -7 206 -8 Q189 -9 178 -9 Q134 -9 106 5 Q78 19 61.5 40 Q45 61 39 86 Q33 111 33 132 Q33 162 43.5 187 Q54 212 77 231 Q100 250 136 262.5 Q172 275 223 278 L341 286 L341 315 Q341 370 320 393 Q299 416 243 416 Q207 416 167.5 409 Q128 402 93 390 Q88 407 83 424 Q78 441 73 458 Q115 477 167.5 487 Q220 497 268 497 Q350 497 396 460.5 Q442 424 442 332 L442 75 Z M85 678 L431 678 L431 600 L85 600 L85 678 Z " />
<glyph glyph-name="Abreve" unicode="&#x102;" horiz-adv-x="697" d="M510 76 Q502 102 492 133.5 Q482 165 474 189 L217 189 Q210 168 200 136 Q190 104 182 76 L250 76 L250 0 L20 0 L20 76 L76 76 Q100 148 126.5 226 Q153 304 180 382.5 Q207 461 233 538.5 Q259 616 283 686 L420 686 Q469 537 521 381 Q573 225 622 76 L678 76 L678 0 L444 0 L444 76 L510 76 Z M451 265 Q431 333 410 399.5 Q389 466 367 534 Q363 549 358.5 564 Q354 579 349 594 L347 594 Q345 590 342 578 Q339 566 328 533 Q319 506 308 471.5 Q297 437 285 400.5 Q273 364 262 328.5 Q251 293 243 265 L451 265 Z M350 756 Q322 756 297.5 766.5 Q273 777 251.5 794.5 Q230 812 211.5 834.5 Q193 857 177 882 L229 922 Q258 881 291.5 857.5 Q325 834 354 834 Q363 834 376 836 Q389 838 407 846 Q425 854 448 870.5 Q471 887 500 916 L532 883 Q487 812 439 784 Q391 756 350 756 Z " />
<glyph glyph-name="abreve" unicode="&#x103;" horiz-adv-x="537" d="M230 220 Q188 217 166 195.5 Q144 174 144 143 Q144 104 163 85.5 Q182 67 225 67 Q252 67 283.5 81 Q315 95 339 118 L339 228 L230 220 Z M442 75 L518 75 L524 15 Q514 9 499 5 Q484 1 468 -1.5 Q452 -4 437 -5 Q422 -6 412 -6 Q383 -6 364.5 5 Q346 16 345 55 Q344 55 344 55.5 Q344 56 343 56 Q316 32 291 19 Q266 6 244.5 -0.5 Q223 -7 206 -8 Q189 -9 178 -9 Q134 -9 106 5 Q78 19 61.5 40 Q45 61 39 86 Q33 111 33 132 Q33 162 43.5 187 Q54 212 77 231 Q100 250 136 262.5 Q172 275 223 278 L341 286 L341 315 Q341 370 320 393 Q299 416 243 416 Q207 416 167.5 409 Q128 402 93 390 Q88 407 83 424 Q78 441 73 458 Q115 477 167.5 487 Q220 497 268 497 Q350 497 396 460.5 Q442 424 442 332 L442 75 Z M254 573 Q226 573 201.5 583.5 Q177 594 155 611.5 Q133 629 114.5 652.5 Q96 676 80 702 L134 742 Q163 700 196 676.5 Q229 653 257 653 Q266 653 279 655.5 Q292 658 310 666 Q328 674 351 690.5 Q374 707 404 735 L439 702 Q396 631 346 602 Q296 573 254 573 Z " />
<glyph glyph-name="Aogonek" unicode="&#x104;" horiz-adv-x="697" d="M510 76 Q502 102 492 133.5 Q482 165 474 189 L217 189 Q210 168 200 136 Q190 104 182 76 L250 76 L250 0 L20 0 L20 76 L76 76 Q100 148 126.5 226 Q153 304 180 382.5 Q207 461 233 538.5 Q259 616 283 686 L420 686 Q469 537 521 381 Q573 225 622 76 L678 76 L678 0 L444 0 L444 76 L510 76 Z M451 265 Q431 333 410 399.5 Q389 466 367 534 Q363 549 358.5 564 Q354 579 349 594 L347 594 Q345 590 342 578 Q339 566 328 533 Q319 506 308 471.5 Q297 437 285 400.5 Q273 364 262 328.5 Q251 293 243 265 L451 265 Z M602 32 Q607 28 612 24 Q617 20 622 16 Q609 2 598 -15 Q587 -32 579 -49 Q571 -66 566.5 -82.5 Q562 -99 562 -112 Q562 -141 577.5 -151.5 Q593 -162 619 -162 Q639 -162 659 -158 Q679 -154 693 -150 Q695 -160 697 -169 Q699 -178 701 -187 Q675 -201 646 -208 Q617 -215 588 -215 Q539 -215 513.5 -194.5 Q488 -174 488 -139 Q488 -124 492.5 -104 Q497 -84 509.5 -61.5 Q522 -39 544.5 -15 Q567 9 602 32 Z " />
<glyph glyph-name="aogonek" unicode="&#x105;" horiz-adv-x="537" d="M230 220 Q188 217 166 195.5 Q144 174 144 143 Q144 104 163 85.5 Q182 67 225 67 Q252 67 283.5 81 Q315 95 339 118 L339 228 L230 220 Z M442 75 L518 75 L524 15 Q514 9 499 5 Q484 1 468 -1.5 Q452 -4 437 -5 Q422 -6 412 -6 Q383 -6 364.5 5 Q346 16 345 55 Q344 55 344 55.5 Q344 56 343 56 Q316 32 291 19 Q266 6 244.5 -0.5 Q223 -7 206 -8 Q189 -9 178 -9 Q134 -9 106 5 Q78 19 61.5 40 Q45 61 39 86 Q33 111 33 132 Q33 162 43.5 187 Q54 212 77 231 Q100 250 136 262.5 Q172 275 223 278 L341 286 L341 315 Q341 370 320 393 Q299 416 243 416 Q207 416 167.5 409 Q128 402 93 390 Q88 407 83 424 Q78 441 73 458 Q115 477 167.5 487 Q220 497 268 497 Q350 497 396 460.5 Q442 424 442 332 L442 75 Z M440 36 Q445 32 450 28 Q455 24 460 20 Q447 6 436 -11 Q425 -28 417 -45 Q409 -62 404.5 -78.5 Q400 -95 400 -108 Q400 -137 415.5 -147.5 Q431 -158 457 -158 Q477 -158 497 -154 Q517 -150 531 -146 Q533 -156 535 -165 Q537 -174 539 -183 Q513 -197 484 -204 Q455 -211 426 -211 Q377 -211 351.5 -190.5 Q326 -170 326 -135 Q326 -120 330.5 -100 Q335 -80 347.5 -57.5 Q360 -35 382.5 -11 Q405 13 440 36 Z " />
<glyph glyph-name="Cacute" unicode="&#x106;" horiz-adv-x="593" d="M165 341 Q165 281 175 233 Q185 185 209.5 151 Q234 117 275.5 99 Q317 81 380 81 Q393 81 412.5 82 Q432 83 454 86 Q476 89 499 93 Q522 97 542 103 L560 25 Q540 17 515.5 11 Q491 5 464 0.5 Q437 -4 409.5 -6.5 Q382 -9 357 -9 Q270 -9 211 17.5 Q152 44 116.5 90.5 Q81 137 65.5 201 Q50 265 50 340 Q50 397 63.5 460.5 Q77 524 112 576.5 Q147 629 208 663.5 Q269 698 364 698 Q420 698 464 690 Q508 682 542 670 L542 496 L462 496 L462 601 Q439 607 414 609.5 Q389 612 367 612 Q313 612 275 592.5 Q237 573 212.5 537.5 Q188 502 176.5 452 Q165 402 165 341 Z M335 741 L293 781 L428 946 L496 880 L335 741 Z " />
<glyph glyph-name="cacute" unicode="&#x107;" horiz-adv-x="471" d="M272 500 Q313 500 351 493.5 Q389 487 421 474 L421 337 L345 337 L345 408 Q336 410 323.5 411.5 Q311 413 302 413 Q220 413 183.5 372.5 Q147 332 147 241 Q147 155 180.5 114 Q214 73 279 73 Q316 73 350 80 Q384 87 419 101 Q425 84 430.5 66 Q436 48 442 31 Q408 12 361.5 2 Q315 -8 266 -8 Q200 -8 156.5 11 Q113 30 87 63.5 Q61 97 50.5 142 Q40 187 40 239 Q40 279 49 325 Q58 371 83.5 410 Q109 449 154.5 474.5 Q200 500 272 500 Z M233 545 L190 586 L326 752 L393 684 L233 545 Z " />
<glyph glyph-name="Ccircumflex" unicode="&#x108;" horiz-adv-x="593" d="M165 341 Q165 281 175 233 Q185 185 209.5 151 Q234 117 275.5 99 Q317 81 380 81 Q393 81 412.5 82 Q432 83 454 86 Q476 89 499 93 Q522 97 542 103 L560 25 Q540 17 515.5 11 Q491 5 464 0.5 Q437 -4 409.5 -6.5 Q382 -9 357 -9 Q270 -9 211 17.5 Q152 44 116.5 90.5 Q81 137 65.5 201 Q50 265 50 340 Q50 397 63.5 460.5 Q77 524 112 576.5 Q147 629 208 663.5 Q269 698 364 698 Q420 698 464 690 Q508 682 542 670 L542 496 L462 496 L462 601 Q439 607 414 609.5 Q389 612 367 612 Q313 612 275 592.5 Q237 573 212.5 537.5 Q188 502 176.5 452 Q165 402 165 341 Z M509 743 L349 833 L190 742 L162 777 L314 919 L385 919 L539 778 L509 743 Z " />
<glyph glyph-name="ccircumflex" unicode="&#x109;" horiz-adv-x="471" d="M272 500 Q313 500 351 493.5 Q389 487 421 474 L421 337 L345 337 L345 408 Q336 410 323.5 411.5 Q311 413 302 413 Q220 413 183.5 372.5 Q147 332 147 241 Q147 155 180.5 114 Q214 73 279 73 Q316 73 350 80 Q384 87 419 101 Q425 84 430.5 66 Q436 48 442 31 Q408 12 361.5 2 Q315 -8 266 -8 Q200 -8 156.5 11 Q113 30 87 63.5 Q61 97 50.5 142 Q40 187 40 239 Q40 279 49 325 Q58 371 83.5 410 Q109 449 154.5 474.5 Q200 500 272 500 Z M422 560 L262 654 L103 559 L75 594 L227 742 L299 742 L453 596 L422 560 Z " />
<glyph glyph-name="Cdotaccent" unicode="&#x10a;" horiz-adv-x="593" d="M165 341 Q165 281 175 233 Q185 185 209.5 151 Q234 117 275.5 99 Q317 81 380 81 Q393 81 412.5 82 Q432 83 454 86 Q476 89 499 93 Q522 97 542 103 L560 25 Q540 17 515.5 11 Q491 5 464 0.5 Q437 -4 409.5 -6.5 Q382 -9 357 -9 Q270 -9 211 17.5 Q152 44 116.5 90.5 Q81 137 65.5 201 Q50 265 50 340 Q50 397 63.5 460.5 Q77 524 112 576.5 Q147 629 208 663.5 Q269 698 364 698 Q420 698 464 690 Q508 682 542 670 L542 496 L462 496 L462 601 Q439 607 414 609.5 Q389 612 367 612 Q313 612 275 592.5 Q237 573 212.5 537.5 Q188 502 176.5 452 Q165 402 165 341 Z M420 848 Q420 820 400.5 801 Q381 782 349 782 Q317 782 299.5 801 Q282 820 282 848 Q282 877 299.5 896 Q317 915 349 915 Q381 915 400.5 896 Q420 877 420 848 Z " />
<glyph glyph-name="cdotaccent" unicode="&#x10b;" horiz-adv-x="471" d="M272 500 Q313 500 351 493.5 Q389 487 421 474 L421 337 L345 337 L345 408 Q336 410 323.5 411.5 Q311 413 302 413 Q220 413 183.5 372.5 Q147 332 147 241 Q147 155 180.5 114 Q214 73 279 73 Q316 73 350 80 Q384 87 419 101 Q425 84 430.5 66 Q436 48 442 31 Q408 12 361.5 2 Q315 -8 266 -8 Q200 -8 156.5 11 Q113 30 87 63.5 Q61 97 50.5 142 Q40 187 40 239 Q40 279 49 325 Q58 371 83.5 410 Q109 449 154.5 474.5 Q200 500 272 500 Z M331 648 Q331 620 311.5 601 Q292 582 260 582 Q228 582 210.5 601 Q193 620 193 648 Q193 677 210.5 696 Q228 715 260 715 Q292 715 311.5 696 Q331 677 331 648 Z " />
<glyph glyph-name="Ccaron" unicode="&#x10c;" horiz-adv-x="593" d="M165 341 Q165 281 175 233 Q185 185 209.5 151 Q234 117 275.5 99 Q317 81 380 81 Q393 81 412.5 82 Q432 83 454 86 Q476 89 499 93 Q522 97 542 103 L560 25 Q540 17 515.5 11 Q491 5 464 0.5 Q437 -4 409.5 -6.5 Q382 -9 357 -9 Q270 -9 211 17.5 Q152 44 116.5 90.5 Q81 137 65.5 201 Q50 265 50 340 Q50 397 63.5 460.5 Q77 524 112 576.5 Q147 629 208 663.5 Q269 698 364 698 Q420 698 464 690 Q508 682 542 670 L542 496 L462 496 L462 601 Q439 607 414 609.5 Q389 612 367 612 Q313 612 275 592.5 Q237 573 212.5 537.5 Q188 502 176.5 452 Q165 402 165 341 Z M531 887 L377 747 L306 747 L154 889 L182 922 L341 831 L501 923 L531 887 Z " />
<glyph glyph-name="ccaron" unicode="&#x10d;" horiz-adv-x="471" d="M272 500 Q313 500 351 493.5 Q389 487 421 474 L421 337 L345 337 L345 408 Q336 410 323.5 411.5 Q311 413 302 413 Q220 413 183.5 372.5 Q147 332 147 241 Q147 155 180.5 114 Q214 73 279 73 Q316 73 350 80 Q384 87 419 101 Q425 84 430.5 66 Q436 48 442 31 Q408 12 361.5 2 Q315 -8 266 -8 Q200 -8 156.5 11 Q113 30 87 63.5 Q61 97 50.5 142 Q40 187 40 239 Q40 279 49 325 Q58 371 83.5 410 Q109 449 154.5 474.5 Q200 500 272 500 Z M453 708 L299 561 L228 561 L75 710 L103 744 L263 647 L423 743 L453 708 Z " />
<glyph glyph-name="Dcaron" unicode="&#x10e;" horiz-adv-x="692" d="M42 0 L42 77 L112 77 L112 607 L46 607 L46 686 L350 686 Q437 686 493.5 658.5 Q550 631 583 584 Q616 537 629 475.5 Q642 414 642 345 Q642 275 627.5 212.5 Q613 150 578.5 102.5 Q544 55 486.5 27.5 Q429 0 343 0 L42 0 Z M224 607 L224 77 L330 77 Q355 77 389 84.5 Q423 92 453.5 119 Q484 146 505.5 198 Q527 250 527 339 Q527 429 507.5 482.5 Q488 536 459 563.5 Q430 591 396 599 Q362 607 334 607 L224 607 Z M496 884 L342 744 L271 744 L119 886 L147 919 L306 828 L466 920 L496 884 Z " />
<glyph glyph-name="dcaron" unicode="&#x10f;" horiz-adv-x="697" d="M558 686 Q558 709 575.5 725.5 Q593 742 619 742 Q649 742 665.5 722 Q682 702 681 674 Q680 632 654.5 596 Q629 560 587 540 L562 571 Q597 601 598 635 Q578 640 568 653 Q558 666 558 686 Z M381 45 Q350 20 308.5 6 Q267 -8 231 -8 Q177 -8 140 11.5 Q103 31 81 64 Q59 97 49.5 141 Q40 185 40 235 Q40 292 51 340.5 Q62 389 86 424.5 Q110 460 148.5 480.5 Q187 501 243 501 Q270 501 306.5 494.5 Q343 488 377 470 L377 637 L299 637 L299 713 L484 713 L484 75 L557 75 L557 0 L383 0 L383 44 L381 45 Z M264 419 Q241 419 220 411 Q199 403 183 382.5 Q167 362 157.5 326.5 Q148 291 148 236 Q148 188 156.5 156.5 Q165 125 180 106.5 Q195 88 215.5 80.5 Q236 73 260 73 Q292 73 325.5 87.5 Q359 102 377 118 L377 387 Q369 393 356 398.5 Q343 404 327.5 408.5 Q312 413 295.5 416 Q279 419 264 419 Z " />
<glyph glyph-name="Dcroat" unicode="&#x110;" horiz-adv-x="692" d="M42 0 L42 77 L112 77 L112 337 L46 337 L46 392 L112 392 L112 607 L46 607 L46 686 L350 686 Q437 686 493.5 658.5 Q550 631 583 584 Q616 537 629 475.5 Q642 414 642 345 Q642 275 627.5 212.5 Q613 150 578.5 102.5 Q544 55 486.5 27.5 Q429 0 343 0 L42 0 Z M224 607 L224 392 L357 392 L357 337 L224 337 L224 77 L330 77 Q355 77 389 84.5 Q423 92 453.5 119 Q484 146 505.5 198 Q527 250 527 339 Q527 429 507.5 482.5 Q488 536 459 563.5 Q430 591 396 599 Q362 607 334 607 L224 607 Z " />
<glyph glyph-name="dcroat" unicode="&#x111;" horiz-adv-x="572" d="M379 46 Q349 21 308 6.5 Q267 -8 231 -8 Q177 -8 140 11 Q103 30 81 62.5 Q59 95 49.5 138.5 Q40 182 40 232 Q40 287 51 333.5 Q62 380 86 413.5 Q110 447 148.5 466 Q187 485 243 485 Q256 485 273.5 483 Q291 481 309 476.5 Q327 472 344.5 465.5 Q362 459 377 450 L377 540 L246 540 L246 589 L377 589 L377 644 L299 644 L299 713 L484 713 L484 589 L555 589 L555 540 L484 540 L484 72 L557 72 L557 0 L381 0 L381 43 L379 46 Z M264 406 Q241 406 220 398.5 Q199 391 183 371.5 Q167 352 157.5 318.5 Q148 285 148 233 Q148 185 156.5 153.5 Q165 122 180 104 Q195 86 215.5 79 Q236 72 260 72 Q273 72 290 76 Q307 80 323 86 Q339 92 353.5 100 Q368 108 377 116 L377 373 Q369 379 356 385 Q343 391 327.5 395.5 Q312 400 295.5 403 Q279 406 264 406 Z " />
<glyph glyph-name="Emacron" unicode="&#x112;" horiz-adv-x="607" d="M42 0 L42 78 L110 78 L110 608 L44 608 L44 685 L563 685 L563 506 L482 506 L482 608 L220 608 L220 393 L463 398 L463 319 L220 323 L220 78 L495 78 L495 183 L577 183 L577 0 L42 0 Z M166 871 L506 871 L506 793 L166 793 L166 871 Z " />
<glyph glyph-name="emacron" unicode="&#x113;" horiz-adv-x="505" d="M264 422 Q235 422 214 410.5 Q193 399 179.5 380.5 Q166 362 158.5 338.5 Q151 315 150 291 L368 291 Q367 318 362 341.5 Q357 365 345 383 Q333 401 313.5 411.5 Q294 422 264 422 Z M265 500 Q336 500 376.5 473.5 Q417 447 437.5 409.5 Q458 372 463 332 Q468 292 468 265 L468 217 L148 217 Q148 184 154 157 Q160 130 175 111 Q190 92 215.5 81.5 Q241 71 279 71 Q321 71 356 79 Q391 87 431 104 L458 37 Q412 13 363.5 2 Q315 -9 266 -9 Q197 -9 153.5 12 Q110 33 84.5 68 Q59 103 49.5 148.5 Q40 194 40 243 Q40 279 49 323.5 Q58 368 83 407.5 Q108 447 152 473.5 Q196 500 265 500 Z M97 678 L443 678 L443 600 L97 600 L97 678 Z " />
<glyph glyph-name="Ebreve" unicode="&#x114;" horiz-adv-x="607" d="M42 0 L42 78 L110 78 L110 608 L44 608 L44 685 L563 685 L563 506 L482 506 L482 608 L220 608 L220 393 L463 398 L463 319 L220 323 L220 78 L495 78 L495 183 L577 183 L577 0 L42 0 Z M316 756 Q288 756 263.5 766.5 Q239 777 217.5 794.5 Q196 812 177.5 834.5 Q159 857 143 882 L195 922 Q224 881 257.5 857.5 Q291 834 320 834 Q329 834 342 836 Q355 838 373 846 Q391 854 414 870.5 Q437 887 466 916 L498 883 Q453 812 405 784 Q357 756 316 756 Z " />
<glyph glyph-name="ebreve" unicode="&#x115;" horiz-adv-x="505" d="M264 422 Q235 422 214 410.5 Q193 399 179.5 380.5 Q166 362 158.5 338.5 Q151 315 150 291 L368 291 Q367 318 362 341.5 Q357 365 345 383 Q333 401 313.5 411.5 Q294 422 264 422 Z M265 500 Q336 500 376.5 473.5 Q417 447 437.5 409.5 Q458 372 463 332 Q468 292 468 265 L468 217 L148 217 Q148 184 154 157 Q160 130 175 111 Q190 92 215.5 81.5 Q241 71 279 71 Q321 71 356 79 Q391 87 431 104 L458 37 Q412 13 363.5 2 Q315 -9 266 -9 Q197 -9 153.5 12 Q110 33 84.5 68 Q59 103 49.5 148.5 Q40 194 40 243 Q40 279 49 323.5 Q58 368 83 407.5 Q108 447 152 473.5 Q196 500 265 500 Z M263 576 Q235 576 210.5 586.5 Q186 597 164 614.5 Q142 632 123.5 655.5 Q105 679 89 705 L143 745 Q172 703 205 679.5 Q238 656 266 656 Q275 656 288 658.5 Q301 661 319 669 Q337 677 360 693.5 Q383 710 413 738 L448 705 Q405 634 355 605 Q305 576 263 576 Z " />
<glyph glyph-name="Edotaccent" unicode="&#x116;" horiz-adv-x="607" d="M42 0 L42 78 L110 78 L110 608 L44 608 L44 685 L563 685 L563 506 L482 506 L482 608 L220 608 L220 393 L463 398 L463 319 L220 323 L220 78 L495 78 L495 183 L577 183 L577 0 L42 0 Z M396 842 Q396 814 376.5 795 Q357 776 325 776 Q293 776 275.5 795 Q258 814 258 842 Q258 871 275.5 890 Q293 909 325 909 Q357 909 376.5 890 Q396 871 396 842 Z " />
<glyph glyph-name="edotaccent" unicode="&#x117;" horiz-adv-x="505" d="M264 422 Q235 422 214 410.5 Q193 399 179.5 380.5 Q166 362 158.5 338.5 Q151 315 150 291 L368 291 Q367 318 362 341.5 Q357 365 345 383 Q333 401 313.5 411.5 Q294 422 264 422 Z M265 500 Q336 500 376.5 473.5 Q417 447 437.5 409.5 Q458 372 463 332 Q468 292 468 265 L468 217 L148 217 Q148 184 154 157 Q160 130 175 111 Q190 92 215.5 81.5 Q241 71 279 71 Q321 71 356 79 Q391 87 431 104 L458 37 Q412 13 363.5 2 Q315 -9 266 -9 Q197 -9 153.5 12 Q110 33 84.5 68 Q59 103 49.5 148.5 Q40 194 40 243 Q40 279 49 323.5 Q58 368 83 407.5 Q108 447 152 473.5 Q196 500 265 500 Z M340 648 Q340 620 320.5 601 Q301 582 269 582 Q237 582 219.5 601 Q202 620 202 648 Q202 677 219.5 696 Q237 715 269 715 Q301 715 320.5 696 Q340 677 340 648 Z " />
<glyph glyph-name="Eogonek" unicode="&#x118;" horiz-adv-x="607" d="M42 0 L42 78 L110 78 L110 608 L44 608 L44 685 L563 685 L563 506 L482 506 L482 608 L220 608 L220 393 L463 398 L463 319 L220 323 L220 78 L495 78 L495 183 L577 183 L577 0 L42 0 Z M516 34 Q521 30 526 26 Q531 22 536 18 Q523 4 512 -13 Q501 -30 493 -47 Q485 -64 480.5 -80.5 Q476 -97 476 -110 Q476 -139 491.5 -149.5 Q507 -160 533 -160 Q553 -160 573 -156 Q593 -152 607 -148 Q609 -158 611 -167 Q613 -176 615 -185 Q589 -199 560 -206 Q531 -213 502 -213 Q453 -213 427.5 -192.5 Q402 -172 402 -137 Q402 -122 406.5 -102 Q411 -82 423.5 -59.5 Q436 -37 458.5 -13 Q481 11 516 34 Z " />
<glyph glyph-name="eogonek" unicode="&#x119;" horiz-adv-x="505" d="M264 422 Q235 422 214 410.5 Q193 399 179.5 380.5 Q166 362 158.5 338.5 Q151 315 150 291 L368 291 Q367 318 362 341.5 Q357 365 345 383 Q333 401 313.5 411.5 Q294 422 264 422 Z M265 500 Q336 500 376.5 473.5 Q417 447 437.5 409.5 Q458 372 463 332 Q468 292 468 265 L468 217 L148 217 Q148 184 154 157 Q160 130 175 111 Q190 92 215.5 81.5 Q241 71 279 71 Q321 71 356 79 Q391 87 431 104 L458 37 Q412 13 363.5 2 Q315 -9 266 -9 Q197 -9 153.5 12 Q110 33 84.5 68 Q59 103 49.5 148.5 Q40 194 40 243 Q40 279 49 323.5 Q58 368 83 407.5 Q108 447 152 473.5 Q196 500 265 500 Z M410 63 Q415 59 420 55 Q425 51 430 47 Q417 33 406 16 Q395 -1 387 -18 Q379 -35 374.5 -51.5 Q370 -68 370 -81 Q370 -110 385.5 -120.5 Q401 -131 427 -131 Q447 -131 467 -127 Q487 -123 501 -119 Q503 -129 505 -138 Q507 -147 509 -156 Q483 -170 454 -177 Q425 -184 396 -184 Q347 -184 321.5 -163.5 Q296 -143 296 -108 Q296 -93 300.5 -73 Q305 -53 317.5 -30.5 Q330 -8 352.5 16 Q375 40 410 63 Z " />
<glyph glyph-name="Ecaron" unicode="&#x11a;" horiz-adv-x="607" d="M42 0 L42 78 L110 78 L110 608 L44 608 L44 685 L563 685 L563 506 L482 506 L482 608 L220 608 L220 393 L463 398 L463 319 L220 323 L220 78 L495 78 L495 183 L577 183 L577 0 L42 0 Z M507 884 L353 744 L282 744 L130 886 L158 919 L317 828 L477 920 L507 884 Z " />
<glyph glyph-name="ecaron" unicode="&#x11b;" horiz-adv-x="505" d="M264 422 Q235 422 214 410.5 Q193 399 179.5 380.5 Q166 362 158.5 338.5 Q151 315 150 291 L368 291 Q367 318 362 341.5 Q357 365 345 383 Q333 401 313.5 411.5 Q294 422 264 422 Z M265 500 Q336 500 376.5 473.5 Q417 447 437.5 409.5 Q458 372 463 332 Q468 292 468 265 L468 217 L148 217 Q148 184 154 157 Q160 130 175 111 Q190 92 215.5 81.5 Q241 71 279 71 Q321 71 356 79 Q391 87 431 104 L458 37 Q412 13 363.5 2 Q315 -9 266 -9 Q197 -9 153.5 12 Q110 33 84.5 68 Q59 103 49.5 148.5 Q40 194 40 243 Q40 279 49 323.5 Q58 368 83 407.5 Q108 447 152 473.5 Q196 500 265 500 Z M451 701 L297 554 L226 554 L73 703 L101 737 L261 640 L421 736 L451 701 Z " />
<glyph glyph-name="Gcircumflex" unicode="&#x11c;" horiz-adv-x="657" d="M377 698 Q433 698 480 690 Q527 682 561 670 L561 499 L481 499 L481 599 Q461 604 434 607.5 Q407 611 381 611 Q324 611 283.5 591.5 Q243 572 216.5 537 Q190 502 177.5 452 Q165 402 165 341 Q165 284 174.5 236 Q184 188 206.5 153.5 Q229 119 267 99.5 Q305 80 363 80 Q387 80 419 83.5 Q451 87 473 94 L473 286 L374 286 L374 361 L624 361 L624 286 L574 286 L574 25 Q520 8 464 -0.5 Q408 -9 356 -9 Q270 -9 211.5 17.5 Q153 44 117 90.5 Q81 137 65.5 201 Q50 265 50 340 Q50 397 63.5 460 Q77 523 113.5 576 Q150 629 213.5 663.5 Q277 698 377 698 Z M529 743 L369 833 L210 742 L182 777 L334 919 L405 919 L559 778 L529 743 Z " />
<glyph glyph-name="gcircumflex" unicode="&#x11d;" horiz-adv-x="540" d="M441 428 Q457 410 465.5 382 Q474 354 474 326 Q474 285 457.5 254 Q441 223 412.5 201.5 Q384 180 345 168.5 Q306 157 260 157 L205 157 Q170 157 152 150 Q134 143 134 123 Q134 92 180 92 L312 92 Q403 92 454 55.5 Q505 19 505 -54 Q505 -89 489.5 -118.5 Q474 -148 441.5 -170 Q409 -192 360.5 -204.5 Q312 -217 246 -217 Q183 -217 141.5 -205.5 Q100 -194 75 -175.5 Q50 -157 40 -132 Q30 -107 30 -80 Q30 -38 50.5 -8 Q71 22 94 35 Q65 41 50 61 Q35 81 35 110 Q35 131 43 145.5 Q51 160 63 170 Q75 180 89.5 186 Q104 192 118 195 Q91 207 70 237.5 Q49 268 49 322 Q49 370 67 404 Q85 438 114.5 459.5 Q144 481 181.5 491 Q219 501 257 501 Q283 501 308.5 497.5 Q334 494 354 489 L519 489 L519 430 L444 430 L441 428 Z M187 21 Q178 18 168.5 10 Q159 2 151.5 -8.5 Q144 -19 139.5 -31.5 Q135 -44 135 -56 Q135 -71 140.5 -86 Q146 -101 160 -112 Q174 -123 198.5 -130 Q223 -137 262 -137 Q328 -137 361.5 -114.5 Q395 -92 395 -56 Q395 -42 390 -28.5 Q385 -15 373 -4 Q361 7 341.5 14 Q322 21 293 21 L187 21 Z M366 327 Q366 342 361 359 Q356 376 344 390.5 Q332 405 311.5 414.5 Q291 424 260 424 Q209 424 183 397.5 Q157 371 157 326 Q157 282 182 257 Q207 232 252 232 Q301 232 333.5 255.5 Q366 279 366 327 Z M422 560 L262 654 L103 559 L75 594 L227 742 L299 742 L453 596 L422 560 Z " />
<glyph glyph-name="Gbreve" unicode="&#x11e;" horiz-adv-x="657" d="M377 698 Q433 698 480 690 Q527 682 561 670 L561 499 L481 499 L481 599 Q461 604 434 607.5 Q407 611 381 611 Q324 611 283.5 591.5 Q243 572 216.5 537 Q190 502 177.5 452 Q165 402 165 341 Q165 284 174.5 236 Q184 188 206.5 153.5 Q229 119 267 99.5 Q305 80 363 80 Q387 80 419 83.5 Q451 87 473 94 L473 286 L374 286 L374 361 L624 361 L624 286 L574 286 L574 25 Q520 8 464 -0.5 Q408 -9 356 -9 Q270 -9 211.5 17.5 Q153 44 117 90.5 Q81 137 65.5 201 Q50 265 50 340 Q50 397 63.5 460 Q77 523 113.5 576 Q150 629 213.5 663.5 Q277 698 377 698 Z M359 756 Q331 756 306.5 766.5 Q282 777 260.5 794.5 Q239 812 220.5 834.5 Q202 857 186 882 L238 922 Q267 881 300.5 857.5 Q334 834 363 834 Q372 834 385 836 Q398 838 416 846 Q434 854 457 870.5 Q480 887 509 916 L541 883 Q496 812 448 784 Q400 756 359 756 Z " />
<glyph glyph-name="gbreve" unicode="&#x11f;" horiz-adv-x="540" d="M441 428 Q457 410 465.5 382 Q474 354 474 326 Q474 285 457.5 254 Q441 223 412.5 201.5 Q384 180 345 168.5 Q306 157 260 157 L205 157 Q170 157 152 150 Q134 143 134 123 Q134 92 180 92 L312 92 Q403 92 454 55.5 Q505 19 505 -54 Q505 -89 489.5 -118.5 Q474 -148 441.5 -170 Q409 -192 360.5 -204.5 Q312 -217 246 -217 Q183 -217 141.5 -205.5 Q100 -194 75 -175.5 Q50 -157 40 -132 Q30 -107 30 -80 Q30 -38 50.5 -8 Q71 22 94 35 Q65 41 50 61 Q35 81 35 110 Q35 131 43 145.5 Q51 160 63 170 Q75 180 89.5 186 Q104 192 118 195 Q91 207 70 237.5 Q49 268 49 322 Q49 370 67 404 Q85 438 114.5 459.5 Q144 481 181.5 491 Q219 501 257 501 Q283 501 308.5 497.5 Q334 494 354 489 L519 489 L519 430 L444 430 L441 428 Z M187 21 Q178 18 168.5 10 Q159 2 151.5 -8.5 Q144 -19 139.5 -31.5 Q135 -44 135 -56 Q135 -71 140.5 -86 Q146 -101 160 -112 Q174 -123 198.5 -130 Q223 -137 262 -137 Q328 -137 361.5 -114.5 Q395 -92 395 -56 Q395 -42 390 -28.5 Q385 -15 373 -4 Q361 7 341.5 14 Q322 21 293 21 L187 21 Z M366 327 Q366 342 361 359 Q356 376 344 390.5 Q332 405 311.5 414.5 Q291 424 260 424 Q209 424 183 397.5 Q157 371 157 326 Q157 282 182 257 Q207 232 252 232 Q301 232 333.5 255.5 Q366 279 366 327 Z M257 576 Q229 576 204.5 586.5 Q180 597 158 614.5 Q136 632 117.5 655.5 Q99 679 83 705 L137 745 Q166 703 199 679.5 Q232 656 260 656 Q269 656 282 658.5 Q295 661 313 669 Q331 677 354 693.5 Q377 710 407 738 L442 705 Q399 634 349 605 Q299 576 257 576 Z " />
<glyph glyph-name="Gdotaccent" unicode="&#x120;" horiz-adv-x="657" d="M377 698 Q433 698 480 690 Q527 682 561 670 L561 499 L481 499 L481 599 Q461 604 434 607.5 Q407 611 381 611 Q324 611 283.5 591.5 Q243 572 216.5 537 Q190 502 177.5 452 Q165 402 165 341 Q165 284 174.5 236 Q184 188 206.5 153.5 Q229 119 267 99.5 Q305 80 363 80 Q387 80 419 83.5 Q451 87 473 94 L473 286 L374 286 L374 361 L624 361 L624 286 L574 286 L574 25 Q520 8 464 -0.5 Q408 -9 356 -9 Q270 -9 211.5 17.5 Q153 44 117 90.5 Q81 137 65.5 201 Q50 265 50 340 Q50 397 63.5 460 Q77 523 113.5 576 Q150 629 213.5 663.5 Q277 698 377 698 Z M452 842 Q452 814 432.5 795 Q413 776 381 776 Q349 776 331.5 795 Q314 814 314 842 Q314 871 331.5 890 Q349 909 381 909 Q413 909 432.5 890 Q452 871 452 842 Z " />
<glyph glyph-name="gdotaccent" unicode="&#x121;" horiz-adv-x="540" d="M441 428 Q457 410 465.5 382 Q474 354 474 326 Q474 285 457.5 254 Q441 223 412.5 201.5 Q384 180 345 168.5 Q306 157 260 157 L205 157 Q170 157 152 150 Q134 143 134 123 Q134 92 180 92 L312 92 Q403 92 454 55.5 Q505 19 505 -54 Q505 -89 489.5 -118.5 Q474 -148 441.5 -170 Q409 -192 360.5 -204.5 Q312 -217 246 -217 Q183 -217 141.5 -205.5 Q100 -194 75 -175.5 Q50 -157 40 -132 Q30 -107 30 -80 Q30 -38 50.5 -8 Q71 22 94 35 Q65 41 50 61 Q35 81 35 110 Q35 131 43 145.5 Q51 160 63 170 Q75 180 89.5 186 Q104 192 118 195 Q91 207 70 237.5 Q49 268 49 322 Q49 370 67 404 Q85 438 114.5 459.5 Q144 481 181.5 491 Q219 501 257 501 Q283 501 308.5 497.5 Q334 494 354 489 L519 489 L519 430 L444 430 L441 428 Z M187 21 Q178 18 168.5 10 Q159 2 151.5 -8.5 Q144 -19 139.5 -31.5 Q135 -44 135 -56 Q135 -71 140.5 -86 Q146 -101 160 -112 Q174 -123 198.5 -130 Q223 -137 262 -137 Q328 -137 361.5 -114.5 Q395 -92 395 -56 Q395 -42 390 -28.5 Q385 -15 373 -4 Q361 7 341.5 14 Q322 21 293 21 L187 21 Z M366 327 Q366 342 361 359 Q356 376 344 390.5 Q332 405 311.5 414.5 Q291 424 260 424 Q209 424 183 397.5 Q157 371 157 326 Q157 282 182 257 Q207 232 252 232 Q301 232 333.5 255.5 Q366 279 366 327 Z M347 648 Q347 620 327.5 601 Q308 582 276 582 Q244 582 226.5 601 Q209 620 209 648 Q209 677 226.5 696 Q244 715 276 715 Q308 715 327.5 696 Q347 677 347 648 Z " />
<glyph glyph-name="Gcommaaccent" unicode="&#x122;" horiz-adv-x="657" d="M377 698 Q433 698 480 690 Q527 682 561 670 L561 499 L481 499 L481 599 Q461 604 434 607.5 Q407 611 381 611 Q324 611 283.5 591.5 Q243 572 216.5 537 Q190 502 177.5 452 Q165 402 165 341 Q165 284 174.5 236 Q184 188 206.5 153.5 Q229 119 267 99.5 Q305 80 363 80 Q387 80 419 83.5 Q451 87 473 94 L473 286 L374 286 L374 361 L624 361 L624 286 L574 286 L574 25 Q520 8 464 -0.5 Q408 -9 356 -9 Q270 -9 211.5 17.5 Q153 44 117 90.5 Q81 137 65.5 201 Q50 265 50 340 Q50 397 63.5 460 Q77 523 113.5 576 Q150 629 213.5 663.5 Q277 698 377 698 Z M300 -96 Q300 -73 317.5 -56.5 Q335 -40 361 -40 Q391 -40 407.5 -60 Q424 -80 423 -108 Q422 -150 396.5 -186 Q371 -222 329 -242 L304 -211 Q339 -181 340 -147 Q320 -142 310 -129 Q300 -116 300 -96 Z " />
<glyph glyph-name="gcommaaccent" unicode="&#x123;" horiz-adv-x="540" d="M441 428 Q457 410 465.5 382 Q474 354 474 326 Q474 285 457.5 254 Q441 223 412.5 201.5 Q384 180 345 168.5 Q306 157 260 157 L205 157 Q170 157 152 150 Q134 143 134 123 Q134 92 180 92 L312 92 Q403 92 454 55.5 Q505 19 505 -54 Q505 -89 489.5 -118.5 Q474 -148 441.5 -170 Q409 -192 360.5 -204.5 Q312 -217 246 -217 Q183 -217 141.5 -205.5 Q100 -194 75 -175.5 Q50 -157 40 -132 Q30 -107 30 -80 Q30 -38 50.5 -8 Q71 22 94 35 Q65 41 50 61 Q35 81 35 110 Q35 131 43 145.5 Q51 160 63 170 Q75 180 89.5 186 Q104 192 118 195 Q91 207 70 237.5 Q49 268 49 322 Q49 370 67 404 Q85 438 114.5 459.5 Q144 481 181.5 491 Q219 501 257 501 Q283 501 308.5 497.5 Q334 494 354 489 L519 489 L519 430 L444 430 L441 428 Z M187 21 Q178 18 168.5 10 Q159 2 151.5 -8.5 Q144 -19 139.5 -31.5 Q135 -44 135 -56 Q135 -71 140.5 -86 Q146 -101 160 -112 Q174 -123 198.5 -130 Q223 -137 262 -137 Q328 -137 361.5 -114.5 Q395 -92 395 -56 Q395 -42 390 -28.5 Q385 -15 373 -4 Q361 7 341.5 14 Q322 21 293 21 L187 21 Z M366 327 Q366 342 361 359 Q356 376 344 390.5 Q332 405 311.5 414.5 Q291 424 260 424 Q209 424 183 397.5 Q157 371 157 326 Q157 282 182 257 Q207 232 252 232 Q301 232 333.5 255.5 Q366 279 366 327 Z M337.035 602.988 Q337.035 579.991 319.538 563.493 Q302.04 546.995 276.043 546.995 Q246.047 546.995 229.549 566.993 Q213.051 586.99 214.05 614.987 Q215.05 656.982 240.547 692.977 Q266.044 728.973 308.039 748.97 L333.036 717.974 Q298.04 687.978 297.04 653.982 Q317.038 648.983 327.037 635.984 Q337.035 622.986 337.035 602.988 Z " />
<glyph glyph-name="Hcircumflex" unicode="&#x124;" horiz-adv-x="739" d="M457 0 L457 77 L519 77 L519 321 L218 321 L218 77 L281 77 L281 0 L41 0 L41 77 L108 77 L108 608 L41 608 L41 685 L281 685 L281 608 L218 608 L218 395 L519 395 L519 608 L457 608 L457 685 L697 685 L697 608 L630 608 L630 77 L697 77 L697 0 L457 0 Z M523 743 L363 833 L204 742 L176 777 L328 919 L399 919 L553 778 L523 743 Z " />
<glyph glyph-name="hcircumflex" unicode="&#x125;" horiz-adv-x="608" d="M90 0 L90 637 L20 637 L20 713 L196 713 L196 445 Q238 471 282 485.5 Q326 500 364 500 Q417 500 447 482.5 Q477 465 491.5 440 Q506 415 509.5 386.5 Q513 358 513 337 L513 76 L587 76 L587 13 Q566 3 537 -1.5 Q508 -6 488 -6 Q458 -6 442 5 Q426 16 418 31 Q410 46 408.5 60.5 Q407 75 407 83 L407 317 Q407 342 404 360 Q401 378 393 390 Q385 402 369 408 Q353 414 328 414 Q297 414 260.5 400 Q224 386 196 369 L196 0 L90 0 Z M297 774 L137 864 L-22 773 L-50 808 L102 950 L173 950 L327 809 L297 774 Z " />
<glyph glyph-name="Hbar" unicode="&#x126;" horiz-adv-x="739" d="M457 0 L457 76 L519 76 L519 318 L218 318 L218 76 L281 76 L281 0 L41 0 L41 76 L108 76 L108 479 L40 479 L40 530 L108 530 L108 611 L41 611 L41 685 L281 685 L281 611 L218 611 L218 530 L519 530 L519 611 L457 611 L457 685 L697 685 L697 611 L630 611 L630 530 L697 530 L697 479 L630 479 L630 76 L697 76 L697 0 L457 0 Z M519 384 L519 479 L218 479 L218 384 L519 384 Z " />
<glyph glyph-name="hbar" unicode="&#x127;" horiz-adv-x="608" d="M22 525 L22 577 L90 577 L90 646 L20 646 L20 713 L197 713 L197 577 L357 577 L357 525 L197 525 L197 408 Q238 435 283 449.5 Q328 464 365 464 Q414 464 443.5 450 Q473 436 489 413 Q505 390 510 361 Q515 332 515 302 L515 77 L584 77 L584 13 Q561 3 535 -2 Q509 -7 489 -7 Q447 -7 428 10.5 Q409 28 409 72 L409 278 Q409 302 406.5 320.5 Q404 339 395.5 351.5 Q387 364 371 371 Q355 378 329 378 Q299 378 262 365 Q225 352 197 335 L197 0 L90 0 L90 525 L22 525 Z " />
<glyph glyph-name="Itilde" unicode="&#x128;" horiz-adv-x="381" d="M70 0 L70 77 L135 77 L135 608 L70 608 L70 686 L311 686 L311 608 L245 608 L245 77 L311 77 L311 0 L70 0 Z M274 766 Q250 766 227.5 772 Q205 778 185 785.5 Q165 793 147.5 799 Q130 805 115 805 L58 766 L24 793 Q38 834 62.5 855 Q87 876 119 876 Q138 876 159 870 Q180 864 201 857 Q222 850 241.5 844 Q261 838 277 838 L333 878 L368 851 Q354 811 330 788.5 Q306 766 274 766 Z " />
<glyph glyph-name="itilde" unicode="&#x129;" horiz-adv-x="315" d="M49 417 L49 489 L210 489 L210 77 L282 77 L282 13 Q261 3 233.5 -2 Q206 -7 186 -7 Q143 -7 124.5 10.5 Q106 28 105 72 L105 417 L49 417 Z M222 600 Q198 600 175.5 606 Q153 612 133 619.5 Q113 627 95.5 633 Q78 639 63 639 L6 600 L-28 627 Q-14 668 10.5 689 Q35 710 67 710 Q86 710 107 704 Q128 698 149 691 Q170 684 189.5 678 Q209 672 225 672 L281 712 L316 685 Q302 645 278 622.5 Q254 600 222 600 Z " />
<glyph glyph-name="Imacron" unicode="&#x12a;" horiz-adv-x="381" d="M70 0 L70 77 L135 77 L135 608 L70 608 L70 686 L311 686 L311 608 L245 608 L245 77 L311 77 L311 0 L70 0 Z M19 871 L359 871 L359 793 L19 793 L19 871 Z " />
<glyph glyph-name="imacron" unicode="&#x12b;" horiz-adv-x="326" d="M49 417 L49 489 L210 489 L210 77 L282 77 L282 13 Q261 3 233.5 -2 Q206 -7 186 -7 Q143 -7 124.5 10.5 Q106 28 105 72 L105 417 L49 417 Z M-27 678 L319 678 L319 600 L-27 600 L-27 678 Z " />
<glyph glyph-name="Ibreve" unicode="&#x12c;" horiz-adv-x="381" d="M191 759 Q163 759 138.5 769.5 Q114 780 92.5 797.5 Q71 815 52.5 837.5 Q34 860 18 885 L70 925 Q99 884 132.5 860.5 Q166 837 195 837 Q204 837 217 839 Q230 841 248 849 Q266 857 289 873.5 Q312 890 341 919 L373 886 Q328 815 280 787 Q232 759 191 759 Z M70 0 L70 77 L135 77 L135 608 L70 608 L70 686 L311 686 L311 608 L245 608 L245 77 L311 77 L311 0 L70 0 Z " />
<glyph glyph-name="ibreve" unicode="&#x12d;" horiz-adv-x="325" d="M49 417 L49 489 L210 489 L210 77 L282 77 L282 13 Q261 3 233.5 -2 Q206 -7 186 -7 Q143 -7 124.5 10.5 Q106 28 105 72 L105 417 L49 417 Z M145 576 Q117 576 92.5 586.5 Q68 597 46 614.5 Q24 632 5.5 655.5 Q-13 679 -29 705 L25 745 Q54 703 87 679.5 Q120 656 148 656 Q157 656 170 658.5 Q183 661 201 669 Q219 677 242 693.5 Q265 710 295 738 L330 705 Q287 634 237 605 Q187 576 145 576 Z " />
<glyph glyph-name="Iogonek" unicode="&#x12e;" horiz-adv-x="381" d="M70 0 L70 77 L135 77 L135 608 L70 608 L70 686 L311 686 L311 608 L245 608 L245 77 L311 77 L311 0 L70 0 Z M209 35 Q214 31 219 27 Q224 23 229 19 Q216 5 205 -12 Q194 -29 186 -46 Q178 -63 173.5 -79.5 Q169 -96 169 -109 Q169 -138 184.5 -148.5 Q200 -159 226 -159 Q246 -159 266 -155 Q286 -151 300 -147 Q302 -157 304 -166 Q306 -175 308 -184 Q282 -198 253 -205 Q224 -212 195 -212 Q146 -212 120.5 -191.5 Q95 -171 95 -136 Q95 -121 99.5 -101 Q104 -81 116.5 -58.5 Q129 -36 151.5 -12 Q174 12 209 35 Z " />
<glyph glyph-name="iogonek" unicode="&#x12f;" horiz-adv-x="315" d="M53 412 L53 488 L210 488 L210 77 L282 77 L282 13 Q261 3 233.5 -2 Q206 -7 186 -7 Q143 -7 124 10.5 Q105 28 104 72 L104 412 L53 412 Z M220 625 Q220 598 200.5 578.5 Q181 559 153 559 Q126 559 107 578.5 Q88 598 88 625 Q88 653 107 672 Q126 691 153 691 Q181 691 200.5 672 Q220 653 220 625 Z M197 41 Q202 37 207 33 Q212 29 217 25 Q204 11 193 -6 Q182 -23 174 -40 Q166 -57 161.5 -73.5 Q157 -90 157 -103 Q157 -132 172.5 -142.5 Q188 -153 214 -153 Q234 -153 254 -149 Q274 -145 288 -141 Q290 -151 292 -160 Q294 -169 296 -178 Q270 -192 241 -199 Q212 -206 183 -206 Q134 -206 108.5 -185.5 Q83 -165 83 -130 Q83 -115 87.5 -95 Q92 -75 104.5 -52.5 Q117 -30 139.5 -6 Q162 18 197 41 Z " />
<glyph glyph-name="Idotaccent" unicode="&#x130;" horiz-adv-x="381" d="M70 0 L70 77 L135 77 L135 608 L70 608 L70 686 L311 686 L311 608 L245 608 L245 77 L311 77 L311 0 L70 0 Z M256 840 Q256 812 236.5 793 Q217 774 185 774 Q153 774 135.5 793 Q118 812 118 840 Q118 869 135.5 888 Q153 907 185 907 Q217 907 236.5 888 Q256 869 256 840 Z " />
<glyph glyph-name="dotlessi" unicode="&#x131;" horiz-adv-x="315" d="M49 417 L49 489 L210 489 L210 77 L282 77 L282 13 Q261 3 233.5 -2 Q206 -7 186 -7 Q143 -7 124.5 10.5 Q106 28 105 72 L105 417 L49 417 Z " />
<glyph glyph-name="IJ" unicode="&#x132;" horiz-adv-x="762" d="M70 0 L70 77 L135 77 L135 608 L70 608 L70 686 L311 686 L311 608 L245 608 L245 77 L311 77 L311 0 L70 0 Z M434 686 L709 686 L709 608 L632 608 L631 145 Q631 78 614.5 26 Q598 -26 565.5 -65 Q533 -104 485 -132 Q437 -160 374 -178 L345 -107 Q399 -78 433.5 -51.5 Q468 -25 487.5 4.5 Q507 34 514 68.5 Q521 103 521 148 L521 608 L434 608 L434 686 Z " />
<glyph glyph-name="ij" unicode="&#x133;" horiz-adv-x="606" d="M53 412 L53 488 L210 488 L210 77 L282 77 L282 13 Q261 3 233.5 -2 Q206 -7 186 -7 Q143 -7 124 10.5 Q105 28 104 72 L104 412 L53 412 Z M220 625 Q220 598 200.5 578.5 Q181 559 153 559 Q126 559 107 578.5 Q88 598 88 625 Q88 653 107 672 Q126 691 153 691 Q181 691 200.5 672 Q220 653 220 625 Z M343 488 L515 488 L515 41 Q515 -14 505 -56 Q495 -98 472 -130 Q449 -162 411 -186.5 Q373 -211 317 -230 L285 -162 Q325 -138 349.5 -117 Q374 -96 387 -73.5 Q400 -51 404.5 -25 Q409 1 409 34 L409 412 L343 412 L343 488 Z M521 625 Q521 598 501 578.5 Q481 559 455 559 Q427 559 408 578.5 Q389 598 389 625 Q389 653 408 672 Q427 691 455 691 Q481 691 501 672 Q521 653 521 625 Z " />
<glyph glyph-name="Jcircumflex" unicode="&#x134;" horiz-adv-x="393" d="M65 687 L340 687 L340 609 L263 609 L262 146 Q262 79 245.5 27 Q229 -25 196.5 -64 Q164 -103 116 -131 Q68 -159 5 -177 L-24 -106 Q30 -77 64.5 -50.5 Q99 -24 118.5 5.5 Q138 35 145 69.5 Q152 104 152 149 L152 609 L65 609 L65 687 Z M369 743 L209 833 L50 742 L22 777 L174 919 L245 919 L399 778 L369 743 Z " />
<glyph glyph-name="jcircumflex" unicode="&#x135;" horiz-adv-x="300" d="M37 489 L209 489 L209 36 Q209 -19 199 -59.5 Q189 -100 166 -130 Q143 -160 105 -181.5 Q67 -203 11 -221 L-16 -155 Q22 -134 45.5 -116 Q69 -98 81.5 -77.5 Q94 -57 98.5 -32.5 Q103 -8 103 27 L103 417 L37 417 L37 489 Z M293 563 L133 657 L-26 562 L-54 597 L98 745 L170 745 L324 599 L293 563 Z " />
<glyph glyph-name="Kcommaaccent" unicode="&#x136;" horiz-adv-x="681" d="M375 416 L603 77 L661 77 L661 0 L416 0 L415 77 L478 77 L296 349 L216 273 L216 76 L279 76 L279 0 L42 0 L42 76 L108 76 L108 611 L42 611 L42 685 L280 685 L280 611 L216 611 L216 372 L466 610 L403 610 L403 685 L640 685 L640 610 L582 610 L375 416 Z M285 -96 Q285 -73 302.5 -56.5 Q320 -40 346 -40 Q376 -40 392.5 -60 Q409 -80 408 -108 Q407 -150 381.5 -186 Q356 -222 314 -242 L289 -211 Q324 -181 325 -147 Q305 -142 295 -129 Q285 -116 285 -96 Z " />
<glyph glyph-name="kcommaaccent" unicode="&#x137;" horiz-adv-x="555" d="M303 488 L515 488 L515 416 L470 416 L339 304 L481 72 Q497 70 513 67.5 Q529 65 545 63 L545 6 Q526 -1 503.5 -4 Q481 -7 465 -7 Q445 -7 426.5 -1 Q408 5 393 30 L264 247 Q247 233 231.5 219 Q216 205 199 191 L199 71 L261 71 L261 0 L25 0 L25 71 L93 71 L93 640 L18 640 L18 711 L199 711 L199 289 L347 416 L303 416 L303 488 Z M255 -96 Q255 -73 272.5 -56.5 Q290 -40 316 -40 Q346 -40 362.5 -60 Q379 -80 378 -108 Q377 -150 351.5 -186 Q326 -222 284 -242 L259 -211 Q294 -181 295 -147 Q275 -142 265 -129 Q255 -116 255 -96 Z " />
<glyph glyph-name="kgreenlandic" unicode="&#x138;" horiz-adv-x="555" d="M303 489 L515 489 L515 417 L470 417 L339 304 L481 72 Q497 70 513 67.5 Q529 65 545 63 L545 6 Q526 -1 503.5 -4 Q481 -7 465 -7 Q445 -7 426.5 -1 Q408 5 393 30 L264 247 Q247 233 231.5 219 Q216 205 199 191 L199 71 L261 71 L261 0 L25 0 L25 71 L93 71 L93 418 L18 418 L18 489 L199 489 L199 289 L347 417 L303 417 L303 489 Z " />
<glyph glyph-name="Lacute" unicode="&#x139;" horiz-adv-x="591" d="M42 0 L42 77 L110 77 L110 608 L44 608 L44 685 L293 685 L293 608 L221 608 L221 77 L500 77 L500 199 L582 199 L582 0 L42 0 Z M177 741 L135 781 L270 946 L338 880 L177 741 Z " />
<glyph glyph-name="lacute" unicode="&#x13a;" horiz-adv-x="320" d="M218 75 L287 75 L287 0 L44 0 L44 75 L112 75 L112 637 L37 637 L37 713 L218 713 L218 75 Z M158 751 L116 791 L251 956 L319 890 L158 751 Z " />
<glyph glyph-name="Lcommaaccent" unicode="&#x13b;" horiz-adv-x="591" d="M42 0 L42 77 L110 77 L110 608 L44 608 L44 685 L293 685 L293 608 L221 608 L221 77 L500 77 L500 199 L582 199 L582 0 L42 0 Z M239 -96 Q239 -73 256.5 -56.5 Q274 -40 300 -40 Q330 -40 346.5 -60 Q363 -80 362 -108 Q361 -150 335.5 -186 Q310 -222 268 -242 L243 -211 Q278 -181 279 -147 Q259 -142 249 -129 Q239 -116 239 -96 Z " />
<glyph glyph-name="lcommaaccent" unicode="&#x13c;" horiz-adv-x="320" d="M218 75 L287 75 L287 0 L44 0 L44 75 L112 75 L112 637 L37 637 L37 713 L218 713 L218 75 Z M109 -96 Q109 -73 126.5 -56.5 Q144 -40 170 -40 Q200 -40 216.5 -60 Q233 -80 232 -108 Q231 -150 205.5 -186 Q180 -222 138 -242 L113 -211 Q148 -181 149 -147 Q129 -142 119 -129 Q109 -116 109 -96 Z " />
<glyph glyph-name="Lcaron" unicode="&#x13d;" horiz-adv-x="591" d="M42 0 L42 77 L110 77 L110 608 L44 608 L44 685 L293 685 L293 608 L221 608 L221 77 L500 77 L500 199 L582 199 L582 0 L42 0 Z M410 625 Q410 648 427.5 664.5 Q445 681 471 681 Q501 681 517.5 661 Q534 641 533 613 Q532 571 506.5 535 Q481 499 439 479 L414 510 Q449 540 450 574 Q430 579 420 592 Q410 605 410 625 Z " />
<glyph glyph-name="lcaron" unicode="&#x13e;" horiz-adv-x="437" d="M295 662 Q295 685 312.5 701.5 Q330 718 356 718 Q386 718 402.5 698 Q419 678 418 650 Q417 608 391.5 572 Q366 536 324 516 L299 547 Q334 577 335 611 Q315 616 305 629 Q295 642 295 662 Z M218 75 L287 75 L287 0 L44 0 L44 75 L112 75 L112 637 L37 637 L37 713 L218 713 L218 75 Z " />
<glyph glyph-name="Ldot" unicode="&#x13f;" horiz-adv-x="591" d="M42 0 L42 77 L110 77 L110 608 L44 608 L44 685 L293 685 L293 608 L221 608 L221 77 L500 77 L500 199 L582 199 L582 0 L42 0 Z M507 377 Q507 349 487.5 330 Q468 311 436 311 Q404 311 386.5 330 Q369 349 369 377 Q369 406 386.5 425 Q404 444 436 444 Q468 444 487.5 425 Q507 406 507 377 Z " />
<glyph glyph-name="ldot" unicode="&#x140;" horiz-adv-x="437" d="M429 364 Q429 336 409.5 317 Q390 298 358 298 Q326 298 308.5 317 Q291 336 291 364 Q291 393 308.5 412 Q326 431 358 431 Q390 431 409.5 412 Q429 393 429 364 Z M218 75 L287 75 L287 0 L44 0 L44 75 L112 75 L112 637 L37 637 L37 713 L218 713 L218 75 Z " />
<glyph glyph-name="Lslash" unicode="&#x141;" horiz-adv-x="584" d="M42 0 L42 75 L110 75 L110 233 L45 195 L14 243 L110 299 L110 611 L44 611 L44 685 L293 685 L293 611 L221 611 L221 362 L336 428 L366 381 L221 298 L221 75 L489 75 L489 199 L571 199 L571 0 L42 0 Z " />
<glyph glyph-name="lslash" unicode="&#x142;" horiz-adv-x="320" d="M217 71 L286 71 L286 0 L44 0 L44 71 L112 71 L112 286 Q91 274 70.5 262 Q50 250 29 238 Q21 251 14 263 Q7 275 0 286 Q28 302 55.5 318 Q83 334 112 350 L112 640 L35 640 L35 713 L217 713 L217 412 Q239 425 261 437 Q283 449 305 462 Q313 450 319.5 438 Q326 426 334 415 Q305 398 275.5 381 Q246 364 217 347 L217 71 Z " />
<glyph glyph-name="Nacute" unicode="&#x143;" horiz-adv-x="770" d="M558 169 L558 608 L489 608 L489 685 L727 685 L727 608 L661 608 L661 0 L555 0 Q515 62 475 123 Q435 184 395 246 Q365 292 334.5 338.5 Q304 385 274 433 Q259 457 244 481.5 Q229 506 213 530 Q212 530 212 529.5 Q212 529 211 529 L211 76 L279 76 Q279 57 279.5 38 Q280 19 280 0 L40 0 Q40 19 39.5 38 Q39 57 39 76 L108 76 Q108 210 108.5 342 Q109 474 109 608 L40 608 L40 685 L226 685 Q274 610 309.5 553.5 Q345 497 374 453 Q383 439 399.5 412.5 Q416 386 434 358.5 Q452 331 466.5 308 Q481 285 485 278 Q502 251 519 224 Q536 197 553 169 L558 169 Z M385 741 L343 781 L478 946 L546 880 L385 741 Z " />
<glyph glyph-name="nacute" unicode="&#x144;" horiz-adv-x="611" d="M365 500 Q418 500 448 482.5 Q478 465 492.5 440 Q507 415 510.5 386.5 Q514 358 514 337 L514 76 L588 76 L588 13 Q567 3 538 -1.5 Q509 -6 489 -6 Q459 -6 443 3.5 Q427 13 419 26 Q411 39 409.5 52 Q408 65 408 73 L408 317 Q408 342 405 360 Q402 378 394 390 Q386 402 370 408 Q354 414 329 414 Q298 414 261.5 400 Q225 386 197 369 L197 0 L91 0 L91 413 L21 413 L21 489 L197 489 L197 446 L202 445 Q244 472 286 486 Q328 500 365 500 Z M250 545 L207 586 L343 752 L410 684 L250 545 Z " />
<glyph glyph-name="Ncommaaccent" unicode="&#x145;" horiz-adv-x="770" d="M558 169 L558 608 L489 608 L489 685 L727 685 L727 608 L661 608 L661 0 L555 0 Q515 62 475 123 Q435 184 395 246 Q365 292 334.5 338.5 Q304 385 274 433 Q259 457 244 481.5 Q229 506 213 530 Q212 530 212 529.5 Q212 529 211 529 L211 76 L279 76 Q279 57 279.5 38 Q280 19 280 0 L40 0 Q40 19 39.5 38 Q39 57 39 76 L108 76 Q108 210 108.5 342 Q109 474 109 608 L40 608 L40 685 L226 685 Q274 610 309.5 553.5 Q345 497 374 453 Q383 439 399.5 412.5 Q416 386 434 358.5 Q452 331 466.5 308 Q481 285 485 278 Q502 251 519 224 Q536 197 553 169 L558 169 Z M329 -96 Q329 -73 346.5 -56.5 Q364 -40 390 -40 Q420 -40 436.5 -60 Q453 -80 452 -108 Q451 -150 425.5 -186 Q400 -222 358 -242 L333 -211 Q368 -181 369 -147 Q349 -142 339 -129 Q329 -116 329 -96 Z " />
<glyph glyph-name="ncommaaccent" unicode="&#x146;" horiz-adv-x="611" d="M365 500 Q418 500 448 482.5 Q478 465 492.5 440 Q507 415 510.5 386.5 Q514 358 514 337 L514 76 L588 76 L588 13 Q567 3 538 -1.5 Q509 -6 489 -6 Q459 -6 443 3.5 Q427 13 419 26 Q411 39 409.5 52 Q408 65 408 73 L408 317 Q408 342 405 360 Q402 378 394 390 Q386 402 370 408 Q354 414 329 414 Q298 414 261.5 400 Q225 386 197 369 L197 0 L91 0 L91 413 L21 413 L21 489 L197 489 L197 446 L202 445 Q244 472 286 486 Q328 500 365 500 Z M256 -96 Q256 -73 273.5 -56.5 Q291 -40 317 -40 Q347 -40 363.5 -60 Q380 -80 379 -108 Q378 -150 352.5 -186 Q327 -222 285 -242 L260 -211 Q295 -181 296 -147 Q276 -142 266 -129 Q256 -116 256 -96 Z " />
<glyph glyph-name="Ncaron" unicode="&#x147;" horiz-adv-x="770" d="M558 169 L558 608 L489 608 L489 685 L727 685 L727 608 L661 608 L661 0 L555 0 Q515 62 475 123 Q435 184 395 246 Q365 292 334.5 338.5 Q304 385 274 433 Q259 457 244 481.5 Q229 506 213 530 Q212 530 212 529.5 Q212 529 211 529 L211 76 L279 76 Q279 57 279.5 38 Q280 19 280 0 L40 0 Q40 19 39.5 38 Q39 57 39 76 L108 76 Q108 210 108.5 342 Q109 474 109 608 L40 608 L40 685 L226 685 Q274 610 309.5 553.5 Q345 497 374 453 Q383 439 399.5 412.5 Q416 386 434 358.5 Q452 331 466.5 308 Q481 285 485 278 Q502 251 519 224 Q536 197 553 169 L558 169 Z M566 884 L412 744 L341 744 L189 886 L217 919 L376 828 L536 920 L566 884 Z " />
<glyph glyph-name="ncaron" unicode="&#x148;" horiz-adv-x="611" d="M365 500 Q418 500 448 482.5 Q478 465 492.5 440 Q507 415 510.5 386.5 Q514 358 514 337 L514 76 L588 76 L588 13 Q567 3 538 -1.5 Q509 -6 489 -6 Q459 -6 443 3.5 Q427 13 419 26 Q411 39 409.5 52 Q408 65 408 73 L408 317 Q408 342 405 360 Q402 378 394 390 Q386 402 370 408 Q354 414 329 414 Q298 414 261.5 400 Q225 386 197 369 L197 0 L91 0 L91 413 L21 413 L21 489 L197 489 L197 446 L202 445 Q244 472 286 486 Q328 500 365 500 Z M466 707 L312 560 L241 560 L88 709 L116 743 L276 646 L436 742 L466 707 Z " />
<glyph glyph-name="napostrophe" unicode="&#x149;" horiz-adv-x="749" d="M503 500 Q556 500 586 482.5 Q616 465 630.5 440 Q645 415 648.5 386.5 Q652 358 652 337 L652 76 L726 76 L726 13 Q705 3 676 -1.5 Q647 -6 627 -6 Q597 -6 581 3.5 Q565 13 557 26 Q549 39 547.5 52 Q546 65 546 73 L546 317 Q546 342 543 360 Q540 378 532 390 Q524 402 508 408 Q492 414 467 414 Q436 414 399.5 400 Q363 386 335 369 L335 0 L229 0 L229 413 L159 413 L159 489 L335 489 L335 446 L340 445 Q382 472 424 486 Q466 500 503 500 Z M10 619 Q10 642 27.5 658.5 Q45 675 71 675 Q101 675 117.5 655 Q134 635 133 607 Q132 565 106.5 529 Q81 493 39 473 L14 504 Q49 534 50 568 Q30 573 20 586 Q10 599 10 619 Z " />
<glyph glyph-name="Eng" unicode="&#x14a;" horiz-adv-x="770" d="M403 -111 Q420 -113 438 -114.5 Q456 -116 472 -116 Q489 -116 505 -112.5 Q521 -109 533.5 -100 Q546 -91 553.5 -77 Q561 -63 561 -42 L561 0 Q548 21 525 56.5 Q502 92 473 137 Q444 182 411 233.5 Q378 285 344 337.5 Q310 390 276 441.5 Q242 493 213 537 L211 537 L211 75 L280 75 L280 0 L40 0 L40 75 L109 75 L109 610 L40 610 L40 685 L222 685 Q235 666 261.5 625 Q288 584 321.5 532.5 Q355 481 391.5 424.5 Q428 368 460.5 317 Q493 266 518 226.5 Q543 187 553 169 L558 169 L558 610 L489 610 L489 685 L727 685 L727 610 L661 610 L661 61 Q661 32 661 4 Q661 -24 659 -53 Q656 -123 613 -160.5 Q570 -198 488 -198 Q467 -198 440.5 -195 Q414 -192 392 -187 Q395 -168 397.5 -149.5 Q400 -131 403 -111 Z " />
<glyph glyph-name="eng" unicode="&#x14b;" horiz-adv-x="577" d="M366 500 Q415 500 445 486 Q475 472 491 449.5 Q507 427 512 397.5 Q517 368 517 338 L517 54 Q517 3 512 -38 Q507 -79 489.5 -107.5 Q472 -136 437 -151.5 Q402 -167 342 -167 Q322 -167 294.5 -164.5 Q267 -162 245 -157 L256 -78 Q272 -79 288.5 -80.5 Q305 -82 322 -82 Q340 -82 356 -79 Q372 -76 384.5 -67 Q397 -58 404 -42.5 Q411 -27 411 -2 L411 314 Q411 364 395 390 Q379 416 331 416 Q300 416 263.5 402.5 Q227 389 199 372 L199 0 L92 0 L92 417 L22 417 L22 489 L198 489 L198 447 Q199 446 199.5 446 Q200 446 201 445 Q242 471 286.5 485.5 Q331 500 366 500 Z " />
<glyph glyph-name="Omacron" unicode="&#x14c;" horiz-adv-x="705" d="M655 342 Q655 267 636 203 Q617 139 579.5 91.5 Q542 44 486 17.5 Q430 -9 356 -9 Q275 -9 217 16 Q159 41 122 86.5 Q85 132 67.5 196 Q50 260 50 339 Q50 411 66.5 476 Q83 541 120 590 Q157 639 215 668 Q273 697 356 697 Q440 697 497.5 668 Q555 639 590 590.5 Q625 542 640 477.5 Q655 413 655 342 Z M539 339 Q539 388 532 437.5 Q525 487 505 526 Q485 565 449 589.5 Q413 614 356 614 Q299 614 262 591 Q225 568 203.5 529.5 Q182 491 173.5 441 Q165 391 165 338 Q165 209 209.5 141.5 Q254 74 356 74 Q404 74 438.5 94.5 Q473 115 495.5 150.5 Q518 186 528.5 234.5 Q539 283 539 339 Z M194 871 L534 871 L534 793 L194 793 L194 871 Z " />
<glyph glyph-name="omacron" unicode="&#x14d;" horiz-adv-x="538" d="M498 244 Q498 195 486 149.5 Q474 104 446.5 69 Q419 34 374.5 13 Q330 -8 264 -8 Q202 -8 159.5 12 Q117 32 90.5 66.5 Q64 101 52 146 Q40 191 40 242 Q40 292 53 338.5 Q66 385 94 420.5 Q122 456 166 477.5 Q210 499 272 499 Q335 499 378.5 477.5 Q422 456 448.5 421 Q475 386 486.5 339.5 Q498 293 498 244 Z M389 242 Q389 273 384.5 304.5 Q380 336 367.5 361.5 Q355 387 332.5 403 Q310 419 274 419 Q237 419 213 403.5 Q189 388 175 363 Q161 338 155.5 306.5 Q150 275 150 242 Q150 208 154.5 177 Q159 146 172 122.5 Q185 99 208.5 85 Q232 71 271 71 Q307 71 330 86 Q353 101 366 125 Q379 149 384 179.5 Q389 210 389 242 Z M98 682 L444 682 L444 604 L98 604 L98 682 Z " />
<glyph glyph-name="Obreve" unicode="&#x14e;" horiz-adv-x="705" d="M655 342 Q655 267 636 203 Q617 139 579.5 91.5 Q542 44 486 17.5 Q430 -9 356 -9 Q275 -9 217 16 Q159 41 122 86.5 Q85 132 67.5 196 Q50 260 50 339 Q50 411 66.5 476 Q83 541 120 590 Q157 639 215 668 Q273 697 356 697 Q440 697 497.5 668 Q555 639 590 590.5 Q625 542 640 477.5 Q655 413 655 342 Z M539 339 Q539 388 532 437.5 Q525 487 505 526 Q485 565 449 589.5 Q413 614 356 614 Q299 614 262 591 Q225 568 203.5 529.5 Q182 491 173.5 441 Q165 391 165 338 Q165 209 209.5 141.5 Q254 74 356 74 Q404 74 438.5 94.5 Q473 115 495.5 150.5 Q518 186 528.5 234.5 Q539 283 539 339 Z M349 756 Q321 756 296.5 766.5 Q272 777 250.5 794.5 Q229 812 210.5 834.5 Q192 857 176 882 L228 922 Q257 881 290.5 857.5 Q324 834 353 834 Q362 834 375 836 Q388 838 406 846 Q424 854 447 870.5 Q470 887 499 916 L531 883 Q486 812 438 784 Q390 756 349 756 Z " />
<glyph glyph-name="obreve" unicode="&#x14f;" horiz-adv-x="538" d="M498 244 Q498 195 486 149.5 Q474 104 446.5 69 Q419 34 374.5 13 Q330 -8 264 -8 Q202 -8 159.5 12 Q117 32 90.5 66.5 Q64 101 52 146 Q40 191 40 242 Q40 292 53 338.5 Q66 385 94 420.5 Q122 456 166 477.5 Q210 499 272 499 Q335 499 378.5 477.5 Q422 456 448.5 421 Q475 386 486.5 339.5 Q498 293 498 244 Z M389 242 Q389 273 384.5 304.5 Q380 336 367.5 361.5 Q355 387 332.5 403 Q310 419 274 419 Q237 419 213 403.5 Q189 388 175 363 Q161 338 155.5 306.5 Q150 275 150 242 Q150 208 154.5 177 Q159 146 172 122.5 Q185 99 208.5 85 Q232 71 271 71 Q307 71 330 86 Q353 101 366 125 Q379 149 384 179.5 Q389 210 389 242 Z M269 576 Q241 576 216.5 586.5 Q192 597 170 614.5 Q148 632 129.5 655.5 Q111 679 95 705 L149 745 Q178 703 211 679.5 Q244 656 272 656 Q281 656 294 658.5 Q307 661 325 669 Q343 677 366 693.5 Q389 710 419 738 L454 705 Q411 634 361 605 Q311 576 269 576 Z " />
<glyph glyph-name="Ohungarumlaut" unicode="&#x150;" horiz-adv-x="705" d="M655 342 Q655 267 636 203 Q617 139 579.5 91.5 Q542 44 486 17.5 Q430 -9 356 -9 Q275 -9 217 16 Q159 41 122 86.5 Q85 132 67.5 196 Q50 260 50 339 Q50 411 66.5 476 Q83 541 120 590 Q157 639 215 668 Q273 697 356 697 Q440 697 497.5 668 Q555 639 590 590.5 Q625 542 640 477.5 Q655 413 655 342 Z M539 339 Q539 388 532 437.5 Q525 487 505 526 Q485 565 449 589.5 Q413 614 356 614 Q299 614 262 591 Q225 568 203.5 529.5 Q182 491 173.5 441 Q165 391 165 338 Q165 209 209.5 141.5 Q254 74 356 74 Q404 74 438.5 94.5 Q473 115 495.5 150.5 Q518 186 528.5 234.5 Q539 283 539 339 Z M302 744 L254 780 L378 955 L453 897 L302 744 Z M442 744 L395 780 L518 955 L593 897 L442 744 Z " />
<glyph glyph-name="ohungarumlaut" unicode="&#x151;" horiz-adv-x="538" d="M498 244 Q498 195 486 149.5 Q474 104 446.5 69 Q419 34 374.5 13 Q330 -8 264 -8 Q202 -8 159.5 12 Q117 32 90.5 66.5 Q64 101 52 146 Q40 191 40 242 Q40 292 53 338.5 Q66 385 94 420.5 Q122 456 166 477.5 Q210 499 272 499 Q335 499 378.5 477.5 Q422 456 448.5 421 Q475 386 486.5 339.5 Q498 293 498 244 Z M389 242 Q389 273 384.5 304.5 Q380 336 367.5 361.5 Q355 387 332.5 403 Q310 419 274 419 Q237 419 213 403.5 Q189 388 175 363 Q161 338 155.5 306.5 Q150 275 150 242 Q150 208 154.5 177 Q159 146 172 122.5 Q185 99 208.5 85 Q232 71 271 71 Q307 71 330 86 Q353 101 366 125 Q379 149 384 179.5 Q389 210 389 242 Z M187 543 L143 579 L267 755 L338 697 L187 543 Z M330 543 L286 579 L409 755 L481 697 L330 543 Z " />
<glyph glyph-name="OE" unicode="&#x152;" horiz-adv-x="846" d="M353 697 Q380 697 404.5 693.5 Q429 690 451 684 L801 684 L801 511 L721 511 L721 608 L487 608 L487 393 Q541 394 595.5 394.5 Q650 395 704 397 L704 319 Q650 320 595.5 320.5 Q541 321 487 321 L487 76 L734 76 L734 177 L816 177 L816 0 L430 0 Q412 -3 392.5 -5 Q373 -7 353 -7 Q271 -7 213 17.5 Q155 42 118 87 Q81 132 63.5 196 Q46 260 46 339 Q46 411 62.5 476 Q79 541 116 590 Q153 639 211.5 668 Q270 697 353 697 Z M353 71 Q358 71 364 71 Q370 71 376 72 L376 615 Q371 615 365 615.5 Q359 616 351 616 Q294 616 257 592 Q220 568 199 529 Q178 490 169.5 440 Q161 390 161 337 Q161 207 205.5 139 Q250 71 353 71 Z " />
<glyph glyph-name="oe" unicode="&#x153;" horiz-adv-x="853" d="M809 37 Q764 13 715 2 Q666 -9 617 -9 Q548 -9 506 15 Q464 39 441 77 Q415 39 372 15.5 Q329 -8 263 -8 Q201 -8 158 12 Q115 32 88.5 66.5 Q62 101 50 146 Q38 191 38 242 Q38 292 51 338.5 Q64 385 92 420.5 Q120 456 164 477.5 Q208 499 270 499 Q335 499 376 474.5 Q417 450 441 410 Q464 448 505.5 474.5 Q547 501 615 501 Q686 501 727 474.5 Q768 448 788.5 410.5 Q809 373 814 333.5 Q819 294 819 267 L819 217 L498 217 Q499 187 504.5 160 Q510 133 524 113.5 Q538 94 563.5 82.5 Q589 71 630 71 Q671 71 706.5 79 Q742 87 782 104 L809 37 Z M387 242 Q387 273 382.5 304.5 Q378 336 365 361.5 Q352 387 329.5 403 Q307 419 270 419 Q233 419 209.5 403.5 Q186 388 172.5 362.5 Q159 337 153.5 305.5 Q148 274 148 242 Q148 208 152.5 177 Q157 146 170.5 122.5 Q184 99 207.5 85 Q231 71 270 71 Q306 71 329 86 Q352 101 365 125.5 Q378 150 382.5 180.5 Q387 211 387 242 Z M719 291 Q718 320 712.5 344 Q707 368 695 385.5 Q683 403 663.5 412.5 Q644 422 616 422 Q586 422 565.5 411.5 Q545 401 531.5 383 Q518 365 511 341 Q504 317 501 291 L719 291 Z " />
<glyph glyph-name="Racute" unicode="&#x154;" horiz-adv-x="648" d="M460 491 Q460 523 450 545.5 Q440 568 423.5 582 Q407 596 384.5 602 Q362 608 338 608 L217 608 L217 369 L338 369 Q358 369 379.5 374 Q401 379 419 392.5 Q437 406 448.5 429.5 Q460 453 460 491 Z M217 294 L217 78 L294 78 L294 0 L43 0 L43 78 L107 78 L107 608 L43 608 L43 686 L356 686 Q461 686 518 636 Q575 586 575 492 Q575 468 569 441 Q563 414 548.5 388.5 Q534 363 510 342.5 Q486 322 451 311 L559 75 L633 65 L633 5 Q613 -3 586.5 -7 Q560 -11 543 -11 Q507 -11 490 5 Q473 21 459 51 L352 294 L217 294 Z M280 741 L238 781 L373 946 L441 880 L280 741 Z " />
<glyph glyph-name="racute" unicode="&#x155;" horiz-adv-x="416" d="M208 419 Q223 432 244 446.5 Q265 461 289 473 Q313 485 338 493 Q363 501 386 501 Q400 501 407 493.5 Q414 486 414 467 Q414 447 406 419 Q398 391 381 373 L207 372 L207 75 L280 75 L280 0 L32 0 L32 75 L100 75 L100 413 L34 413 L34 489 L205 489 L205 420 L208 419 Z M150 545 L107 586 L243 752 L310 684 L150 545 Z " />
<glyph glyph-name="Rcommaaccent" unicode="&#x156;" horiz-adv-x="648" d="M460 491 Q460 523 450 545.5 Q440 568 423.5 582 Q407 596 384.5 602 Q362 608 338 608 L217 608 L217 369 L338 369 Q358 369 379.5 374 Q401 379 419 392.5 Q437 406 448.5 429.5 Q460 453 460 491 Z M217 294 L217 78 L294 78 L294 0 L43 0 L43 78 L107 78 L107 608 L43 608 L43 686 L356 686 Q461 686 518 636 Q575 586 575 492 Q575 468 569 441 Q563 414 548.5 388.5 Q534 363 510 342.5 Q486 322 451 311 L559 75 L633 65 L633 5 Q613 -3 586.5 -7 Q560 -11 543 -11 Q507 -11 490 5 Q473 21 459 51 L352 294 L217 294 Z M264 -96 Q264 -73 281.5 -56.5 Q299 -40 325 -40 Q355 -40 371.5 -60 Q388 -80 387 -108 Q386 -150 360.5 -186 Q335 -222 293 -242 L268 -211 Q303 -181 304 -147 Q284 -142 274 -129 Q264 -116 264 -96 Z " />
<glyph glyph-name="rcommaaccent" unicode="&#x157;" horiz-adv-x="416" d="M208 419 Q223 432 244 446.5 Q265 461 289 473 Q313 485 338 493 Q363 501 386 501 Q400 501 407 493.5 Q414 486 414 467 Q414 447 406 419 Q398 391 381 373 L207 372 L207 75 L280 75 L280 0 L32 0 L32 75 L100 75 L100 413 L34 413 L34 489 L205 489 L205 420 L208 419 Z M99 -96 Q99 -73 116.5 -56.5 Q134 -40 160 -40 Q190 -40 206.5 -60 Q223 -80 222 -108 Q221 -150 195.5 -186 Q170 -222 128 -242 L103 -211 Q138 -181 139 -147 Q119 -142 109 -129 Q99 -116 99 -96 Z " />
<glyph glyph-name="Rcaron" unicode="&#x158;" horiz-adv-x="648" d="M460 491 Q460 523 450 545.5 Q440 568 423.5 582 Q407 596 384.5 602 Q362 608 338 608 L217 608 L217 369 L338 369 Q358 369 379.5 374 Q401 379 419 392.5 Q437 406 448.5 429.5 Q460 453 460 491 Z M217 294 L217 78 L294 78 L294 0 L43 0 L43 78 L107 78 L107 608 L43 608 L43 686 L356 686 Q461 686 518 636 Q575 586 575 492 Q575 468 569 441 Q563 414 548.5 388.5 Q534 363 510 342.5 Q486 322 451 311 L559 75 L633 65 L633 5 Q613 -3 586.5 -7 Q560 -11 543 -11 Q507 -11 490 5 Q473 21 459 51 L352 294 L217 294 Z M488 884 L334 744 L263 744 L111 886 L139 919 L298 828 L458 920 L488 884 Z " />
<glyph glyph-name="rcaron" unicode="&#x159;" horiz-adv-x="416" d="M208 419 Q223 432 244 446.5 Q265 461 289 473 Q313 485 338 493 Q363 501 386 501 Q400 501 407 493.5 Q414 486 414 467 Q414 447 406 419 Q398 391 381 373 L207 372 L207 75 L280 75 L280 0 L32 0 L32 75 L100 75 L100 413 L34 413 L34 489 L205 489 L205 420 L208 419 Z M381 701 L227 554 L156 554 L3 703 L31 737 L191 640 L351 736 L381 701 Z " />
<glyph glyph-name="Sacute" unicode="&#x15a;" horiz-adv-x="575" d="M117 187 L118 105 Q155 88 193 81.5 Q231 75 264 75 Q303 75 332 85 Q361 95 380 110.5 Q399 126 408.5 146.5 Q418 167 418 188 Q418 219 406.5 238 Q395 257 374.5 269 Q354 281 326.5 289.5 Q299 298 266 307 Q220 317 180 332 Q140 347 110 368.5 Q80 390 62.5 421 Q45 452 45 495 Q46 544 65 581.5 Q84 619 116.5 644 Q149 669 192.5 682 Q236 695 287 695 Q309 695 335 693 Q361 691 387.5 686.5 Q414 682 440 673.5 Q466 665 488 653 L489 510 L408 510 L407 593 Q384 603 349.5 607 Q315 611 288 611 Q262 611 238.5 604.5 Q215 598 197.5 585 Q180 572 169.5 552.5 Q159 533 159 508 Q159 484 171.5 466.5 Q184 449 205 436 Q226 423 253.5 413.5 Q281 404 311 397 Q353 387 393.5 373.5 Q434 360 466 337.5 Q498 315 517.5 280.5 Q537 246 537 193 Q537 140 517.5 102 Q498 64 463 39 Q428 14 379 2.5 Q330 -9 271 -9 Q213 -9 152 2 Q91 13 38 41 Q38 77 37.5 113.5 Q37 150 37 187 L117 187 Z M284 739 L242 779 L377 944 L445 878 L284 739 Z " />
<glyph glyph-name="sacute" unicode="&#x15b;" horiz-adv-x="464" d="M107 149 Q108 134 108.5 118.5 Q109 103 110 87 Q130 76 158 71.5 Q186 67 209 67 Q254 67 285.5 81.5 Q317 96 317 132 Q317 150 309.5 162 Q302 174 289 182.5 Q276 191 258.5 197 Q241 203 222 209 Q188 219 155 229 Q122 239 96 255 Q70 271 54 294.5 Q38 318 38 355 Q38 393 52.5 420 Q67 447 92.5 464.5 Q118 482 153.5 490.5 Q189 499 231 499 Q274 499 316.5 490.5 Q359 482 392 462 Q392 433 392.5 403.5 Q393 374 394 344 L315 344 Q314 361 314 376.5 Q314 392 313 409 Q279 423 238 423 Q200 423 173.5 408.5 Q147 394 147 359 Q147 344 156.5 333.5 Q166 323 180.5 315.5 Q195 308 211 303 Q227 298 241 294 Q271 285 304 275.5 Q337 266 364.5 249 Q392 232 409.5 204.5 Q427 177 427 132 Q427 96 412 69.5 Q397 43 369.5 26 Q342 9 303 0.5 Q264 -8 217 -8 Q174 -8 123 -0.5 Q72 7 32 30 Q31 59 31 89.5 Q31 120 30 149 L107 149 Z M197 545 L154 586 L290 752 L357 684 L197 545 Z " />
<glyph glyph-name="Scircumflex" unicode="&#x15c;" horiz-adv-x="575" d="M117 187 L118 105 Q155 88 193 81.5 Q231 75 264 75 Q303 75 332 85 Q361 95 380 110.5 Q399 126 408.5 146.5 Q418 167 418 188 Q418 219 406.5 238 Q395 257 374.5 269 Q354 281 326.5 289.5 Q299 298 266 307 Q220 317 180 332 Q140 347 110 368.5 Q80 390 62.5 421 Q45 452 45 495 Q46 544 65 581.5 Q84 619 116.5 644 Q149 669 192.5 682 Q236 695 287 695 Q309 695 335 693 Q361 691 387.5 686.5 Q414 682 440 673.5 Q466 665 488 653 L489 510 L408 510 L407 593 Q384 603 349.5 607 Q315 611 288 611 Q262 611 238.5 604.5 Q215 598 197.5 585 Q180 572 169.5 552.5 Q159 533 159 508 Q159 484 171.5 466.5 Q184 449 205 436 Q226 423 253.5 413.5 Q281 404 311 397 Q353 387 393.5 373.5 Q434 360 466 337.5 Q498 315 517.5 280.5 Q537 246 537 193 Q537 140 517.5 102 Q498 64 463 39 Q428 14 379 2.5 Q330 -9 271 -9 Q213 -9 152 2 Q91 13 38 41 Q38 77 37.5 113.5 Q37 150 37 187 L117 187 Z M442 743 L282 833 L123 742 L95 777 L247 919 L318 919 L472 778 L442 743 Z " />
<glyph glyph-name="scircumflex" unicode="&#x15d;" horiz-adv-x="464" d="M107 149 Q108 134 108.5 118.5 Q109 103 110 87 Q130 76 158 71.5 Q186 67 209 67 Q254 67 285.5 81.5 Q317 96 317 132 Q317 150 309.5 162 Q302 174 289 182.5 Q276 191 258.5 197 Q241 203 222 209 Q188 219 155 229 Q122 239 96 255 Q70 271 54 294.5 Q38 318 38 355 Q38 393 52.5 420 Q67 447 92.5 464.5 Q118 482 153.5 490.5 Q189 499 231 499 Q274 499 316.5 490.5 Q359 482 392 462 Q392 433 392.5 403.5 Q393 374 394 344 L315 344 Q314 361 314 376.5 Q314 392 313 409 Q279 423 238 423 Q200 423 173.5 408.5 Q147 394 147 359 Q147 344 156.5 333.5 Q166 323 180.5 315.5 Q195 308 211 303 Q227 298 241 294 Q271 285 304 275.5 Q337 266 364.5 249 Q392 232 409.5 204.5 Q427 177 427 132 Q427 96 412 69.5 Q397 43 369.5 26 Q342 9 303 0.5 Q264 -8 217 -8 Q174 -8 123 -0.5 Q72 7 32 30 Q31 59 31 89.5 Q31 120 30 149 L107 149 Z M384 561 L224 655 L65 560 L37 595 L189 743 L261 743 L415 597 L384 561 Z " />
<glyph glyph-name="Scedilla" unicode="&#x15e;" horiz-adv-x="575" d="M117 187 L118 105 Q155 88 193 81.5 Q231 75 264 75 Q303 75 332 85 Q361 95 380 110.5 Q399 126 408.5 146.5 Q418 167 418 188 Q418 219 406.5 238 Q395 257 374.5 269 Q354 281 326.5 289.5 Q299 298 266 307 Q220 317 180 332 Q140 347 110 368.5 Q80 390 62.5 421 Q45 452 45 495 Q46 544 65 581.5 Q84 619 116.5 644 Q149 669 192.5 682 Q236 695 287 695 Q309 695 335 693 Q361 691 387.5 686.5 Q414 682 440 673.5 Q466 665 488 653 L489 510 L408 510 L407 593 Q384 603 349.5 607 Q315 611 288 611 Q262 611 238.5 604.5 Q215 598 197.5 585 Q180 572 169.5 552.5 Q159 533 159 508 Q159 484 171.5 466.5 Q184 449 205 436 Q226 423 253.5 413.5 Q281 404 311 397 Q353 387 393.5 373.5 Q434 360 466 337.5 Q498 315 517.5 280.5 Q537 246 537 193 Q537 140 517.5 102 Q498 64 463 39 Q428 14 379 2.5 Q330 -9 271 -9 Q213 -9 152 2 Q91 13 38 41 Q38 77 37.5 113.5 Q37 150 37 187 L117 187 Z M337 16 Q323 -2 307 -22 Q291 -42 277 -62 Q326 -64 355.5 -84.5 Q385 -105 385 -146 Q384 -167 373 -185.5 Q362 -204 339.5 -218 Q317 -232 282.5 -240 Q248 -248 201 -248 L201 -207 Q255 -202 286 -188 Q317 -174 317 -150 Q317 -137 308 -129 Q299 -121 285 -117 Q271 -113 253.5 -112 Q236 -111 219 -111 Q212 -100 205 -90 Q230 -58 254 -26 Q278 6 303 37 Q311 31 320 26.5 Q329 22 337 16 Z " />
<glyph glyph-name="scedilla" unicode="&#x15f;" horiz-adv-x="464" d="M107 149 Q108 134 108.5 118.5 Q109 103 110 87 Q130 76 158 71.5 Q186 67 209 67 Q254 67 285.5 81.5 Q317 96 317 132 Q317 150 309.5 162 Q302 174 289 182.5 Q276 191 258.5 197 Q241 203 222 209 Q188 219 155 229 Q122 239 96 255 Q70 271 54 294.5 Q38 318 38 355 Q38 393 52.5 420 Q67 447 92.5 464.5 Q118 482 153.5 490.5 Q189 499 231 499 Q274 499 316.5 490.5 Q359 482 392 462 Q392 433 392.5 403.5 Q393 374 394 344 L315 344 Q314 361 314 376.5 Q314 392 313 409 Q279 423 238 423 Q200 423 173.5 408.5 Q147 394 147 359 Q147 344 156.5 333.5 Q166 323 180.5 315.5 Q195 308 211 303 Q227 298 241 294 Q271 285 304 275.5 Q337 266 364.5 249 Q392 232 409.5 204.5 Q427 177 427 132 Q427 96 412 69.5 Q397 43 369.5 26 Q342 9 303 0.5 Q264 -8 217 -8 Q174 -8 123 -0.5 Q72 7 32 30 Q31 59 31 89.5 Q31 120 30 149 L107 149 Z M277 15 Q263 -3 247 -23 Q231 -43 217 -63 Q266 -65 295.5 -85.5 Q325 -106 325 -147 Q324 -168 313 -186.5 Q302 -205 279.5 -219 Q257 -233 222.5 -241 Q188 -249 141 -249 L141 -208 Q195 -203 226 -189 Q257 -175 257 -151 Q257 -138 248 -130 Q239 -122 225 -118 Q211 -114 193.5 -113 Q176 -112 159 -112 Q152 -101 145 -91 Q170 -59 194 -27 Q218 5 243 36 Q251 30 260 25.5 Q269 21 277 15 Z " />
<glyph glyph-name="Scaron" unicode="&#x160;" horiz-adv-x="575" d="M117 187 L118 105 Q155 88 193 81.5 Q231 75 264 75 Q303 75 332 85 Q361 95 380 110.5 Q399 126 408.5 146.5 Q418 167 418 188 Q418 219 406.5 238 Q395 257 374.5 269 Q354 281 326.5 289.5 Q299 298 266 307 Q220 317 180 332 Q140 347 110 368.5 Q80 390 62.5 421 Q45 452 45 495 Q46 544 65 581.5 Q84 619 116.5 644 Q149 669 192.5 682 Q236 695 287 695 Q309 695 335 693 Q361 691 387.5 686.5 Q414 682 440 673.5 Q466 665 488 653 L489 510 L408 510 L407 593 Q384 603 349.5 607 Q315 611 288 611 Q262 611 238.5 604.5 Q215 598 197.5 585 Q180 572 169.5 552.5 Q159 533 159 508 Q159 484 171.5 466.5 Q184 449 205 436 Q226 423 253.5 413.5 Q281 404 311 397 Q353 387 393.5 373.5 Q434 360 466 337.5 Q498 315 517.5 280.5 Q537 246 537 193 Q537 140 517.5 102 Q498 64 463 39 Q428 14 379 2.5 Q330 -9 271 -9 Q213 -9 152 2 Q91 13 38 41 Q38 77 37.5 113.5 Q37 150 37 187 L117 187 Z M478 884 L324 744 L253 744 L101 886 L129 919 L288 828 L448 920 L478 884 Z " />
<glyph glyph-name="scaron" unicode="&#x161;" horiz-adv-x="464" d="M107 149 Q108 134 108.5 118.5 Q109 103 110 87 Q130 76 158 71.5 Q186 67 209 67 Q254 67 285.5 81.5 Q317 96 317 132 Q317 150 309.5 162 Q302 174 289 182.5 Q276 191 258.5 197 Q241 203 222 209 Q188 219 155 229 Q122 239 96 255 Q70 271 54 294.5 Q38 318 38 355 Q38 393 52.5 420 Q67 447 92.5 464.5 Q118 482 153.5 490.5 Q189 499 231 499 Q274 499 316.5 490.5 Q359 482 392 462 Q392 433 392.5 403.5 Q393 374 394 344 L315 344 Q314 361 314 376.5 Q314 392 313 409 Q279 423 238 423 Q200 423 173.5 408.5 Q147 394 147 359 Q147 344 156.5 333.5 Q166 323 180.5 315.5 Q195 308 211 303 Q227 298 241 294 Q271 285 304 275.5 Q337 266 364.5 249 Q392 232 409.5 204.5 Q427 177 427 132 Q427 96 412 69.5 Q397 43 369.5 26 Q342 9 303 0.5 Q264 -8 217 -8 Q174 -8 123 -0.5 Q72 7 32 30 Q31 59 31 89.5 Q31 120 30 149 L107 149 Z M423 707 L269 560 L198 560 L45 709 L73 743 L233 646 L393 742 L423 707 Z " />
<glyph glyph-name="Tcommaaccent" unicode="&#x162;" horiz-adv-x="587" d="M158 0 L158 77 L240 77 L240 608 L95 608 L95 499 L15 499 L15 686 L573 686 L573 499 L492 499 L492 608 L349 608 L349 77 L431 77 L431 0 L158 0 Z M235 -96 Q235 -73 252.5 -56.5 Q270 -40 296 -40 Q326 -40 342.5 -60 Q359 -80 358 -108 Q357 -150 331.5 -186 Q306 -222 264 -242 L239 -211 Q274 -181 275 -147 Q255 -142 245 -129 Q235 -116 235 -96 Z " />
<glyph glyph-name="tcommaaccent" unicode="&#x163;" horiz-adv-x="391" d="M194 618 L194 489 L339 489 L339 413 L193 413 L193 158 Q193 139 195.5 124.5 Q198 110 205 100 Q212 90 225 84.5 Q238 79 260 79 Q277 79 299.5 82 Q322 85 350 93 L366 21 Q337 8 301.5 1 Q266 -6 235 -6 Q193 -6 164.5 3 Q136 12 119 29 Q102 46 95 70 Q88 94 88 124 L88 413 L18 413 L18 473 L93 496 L123 609 L194 618 Z M116 -96 Q116 -73 133.5 -56.5 Q151 -40 177 -40 Q207 -40 223.5 -60 Q240 -80 239 -108 Q238 -150 212.5 -186 Q187 -222 145 -242 L120 -211 Q155 -181 156 -147 Q136 -142 126 -129 Q116 -116 116 -96 Z " />
<glyph glyph-name="Tcaron" unicode="&#x164;" horiz-adv-x="587" d="M158 0 L158 77 L240 77 L240 608 L95 608 L95 499 L15 499 L15 686 L573 686 L573 499 L492 499 L492 608 L349 608 L349 77 L431 77 L431 0 L158 0 Z M480 884 L326 744 L255 744 L103 886 L131 919 L290 828 L450 920 L480 884 Z " />
<glyph glyph-name="tcaron" unicode="&#x165;" horiz-adv-x="483" d="M341 651 Q341 674 358.5 690.5 Q376 707 402 707 Q432 707 448.5 687 Q465 667 464 639 Q463 597 437.5 561 Q412 525 370 505 L345 536 Q380 566 381 600 Q361 605 351 618 Q341 631 341 651 Z M194 618 L194 489 L339 489 L339 413 L193 413 L193 158 Q193 139 195.5 124.5 Q198 110 205 100 Q212 90 225 84.5 Q238 79 260 79 Q277 79 299.5 82 Q322 85 350 93 L366 21 Q337 8 301.5 1 Q266 -6 235 -6 Q193 -6 164.5 3 Q136 12 119 29 Q102 46 95 70 Q88 94 88 124 L88 413 L18 413 L18 473 L93 496 L123 609 L194 618 Z " />
<glyph glyph-name="Tbar" unicode="&#x166;" horiz-adv-x="587" d="M158 0 L158 77 L240 77 L240 330 L88 330 L88 388 L240 388 L240 608 L95 608 L95 499 L15 499 L15 686 L573 686 L573 499 L492 499 L492 608 L349 608 L349 388 L496 388 L496 330 L349 330 L349 77 L431 77 L431 0 L158 0 Z " />
<glyph glyph-name="tbar" unicode="&#x167;" horiz-adv-x="391" d="M194 618 L194 489 L339 489 L339 413 L193 413 L193 340 L333 340 L333 283 L193 283 L193 158 Q193 139 195.5 124.5 Q198 110 205 100 Q212 90 225 84.5 Q238 79 260 79 Q277 79 299.5 82 Q322 85 350 93 L366 21 Q337 8 301.5 1 Q266 -6 235 -6 Q193 -6 164.5 3 Q136 12 119 29 Q102 46 95 70 Q88 94 88 124 L88 283 L20 283 L20 340 L88 340 L88 413 L18 413 L18 473 L93 496 L123 609 L194 618 Z " />
<glyph glyph-name="Utilde" unicode="&#x168;" horiz-adv-x="728" d="M635 249 Q635 131 568.5 61.5 Q502 -8 363 -8 Q291 -8 239.5 9.5 Q188 27 155 60 Q122 93 106.5 141 Q91 189 91 249 L91 608 L32 608 L32 686 L267 686 L267 608 L199 608 L199 250 Q199 162 241.5 119 Q284 76 364 76 Q442 76 485 118 Q528 160 528 250 L528 608 L461 608 L461 686 L696 686 L696 608 L635 608 L635 249 Z M442 778 Q418 778 395.5 784 Q373 790 353 797.5 Q333 805 315.5 811 Q298 817 283 817 L226 778 L192 805 Q206 846 230.5 867 Q255 888 287 888 Q306 888 327 882 Q348 876 369 869 Q390 862 409.5 856 Q429 850 445 850 L501 890 L536 863 Q522 823 498 800.5 Q474 778 442 778 Z " />
<glyph glyph-name="utilde" unicode="&#x169;" horiz-adv-x="601" d="M238 -11 Q191 -11 162.5 2 Q134 15 118.5 37 Q103 59 97.5 87 Q92 115 92 145 L92 412 L22 412 L22 489 L199 489 L199 163 Q199 142 201 126 Q203 110 210.5 99 Q218 88 232 82.5 Q246 77 270 77 Q294 77 330.5 89 Q367 101 400 132 L400 412 L337 412 L337 489 L507 489 L507 76 L576 76 L576 13 Q548 2 522 -2 Q496 -6 479 -6 Q442 -6 424.5 7.5 Q407 21 403 57 Q358 16 314 2.5 Q270 -11 238 -11 Z M372 592 Q348 592 325.5 598 Q303 604 283 611.5 Q263 619 245.5 625 Q228 631 213 631 L156 592 L122 619 Q136 660 160.5 681 Q185 702 217 702 Q236 702 257 696 Q278 690 299 683 Q320 676 339.5 670 Q359 664 375 664 L431 704 L466 677 Q452 637 428 614.5 Q404 592 372 592 Z " />
<glyph glyph-name="Umacron" unicode="&#x16a;" horiz-adv-x="728" d="M635 249 Q635 131 568.5 61.5 Q502 -8 363 -8 Q291 -8 239.5 9.5 Q188 27 155 60 Q122 93 106.5 141 Q91 189 91 249 L91 608 L32 608 L32 686 L267 686 L267 608 L199 608 L199 250 Q199 162 241.5 119 Q284 76 364 76 Q442 76 485 118 Q528 160 528 250 L528 608 L461 608 L461 686 L696 686 L696 608 L635 608 L635 249 Z M202 871 L542 871 L542 793 L202 793 L202 871 Z " />
<glyph glyph-name="umacron" unicode="&#x16b;" horiz-adv-x="601" d="M238 -11 Q191 -11 162.5 2 Q134 15 118.5 37 Q103 59 97.5 87 Q92 115 92 145 L92 412 L22 412 L22 489 L199 489 L199 163 Q199 142 201 126 Q203 110 210.5 99 Q218 88 232 82.5 Q246 77 270 77 Q294 77 330.5 89 Q367 101 400 132 L400 412 L337 412 L337 489 L507 489 L507 76 L576 76 L576 13 Q548 2 522 -2 Q496 -6 479 -6 Q442 -6 424.5 7.5 Q407 21 403 57 Q358 16 314 2.5 Q270 -11 238 -11 Z M122 683 L468 683 L468 605 L122 605 L122 683 Z " />
<glyph glyph-name="Ubreve" unicode="&#x16c;" horiz-adv-x="728" d="M635 249 Q635 131 568.5 61.5 Q502 -8 363 -8 Q291 -8 239.5 9.5 Q188 27 155 60 Q122 93 106.5 141 Q91 189 91 249 L91 608 L32 608 L32 686 L267 686 L267 608 L199 608 L199 250 Q199 162 241.5 119 Q284 76 364 76 Q442 76 485 118 Q528 160 528 250 L528 608 L461 608 L461 686 L696 686 L696 608 L635 608 L635 249 Z M360 749 Q332 749 307.5 759.5 Q283 770 261 787.5 Q239 805 220.5 828.5 Q202 852 186 878 L240 918 Q269 876 302 852.5 Q335 829 363 829 Q372 829 385 831.5 Q398 834 416 842 Q434 850 457 866.5 Q480 883 510 911 L545 878 Q502 807 452 778 Q402 749 360 749 Z " />
<glyph glyph-name="ubreve" unicode="&#x16d;" horiz-adv-x="601" d="M238 -11 Q191 -11 162.5 2 Q134 15 118.5 37 Q103 59 97.5 87 Q92 115 92 145 L92 412 L22 412 L22 489 L199 489 L199 163 Q199 142 201 126 Q203 110 210.5 99 Q218 88 232 82.5 Q246 77 270 77 Q294 77 330.5 89 Q367 101 400 132 L400 412 L337 412 L337 489 L507 489 L507 76 L576 76 L576 13 Q548 2 522 -2 Q496 -6 479 -6 Q442 -6 424.5 7.5 Q407 21 403 57 Q358 16 314 2.5 Q270 -11 238 -11 Z M285 566 Q257 566 232.5 576.5 Q208 587 186 604.5 Q164 622 145.5 645.5 Q127 669 111 695 L165 735 Q194 693 227 669.5 Q260 646 288 646 Q297 646 310 648.5 Q323 651 341 659 Q359 667 382 683.5 Q405 700 435 728 L470 695 Q427 624 377 595 Q327 566 285 566 Z " />
<glyph glyph-name="Uring" unicode="&#x16e;" horiz-adv-x="728" d="M635 249 Q635 131 568.5 61.5 Q502 -8 363 -8 Q291 -8 239.5 9.5 Q188 27 155 60 Q122 93 106.5 141 Q91 189 91 249 L91 608 L32 608 L32 686 L267 686 L267 608 L199 608 L199 250 Q199 162 241.5 119 Q284 76 364 76 Q442 76 485 118 Q528 160 528 250 L528 608 L461 608 L461 686 L696 686 L696 608 L635 608 L635 249 Z M362 740 Q338 740 316.5 749 Q295 758 279.5 773 Q264 788 255 808 Q246 828 246 851 Q246 873 255 893 Q264 913 279.5 928.5 Q295 944 316.5 953 Q338 962 362 962 Q386 962 406.5 953 Q427 944 442 929 Q457 914 465.5 893.5 Q474 873 474 851 Q474 827 465 807 Q456 787 441 772 Q426 757 405.5 748.5 Q385 740 362 740 Z M362 907 Q337 907 320 889.5 Q303 872 303 848 Q303 826 319.5 809 Q336 792 362 792 Q385 792 401 809 Q417 826 417 848 Q417 871 401.5 889 Q386 907 362 907 Z " />
<glyph glyph-name="uring" unicode="&#x16f;" horiz-adv-x="601" d="M238 -11 Q191 -11 162.5 2 Q134 15 118.5 37 Q103 59 97.5 87 Q92 115 92 145 L92 412 L22 412 L22 489 L199 489 L199 163 Q199 142 201 126 Q203 110 210.5 99 Q218 88 232 82.5 Q246 77 270 77 Q294 77 330.5 89 Q367 101 400 132 L400 412 L337 412 L337 489 L507 489 L507 76 L576 76 L576 13 Q548 2 522 -2 Q496 -6 479 -6 Q442 -6 424.5 7.5 Q407 21 403 57 Q358 16 314 2.5 Q270 -11 238 -11 Z M279 554 Q255 554 233.5 563 Q212 572 196.5 587 Q181 602 172 622 Q163 642 163 665 Q163 687 172 707 Q181 727 196.5 742.5 Q212 758 233.5 767 Q255 776 279 776 Q303 776 323.5 767 Q344 758 359 743 Q374 728 382.5 707.5 Q391 687 391 665 Q391 641 382 621 Q373 601 358 586 Q343 571 322.5 562.5 Q302 554 279 554 Z M279 721 Q254 721 237 703.5 Q220 686 220 662 Q220 640 236.5 623 Q253 606 279 606 Q302 606 318 623 Q334 640 334 662 Q334 685 318.5 703 Q303 721 279 721 Z " />
<glyph glyph-name="Uhungarumlaut" unicode="&#x170;" horiz-adv-x="728" d="M635 249 Q635 131 568.5 61.5 Q502 -8 363 -8 Q291 -8 239.5 9.5 Q188 27 155 60 Q122 93 106.5 141 Q91 189 91 249 L91 608 L32 608 L32 686 L267 686 L267 608 L199 608 L199 250 Q199 162 241.5 119 Q284 76 364 76 Q442 76 485 118 Q528 160 528 250 L528 608 L461 608 L461 686 L696 686 L696 608 L635 608 L635 249 Z M282 744 L234 780 L358 955 L433 897 L282 744 Z M422 744 L375 780 L498 955 L573 897 L422 744 Z " />
<glyph glyph-name="uhungarumlaut" unicode="&#x171;" horiz-adv-x="601" d="M238 -11 Q191 -11 162.5 2 Q134 15 118.5 37 Q103 59 97.5 87 Q92 115 92 145 L92 412 L22 412 L22 489 L199 489 L199 163 Q199 142 201 126 Q203 110 210.5 99 Q218 88 232 82.5 Q246 77 270 77 Q294 77 330.5 89 Q367 101 400 132 L400 412 L337 412 L337 489 L507 489 L507 76 L576 76 L576 13 Q548 2 522 -2 Q496 -6 479 -6 Q442 -6 424.5 7.5 Q407 21 403 57 Q358 16 314 2.5 Q270 -11 238 -11 Z M202 543 L158 579 L282 755 L353 697 L202 543 Z M345 543 L301 579 L424 755 L496 697 L345 543 Z " />
<glyph glyph-name="Uogonek" unicode="&#x172;" horiz-adv-x="728" d="M635 249 Q635 131 568.5 61.5 Q502 -8 363 -8 Q291 -8 239.5 9.5 Q188 27 155 60 Q122 93 106.5 141 Q91 189 91 249 L91 608 L32 608 L32 686 L267 686 L267 608 L199 608 L199 250 Q199 162 241.5 119 Q284 76 364 76 Q442 76 485 118 Q528 160 528 250 L528 608 L461 608 L461 686 L696 686 L696 608 L635 608 L635 249 Z M383 33 Q388 29 393 25 Q398 21 403 17 Q390 3 379 -14 Q368 -31 360 -48 Q352 -65 347.5 -81.5 Q343 -98 343 -111 Q343 -140 358.5 -150.5 Q374 -161 400 -161 Q420 -161 440 -157 Q460 -153 474 -149 Q476 -159 478 -168 Q480 -177 482 -186 Q456 -200 427 -207 Q398 -214 369 -214 Q320 -214 294.5 -193.5 Q269 -173 269 -138 Q269 -123 273.5 -103 Q278 -83 290.5 -60.5 Q303 -38 325.5 -14 Q348 10 383 33 Z " />
<glyph glyph-name="uogonek" unicode="&#x173;" horiz-adv-x="601" d="M238 -11 Q191 -11 162.5 2 Q134 15 118.5 37 Q103 59 97.5 87 Q92 115 92 145 L92 412 L22 412 L22 489 L199 489 L199 163 Q199 142 201 126 Q203 110 210.5 99 Q218 88 232 82.5 Q246 77 270 77 Q294 77 330.5 89 Q367 101 400 132 L400 412 L337 412 L337 489 L507 489 L507 76 L576 76 L576 13 Q548 2 522 -2 Q496 -6 479 -6 Q442 -6 424.5 7.5 Q407 21 403 57 Q358 16 314 2.5 Q270 -11 238 -11 Z M503 43 Q508 39 513 35 Q518 31 523 27 Q510 13 499 -4 Q488 -21 480 -38 Q472 -55 467.5 -71.5 Q463 -88 463 -101 Q463 -130 478.5 -140.5 Q494 -151 520 -151 Q540 -151 560 -147 Q580 -143 594 -139 Q596 -149 598 -158 Q600 -167 602 -176 Q576 -190 547 -197 Q518 -204 489 -204 Q440 -204 414.5 -183.5 Q389 -163 389 -128 Q389 -113 393.5 -93 Q398 -73 410.5 -50.5 Q423 -28 445.5 -4 Q468 20 503 43 Z " />
<glyph glyph-name="Wcircumflex" unicode="&#x174;" horiz-adv-x="966" d="M481 523 Q474 495 468.5 466.5 Q463 438 455 406 L358 0 L221 0 L70 606 L10 606 L10 686 L245 686 L245 606 L185 606 L292 137 L296 137 L421 686 L544 686 L671 137 L675 137 L780 606 L720 606 L720 686 L955 686 L955 606 L896 606 L744 0 L608 0 L511 406 Q504 435 497.5 464.5 Q491 494 485 523 L481 523 Z M643 743 L483 833 L324 742 L296 777 L448 919 L519 919 L673 778 L643 743 Z " />
<glyph glyph-name="wcircumflex" unicode="&#x175;" horiz-adv-x="820" d="M407 349 Q401 323 394.5 295 Q388 267 377 227 L317 0 L182 0 L58 410 L12 410 L12 489 L209 489 L209 410 L167 410 L249 98 L253 98 L357 489 L468 489 L571 94 L575 94 L653 410 L611 410 L611 489 L808 489 L808 410 L762 410 L639 0 L504 0 L445 224 Q426 294 413 349 L407 349 Z M567 561 L407 655 L248 560 L220 595 L372 743 L444 743 L598 597 L567 561 Z " />
<glyph glyph-name="Ycircumflex" unicode="&#x176;" horiz-adv-x="621" d="M445 607 L386 607 L386 686 L610 686 L610 607 L554 607 L365 287 L365 77 L445 77 L445 0 L172 0 L172 77 L252 77 L252 284 L67 607 L12 607 L12 686 L239 686 L239 607 L181 607 L309 366 L313 366 L445 607 Z M470 743 L310 833 L151 742 L123 777 L275 919 L346 919 L500 778 L470 743 Z " />
<glyph glyph-name="ycircumflex" unicode="&#x177;" horiz-adv-x="561" d="M20 488 L226 488 L226 411 L172 411 L241 183 Q249 155 257.5 128.5 Q266 102 274 75 L278 75 Q280 83 289 111 Q298 139 310 175 L388 411 L333 411 L333 488 L537 488 L537 411 L489 411 L307 -115 Q287 -173 254 -193.5 Q221 -214 168 -214 Q145 -214 115.5 -210 Q86 -206 53 -196 L70 -111 Q92 -116 111.5 -118.5 Q131 -121 148 -121 Q178 -121 193.5 -112.5 Q209 -104 219 -78 L250 6 L199 6 L69 411 L20 411 L20 488 Z M435 560 L275 654 L116 559 L88 594 L240 742 L312 742 L466 596 L435 560 Z " />
<glyph glyph-name="Ydieresis" unicode="&#x178;" horiz-adv-x="621" d="M445 607 L386 607 L386 686 L610 686 L610 607 L554 607 L365 287 L365 77 L445 77 L445 0 L172 0 L172 77 L252 77 L252 284 L67 607 L12 607 L12 686 L239 686 L239 607 L181 607 L309 366 L313 366 L445 607 Z M270 830 Q270 806 254.5 790 Q239 774 211 774 Q185 774 169.5 790 Q154 806 154 830 Q154 855 169.5 870.5 Q185 886 211 886 Q239 886 254.5 871 Q270 856 270 830 Z M469 830 Q469 806 453.5 790 Q438 774 409 774 Q383 774 368.5 790 Q354 806 354 830 Q354 855 369.5 870.5 Q385 886 409 886 Q438 886 453.5 871 Q469 856 469 830 Z " />
<glyph glyph-name="Zacute" unicode="&#x179;" horiz-adv-x="565" d="M156 78 L461 78 L461 199 L544 199 L544 0 L23 0 L23 76 L390 608 L129 608 L129 501 L47 501 L47 686 L524 686 L524 610 L156 78 Z M263 741 L221 781 L356 946 L424 880 L263 741 Z " />
<glyph glyph-name="zacute" unicode="&#x17a;" horiz-adv-x="475" d="M157 73 L369 73 L369 148 L446 148 L446 0 L26 0 L26 67 L306 415 L121 415 L121 338 L45 338 L45 489 L437 489 L437 423 L157 73 Z M200 545 L157 586 L293 752 L360 684 L200 545 Z " />
<glyph glyph-name="Zdotaccent" unicode="&#x17b;" horiz-adv-x="565" d="M156 78 L461 78 L461 199 L544 199 L544 0 L23 0 L23 76 L390 608 L129 608 L129 501 L47 501 L47 686 L524 686 L524 610 L156 78 Z M357 840 Q357 812 337.5 793 Q318 774 286 774 Q254 774 236.5 793 Q219 812 219 840 Q219 869 236.5 888 Q254 907 286 907 Q318 907 337.5 888 Q357 869 357 840 Z " />
<glyph glyph-name="zdotaccent" unicode="&#x17c;" horiz-adv-x="475" d="M157 73 L369 73 L369 148 L446 148 L446 0 L26 0 L26 67 L306 415 L121 415 L121 338 L45 338 L45 489 L437 489 L437 423 L157 73 Z M316 648 Q316 620 296.5 601 Q277 582 245 582 Q213 582 195.5 601 Q178 620 178 648 Q178 677 195.5 696 Q213 715 245 715 Q277 715 296.5 696 Q316 677 316 648 Z " />
<glyph glyph-name="Zcaron" unicode="&#x17d;" horiz-adv-x="565" d="M156 78 L461 78 L461 199 L544 199 L544 0 L23 0 L23 76 L390 608 L129 608 L129 501 L47 501 L47 686 L524 686 L524 610 L156 78 Z M490 884 L336 744 L265 744 L113 886 L141 919 L300 828 L460 920 L490 884 Z " />
<glyph glyph-name="zcaron" unicode="&#x17e;" horiz-adv-x="475" d="M157 73 L369 73 L369 148 L446 148 L446 0 L26 0 L26 67 L306 415 L121 415 L121 338 L45 338 L45 489 L437 489 L437 423 L157 73 Z M430 707 L276 560 L205 560 L52 709 L80 743 L240 646 L400 742 L430 707 Z " />
<glyph glyph-name="florin" unicode="&#x192;" horiz-adv-x="575" d="M158 407 L254 407 L263 473 Q269 514 278.5 554 Q288 594 307.5 626 Q327 658 360 677.5 Q393 697 444 697 Q469 697 495.5 693.5 Q522 690 549 681 L530 609 Q515 613 499 615 Q483 617 463 617 Q416 617 395.5 586 Q375 555 367 495 L356 407 L457 407 L457 337 L348 337 Q348 335 345 310.5 Q342 286 338 255.5 Q334 225 330 196 Q326 167 325 156 Q319 110 310.5 61 Q302 12 282.5 -28 Q263 -68 228.5 -93.5 Q194 -119 136 -119 Q113 -119 86 -115 Q59 -111 33 -100 L54 -30 Q76 -35 89 -36.5 Q102 -38 115 -38 Q143 -38 161.5 -26 Q180 -14 192.5 12 Q205 38 212.5 80.5 Q220 123 228 185 L246 337 L158 337 L158 407 Z " />
<glyph glyph-name="AEacute" unicode="&#x1fc;" horiz-adv-x="985" d="M509 205 L259 205 L179 75 L247 75 L247 0 L6 0 L6 75 L65 75 L399 609 L344 609 L344 685 L931 685 L931 512 L850 512 L850 611 L619 611 L619 393 L836 398 L836 319 L619 323 L619 75 L863 75 L863 177 L945 177 L945 0 L440 0 L440 75 L509 75 L509 205 Z M302 280 L509 280 L509 605 L504 605 L302 280 Z M592 741 L550 781 L685 946 L753 880 L592 741 Z " />
<glyph glyph-name="aeacute" unicode="&#x1fd;" horiz-adv-x="809" d="M575 500 Q646 500 686 473.5 Q726 447 746 409.5 Q766 372 771 332 Q776 292 776 265 L776 226 L458 226 Q458 193 464 165 Q470 137 485 116.5 Q500 96 525.5 84 Q551 72 589 72 Q630 72 665.5 80 Q701 88 741 104 L763 39 Q718 15 671 4 Q624 -7 576 -7 Q505 -7 463.5 12.5 Q422 32 397 68 Q361 40 329 24.5 Q297 9 269.5 1.5 Q242 -6 220 -7.5 Q198 -9 183 -9 Q137 -9 108 5.5 Q79 20 62 41 Q45 62 38.5 86.5 Q32 111 32 132 Q32 161 42.5 188 Q53 215 74.5 235.5 Q96 256 129.5 268 Q163 280 209 280 L353 280 L353 316 Q353 373 327 395 Q301 417 244 417 Q204 417 164.5 410 Q125 403 90 391 L70 459 Q112 478 165 488.5 Q218 499 266 499 Q315 499 356.5 482 Q398 465 416 425 Q440 458 478.5 479 Q517 500 575 500 Z M227 63 Q239 63 257 66.5 Q275 70 294.5 77.5 Q314 85 334 95 Q354 105 369 119 Q361 143 357 169.5 Q353 196 352 225 L240 225 Q192 225 167.5 203.5 Q143 182 143 145 Q143 63 227 63 Z M575 423 Q544 423 523 411 Q502 399 488.5 379.5 Q475 360 468.5 334 Q462 308 460 280 L679 280 Q679 312 674 338.5 Q669 365 657 383.5 Q645 402 625 412.5 Q605 423 575 423 Z M411 545 L368 586 L504 752 L571 684 L411 545 Z " />
<glyph glyph-name="Oslashacute" unicode="&#x1fe;" horiz-adv-x="705" d="M53 0 L121 87 Q84 133 67 196.5 Q50 260 50 339 Q50 411 66.5 476 Q83 541 120 590 Q157 639 215 668 Q273 697 356 697 Q420 697 467.5 680.5 Q515 664 550 633 L590 686 L648 686 L581 603 Q621 552 638 484.5 Q655 417 655 342 Q655 267 636 203 Q617 139 579.5 91.5 Q542 44 486 17.5 Q430 -9 356 -9 Q288 -9 237.5 8 Q187 25 151 57 L106 0 L53 0 Z M539 339 Q539 384 532 430 Q525 476 507 514 L214 133 Q238 102 272.5 87 Q307 72 356 72 Q404 72 438.5 92.5 Q473 113 495.5 149 Q518 185 528.5 234 Q539 283 539 339 Z M165 338 Q165 234 194 176 L486 556 Q465 584 433.5 600.5 Q402 617 356 617 Q299 617 262 593.5 Q225 570 203.5 531 Q182 492 173.5 441.5 Q165 391 165 338 Z M365 741 L323 781 L458 946 L526 880 L365 741 Z " />
<glyph glyph-name="oslashacute" unicode="&#x1ff;" horiz-adv-x="538" d="M42 0 L92 60 Q63 95 51.5 142 Q40 189 40 242 Q40 292 53 338.5 Q66 385 93.5 420.5 Q121 456 165 477.5 Q209 499 271 499 Q319 499 354.5 486.5 Q390 474 416 452 L446 489 L492 489 L442 428 Q472 392 485 344 Q498 296 498 243 Q498 194 486 149 Q474 104 446.5 69.5 Q419 35 374 14 Q329 -7 263 -7 Q170 -7 119 35 L90 0 L42 0 Z M387 242 Q387 268 383.5 296 Q380 324 369 347 Q321 286 275.5 225.5 Q230 165 182 104 Q196 88 217.5 78.5 Q239 69 271 69 Q307 69 330 84 Q353 99 365.5 123.5 Q378 148 382.5 179 Q387 210 387 242 Z M271 420 Q236 420 212.5 405 Q189 390 175 365.5 Q161 341 155 310 Q149 279 149 248 Q149 221 152 193 Q155 165 166 142 Q213 202 259 262 Q305 322 353 382 Q339 399 319.5 409.5 Q300 420 271 420 Z M260 545 L217 586 L353 752 L420 684 L260 545 Z " />
<glyph glyph-name="Scommaaccent" unicode="&#x218;" horiz-adv-x="575" d="M117 187 L118 105 Q155 88 193 81.5 Q231 75 264 75 Q303 75 332 85 Q361 95 380 110.5 Q399 126 408.5 146.5 Q418 167 418 188 Q418 219 406.5 238 Q395 257 374.5 269 Q354 281 326.5 289.5 Q299 298 266 307 Q220 317 180 332 Q140 347 110 368.5 Q80 390 62.5 421 Q45 452 45 495 Q46 544 65 581.5 Q84 619 116.5 644 Q149 669 192.5 682 Q236 695 287 695 Q309 695 335 693 Q361 691 387.5 686.5 Q414 682 440 673.5 Q466 665 488 653 L489 510 L408 510 L407 593 Q384 603 349.5 607 Q315 611 288 611 Q262 611 238.5 604.5 Q215 598 197.5 585 Q180 572 169.5 552.5 Q159 533 159 508 Q159 484 171.5 466.5 Q184 449 205 436 Q226 423 253.5 413.5 Q281 404 311 397 Q353 387 393.5 373.5 Q434 360 466 337.5 Q498 315 517.5 280.5 Q537 246 537 193 Q537 140 517.5 102 Q498 64 463 39 Q428 14 379 2.5 Q330 -9 271 -9 Q213 -9 152 2 Q91 13 38 41 Q38 77 37.5 113.5 Q37 150 37 187 L117 187 Z M232 -96 Q232 -73 249.5 -56.5 Q267 -40 293 -40 Q323 -40 339.5 -60 Q356 -80 355 -108 Q354 -150 328.5 -186 Q303 -222 261 -242 L236 -211 Q271 -181 272 -147 Q252 -142 242 -129 Q232 -116 232 -96 Z " />
<glyph glyph-name="scommaaccent" unicode="&#x219;" horiz-adv-x="464" d="M107 149 Q108 134 108.5 118.5 Q109 103 110 87 Q130 76 158 71.5 Q186 67 209 67 Q254 67 285.5 81.5 Q317 96 317 132 Q317 150 309.5 162 Q302 174 289 182.5 Q276 191 258.5 197 Q241 203 222 209 Q188 219 155 229 Q122 239 96 255 Q70 271 54 294.5 Q38 318 38 355 Q38 393 52.5 420 Q67 447 92.5 464.5 Q118 482 153.5 490.5 Q189 499 231 499 Q274 499 316.5 490.5 Q359 482 392 462 Q392 433 392.5 403.5 Q393 374 394 344 L315 344 Q314 361 314 376.5 Q314 392 313 409 Q279 423 238 423 Q200 423 173.5 408.5 Q147 394 147 359 Q147 344 156.5 333.5 Q166 323 180.5 315.5 Q195 308 211 303 Q227 298 241 294 Q271 285 304 275.5 Q337 266 364.5 249 Q392 232 409.5 204.5 Q427 177 427 132 Q427 96 412 69.5 Q397 43 369.5 26 Q342 9 303 0.5 Q264 -8 217 -8 Q174 -8 123 -0.5 Q72 7 32 30 Q31 59 31 89.5 Q31 120 30 149 L107 149 Z M180 -96 Q180 -73 197.5 -56.5 Q215 -40 241 -40 Q271 -40 287.5 -60 Q304 -80 303 -108 Q302 -150 276.5 -186 Q251 -222 209 -242 L184 -211 Q219 -181 220 -147 Q200 -142 190 -129 Q180 -116 180 -96 Z " />
<glyph glyph-name="schwa" unicode="&#x259;" horiz-adv-x="505" d="M245.032 69.0515 Q274.029 69.0515 295.026 80.5501 Q316.024 92.0487 329.522 110.546 Q343.02 129.044 350.519 152.541 Q358.018 176.038 359.018 200.036 L141.045 200.036 Q142.045 173.039 147.044 149.542 Q152.044 126.045 164.042 108.047 Q176.041 90.049 195.538 79.5502 Q215.036 69.0515 245.032 69.0515 Z M244.032 -8.93896 Q173.041 -8.93896 132.546 17.5578 Q92.0509 44.0546 71.5534 81.55 Q51.0559 119.045 46.0565 159.041 Q41.0571 199.036 41.0571 226.032 L41.0571 274.026 L361.018 274.026 Q361.018 307.022 355.019 334.019 Q349.02 361.016 334.021 380.014 Q319.023 399.011 293.526 409.51 Q268.029 420.009 230.034 420.009 Q188.039 420.009 153.043 412.01 Q118.048 404.011 78.0526 387.013 L51.0559 454.005 Q97.0503 478.002 145.544 489 Q194.038 499.999 243.032 499.999 Q312.024 499.999 355.519 479.001 Q399.013 458.004 424.51 423.008 Q450.007 388.013 459.506 342.518 Q469.005 297.024 469.005 248.03 Q469.005 212.034 460.006 167.539 Q451.007 123.045 426.01 83.5497 Q401.013 44.0546 357.019 17.5578 Q313.024 -8.93896 244.032 -8.93896 Z " />
<glyph glyph-name="circumflex" unicode="&#x2c6;" horiz-adv-x="529" d="M423 551 L263 645 L104 550 L76 585 L228 733 L300 733 L454 587 L423 551 Z " />
<glyph glyph-name="caron" unicode="&#x2c7;" horiz-adv-x="529" d="M454 701 L300 554 L229 554 L76 703 L104 737 L264 640 L424 736 L454 701 Z " />
<glyph glyph-name="breve" unicode="&#x2d8;" horiz-adv-x="547" d="M268 566 Q240 566 215.5 576.5 Q191 587 169 604.5 Q147 622 128.5 645.5 Q110 669 94 695 L148 735 Q177 693 210 669.5 Q243 646 271 646 Q280 646 293 648.5 Q306 651 324 659 Q342 667 365 683.5 Q388 700 418 728 L453 695 Q410 624 360 595 Q310 566 268 566 Z " />
<glyph glyph-name="dotaccent" unicode="&#x2d9;" horiz-adv-x="531" d="M340 648 Q340 620 320.5 601 Q301 582 269 582 Q237 582 219.5 601 Q202 620 202 648 Q202 677 219.5 696 Q237 715 269 715 Q301 715 320.5 696 Q340 677 340 648 Z " />
<glyph glyph-name="ogonek" unicode="&#x2db;" horiz-adv-x="546" d="M411 30 Q416 26 421 22 Q426 18 431 14 Q418 0 407 -17 Q396 -34 388 -51 Q380 -68 375.5 -84.5 Q371 -101 371 -114 Q371 -143 386.5 -153.5 Q402 -164 428 -164 Q448 -164 468 -160 Q488 -156 502 -152 Q504 -162 506 -171 Q508 -180 510 -189 Q484 -203 455 -210 Q426 -217 397 -217 Q348 -217 322.5 -196.5 Q297 -176 297 -141 Q297 -126 301.5 -106 Q306 -86 318.5 -63.5 Q331 -41 353.5 -17 Q376 7 411 30 Z " />
<glyph glyph-name="tilde" unicode="&#x2dc;" horiz-adv-x="529" d="M346 582 Q322 582 299.5 588 Q277 594 257 601.5 Q237 609 219.5 615 Q202 621 187 621 L130 582 L96 609 Q110 650 134.5 671 Q159 692 191 692 Q210 692 231 686 Q252 680 273 673 Q294 666 313.5 660 Q333 654 349 654 L405 694 L440 667 Q426 627 402 604.5 Q378 582 346 582 Z " />
<glyph glyph-name="hungarumlaut" unicode="&#x2dd;" horiz-adv-x="531" d="M171 543 L127 579 L251 755 L322 697 L171 543 Z M314 543 L270 579 L393 755 L465 697 L314 543 Z " />
<glyph glyph-name="endash" unicode="&#x2013;" horiz-adv-x="611" d="M35 221 L35 292 L588 292 L588 221 L35 221 Z " />
<glyph glyph-name="emdash" unicode="&#x2014;" horiz-adv-x="905" d="M37 221 L37 292 L873 292 L873 221 L37 221 Z " />
<glyph glyph-name="quoteleft" unicode="&#x2018;" horiz-adv-x="232" d="M182 535 Q182 511 164 492.5 Q146 474 119 474 Q86 474 68.5 496 Q51 518 51 550 Q51 574 60 598.5 Q69 623 85 646 Q101 669 121 687.5 Q141 706 164 718 Q171 709 177 700.5 Q183 692 190 683 Q168 664 155.5 642.5 Q143 621 141 592 Q182 581 182 535 Z " />
<glyph glyph-name="quoteright" unicode="&#x2019;" horiz-adv-x="232" d="M60 657 Q60 682 78 700 Q96 718 124 718 Q156 718 173.5 696 Q191 674 191 643 Q191 619 182 594.5 Q173 570 157.5 547 Q142 524 121.5 505.5 Q101 487 78 475 L53 510 Q74 529 86.5 550.5 Q99 572 102 600 Q81 605 70.5 620.5 Q60 636 60 657 Z " />
<glyph glyph-name="quotesinglbase" unicode="&#x201a;" horiz-adv-x="232" d="M49 56 Q49 80 67 98.5 Q85 117 114 117 Q146 117 164 95 Q182 73 182 42 Q182 -4 153 -52.5 Q124 -101 73 -134 L45 -101 Q69 -77 81.5 -52.5 Q94 -28 97 -1 Q70 1 59.5 18 Q49 35 49 56 Z " />
<glyph glyph-name="quotedblleft" unicode="&#x201c;" horiz-adv-x="377" d="M180 535 Q180 511 162 492.5 Q144 474 116 474 Q84 474 66.5 496 Q49 518 49 550 Q49 574 58 598.5 Q67 623 82.5 645.5 Q98 668 118.5 687 Q139 706 162 718 Q169 709 175 700.5 Q181 692 188 683 Q166 664 153 642.5 Q140 621 138 592 Q180 581 180 535 Z M332 535 Q332 511 313.5 492.5 Q295 474 268 474 Q235 474 218 496 Q201 518 201 550 Q201 574 210 598.5 Q219 623 234.5 646 Q250 669 270 687.5 Q290 706 313 718 Q320 709 326 700.5 Q332 692 340 683 Q318 664 305 642.5 Q292 621 290 592 Q332 581 332 535 Z " />
<glyph glyph-name="quotedblright" unicode="&#x201d;" horiz-adv-x="377" d="M210 657 Q210 682 228.5 700 Q247 718 275 718 Q307 718 324.5 696 Q342 674 342 643 Q342 619 333 594.5 Q324 570 309 547 Q294 524 273.5 505.5 Q253 487 229 475 L203 510 Q224 529 237 550.5 Q250 572 252 600 Q232 605 221 620.5 Q210 636 210 657 Z M59 657 Q59 682 76.5 700 Q94 718 123 718 Q155 718 172.5 696 Q190 674 190 643 Q190 619 181 594.5 Q172 570 156.5 547 Q141 524 120.5 505.5 Q100 487 77 475 L50 510 Q73 529 85.5 550.5 Q98 572 101 600 Q80 605 69.5 620.5 Q59 636 59 657 Z " />
<glyph glyph-name="quotedblbase" unicode="&#x201e;" horiz-adv-x="393" d="M49 56 Q49 80 67 98.5 Q85 117 114 117 Q146 117 164 95 Q182 73 182 42 Q182 -4 153 -52.5 Q124 -101 73 -134 L45 -101 Q69 -77 81.5 -52.5 Q94 -28 97 -1 Q70 1 59.5 18 Q49 35 49 56 Z M214 56 Q214 80 231.5 98.5 Q249 117 278 117 Q311 117 329 95 Q347 73 347 42 Q347 -4 318 -52.5 Q289 -101 237 -134 L210 -101 Q257 -53 261 -1 Q235 1 224.5 18 Q214 35 214 56 Z " />
<glyph glyph-name="dagger" unicode="&#x2020;" horiz-adv-x="477" d="M283 410 L283 -64 L192 -64 L192 410 L38 410 L38 488 L192 488 L192 687 L283 687 L283 488 L439 488 L439 410 L283 410 Z " />
<glyph glyph-name="daggerdbl" unicode="&#x2021;" horiz-adv-x="477" d="M192 198 L192 410 L38 410 L38 488 L192 488 L192 687 L283 687 L283 488 L439 488 L439 410 L283 410 L283 198 L439 198 L439 119 L283 119 L283 -64 L192 -64 L192 119 L38 119 L38 198 L192 198 Z " />
<glyph glyph-name="bullet" unicode="&#x2022;" horiz-adv-x="351" d="M291 273 Q291 249 281.5 227.5 Q272 206 256.5 190.5 Q241 175 220 165.5 Q199 156 175 156 Q151 156 130 165.5 Q109 175 93.5 190.5 Q78 206 68.5 227.5 Q59 249 59 273 Q59 297 68.5 318.5 Q78 340 93.5 355.5 Q109 371 130 380.5 Q151 390 175 390 Q199 390 220 380.5 Q241 371 256.5 355.5 Q272 340 281.5 318.5 Q291 297 291 273 Z " />
<glyph glyph-name="ellipsis" unicode="&#x2026;" horiz-adv-x="689" d="M640 54 Q640 28 622 9 Q604 -10 579 -10 Q553 -10 534 9 Q515 28 515 54 Q515 80 533.5 98 Q552 116 578 116 Q604 116 622 98 Q640 80 640 54 Z M402 54 Q402 28 384 9 Q366 -10 340 -10 Q314 -10 295.5 9 Q277 28 277 54 Q277 80 295 98 Q313 116 339 116 Q365 116 383.5 98 Q402 80 402 54 Z M174 54 Q174 28 155.5 9 Q137 -10 112 -10 Q86 -10 67 9 Q48 28 48 54 Q48 80 66.5 98 Q85 116 112 116 Q138 116 156 98 Q174 80 174 54 Z " />
<glyph glyph-name="perthousand" unicode="&#x2030;" horiz-adv-x="1234" d="M356 464 Q356 426 347.5 390 Q339 354 319.5 325.5 Q300 297 268 279.5 Q236 262 188 262 Q136 262 103 279 Q70 296 51 324 Q32 352 25 388 Q18 424 18 463 Q18 499 25 536 Q32 573 51.5 602.5 Q71 632 104 651 Q137 670 190 670 Q243 670 275.5 650.5 Q308 631 326 601 Q344 571 350 534.5 Q356 498 356 464 Z M273 463 Q273 484 271 509.5 Q269 535 260.5 557 Q252 579 235.5 593.5 Q219 608 190 608 Q160 608 142 594 Q124 580 115 558.5 Q106 537 103 511 Q100 485 100 462 Q100 433 103.5 407.5 Q107 382 116.5 363 Q126 344 143.5 333 Q161 322 190 322 Q216 322 232 334.5 Q248 347 257 367 Q266 387 269.5 412 Q273 437 273 463 Z M308 -21 L241 -21 L544 704 L610 704 L308 -21 Z M831 199 Q831 161 822.5 125 Q814 89 794.5 60.5 Q775 32 743 14.5 Q711 -3 663 -3 Q611 -3 578 14 Q545 31 526 59 Q507 87 500 123 Q493 159 493 198 Q493 234 500 271 Q507 308 526.5 337.5 Q546 367 579 386 Q612 405 665 405 Q718 405 750.5 385.5 Q783 366 801 336 Q819 306 825 269.5 Q831 233 831 199 Z M748 198 Q748 219 746 244.5 Q744 270 735.5 292 Q727 314 710.5 328.5 Q694 343 665 343 Q635 343 617 329 Q599 315 590 293.5 Q581 272 578 246 Q575 220 575 197 Q575 168 578.5 142.5 Q582 117 591.5 98 Q601 79 618.5 68 Q636 57 665 57 Q691 57 707 69.5 Q723 82 732 102 Q741 122 744.5 147 Q748 172 748 198 Z M1215 199 Q1215 161 1206.5 125 Q1198 89 1178.5 60.5 Q1159 32 1127 14.5 Q1095 -3 1047 -3 Q995 -3 962 14 Q929 31 910 59 Q891 87 884 123 Q877 159 877 198 Q877 234 884 271 Q891 308 910.5 337.5 Q930 367 963 386 Q996 405 1049 405 Q1102 405 1134.5 385.5 Q1167 366 1185 336 Q1203 306 1209 269.5 Q1215 233 1215 199 Z M1132 198 Q1132 219 1130 244.5 Q1128 270 1119.5 292 Q1111 314 1094.5 328.5 Q1078 343 1049 343 Q1019 343 1001 329 Q983 315 974 293.5 Q965 272 962 246 Q959 220 959 197 Q959 168 962.5 142.5 Q966 117 975.5 98 Q985 79 1002.5 68 Q1020 57 1049 57 Q1075 57 1091 69.5 Q1107 82 1116 102 Q1125 122 1128.5 147 Q1132 172 1132 198 Z " />
<glyph glyph-name="guilsinglleft" unicode="&#x2039;" horiz-adv-x="328" d="M59 211 L213 379 L257 347 L155 192 L257 38 L213 6 L59 173 L59 211 Z " />
<glyph glyph-name="guilsinglright" unicode="&#x203a;" horiz-adv-x="328" d="M257 173 L103 6 L60 38 L161 192 L59 347 L103 379 L257 211 L257 173 Z " />
<glyph glyph-name="Euro" unicode="&#x20ac;" horiz-adv-x="575" d="M454 602 Q431 609 411 611.5 Q391 614 372 614 Q327 614 294.5 599 Q262 584 240 557.5 Q218 531 205 495 Q192 459 187 417 L452 417 L452 370 L183 370 L183 320 L452 320 L452 272 L186 272 Q189 232 200 196.5 Q211 161 233 134 Q255 107 290 91.5 Q325 76 377 76 Q391 76 413.5 77.5 Q436 79 466 85 L466 162 L543 162 L543 19 Q526 13 503.5 8 Q481 3 456.5 -0.5 Q432 -4 407 -5.5 Q382 -7 360 -7 Q277 -7 224.5 19 Q172 45 140.5 85.5 Q109 126 95.5 175.5 Q82 225 78 272 L31 272 L31 320 L75 320 L75 340 Q75 347 75 354.5 Q75 362 76 370 L31 370 L31 417 L80 417 Q87 474 106.5 525 Q126 576 160.5 614.5 Q195 653 246 675 Q297 697 366 697 Q415 697 456 689 Q497 681 531 670 L531 528 L454 528 L454 602 Z " />
<glyph glyph-name="trademark" unicode="&#x2122;" horiz-adv-x="800" d="M668 583 Q648 540 626.5 497 Q605 454 584 408 L531 408 Q510 450 490 492 Q470 534 447 579 L446 579 L446 396 L482 396 L482 350 L346 350 L346 396 L383 396 L383 638 L346 638 L346 685 L461 685 L557 478 L558 478 Q580 526 603.5 575 Q627 624 655 685 L770 685 L770 638 L735 638 L735 396 L770 396 L770 350 L637 350 L637 396 L670 396 L670 583 L668 583 Z M274 638 L209 638 L209 396 L252 396 L252 351 L99 351 L99 396 L141 396 L141 638 L79 638 L79 584 L31 584 L31 685 L322 685 L322 584 L274 584 L274 638 Z " />
<glyph glyph-name="Circumflex" unicode="&#xf6c0;" horiz-adv-x="702" d="M511 743 L351 833 L192 742 L164 777 L316 919 L387 919 L541 778 L511 743 Z " />
<glyph glyph-name="commaaccent" unicode="&#xf6c3;" horiz-adv-x="697" d="M290 -96 Q290 -73 307.5 -56.5 Q325 -40 351 -40 Q381 -40 397.5 -60 Q414 -80 413 -108 Q412 -150 386.5 -186 Q361 -222 319 -242 L294 -211 Q329 -181 330 -147 Q310 -142 300 -129 Q290 -116 290 -96 Z " />
<glyph glyph-name="uniF6C7" unicode="&#xf6c7;" horiz-adv-x="530" d="M267 554 Q243 554 221.5 563 Q200 572 184.5 587 Q169 602 160 622 Q151 642 151 665 Q151 687 160 707 Q169 727 184.5 742.5 Q200 758 221.5 767 Q243 776 267 776 Q291 776 311.5 767 Q332 758 347 743 Q362 728 370.5 707.5 Q379 687 379 665 Q379 641 370 621 Q361 601 346 586 Q331 571 310.5 562.5 Q290 554 267 554 Z M267 721 Q242 721 225 703.5 Q208 686 208 662 Q208 640 224.5 623 Q241 606 267 606 Q290 606 306 623 Q322 640 322 662 Q322 685 306.5 703 Q291 721 267 721 Z " />
<glyph glyph-name="Acute" unicode="&#xf6c9;" horiz-adv-x="702" d="M365 741 L323 781 L458 946 L526 880 L365 741 Z " />
<glyph glyph-name="Caron" unicode="&#xf6ca;" horiz-adv-x="702" d="M542 884 L388 744 L317 744 L165 886 L193 919 L352 828 L512 920 L542 884 Z " />
<glyph glyph-name="Dieresis" unicode="&#xf6cb;" horiz-adv-x="702" d="M313 830 Q313 806 297.5 790 Q282 774 254 774 Q228 774 212.5 790 Q197 806 197 830 Q197 855 212.5 870.5 Q228 886 254 886 Q282 886 297.5 871 Q313 856 313 830 Z M512 830 Q512 806 496.5 790 Q481 774 452 774 Q426 774 411.5 790 Q397 806 397 830 Q397 855 412.5 870.5 Q428 886 452 886 Q481 886 496.5 871 Q512 856 512 830 Z " />
<glyph glyph-name="Grave" unicode="&#xf6ce;" horiz-adv-x="702" d="M186 881 L253 948 L389 784 L345 742 L186 881 Z " />
<glyph glyph-name="Hungarumlaut" unicode="&#xf6cf;" horiz-adv-x="702" d="M309 744 L261 780 L385 955 L460 897 L309 744 Z M449 744 L402 780 L525 955 L600 897 L449 744 Z " />
<glyph glyph-name="Macron" unicode="&#xf6d0;" horiz-adv-x="702" d="M187 871 L527 871 L527 793 L187 793 L187 871 Z " />
<glyph glyph-name="cyrBreve" unicode="&#xf6d1;" horiz-adv-x="702" d="M350 756 Q322 756 297.5 766.5 Q273 777 251.5 794.5 Q230 812 211.5 834.5 Q193 857 177 882 L229 922 Q258 881 291.5 857.5 Q325 834 354 834 Q363 834 376 836 Q389 838 407 846 Q425 854 448 870.5 Q471 887 500 916 L532 883 Q487 812 439 784 Q391 756 350 756 Z " />
<glyph glyph-name="uniF6DC" unicode="&#xf6dc;" horiz-adv-x="593" d="M380 782 Q354 782 331 788 Q308 794 287 801.5 Q266 809 247.5 815.5 Q229 822 213 822 L152 782 L114 810 Q130 852 156.5 873.5 Q183 895 217 895 Q238 895 260.5 889 Q283 883 304.5 875.5 Q326 868 346.5 862 Q367 856 385 856 L445 896 L482 869 Q468 828 441.5 805 Q415 782 380 782 Z " />
<glyph glyph-name="ff" unicode="&#xfb00;" horiz-adv-x="687" d="M647 412 L505 412 L505 74 L586 74 L586 0 L346 0 L346 74 L401 74 L401 412 L201 412 L201 74 L260 74 L260 0 L28 0 L28 74 L97 74 L97 412 L28 412 L28 472 Q45 478 62.5 482 Q80 486 98 491 L98 528 Q98 569 108.5 604 Q119 639 143.5 664.5 Q168 690 208.5 704.5 Q249 719 309 719 Q342 719 374 715 Q406 711 442 700 Q486 741 589 741 Q611 741 637 737.5 Q663 734 686 728 Q682 708 678.5 689.5 Q675 671 671 651 Q650 656 627.5 657.5 Q605 659 589 659 Q551 659 528 640.5 Q505 622 505 581 L505 488 L647 488 L647 412 Z M401 488 Q403 539 402.5 574.5 Q402 610 406 624 Q383 630 361 632.5 Q339 635 322 635 Q253 635 227 609.5 Q201 584 201 525 L201 488 L401 488 Z " />
<glyph glyph-name="fi" unicode="&#xfb01;" horiz-adv-x="609" d="M504 77 L577 77 L577 13 Q554 3 526.5 -2 Q499 -7 479 -7 Q437 -7 418 8 Q399 23 399 65 L399 413 L201 413 L201 75 L267 75 L267 0 L29 0 L29 75 L97 75 L97 413 L28 413 L28 474 L98 493 L98 563 Q98 646 147 689.5 Q196 733 296 733 Q329 733 376.5 728 Q424 723 468 712 L453 634 Q415 640 380.5 644 Q346 648 317 648 Q258 648 229.5 626 Q201 604 201 543 L201 489 L504 489 L504 77 Z " />
<glyph glyph-name="fl" unicode="&#xfb02;" horiz-adv-x="618" d="M517 75 L586 75 L586 0 L349 0 L349 75 L411 75 L411 631 Q387 636 362 638 Q337 640 317 640 Q258 640 229.5 619 Q201 598 201 536 L201 489 L340 489 L340 413 L201 413 L201 75 L262 75 L262 0 L29 0 L29 75 L97 75 L97 413 L28 413 L28 474 L98 493 L98 556 Q98 638 147 682 Q196 726 296 726 Q324 726 360.5 722.5 Q397 719 432 713 L517 724 L517 75 Z " />
</font>
</svg>
