<?xml version="1.0" encoding="UTF-8"?>
<svg xmlns="http://www.w3.org/2000/svg" xmlns:xlink="http://www.w3.org/1999/xlink" version="1.2" >
<font id="KfWCentroSlab-Bold">
<font-face  font-family="KfW Centro Slab" units-per-em="1000" ascent="750" descent="-250" font-style="normal" font-weight="700" font-stretch="normal" cap-height="688" x-height="491" underline-position="-85" underline-thickness="70" />
<missing-glyph  horiz-adv-x="445" d="M0 687 L445 687 L445 0 L0 0 L0 687 Z M350 60 L222 288 L94 60 L350 60 Z M350 627 L93 627 L222 400 L350 627 Z M61 119 L187 345 L61 570 L61 119 Z M383 117 L383 571 L257 343 L383 117 Z " />
<glyph glyph-name=".null" d="" />
<glyph glyph-name="nonmarkingreturn" unicode="&#xd;" horiz-adv-x="297" d="" />
<glyph glyph-name="space" unicode="&#x20;" horiz-adv-x="297" d="" />
<glyph glyph-name="exclam" unicode="&#x21;" horiz-adv-x="281" d="M206 705 L205 439 L191 193 L92 193 L79 439 L76 705 L206 705 Z M141 129 Q174 129 194.5 108.5 Q215 88 215 58 Q215 29 194 8 Q173 -13 141 -13 Q107 -13 86.5 8 Q66 29 66 58 Q66 87 87.5 108 Q109 129 141 129 Z " />
<glyph glyph-name="quotedbl" unicode="&#x22;" horiz-adv-x="362" d="M67 448 L49 689 L164 689 L144 448 L67 448 Z M222 448 L204 689 L318 689 L300 448 L222 448 Z " />
<glyph glyph-name="numbersign" unicode="&#x23;" horiz-adv-x="597" d="M454 394 L424 266 L504 266 L499 196 L409 196 L364 0 L286 0 L330 196 L219 196 L173 0 L94 0 L139 196 L65 196 L70 266 L155 266 L185 394 L103 394 L108 461 L200 461 L242 637 L320 637 L279 461 L391 461 L432 637 L510 637 L470 461 L543 461 L538 394 L454 394 Z M234 266 L346 266 L375 394 L265 394 L234 266 Z " />
<glyph glyph-name="dollar" unicode="&#x24;" horiz-adv-x="597" d="M312 750 L356 750 L356 672 Q391 669 426.5 660.5 Q462 652 492 635 L492 489 L409 489 L409 565 Q397 570 384 573.5 Q371 577 356 579 L356 384 Q389 373 422.5 359.5 Q456 346 482 325 Q508 304 524.5 274 Q541 244 541 201 Q541 118 490.5 70.5 Q440 23 356 10 L356 -86 L312 -86 L312 750 Z M278 -86 L237 -86 L237 7 Q193 11 152 21 Q111 31 70 52 L70 202 L154 202 L154 125 Q177 114 196 110 Q215 106 237 104 L237 310 Q202 320 171.5 334 Q141 348 117.5 368.5 Q94 389 80.5 417 Q67 445 67 483 Q67 561 113 609.5 Q159 658 237 671 L237 750 L278 750 L278 -86 Z M428 196 Q428 228 408 245.5 Q388 263 356 275 L356 109 Q388 116 408 137 Q428 158 428 196 Z M177 495 Q177 463 193.5 447 Q210 431 237 420 L237 573 Q211 565 194 546.5 Q177 528 177 495 Z " />
<glyph glyph-name="percent" unicode="&#x25;" horiz-adv-x="900" d="M377 465 Q377 426 368 389 Q359 352 338.5 324 Q318 296 284 279 Q250 262 200 262 Q147 262 112.5 278.5 Q78 295 58 323 Q38 351 29.5 387.5 Q21 424 21 465 Q21 503 29.5 540 Q38 577 58.5 606.5 Q79 636 113.5 654 Q148 672 201 672 Q255 672 289 653.5 Q323 635 342.5 605.5 Q362 576 369.5 539 Q377 502 377 465 Z M274 465 Q274 486 272 509.5 Q270 533 262.5 552.5 Q255 572 240.5 584.5 Q226 597 201 597 Q175 597 159.5 584.5 Q144 572 136 553 Q128 534 125.5 510 Q123 486 123 464 Q123 436 126 412.5 Q129 389 137.5 371.5 Q146 354 161 344.5 Q176 335 201 335 Q223 335 237.5 346 Q252 357 260 375 Q268 393 271 416.5 Q274 440 274 465 Z M335 -20 L253 -20 L568 708 L650 708 L335 -20 Z M876 200 Q876 161 867 124 Q858 87 837.5 58.5 Q817 30 783 13 Q749 -4 699 -4 Q646 -4 611.5 12.5 Q577 29 557 57 Q537 85 528.5 122 Q520 159 520 199 Q520 237 528.5 274 Q537 311 557.5 340.5 Q578 370 612.5 388 Q647 406 700 406 Q754 406 788 387.5 Q822 369 841.5 339.5 Q861 310 868.5 273.5 Q876 237 876 200 Z M773 199 Q773 220 771 243.5 Q769 267 761.5 286.5 Q754 306 739.5 319 Q725 332 700 332 Q674 332 658.5 319.5 Q643 307 635 287.5 Q627 268 624.5 244 Q622 220 622 198 Q622 171 625 147 Q628 123 636.5 106 Q645 89 660 79 Q675 69 700 69 Q722 69 736.5 80 Q751 91 759 109 Q767 127 770 150.5 Q773 174 773 199 Z " />
<glyph glyph-name="ampersand" unicode="&#x26;" horiz-adv-x="789" d="M288 -15 Q238 -15 194 -2.5 Q150 10 117.5 35.5 Q85 61 66.5 98.5 Q48 136 48 186 Q48 248 87 302.5 Q126 357 207 400 Q179 436 167.5 469 Q156 502 156 534 Q156 558 164.5 585 Q173 612 192 634.5 Q211 657 242.5 671.5 Q274 686 321 686 Q370 686 403 671 Q436 656 455 634.5 Q474 613 482 588 Q490 563 490 544 Q490 515 478.5 490 Q467 465 448 444 Q429 423 404.5 405.5 Q380 388 354 372 Q374 345 397 315.5 Q420 286 446 256 Q463 236 480 217 Q497 198 515 179 Q544 208 565.5 244.5 Q587 281 595 324 L525 324 L525 411 L769 411 L769 324 L705 324 Q695 265 665 211 Q635 157 589 112 Q622 83 660 57 Q698 31 732 16 L685 -65 Q666 -57 643.5 -44.5 Q621 -32 597 -17 Q573 -2 549.5 15.5 Q526 33 507 50 Q459 18 403 1.5 Q347 -15 288 -15 Z M356 205 Q332 234 308 263.5 Q284 293 263 320 Q223 297 196.5 267 Q170 237 170 194 Q170 137 207.5 107.5 Q245 78 301 78 Q333 78 366.5 88.5 Q400 99 431 119 Q411 140 392.5 161.5 Q374 183 356 205 Z M266 539 Q266 519 276.5 495.5 Q287 472 305 446 Q321 455 336.5 464.5 Q352 474 364 486 Q376 498 383.5 512 Q391 526 391 544 Q391 572 373 588 Q355 604 325 604 Q309 604 298 598 Q287 592 280 582 Q273 572 269.5 560.5 Q266 549 266 539 Z " />
<glyph glyph-name="quotesingle" unicode="&#x27;" horiz-adv-x="239" d="M79 448 L61 689 L176 689 L157 448 L79 448 Z " />
<glyph glyph-name="parenleft" unicode="&#x28;" horiz-adv-x="331" d="M62 280 Q62 353 77.5 418 Q93 483 117 538 Q141 593 170.5 637 Q200 681 229 713 L289 675 Q276 657 257.5 623 Q239 589 222 539.5 Q205 490 193 426 Q181 362 181 283 Q181 196 193 128 Q205 60 222.5 9 Q240 -42 258.5 -76 Q277 -110 290 -128 L230 -169 Q201 -138 171 -93 Q141 -48 117 8.5 Q93 65 77.5 133 Q62 201 62 280 Z " />
<glyph glyph-name="parenright" unicode="&#x29;" horiz-adv-x="333" d="M265 280 Q265 201 249.5 133 Q234 65 210 8.5 Q186 -48 156 -92.5 Q126 -137 97 -168 L39 -128 Q51 -110 70 -76 Q89 -42 106 9 Q123 60 135.5 128.5 Q148 197 148 284 Q148 362 135.5 426.5 Q123 491 105.5 540 Q88 589 69.5 623 Q51 657 38 675 L99 713 Q128 681 157.5 637 Q187 593 211 538 Q235 483 250 418 Q265 353 265 280 Z " />
<glyph glyph-name="asterisk" unicode="&#x2a;" horiz-adv-x="421" d="M242 579 Q268 593 294.5 608 Q321 623 348 637 Q362 612 369 587 Q376 562 381 536 Q350 531 320 527 Q290 523 259 520 Q281 500 303 479.5 Q325 459 346 439 Q327 420 306.5 405 Q286 390 263 376 Q249 404 236.5 431.5 Q224 459 211 486 Q199 459 186 432 Q173 405 161 377 Q137 390 116 404.5 Q95 419 75 439 Q97 459 119.5 480 Q142 501 163 521 Q133 525 103.5 528.5 Q74 532 44 536 Q50 565 57.5 589.5 Q65 614 77 639 Q103 623 129.5 608.5 Q156 594 182 579 Q176 608 169.5 637 Q163 666 158 695 Q172 697 185.5 697.5 Q199 698 213 698 Q227 698 240 697.5 Q253 697 266 695 Q260 666 254.5 637 Q249 608 242 579 Z " />
<glyph glyph-name="plus" unicode="&#x2b;" horiz-adv-x="597" d="M350 261 L350 91 L265 91 L265 261 L101 261 L101 344 L265 344 L265 509 L350 509 L350 344 L513 344 L513 261 L350 261 Z " />
<glyph glyph-name="comma" unicode="&#x2c;" horiz-adv-x="261" d="M51 70 Q51 99 72 120 Q93 141 128 141 Q168 141 187.5 114.5 Q207 88 207 53 Q207 26 197.5 -1.5 Q188 -29 171.5 -54.5 Q155 -80 132.5 -102 Q110 -124 83 -140 L48 -96 Q74 -72 87.5 -48 Q101 -24 105 5 Q75 8 63 26.5 Q51 45 51 70 Z " />
<glyph glyph-name="hyphen" unicode="&#x2d;" horiz-adv-x="392" d="M59 219 L59 318 L333 318 L333 219 L59 219 Z " />
<glyph glyph-name="period" unicode="&#x2e;" horiz-adv-x="261" d="M206 66 Q206 34 183.5 11.5 Q161 -11 130 -11 Q98 -11 75 11.5 Q52 34 52 66 Q52 82 58.5 96 Q65 110 75.5 120.5 Q86 131 100 137 Q114 143 129 143 Q161 143 183.5 120.5 Q206 98 206 66 Z " />
<glyph glyph-name="slash" unicode="&#x2f;" horiz-adv-x="370" d="M105 -33 L8 -33 L267 706 L364 706 L105 -33 Z " />
<glyph glyph-name="zero" unicode="0" horiz-adv-x="597" d="M567 343 Q567 275 553 211.5 Q539 148 507.5 99 Q476 50 425 21 Q374 -8 300 -8 Q220 -8 167.5 20.5 Q115 49 84 97.5 Q53 146 40.5 209 Q28 272 28 341 Q28 407 40.5 471 Q53 535 84 586 Q115 637 167.5 668.5 Q220 700 300 700 Q381 700 433 668 Q485 636 514.5 584.5 Q544 533 555.5 469.5 Q567 406 567 343 Z M427 341 Q427 386 423 431.5 Q419 477 406 514.5 Q393 552 367.5 575.5 Q342 599 300 599 Q257 599 231 575.5 Q205 552 191 515 Q177 478 172.5 432 Q168 386 168 340 Q168 285 173.5 239.5 Q179 194 193.5 161 Q208 128 233.5 110 Q259 92 300 92 Q338 92 362.5 112 Q387 132 401.5 165.5 Q416 199 421.5 244.5 Q427 290 427 341 Z " />
<glyph glyph-name="one" unicode="1" horiz-adv-x="597" d="M93 92 L235 92 L235 570 L85 551 L70 627 L251 688 L373 688 L373 92 L512 92 L512 0 L93 0 L93 92 Z " />
<glyph glyph-name="two" unicode="2" horiz-adv-x="597" d="M233 92 L431 92 L431 168 L534 168 L534 0 L40 0 L40 83 Q93 129 150 181 Q207 233 254.5 285.5 Q302 338 333 389 Q364 440 364 485 Q364 539 332 564 Q300 589 249 589 Q219 589 176 577.5 Q133 566 84 537 L42 621 Q106 666 169 683 Q232 700 281 700 Q385 700 445.5 647.5 Q506 595 506 495 Q506 438 479 382.5 Q452 327 410.5 276 Q369 225 320.5 179.5 Q272 134 230 97 L233 92 Z " />
<glyph glyph-name="three" unicode="3" horiz-adv-x="597" d="M77 687 L502 687 L520 608 L341 427 Q343 423 343 419 Q384 411 419.5 397.5 Q455 384 480.5 361.5 Q506 339 520.5 305 Q535 271 535 223 Q535 164 514 120.5 Q493 77 456.5 48.5 Q420 20 371.5 5.5 Q323 -9 268 -9 L256 -9 Q205 -7 149 3 Q93 13 46 38 L78 128 Q117 114 159.5 105.5 Q202 97 242 97 Q273 97 300.5 103.5 Q328 110 348.5 124 Q369 138 381 161.5 Q393 185 393 220 Q393 272 356.5 303 Q320 334 238 334 Q226 334 215 333.5 Q204 333 190 331 L172 406 L352 587 L349 593 L179 593 L179 515 L77 515 L77 687 Z " />
<glyph glyph-name="four" unicode="4" horiz-adv-x="597" d="M471 191 L471 91 L537 91 L537 0 L273 0 L273 91 L337 91 L337 191 L30 191 L30 274 L321 687 L471 687 L471 283 L568 283 L568 191 L471 191 Z M332 539 Q287 475 243 411 Q199 347 153 283 L338 283 L338 539 L332 539 Z " />
<glyph glyph-name="five" unicode="5" horiz-adv-x="597" d="M401 593 L224 593 L213 426 Q223 429 245.5 434 Q268 439 299 439 Q348 439 392 426 Q436 413 468 386.5 Q500 360 519 320 Q538 280 538 225 Q538 166 517 122 Q496 78 460.5 49 Q425 20 377 5.5 Q329 -9 275 -9 Q252 -9 224 -7 Q196 -5 166 0.5 Q136 6 106 15.5 Q76 25 50 39 L82 132 Q141 112 180 106 Q219 100 251 100 Q320 100 359 130.5 Q398 161 398 224 Q398 254 387.5 276.5 Q377 299 358.5 313.5 Q340 328 316 335.5 Q292 343 265 343 Q239 343 213.5 337 Q188 331 162 317 L88 356 L113 688 L506 688 L506 527 L401 527 L401 593 Z " />
<glyph glyph-name="six" unicode="6" horiz-adv-x="597" d="M188 393 Q226 414 264 425 Q302 436 343 436 Q383 436 420 423.5 Q457 411 485.5 384.5 Q514 358 531 318 Q548 278 548 223 Q548 167 530 124 Q512 81 479.5 51.5 Q447 22 402 7 Q357 -8 304 -8 Q232 -8 182.5 16.5 Q133 41 102.5 84 Q72 127 59 185.5 Q46 244 46 312 Q46 393 62 464 Q78 535 113.5 587.5 Q149 640 205 670 Q261 700 341 700 Q393 700 431 690.5 Q469 681 491 672 L470 578 Q433 592 402 596 Q371 600 350 600 Q303 600 272 579 Q241 558 222 527.5 Q203 497 194 461.5 Q185 426 183 397 L188 393 Z M309 342 Q284 342 263 336.5 Q242 331 226 323.5 Q210 316 199.5 309 Q189 302 185 299 L185 279 Q185 249 189 216 Q193 183 206 155.5 Q219 128 242 110.5 Q265 93 304 93 Q358 93 387 127.5 Q416 162 416 219 Q416 245 411 267.5 Q406 290 393.5 306.5 Q381 323 360.5 332.5 Q340 342 309 342 Z " />
<glyph glyph-name="seven" unicode="7" horiz-adv-x="597" d="M80 687 L523 687 L523 600 L258 0 L126 0 L386 593 L186 593 L186 500 L80 500 L80 687 Z " />
<glyph glyph-name="eight" unicode="8" horiz-adv-x="597" d="M206 517 Q206 496 216 480 Q226 464 243.5 451.5 Q261 439 284.5 428 Q308 417 335 406 Q374 436 389.5 461.5 Q405 487 405 512 Q405 527 399.5 543 Q394 559 381.5 571.5 Q369 584 349.5 592 Q330 600 303 600 Q277 600 258.5 591.5 Q240 583 228.5 570 Q217 557 211.5 543 Q206 529 206 517 Z M297 94 Q352 94 382.5 123.5 Q413 153 413 197 Q413 220 403 237.5 Q393 255 373.5 270 Q354 285 325 299 Q296 313 258 329 Q212 297 196.5 261 Q181 225 181 191 Q181 151 210 122.5 Q239 94 297 94 Z M531 522 Q531 487 513 445 Q495 403 440 361 Q488 335 519 293 Q550 251 550 189 Q550 147 532 110.5 Q514 74 480.5 48 Q447 22 399.5 7 Q352 -8 294 -8 Q174 -8 108 43 Q42 94 42 181 Q42 204 47.5 230.5 Q53 257 66.5 283.5 Q80 310 102.5 334.5 Q125 359 158 379 Q119 405 98.5 436.5 Q78 468 78 512 Q78 552 94 586.5 Q110 621 140 646 Q170 671 211.5 685.5 Q253 700 304 700 Q343 700 383 690.5 Q423 681 456 659.5 Q489 638 510 604 Q531 570 531 522 Z " />
<glyph glyph-name="nine" unicode="9" horiz-adv-x="597" d="M401 297 Q375 283 337.5 268 Q300 253 247 253 Q205 253 167.5 266 Q130 279 102 305.5 Q74 332 57.5 372.5 Q41 413 41 468 Q41 523 59.5 566.5 Q78 610 110.5 639.5 Q143 669 188 684.5 Q233 700 287 700 Q359 700 408 675 Q457 650 487 606.5 Q517 563 530 504.5 Q543 446 543 378 Q543 297 526.5 226.5 Q510 156 475 104 Q440 52 384 22 Q328 -8 249 -8 Q196 -8 155.5 1 Q115 10 93 19 L113 110 Q149 99 183.5 94.5 Q218 90 241 90 Q288 90 318.5 111.5 Q349 133 368 164 Q387 195 395.5 230.5 Q404 266 406 294 L401 297 Z M280 348 Q305 348 326 353.5 Q347 359 363 366.5 Q379 374 389.5 381 Q400 388 404 391 L404 411 Q404 440 400 472.5 Q396 505 383 532 Q370 559 347 577 Q324 595 285 595 Q231 595 202.5 561 Q174 527 174 470 Q174 444 179 422 Q184 400 196 383.5 Q208 367 228.5 357.5 Q249 348 280 348 Z " />
<glyph glyph-name="colon" unicode="&#x3a;" horiz-adv-x="258" d="M206 66 Q206 34 183.5 11.5 Q161 -11 130 -11 Q98 -11 75 11.5 Q52 34 52 66 Q52 82 58.5 96 Q65 110 75.5 120.5 Q86 131 100 137 Q114 143 129 143 Q161 143 183.5 120.5 Q206 98 206 66 Z M206 363 Q206 330 183.5 307.5 Q161 285 130 285 Q98 285 75 307.5 Q52 330 52 363 Q52 394 75 416.5 Q98 439 129 439 Q161 439 183.5 416.5 Q206 394 206 363 Z " />
<glyph glyph-name="semicolon" unicode="&#x3b;" horiz-adv-x="258" d="M206 363 Q206 330 183.5 307.5 Q161 285 130 285 Q98 285 75 307.5 Q52 330 52 363 Q52 394 75 416.5 Q98 439 129 439 Q161 439 183.5 416.5 Q206 394 206 363 Z M53 70 Q53 99 73.5 120 Q94 141 129 141 Q170 141 189.5 114.5 Q209 88 209 53 Q209 26 199.5 -1.5 Q190 -29 173.5 -54.5 Q157 -80 134 -102 Q111 -124 84 -140 L50 -96 Q76 -72 89.5 -48 Q103 -24 107 5 Q77 8 65 26.5 Q53 45 53 70 Z " />
<glyph glyph-name="less" unicode="&#x3c;" horiz-adv-x="597" d="M523 48 L80 264 L80 332 L523 549 L523 453 L192 299 L523 143 L523 48 Z " />
<glyph glyph-name="equal" unicode="&#x3d;" horiz-adv-x="597" d="M86 340 L86 421 L510 421 L510 340 L86 340 Z M86 180 L86 260 L510 260 L510 180 L86 180 Z " />
<glyph glyph-name="greater" unicode="&#x3e;" horiz-adv-x="597" d="M80 143 L412 299 L80 453 L80 549 L524 332 L524 264 L80 48 L80 143 Z " />
<glyph glyph-name="question" unicode="&#x3f;" horiz-adv-x="495" d="M251 709 Q355 709 408.5 666 Q462 623 462 550 Q462 516 447 487 Q432 458 410 432 Q388 406 362 383 Q336 360 314 336.5 Q292 313 277 288.5 Q262 264 262 237 Q262 226 263 213.5 Q264 201 266 186 Q237 185 210.5 184 Q184 183 155 181 Q151 204 149.5 223 Q148 242 148 256 Q148 288 160.5 315.5 Q173 343 192 367 Q211 391 233 413 Q255 435 274 455.5 Q293 476 305.5 496 Q318 516 318 537 Q318 572 292.5 588.5 Q267 605 225 605 Q206 605 184.5 602 Q163 599 142 593 L142 511 L43 511 L43 672 Q101 692 155.5 700.5 Q210 709 251 709 Z M299 56 Q299 28 277.5 8.5 Q256 -11 226 -11 Q195 -11 173.5 8.5 Q152 28 152 56 Q152 85 173.5 105.5 Q195 126 225 126 Q256 126 277.5 105.5 Q299 85 299 56 Z " />
<glyph glyph-name="at" unicode="&#x40;" horiz-adv-x="922" d="M512 340 Q491 338 470 336 Q449 334 431.5 329 Q414 324 403 313.5 Q392 303 392 284 Q392 260 403.5 246.5 Q415 233 441 233 Q476 233 512 264 L512 340 Z M477 701 Q561 701 628 677 Q695 653 741.5 609.5 Q788 566 812.5 504 Q837 442 837 367 Q837 317 821.5 278 Q806 239 779.5 212.5 Q753 186 718 172 Q683 158 644 158 Q627 158 609 161.5 Q591 165 574.5 173 Q558 181 545 193 Q532 205 526 223 Q502 197 467 182 Q432 167 398 167 Q365 167 344 178 Q323 189 311 204.5 Q299 220 294.5 238.5 Q290 257 290 272 Q290 309 308 330 Q326 351 356.5 362 Q387 373 427.5 377.5 Q468 382 512 387 L512 405 Q512 440 499 454 Q486 468 448 468 Q396 468 342 451 Q337 466 333.5 481.5 Q330 497 325 513 Q357 526 395 533.5 Q433 541 471 541 Q501 541 525.5 535 Q550 529 568 515 Q586 501 596 478 Q606 455 606 421 L606 274 Q606 254 619.5 240 Q633 226 663 226 Q675 226 692 233 Q709 240 724.5 256.5 Q740 273 751 298.5 Q762 324 762 362 Q762 423 742.5 473 Q723 523 686 558.5 Q649 594 596 613 Q543 632 477 632 Q410 632 351 609.5 Q292 587 248.5 547 Q205 507 179.5 453.5 Q154 400 154 337 Q154 273 176.5 218.5 Q199 164 238.5 124.5 Q278 85 332.5 62.5 Q387 40 452 40 Q479 40 511 44.5 Q543 49 585 62 Q590 47 595.5 32 Q601 17 608 2 Q573 -14 531.5 -21 Q490 -28 452 -28 Q365 -28 296 -0.5 Q227 27 179 75 Q131 123 105 189.5 Q79 256 79 334 Q79 413 110 480.5 Q141 548 194.5 597 Q248 646 320.5 673.5 Q393 701 477 701 Z " />
<glyph glyph-name="A" unicode="A" horiz-adv-x="736" d="M516 94 Q509 117 501 143 Q493 169 486 190 L241 190 Q235 171 226 144 Q217 117 211 94 L276 94 L276 0 L20 0 L20 94 L75 94 Q100 164 126.5 239.5 Q153 315 179.5 391.5 Q206 468 232.5 543 Q259 618 283 687 L460 687 Q509 541 560.5 390.5 Q612 240 661 94 L716 94 L716 0 L453 0 L453 94 L516 94 Z M383 521 Q380 534 376 546.5 Q372 559 368 573 L365 573 Q363 568 360 557 Q357 546 349 520 Q341 495 331 464 Q321 433 310.5 401 Q300 369 290 338 Q280 307 272 282 L458 282 L383 521 Z " />
<glyph glyph-name="B" unicode="B" horiz-adv-x="686" d="M535 360 Q567 349 588 329.5 Q609 310 621.5 287.5 Q634 265 639 240.5 Q644 216 644 194 Q644 150 627.5 114 Q611 78 582 52.5 Q553 27 513 13.5 Q473 0 426 0 L41 0 L41 94 L113 94 L113 592 L44 592 L44 687 L396 687 Q511 687 567 638.5 Q623 590 623 505 Q623 491 619.5 472 Q616 453 606.5 432.5 Q597 412 580 393 Q563 374 535 361 L535 360 Z M257 308 L257 94 L383 94 Q442 94 468.5 125.5 Q495 157 495 201 Q495 244 467.5 276 Q440 308 383 308 L257 308 Z M257 592 L257 399 L370 399 Q421 399 449 425.5 Q477 452 477 495 Q477 538 451.5 565 Q426 592 370 592 L257 592 Z " />
<glyph glyph-name="C" unicode="C" horiz-adv-x="623" d="M201 345 Q201 284 211.5 239 Q222 194 246 164 Q270 134 309.5 119.5 Q349 105 406 105 Q418 105 437.5 106 Q457 107 479 109.5 Q501 112 524 116 Q547 120 566 126 L588 26 Q567 18 540.5 11 Q514 4 485.5 -0.5 Q457 -5 428 -7.5 Q399 -10 373 -10 Q279 -10 216.5 17.5 Q154 45 117 92.5 Q80 140 65 204 Q50 268 50 342 Q50 402 64 466 Q78 530 115 582 Q152 634 217 667.5 Q282 701 383 701 Q438 701 483 693.5 Q528 686 566 673 L566 480 L465 480 L465 583 Q445 588 424.5 590 Q404 592 386 592 Q336 592 300.5 574.5 Q265 557 243 524.5 Q221 492 211 446.5 Q201 401 201 345 Z " />
<glyph glyph-name="D" unicode="D" horiz-adv-x="729" d="M43 0 L43 95 L115 95 L115 591 L47 591 L47 688 L373 688 Q464 688 523 660.5 Q582 633 616.5 586 Q651 539 665 477 Q679 415 679 346 Q679 277 663.5 214 Q648 151 612 103.5 Q576 56 516 28 Q456 0 367 0 L43 0 Z M260 591 L260 95 L352 95 Q379 95 410 105 Q441 115 467.5 142 Q494 169 511 217 Q528 265 528 341 Q528 418 512 467 Q496 516 471 543.5 Q446 571 414.5 581 Q383 591 353 591 L260 591 Z " />
<glyph glyph-name="E" unicode="E" horiz-adv-x="649" d="M43 0 L43 96 L112 96 L112 592 L44 592 L44 687 L604 687 L604 485 L503 485 L503 592 L256 592 L256 400 L486 406 L486 307 L256 313 L256 96 L515 96 L515 208 L617 208 L617 0 L43 0 Z " />
<glyph glyph-name="F" unicode="F" horiz-adv-x="633" d="M43 0 L43 95 L113 95 L113 592 L44 592 L44 687 L606 687 L606 485 L503 485 L503 592 L256 592 L256 400 L486 407 L486 307 L256 313 L256 95 L350 95 L350 0 L43 0 Z " />
<glyph glyph-name="G" unicode="G" horiz-adv-x="689" d="M394 701 Q449 701 498.5 693.5 Q548 686 586 673 L586 484 L485 484 L485 582 Q468 587 445 589.5 Q422 592 400 592 Q347 592 309.5 574.5 Q272 557 248 524.5 Q224 492 212.5 446.5 Q201 401 201 345 Q201 288 210 243 Q219 198 240 167 Q261 136 295 119.5 Q329 103 380 103 Q401 103 428 106 Q455 109 475 114 L475 276 L386 276 L386 365 L654 365 L654 276 L605 276 L605 27 Q548 7 487.5 -1.5 Q427 -10 373 -10 Q279 -10 217 18 Q155 46 118 94 Q81 142 65.5 206 Q50 270 50 342 Q50 382 56 424 Q62 466 76.5 506 Q91 546 116 581.5 Q141 617 179.5 643.5 Q218 670 270.5 685.5 Q323 701 394 701 Z " />
<glyph glyph-name="H" unicode="H" horiz-adv-x="786" d="M468 0 L468 95 L530 95 L530 312 L255 312 L255 95 L318 95 L318 0 L42 0 L42 95 L112 95 L112 592 L42 592 L42 687 L318 687 L318 592 L255 592 L255 402 L530 402 L530 592 L468 592 L468 687 L743 687 L743 592 L674 592 L674 95 L743 95 L743 0 L468 0 Z " />
<glyph glyph-name="I" unicode="I" horiz-adv-x="419" d="M70 0 L70 95 L138 95 L138 592 L70 592 L70 688 L349 688 L349 592 L281 592 L281 95 L349 95 L349 0 L70 0 Z " />
<glyph glyph-name="J" unicode="J" horiz-adv-x="438" d="M71 688 L383 688 L383 592 L304 592 L304 160 Q304 18 230 -64.5 Q156 -147 15 -181 L-19 -84 Q40 -57 75.5 -32.5 Q111 -8 130 20.5 Q149 49 155 83.5 Q161 118 161 164 L161 592 L71 592 L71 688 Z " />
<glyph glyph-name="K" unicode="K" horiz-adv-x="722" d="M429 418 L647 95 L704 95 L704 0 L427 0 L426 95 L485 95 L326 333 L251 264 L251 94 L313 94 L313 0 L43 0 L43 94 L112 94 L112 594 L43 594 L43 687 L316 687 L316 594 L251 594 L251 385 L476 594 L417 594 L417 687 L683 687 L683 594 L623 594 L429 418 Z " />
<glyph glyph-name="L" unicode="L" horiz-adv-x="629" d="M43 0 L43 95 L113 95 L113 592 L44 592 L44 687 L329 687 L329 592 L257 592 L257 95 L515 95 L515 220 L618 220 L618 0 L43 0 Z " />
<glyph glyph-name="M" unicode="M" horiz-adv-x="963" d="M485 247 Q496 270 505 293 Q514 316 524 338 Q529 350 539 374 Q549 398 562 427.5 Q575 457 589 490 Q603 523 617 554 Q636 597 651 632.5 Q666 668 674 687 L925 687 L925 592 L862 592 L862 94 L925 94 L925 0 L661 0 L661 94 L720 94 L720 498 L718 498 Q706 471 694.5 443.5 Q683 416 672 389 Q658 356 640 315 Q622 274 604 233.5 Q586 193 570.5 157.5 Q555 122 546 100 L420 100 Q381 182 347 258 Q313 334 274 421 Q266 440 257.5 459 Q249 478 241 498 L238 498 Q238 396 237.5 295.5 Q237 195 237 94 L301 94 L301 0 L34 0 L34 94 L103 94 L103 592 L34 592 L34 687 L287 687 Q301 656 317.5 619.5 Q334 583 351 543 Q372 497 393.5 448 Q415 399 435 352 Q449 323 460 296.5 Q471 270 480 247 L485 247 Z " />
<glyph glyph-name="N" unicode="N" horiz-adv-x="814" d="M570 207 L570 592 L502 592 L502 687 L770 687 L770 592 L704 592 L704 0 L564 0 Q497 104 429.5 206.5 Q362 309 296 414 Q283 435 270.5 456 Q258 477 244 498 Q243 498 243 497.5 Q243 497 242 497 L242 94 L310 94 L310 0 L40 0 L40 94 L109 94 Q109 219 109.5 342.5 Q110 466 110 592 L41 592 L41 687 L263 687 Q299 628 330 580.5 Q361 533 389.5 488 Q418 443 446.5 398 Q475 353 507 300 Q522 277 536.5 254 Q551 231 565 207 L570 207 Z " />
<glyph glyph-name="O" unicode="O" horiz-adv-x="740" d="M690 344 Q690 268 670 203.5 Q650 139 610 91.5 Q570 44 511 17 Q452 -10 373 -10 Q289 -10 228 15.5 Q167 41 127.5 87.5 Q88 134 69 198.5 Q50 263 50 342 Q50 416 68.5 481 Q87 546 126 595 Q165 644 226 672 Q287 700 373 700 Q459 700 519.5 671.5 Q580 643 618 594.5 Q656 546 673 481.5 Q690 417 690 344 Z M538 342 Q538 390 531.5 436 Q525 482 506.5 517.5 Q488 553 456 575 Q424 597 373 597 Q322 597 288.5 575.5 Q255 554 235.5 518.5 Q216 483 208.5 437 Q201 391 201 341 Q201 222 240.5 157.5 Q280 93 373 93 Q417 93 448 112 Q479 131 499 164 Q519 197 528.5 242.5 Q538 288 538 342 Z " />
<glyph glyph-name="P" unicode="P" horiz-adv-x="633" d="M605 479 Q605 442 593 404 Q581 366 554 335.5 Q527 305 485 285.5 Q443 266 383 266 L253 266 L253 95 L342 95 L342 0 L43 0 L43 95 L110 95 L110 592 L43 592 L43 688 L370 688 Q487 688 546 631.5 Q605 575 605 479 Z M253 592 L253 359 L347 359 Q369 359 389 365.5 Q409 372 423.5 386 Q438 400 446.5 421.5 Q455 443 455 474 Q455 535 426 563.5 Q397 592 343 592 L253 592 Z " />
<glyph glyph-name="Q" unicode="Q" horiz-adv-x="743" d="M688 342 Q688 238 651.5 156.5 Q615 75 541 33 Q579 23 618 13.5 Q657 4 695 -5 Q684 -33 674 -59.5 Q664 -86 653 -114 Q582 -90 512 -66.5 Q442 -43 370 -19 Q346 -15 323 -10 Q300 -5 280 0 Q160 28 105 116 Q50 204 50 341 Q50 414 68 479.5 Q86 545 125 594 Q164 643 224.5 671.5 Q285 700 371 700 Q457 700 517.5 671.5 Q578 643 616 594 Q654 545 671 480 Q688 415 688 342 Z M537 341 Q537 389 530.5 435 Q524 481 506 516.5 Q488 552 455.5 574 Q423 596 371 596 Q320 596 286.5 574.5 Q253 553 233.5 517.5 Q214 482 206.5 436 Q199 390 199 340 Q199 221 238.5 157 Q278 93 371 93 Q415 93 446.5 111.5 Q478 130 498 163 Q518 196 527.5 241.5 Q537 287 537 341 Z " />
<glyph glyph-name="R" unicode="R" horiz-adv-x="688" d="M463 488 Q463 516 454.5 536 Q446 556 431 568.5 Q416 581 396.5 586.5 Q377 592 355 592 L252 592 L252 377 L352 377 Q372 377 392 382 Q412 387 427.5 399.5 Q443 412 453 433.5 Q463 455 463 488 Z M252 285 L252 96 L325 96 L325 0 L45 0 L45 96 L110 96 L110 592 L45 592 L45 688 L385 688 Q444 688 487 673.5 Q530 659 558.5 632.5 Q587 606 600.5 569 Q614 532 614 487 Q614 463 608 436.5 Q602 410 588 385.5 Q574 361 551.5 340.5 Q529 320 496 309 L596 92 L673 82 L673 4 Q661 -1 646 -4 Q631 -7 615.5 -9 Q600 -11 586 -12 Q572 -13 563 -13 Q520 -13 499 5.5 Q478 24 462 60 L363 285 L252 285 Z " />
<glyph glyph-name="S" unicode="S" horiz-adv-x="614" d="M142 199 Q142 179 142.5 161 Q143 143 143 123 Q177 108 214 102.5 Q251 97 280 97 Q319 97 345 105 Q371 113 386.5 126 Q402 139 409 156 Q416 173 416 190 Q416 214 405 230.5 Q394 247 374.5 258.5 Q355 270 328.5 278.5 Q302 287 270 295 Q221 307 180 322.5 Q139 338 109 360.5 Q79 383 62 414 Q45 445 45 489 Q45 539 64 577.5 Q83 616 117.5 642.5 Q152 669 200 683 Q248 697 305 697 Q355 697 414.5 687.5 Q474 678 522 653 Q522 614 522.5 575.5 Q523 537 523 498 L421 498 Q421 518 420.5 537 Q420 556 420 576 Q398 585 366 589 Q334 593 310 593 Q250 593 222 568 Q194 543 194 504 Q194 483 204 468.5 Q214 454 232.5 442.5 Q251 431 278.5 422 Q306 413 342 404 Q385 392 427 378 Q469 364 501.5 341.5 Q534 319 554 284.5 Q574 250 574 198 Q574 145 554 105.5 Q534 66 497 40.5 Q460 15 407 2.5 Q354 -10 289 -10 Q228 -10 163.5 0.5 Q99 11 42 38 Q42 78 41.5 118 Q41 158 41 199 L142 199 Z " />
<glyph glyph-name="T" unicode="T" horiz-adv-x="630" d="M163 0 L163 95 L245 95 L245 592 L116 592 L117 480 L16 480 L16 688 L615 688 L615 480 L514 480 L514 592 L387 592 L387 95 L468 95 L468 0 L163 0 Z " />
<glyph glyph-name="U" unicode="U" horiz-adv-x="757" d="M664 253 Q664 131 595 61 Q526 -9 378 -9 Q301 -9 246.5 9 Q192 27 157.5 60.5 Q123 94 107 142.5 Q91 191 91 253 L91 592 L33 592 L33 688 L296 688 L296 592 L231 592 L231 250 Q231 170 269 132.5 Q307 95 379 95 Q446 95 485.5 131.5 Q525 168 525 250 L525 592 L462 592 L462 688 L724 688 L724 592 L664 592 L664 253 Z " />
<glyph glyph-name="V" unicode="V" horiz-adv-x="715" d="M446 687 L704 687 L704 591 L647 591 Q596 442 547 294.5 Q498 147 447 0 L270 0 Q219 147 168.5 294.5 Q118 442 66 591 L10 591 L10 687 L275 687 L275 591 L216 591 Q244 496 273 405.5 Q302 315 331 221 Q339 197 345.5 172.5 Q352 148 360 123 L364 123 Q372 148 379 172.5 Q386 197 393 223 Q422 315 449.5 407.5 Q477 500 506 591 L446 591 L446 687 Z " />
<glyph glyph-name="W" unicode="W" horiz-adv-x="1018" d="M506 483 Q501 459 496 434 Q491 409 485 383 L394 0 L216 0 L69 591 L11 591 L11 688 L279 688 L279 591 L221 591 L310 173 L314 173 L429 688 L588 688 L705 172 L709 172 L796 591 L739 591 L739 688 L1006 688 L1006 591 L949 591 L801 0 L623 0 L532 383 Q526 409 521 433.5 Q516 458 511 483 L506 483 Z " />
<glyph glyph-name="X" unicode="X" horiz-adv-x="706" d="M610 96 L678 96 L679 0 L384 0 L384 96 L441 96 L331 269 L220 96 L279 96 L279 0 L28 0 L28 96 L88 96 L261 355 L105 591 L30 591 L30 688 L323 688 L323 591 L269 591 L370 433 L476 591 L418 591 L418 688 L670 688 L670 591 L610 591 L438 350 L610 96 Z " />
<glyph glyph-name="Y" unicode="Y" horiz-adv-x="666" d="M457 591 L399 591 L399 688 L654 688 L654 591 L599 591 L406 272 L406 95 L484 95 L484 0 L177 0 L177 95 L255 95 L255 270 L66 591 L13 591 L13 688 L270 688 L270 591 L213 591 L332 370 L336 370 L457 591 Z " />
<glyph glyph-name="Z" unicode="Z" horiz-adv-x="608" d="M203 96 L482 96 L482 223 L585 223 L585 0 L25 0 L25 94 L385 592 L151 592 L151 481 L49 481 L49 688 L565 688 L565 596 L203 96 Z " />
<glyph glyph-name="bracketleft" unicode="&#x5b;" horiz-adv-x="311" d="M63 -160 L63 699 L276 699 L276 620 L181 620 L181 -84 L276 -84 L276 -160 L63 -160 Z " />
<glyph glyph-name="backslash" unicode="&#x5c;" horiz-adv-x="370" d="M8 706 L105 706 L364 -33 L267 -33 L8 706 Z " />
<glyph glyph-name="bracketright" unicode="&#x5d;" horiz-adv-x="311" d="M38 -160 L38 -84 L134 -84 L134 620 L38 620 L38 699 L252 699 L252 -160 L38 -160 Z " />
<glyph glyph-name="asciicircum" unicode="&#x5e;" horiz-adv-x="485" d="M364 356 L237 580 L113 356 L19 356 L205 679 L272 679 L458 356 L364 356 Z " />
<glyph glyph-name="underscore" unicode="&#x5f;" horiz-adv-x="500" d="M0 -145 L0 -75 L500 -75 L500 -145 L0 -145 Z " />
<glyph glyph-name="grave" unicode="&#x60;" horiz-adv-x="519" d="M149 681 Q155 688 166 700 Q177 712 188.5 725 Q200 738 211 750 Q222 762 229 769 Q241 754 261 731.5 Q281 709 303 685.5 Q325 662 345 639.5 Q365 617 378 602 L325 544 L149 681 Z " />
<glyph glyph-name="a" unicode="a" horiz-adv-x="565" d="M247 213 Q211 209 193.5 191 Q176 173 176 148 Q176 113 192 96.5 Q208 80 245 80 Q268 80 293.5 91.5 Q319 103 339 122 L339 222 L247 213 Z M472 93 L547 93 L554 18 Q518 2 483 -3 Q448 -8 424 -8 Q392 -8 370.5 3.5 Q349 15 348 55 Q347 55 347 55.5 Q347 56 346 56 Q321 32 296 18.5 Q271 5 249.5 -1 Q228 -7 210 -8.5 Q192 -10 182 -10 Q137 -10 107.5 4 Q78 18 61.5 39.5 Q45 61 38.5 86 Q32 111 32 132 Q32 160 43 185.5 Q54 211 75.5 230.5 Q97 250 129.5 262.5 Q162 275 204 278 L341 287 L341 311 Q341 354 322.5 376.5 Q304 399 251 399 Q215 399 174.5 392 Q134 385 101 374 Q95 395 89 416.5 Q83 438 78 460 Q121 479 177 489 Q233 499 285 499 Q328 499 363 490.5 Q398 482 422 462 Q446 442 459 409.5 Q472 377 472 330 L472 93 Z " />
<glyph glyph-name="b" unicode="b" horiz-adv-x="605" d="M322 -9 Q301 -9 271.5 -6.5 Q242 -4 209.5 2 Q177 8 143 17.5 Q109 27 78 42 L78 623 L8 623 L8 716 L217 716 L217 462 Q258 485 294.5 494 Q331 503 358 503 Q416 503 455 483.5 Q494 464 517.5 429.5 Q541 395 550.5 348 Q560 301 560 245 Q560 194 549 148 Q538 102 511 67 Q484 32 438 11.5 Q392 -9 322 -9 Z M324 399 Q296 399 268.5 389 Q241 379 218 366 L218 109 Q244 98 269 94 Q294 90 314 90 Q337 90 356.5 96.5 Q376 103 390 120.5 Q404 138 412 167.5 Q420 197 420 243 Q420 293 412.5 324 Q405 355 391.5 371.5 Q378 388 360.5 393.5 Q343 399 324 399 Z " />
<glyph glyph-name="c" unicode="c" horiz-adv-x="494" d="M287 501 Q328 501 368 495 Q408 489 442 476 L442 328 L348 328 L348 394 Q320 399 301 399 Q238 399 209 359 Q180 319 180 244 Q180 161 212.5 126.5 Q245 92 302 92 Q337 92 372 99 Q407 106 438 117 L464 29 Q430 12 380.5 1.5 Q331 -9 280 -9 Q209 -9 162.5 11 Q116 31 89 64.5 Q62 98 51 143.5 Q40 189 40 240 Q40 283 50 329 Q60 375 87 413 Q114 451 162 476 Q210 501 287 501 Z " />
<glyph glyph-name="d" unicode="d" horiz-adv-x="610" d="M389 43 Q373 30 353.5 20.5 Q334 11 314 4.5 Q294 -2 274.5 -5.5 Q255 -9 239 -9 Q182 -9 144 10.5 Q106 30 82.5 63 Q59 96 49.5 140.5 Q40 185 40 235 Q40 292 51 341 Q62 390 87 426 Q112 462 152 482.5 Q192 503 250 503 Q276 503 313 497 Q350 491 383 474 L383 623 L309 623 L309 716 L522 716 L522 92 L591 92 L591 0 L391 0 L391 42 L389 43 Z M282 401 Q263 401 244.5 394.5 Q226 388 212 370 Q198 352 189 320 Q180 288 180 237 Q180 192 187.5 164 Q195 136 208.5 120 Q222 104 240.5 98 Q259 92 280 92 Q306 92 335.5 104 Q365 116 383 130 L383 373 Q366 384 337 392.5 Q308 401 282 401 Z " />
<glyph glyph-name="e" unicode="e" horiz-adv-x="532" d="M279 405 Q254 405 236.5 395.5 Q219 386 207 371 Q195 356 189 337 Q183 318 182 298 L366 298 Q366 319 361.5 338.5 Q357 358 347.5 372.5 Q338 387 321 396 Q304 405 279 405 Z M279 502 Q350 502 392.5 478.5 Q435 455 457.5 419.5 Q480 384 487 342 Q494 300 494 263 L494 213 L180 213 Q179 151 206 121 Q233 91 302 91 Q341 91 378 99 Q415 107 453 122 L483 38 Q435 12 382.5 1 Q330 -10 280 -10 Q207 -10 160.5 11.5 Q114 33 87 68.5 Q60 104 50 149.5 Q40 195 40 244 Q40 284 50.5 329.5 Q61 375 88 413.5 Q115 452 161.5 477 Q208 502 279 502 Z " />
<glyph glyph-name="f" unicode="f" horiz-adv-x="423" d="M35 92 L100 92 L100 398 L30 398 L30 474 L101 494 L101 558 Q101 593 109.5 623.5 Q118 654 139 676.5 Q160 699 195.5 712 Q231 725 285 725 Q311 725 348 721.5 Q385 718 419 708 L400 613 Q379 617 357 619 Q335 621 318 621 Q279 621 257.5 606 Q236 591 236 553 L236 490 L378 490 L378 398 L236 398 L236 92 L315 92 L315 0 L35 0 L35 92 Z " />
<glyph glyph-name="g" unicode="g" horiz-adv-x="576" d="M478 419 Q492 402 499.5 375 Q507 348 507 325 Q507 283 489.5 251 Q472 219 441.5 197.5 Q411 176 370 165 Q329 154 282 153 L225 153 Q194 153 178.5 146 Q163 139 163 121 Q163 94 203 94 L343 94 Q435 94 489 59.5 Q543 25 543 -50 Q543 -83 527.5 -113.5 Q512 -144 478 -167.5 Q444 -191 390 -204.5 Q336 -218 259 -218 Q192 -218 148 -207 Q104 -196 78 -178 Q52 -160 41.5 -136.5 Q31 -113 31 -87 Q31 -46 50 -16 Q69 14 95 28 Q67 35 52.5 54.5 Q38 74 38 103 Q38 140 63.5 161 Q89 182 121 192 Q92 205 71.5 236.5 Q51 268 51 320 Q51 369 70.5 403.5 Q90 438 121.5 460 Q153 482 193.5 492 Q234 502 276 502 Q305 502 332 498.5 Q359 495 379 490 L553 490 L553 422 L482 422 L478 419 Z M212 10 Q195 3 181.5 -15.5 Q168 -34 168 -54 Q168 -67 173 -79 Q178 -91 190.5 -100.5 Q203 -110 224.5 -115.5 Q246 -121 279 -121 Q336 -121 367.5 -102 Q399 -83 399 -53 Q399 -29 380 -9.5 Q361 10 314 10 L212 10 Z M367 326 Q367 339 362.5 354 Q358 369 347.5 381 Q337 393 320 401 Q303 409 278 409 Q235 409 213 385.5 Q191 362 191 325 Q191 287 212 266 Q233 245 272 245 Q313 245 340 265 Q367 285 367 326 Z " />
<glyph glyph-name="h" unicode="h" horiz-adv-x="640" d="M86 0 L86 623 L20 623 L20 715 L225 715 L225 446 Q266 473 308.5 487.5 Q351 502 389 502 Q440 502 471 486 Q502 470 519 445 Q536 420 541.5 390 Q547 360 547 333 L547 95 L617 95 L617 13 Q592 2 560.5 -3 Q529 -8 506 -8 Q472 -8 452.5 2.5 Q433 13 423 28.5 Q413 44 410.5 61 Q408 78 408 91 L408 306 Q408 353 393 373 Q378 393 336 393 Q310 393 279.5 381.5 Q249 370 225 354 L225 0 L86 0 Z " />
<glyph glyph-name="i" unicode="i" horiz-adv-x="345" d="M50 397 L50 490 L239 490 L239 96 L310 96 L310 13 Q286 2 254 -3.5 Q222 -9 199 -9 Q145 -9 123 13 Q101 35 100 83 L100 397 L50 397 Z M249 636 Q249 602 224.5 577.5 Q200 553 166 553 Q131 553 107.5 577.5 Q84 602 84 636 Q84 671 107.5 695 Q131 719 166 719 Q200 719 224.5 695 Q249 671 249 636 Z " />
<glyph glyph-name="j" unicode="j" horiz-adv-x="328" d="M39 490 L240 490 L240 58 Q240 -4 228 -50.5 Q216 -97 189 -131.5 Q162 -166 119 -190.5 Q76 -215 14 -233 L-24 -147 Q17 -123 41.5 -102.5 Q66 -82 79 -59.5 Q92 -37 96 -10 Q100 17 100 53 L100 397 L39 397 L39 490 Z M250 636 Q250 619 243 604 Q236 589 225 577.5 Q214 566 198.5 559.5 Q183 553 167 553 Q132 553 108 577.5 Q84 602 84 636 Q84 671 108 695 Q132 719 167 719 Q183 719 198.5 712.5 Q214 706 225 694.5 Q236 683 243 668 Q250 653 250 636 Z " />
<glyph glyph-name="k" unicode="k" horiz-adv-x="595" d="M300 490 L554 490 L554 398 L491 398 L381 305 L509 91 Q526 89 542.5 85.5 Q559 82 576 80 L576 4 Q553 -4 525.5 -7.5 Q498 -11 481 -11 Q455 -11 435 -5.5 Q415 0 399 28 L282 232 L231 189 L231 91 L286 91 L286 0 L27 0 L27 91 L92 91 L92 622 L22 622 L22 713 L231 713 L231 303 L348 399 L300 399 L300 490 Z " />
<glyph glyph-name="l" unicode="l" horiz-adv-x="349" d="M248 92 L314 92 L314 0 L43 0 L43 92 L108 92 L108 620 L38 620 L38 713 L248 713 L248 92 Z " />
<glyph glyph-name="m" unicode="m" horiz-adv-x="939" d="M395 500 Q440 500 469.5 484.5 Q499 469 517 435 Q535 450 557 462 Q579 474 602 482.5 Q625 491 647.5 496 Q670 501 690 501 Q739 501 769.5 487 Q800 473 817 449.5 Q834 426 840 395 Q846 364 846 330 L846 95 L912 95 L912 13 Q886 2 857 -3 Q828 -8 804 -8 Q769 -8 750 -0.5 Q731 7 721 22.5 Q711 38 709 61 Q707 84 707 114 L707 308 Q707 353 693 371 Q679 389 639 389 Q616 389 585 379.5 Q554 370 533 355 Q536 340 536.5 324.5 Q537 309 537 297 L537 0 L399 0 L399 317 Q399 355 383 371.5 Q367 388 336 388 Q311 388 282.5 378.5 Q254 369 230 352 L230 0 L90 0 L90 397 L22 397 L22 490 L226 490 L226 446 Q227 445 228 444.5 Q229 444 230 443 Q270 472 314.5 486 Q359 500 395 500 Z " />
<glyph glyph-name="n" unicode="n" horiz-adv-x="645" d="M393 502 Q444 502 475 486 Q506 470 522.5 445 Q539 420 544.5 390 Q550 360 550 333 L550 95 L620 95 L620 13 Q595 2 564 -3 Q533 -8 509 -8 Q471 -8 451 6 Q431 20 422 38 Q413 56 412 73 Q411 90 411 97 L411 306 Q411 353 396 373 Q381 393 339 393 Q313 393 282.5 381.5 Q252 370 229 354 L229 0 L89 0 L89 398 L23 398 L23 490 L227 490 L227 447 Q229 447 229.5 446.5 Q230 446 232 446 Q273 473 314 487.5 Q355 502 393 502 Z " />
<glyph glyph-name="o" unicode="o" horiz-adv-x="574" d="M534 245 Q534 194 520 148 Q506 102 476 67 Q446 32 398.5 11.5 Q351 -9 283 -9 Q218 -9 171.5 11 Q125 31 96 65 Q67 99 53.5 145 Q40 191 40 244 Q40 296 54.5 342.5 Q69 389 99.5 424 Q130 459 177 480 Q224 501 289 501 Q355 501 402 480.5 Q449 460 478 424.5 Q507 389 520.5 342.5 Q534 296 534 245 Z M391 244 Q391 272 387 300.5 Q383 329 372 351 Q361 373 341.5 387 Q322 401 291 401 Q259 401 238 387.5 Q217 374 205 352 Q193 330 188 301.5 Q183 273 183 244 Q183 212 187 184 Q191 156 202.5 135 Q214 114 234.5 101.5 Q255 89 288 89 Q319 89 339.5 102 Q360 115 371 137 Q382 159 386.5 186.5 Q391 214 391 244 Z " />
<glyph glyph-name="p" unicode="p" horiz-adv-x="607" d="M20 -118 L88 -118 L88 397 L20 397 L20 490 L219 490 L219 446 L221 445 Q237 458 256 468 Q275 478 295.5 484.5 Q316 491 335.5 494.5 Q355 498 371 498 Q428 498 466.5 478.5 Q505 459 528 426 Q551 393 561 349 Q571 305 571 255 Q571 198 560 149 Q549 100 524 65 Q499 30 458.5 10 Q418 -10 360 -10 Q335 -10 298 -3.5 Q261 3 227 20 L227 -118 L300 -118 L300 -211 L20 -211 L20 -118 Z M329 93 Q348 93 366 99.5 Q384 106 398 123.5 Q412 141 421 172 Q430 203 430 253 Q430 297 422.5 324.5 Q415 352 401.5 367.5 Q388 383 370 388.5 Q352 394 331 394 Q305 394 275 382 Q245 370 227 356 L227 122 Q245 111 273.5 102 Q302 93 329 93 Z " />
<glyph glyph-name="q" unicode="q" horiz-adv-x="601" d="M314 -118 L389 -118 L389 29 Q348 6 311.5 -3 Q275 -12 248 -12 Q193 -12 154.5 5 Q116 22 92 53.5 Q68 85 57 128.5 Q46 172 46 225 Q46 279 57 328.5 Q68 378 96.5 416.5 Q125 455 173.5 477.5 Q222 500 297 500 Q318 500 345.5 497.5 Q373 495 403.5 490 Q434 485 466 475.5 Q498 466 527 453 L527 -118 L597 -118 L597 -211 L314 -211 L314 -118 Z M282 94 Q310 94 337.5 103 Q365 112 388 125 L388 381 Q366 389 343.5 393 Q321 397 299 397 Q273 397 252 389 Q231 381 216.5 361.5 Q202 342 194 310.5 Q186 279 186 233 Q186 188 194 161 Q202 134 215 119 Q228 104 245.5 99 Q263 94 282 94 Z " />
<glyph glyph-name="r" unicode="r" horiz-adv-x="458" d="M239 418 Q255 431 276.5 446 Q298 461 322 473.5 Q346 486 371.5 494 Q397 502 421 502 Q439 502 446.5 492.5 Q454 483 454 460 Q454 448 451.5 433 Q449 418 444 402 Q439 386 431 371.5 Q423 357 413 346 L237 356 L237 92 L305 92 L305 0 L34 0 L34 92 L98 92 L98 398 L37 398 L37 491 L235 491 L235 419 L239 418 Z " />
<glyph glyph-name="s" unicode="s" horiz-adv-x="499" d="M128 158 L130 100 Q147 92 175 87.5 Q203 83 225 83 Q263 83 291 95.5 Q319 108 319 134 Q319 159 298 173 Q277 187 246 198 Q215 209 178 218.5 Q141 228 110 244 Q79 260 58 284 Q37 308 37 348 Q37 427 94 464 Q151 501 248 501 Q293 501 340.5 492 Q388 483 425 463 Q425 432 425 401.5 Q425 371 426 339 L328 339 L328 395 Q313 401 293.5 404 Q274 407 257 407 Q223 407 201 394 Q179 381 179 356 Q179 335 200 324 Q221 313 252.5 305 Q284 297 320.5 288 Q357 279 388.5 261 Q420 243 441 213 Q462 183 462 134 Q462 62 402.5 26.5 Q343 -9 234 -9 Q213 -9 187.5 -7.5 Q162 -6 135.5 -1.5 Q109 3 82.5 10.5 Q56 18 33 30 Q33 61 33 94 Q33 127 32 158 L128 158 Z " />
<glyph glyph-name="t" unicode="t" horiz-adv-x="421" d="M224 626 L224 491 L366 491 L366 398 L223 398 L223 177 Q223 135 235.5 117 Q248 99 290 99 Q305 99 327.5 102 Q350 105 376 111 L394 20 Q362 6 324 -1 Q286 -8 254 -8 Q202 -8 169 3.5 Q136 15 117.5 35 Q99 55 92 81.5 Q85 108 85 137 L85 398 L16 398 L16 475 L94 498 L129 617 L224 626 Z " />
<glyph glyph-name="u" unicode="u" horiz-adv-x="635" d="M242 -11 Q198 -11 169 1 Q140 13 122.5 34.5 Q105 56 97.5 85 Q90 114 90 148 L90 397 L24 397 L24 490 L230 490 L230 177 Q230 139 241.5 119 Q253 99 294 99 Q314 99 344.5 109.5 Q375 120 402 146 L402 397 L345 397 L345 490 L542 490 L542 95 L608 95 L608 13 Q573 1 544.5 -3.5 Q516 -8 497 -8 Q452 -8 432.5 7.5 Q413 23 408 58 Q366 20 323 4.5 Q280 -11 242 -11 Z " />
<glyph glyph-name="v" unicode="v" horiz-adv-x="596" d="M242 274 Q247 259 254.5 237 Q262 215 269.5 191.5 Q277 168 284 146 Q291 124 296 108 L300 108 Q304 122 310.5 142 Q317 162 323.5 183 Q330 204 336.5 223.5 Q343 243 348 257 L395 397 L356 397 L356 491 L576 491 L576 397 L532 397 L383 0 L212 0 L64 397 L20 397 L20 491 L240 491 L240 397 L201 397 L242 274 Z " />
<glyph glyph-name="w" unicode="w" horiz-adv-x="858" d="M426 330 Q420 303 414 274.5 Q408 246 399 211 L348 0 L177 0 L59 397 L15 397 L15 491 L232 491 L232 397 L193 397 L262 113 L266 113 L359 491 L502 491 L596 113 L600 113 L667 397 L628 397 L628 491 L845 491 L845 397 L801 397 L682 0 L511 0 L460 210 Q452 244 445 273 Q438 302 432 330 L426 330 Z " />
<glyph glyph-name="x" unicode="x" horiz-adv-x="530" d="M340 251 L478 89 L520 89 L520 0 L295 0 L295 89 L325 89 L265 172 L205 89 L235 89 L235 0 L10 0 L10 89 L52 89 L190 250 L62 402 L20 402 L20 491 L234 491 L234 402 L209 402 L265 327 L321 402 L296 402 L296 491 L510 491 L510 402 L468 402 L340 251 Z " />
<glyph glyph-name="y" unicode="y" horiz-adv-x="595" d="M23 397 L23 490 L257 490 L257 397 L203 397 L293 101 L297 101 Q301 116 314.5 157 Q328 198 343 245.5 Q358 293 372 336 Q386 379 392 397 L338 397 L338 490 L572 490 L572 397 L525 397 L344 -111 Q326 -162 294 -188.5 Q262 -215 196 -215 Q193 -215 181 -214.5 Q169 -214 151 -212.5 Q133 -211 111 -207 Q89 -203 66 -195 L85 -95 Q106 -99 124.5 -101.5 Q143 -104 160 -104 Q193 -104 207 -94.5 Q221 -85 229 -66 L259 11 L196 11 L71 397 L23 397 Z " />
<glyph glyph-name="z" unicode="z" horiz-adv-x="507" d="M195 87 L381 87 L381 171 L475 171 L475 0 L25 0 L25 80 L300 402 L141 402 L141 325 L47 325 L47 491 L471 491 L471 413 L195 87 Z " />
<glyph glyph-name="braceleft" unicode="&#x7b;" horiz-adv-x="325" d="M220 -166 Q185 -166 162 -154.5 Q139 -143 125.5 -123.5 Q112 -104 106.5 -78.5 Q101 -53 101 -24 L101 156 Q101 196 84 221 Q67 246 30 249 L30 322 Q101 335 101 419 L101 555 Q101 581 105.5 607.5 Q110 634 122.5 655 Q135 676 157.5 689.5 Q180 703 216 703 L304 703 L304 625 L277 625 Q244 625 232.5 605.5 Q221 586 221 559 L221 406 Q221 362 206.5 330 Q192 298 151 289 L151 287 Q195 270 208 236.5 Q221 203 221 151 L221 -24 Q221 -37 223 -49 Q225 -61 231 -70 Q237 -79 247.5 -84.5 Q258 -90 275 -90 L304 -90 L304 -166 L220 -166 Z " />
<glyph glyph-name="bar" unicode="&#x7c;" horiz-adv-x="311" d="M107 -146 L107 707 L201 707 L201 -146 L107 -146 Z " />
<glyph glyph-name="braceright" unicode="&#x7d;" horiz-adv-x="325" d="M23 -166 L23 -90 L52 -90 Q69 -90 79.5 -84.5 Q90 -79 96 -70 Q102 -61 104 -49 Q106 -37 106 -24 L106 151 Q106 203 119 236.5 Q132 270 176 287 L176 289 Q135 298 120.5 330 Q106 362 106 406 L106 559 Q106 586 94.5 605.5 Q83 625 50 625 L23 625 L23 703 L111 703 Q147 703 169.5 689.5 Q192 676 204.5 655 Q217 634 221.5 607.5 Q226 581 226 555 L226 419 Q226 335 297 322 L297 249 Q260 246 243 221 Q226 196 226 156 L226 -24 Q226 -53 220.5 -78.5 Q215 -104 201.5 -123.5 Q188 -143 165 -154.5 Q142 -166 107 -166 L23 -166 Z " />
<glyph glyph-name="asciitilde" unicode="&#x7e;" horiz-adv-x="597" d="M413 231 Q381 231 350 238 Q319 245 290 254 Q261 263 235 270 Q209 277 188 277 L118 230 L69 268 Q91 324 124 349 Q157 374 198 374 Q225 374 254.5 367 Q284 360 314 351.5 Q344 343 372.5 336 Q401 329 425 329 L493 377 L540 340 Q520 288 489 259.5 Q458 231 413 231 Z " />
<glyph glyph-name="uni00A0" unicode="&#xa0;" horiz-adv-x="297" d="" />
<glyph glyph-name="exclamdown" unicode="&#xa1;" horiz-adv-x="281" d="M76 -218 L79 49 L92 295 L191 295 L205 49 L206 -218 L76 -218 Z M141 358 Q109 358 87.5 379 Q66 400 66 429 Q66 458 86.5 479.5 Q107 501 141 501 Q173 501 194 479.5 Q215 458 215 429 Q215 400 194.5 379 Q174 358 141 358 Z " />
<glyph glyph-name="cent" unicode="&#xa2;" horiz-adv-x="597" d="M388 395 Q375 397 363.5 398.5 Q352 400 341 400 Q283 400 251 363 Q219 326 219 248 Q219 172 247 132 Q275 92 343 92 Q382 92 414.5 99.5 Q447 107 478 118 L505 31 Q479 17 444 8 Q409 -1 369 -6 L369 -109 L274 -109 L274 -5 Q217 1 179.5 22 Q142 43 119.5 76 Q97 109 87.5 151 Q78 193 78 240 Q78 284 87 326.5 Q96 369 118.5 404.5 Q141 440 179 465 Q217 490 274 498 L274 603 L369 603 L369 499 Q428 496 482 476 L482 327 L388 327 L388 395 Z " />
<glyph glyph-name="sterling" unicode="&#xa3;" horiz-adv-x="597" d="M443 586 Q423 592 404 594.5 Q385 597 370 597 Q314 597 293 564.5 Q272 532 268 471 L263 382 L420 382 L420 311 L257 311 L254 249 Q252 202 242 159.5 Q232 117 204 90 L536 90 L536 0 L55 0 L55 90 Q79 106 93.5 127 Q108 148 116 175 Q124 202 126.5 235.5 Q129 269 131 311 L68 311 L68 382 L136 382 L141 473 Q144 525 158.5 566.5 Q173 608 200 637.5 Q227 667 266.5 683 Q306 699 360 699 Q419 699 464 688 Q509 677 541 662 L541 510 L443 510 L443 586 Z " />
<glyph glyph-name="currency" unicode="&#xa4;" horiz-adv-x="564" d="M164 306 Q164 282 173 260.5 Q182 239 198 223.5 Q214 208 235.5 199 Q257 190 281 190 Q305 190 325.5 199 Q346 208 362 223.5 Q378 239 387 260.5 Q396 282 396 306 Q396 330 387 351 Q378 372 362.5 387.5 Q347 403 326 412.5 Q305 422 281 422 Q257 422 235.5 413 Q214 404 198 388 Q182 372 173 351 Q164 330 164 306 Z M48 480 L107 538 L171 474 Q195 490 223 499 Q251 508 282 508 Q342 508 392 473 L456 538 L515 479 L449 416 Q482 365 482 306 Q482 277 473 249 Q464 221 449 196 L515 135 L456 74 L391 139 Q365 120 338 113 Q311 106 282 106 Q252 106 225 113 Q198 120 172 139 L107 74 L48 134 L113 197 Q94 223 86.5 251 Q79 279 79 305 Q79 334 87.5 362.5 Q96 391 113 415 L48 480 Z " />
<glyph glyph-name="yen" unicode="&#xa5;" horiz-adv-x="597" d="M151 92 L226 92 L226 206 L65 206 L65 263 L225 263 L203 310 L65 310 L65 367 L177 367 L70 594 L15 594 L15 687 L252 687 L252 594 L202 594 L244 498 Q258 467 271 437 Q284 407 296 376 L300 376 Q313 407 324.5 433 Q336 459 348 486 L395 594 L345 594 L345 687 L577 687 L577 594 L523 594 L414 367 L530 367 L530 310 L387 310 L366 263 L530 263 L530 206 L366 206 L366 92 L442 92 L442 0 L151 0 L151 92 Z " />
<glyph glyph-name="brokenbar" unicode="&#xa6;" horiz-adv-x="311" d="M107 361 L107 707 L201 707 L201 361 L107 361 Z M201 230 L201 -146 L107 -146 L107 230 L201 230 Z " />
<glyph glyph-name="section" unicode="&#xa7;" horiz-adv-x="525" d="M464 298 Q464 260 448 228.5 Q432 197 398 168 Q440 141 457 108.5 Q474 76 474 46 Q474 -32 413 -75.5 Q352 -119 245 -119 Q193 -119 151 -109.5 Q109 -100 76 -89 L76 48 L168 48 Q168 31 167.5 13.5 Q167 -4 167 -22 Q185 -27 204.5 -30.5 Q224 -34 246 -34 Q275 -34 295 -27.5 Q315 -21 327 -10.5 Q339 0 344.5 12 Q350 24 350 35 Q350 65 325 85.5 Q300 106 247 126 Q213 139 180 153 Q147 167 120.5 186 Q94 205 78 230.5 Q62 256 62 292 Q62 371 133 422 Q104 443 87.5 468 Q71 493 71 531 Q71 572 87.5 602.5 Q104 633 133 653 Q162 673 201 682.5 Q240 692 284 692 Q337 692 378.5 682.5 Q420 673 448 662 L448 524 L355 524 L355 599 Q335 604 318.5 607 Q302 610 282 610 Q238 610 213.5 590.5 Q189 571 189 539 Q189 522 202.5 508.5 Q216 495 235.5 483 Q255 471 277.5 461.5 Q300 452 318 445 Q346 434 372.5 421 Q399 408 419 391 Q439 374 451.5 351.5 Q464 329 464 298 Z M359 276 Q359 296 346.5 311 Q334 326 313.5 338 Q293 350 266.5 361 Q240 372 213 384 Q172 352 172 313 Q172 290 184 276 Q196 262 216.5 251.5 Q237 241 264 230.5 Q291 220 321 205 Q339 222 349 241.5 Q359 261 359 276 Z " />
<glyph glyph-name="dieresis" unicode="&#xa8;" horiz-adv-x="454" d="M391 613 Q391 587 372 568.5 Q353 550 324 550 Q298 550 279.5 568.5 Q261 587 261 613 Q261 640 279.5 658.5 Q298 677 324 677 Q353 677 372 659 Q391 641 391 613 Z M197 613 Q197 587 178.5 568.5 Q160 550 132 550 Q105 550 86.5 568.5 Q68 587 68 613 Q68 640 87 658.5 Q106 677 131 677 Q160 677 178.5 659 Q197 641 197 613 Z " />
<glyph glyph-name="copyright" unicode="&#xa9;" horiz-adv-x="858" d="M808 330 Q808 252 778 183 Q748 114 696 63 Q644 12 575 -18 Q506 -48 428 -48 Q349 -48 279.5 -18 Q210 12 158.5 63 Q107 114 77 183 Q47 252 47 330 Q47 408 77 477 Q107 546 158.5 597 Q210 648 279.5 678 Q349 708 428 708 Q506 708 575 678 Q644 648 696 597 Q748 546 778 477 Q808 408 808 330 Z M748 330 Q748 396 723 454 Q698 512 654.5 555.5 Q611 599 553 624 Q495 649 428 649 Q362 649 303.5 624 Q245 599 201.5 555.5 Q158 512 132.5 454 Q107 396 107 330 Q107 264 132.5 206.5 Q158 149 201.5 105.5 Q245 62 303.5 37 Q362 12 428 12 Q495 12 553 37 Q611 62 654.5 105.5 Q698 149 723 206.5 Q748 264 748 330 Z M315 325 Q315 241 348 199.5 Q381 158 459 158 Q468 158 482 159 Q496 160 511.5 161.5 Q527 163 542.5 166 Q558 169 570 172 L584 104 Q555 93 513.5 86.5 Q472 80 436 80 Q371 80 328.5 99 Q286 118 260 150.5 Q234 183 223.5 227 Q213 271 213 322 Q213 364 223.5 408 Q234 452 260 488.5 Q286 525 331.5 548.5 Q377 572 447 572 Q486 572 517 566 Q548 560 573 552 L573 422 L505 422 L505 490 Q478 496 450 496 Q380 496 347.5 450.5 Q315 405 315 325 Z " />
<glyph glyph-name="ordfeminine" unicode="&#xaa;" horiz-adv-x="385" d="M328 337 L368 337 L373 278 Q356 271 332.5 266.5 Q309 262 292 262 Q272 262 255 270.5 Q238 279 235 302 Q218 287 202 279 Q186 271 172 267.5 Q158 264 146.5 263 Q135 262 128 262 Q96 262 75 271.5 Q54 281 42 295 Q30 309 25 326 Q20 343 20 357 Q20 389 37 411.5 Q54 434 92 444 Q121 452 156.5 455.5 Q192 459 230 461 L230 473 Q230 500 218.5 513 Q207 526 172 526 Q149 526 121 522 Q93 518 68 510 Q64 524 59.5 539.5 Q55 555 50 571 Q82 584 121 591 Q160 598 196 598 Q258 598 293 573 Q328 548 328 484 L328 337 Z M230 412 Q210 411 191 410 Q172 409 157 404 Q124 395 124 365 Q124 345 134.5 335 Q145 325 169 325 Q183 325 200 331.5 Q217 338 230 349 L230 412 Z " />
<glyph glyph-name="guillemotleft" unicode="&#xab;" horiz-adv-x="493" d="M49 216 L215 395 L271 355 L167 197 L270 41 L213 -1 L49 178 L49 216 Z M233 216 L400 395 L456 355 L352 197 L455 41 L399 -1 L233 178 L233 216 Z " />
<glyph glyph-name="logicalnot" unicode="&#xac;" horiz-adv-x="590" d="M510 91 L424 91 L424 261 L97 261 L97 344 L510 344 L510 91 Z " />
<glyph glyph-name="sfthyphen" unicode="&#xad;" horiz-adv-x="393" d="M59 219 L59 318 L334 318 L334 219 L59 219 Z " />
<glyph glyph-name="registered" unicode="&#xae;" horiz-adv-x="608" d="M558 466 Q558 413 538.5 366.5 Q519 320 484.5 285.5 Q450 251 403 231 Q356 211 302 211 Q247 211 200 231 Q153 251 118.5 285.5 Q84 320 64 366.5 Q44 413 44 466 Q44 519 63.5 565.5 Q83 612 117.5 646.5 Q152 681 199 701 Q246 721 302 721 Q357 721 403.5 701 Q450 681 484.5 646.5 Q519 612 538.5 565.5 Q558 519 558 466 Z M512 466 Q512 509 496 547.5 Q480 586 452 614.5 Q424 643 385.5 659.5 Q347 676 302 676 Q257 676 218 659.5 Q179 643 151 614.5 Q123 586 107 547.5 Q91 509 91 466 Q91 423 106.5 384.5 Q122 346 150 317.5 Q178 289 217 272.5 Q256 256 302 256 Q349 256 388 272.5 Q427 289 454.5 317.5 Q482 346 497 384.5 Q512 423 512 466 Z M355 532 Q355 555 342 564.5 Q329 574 311 574 L271 574 L271 488 L310 488 Q328 488 341.5 497 Q355 506 355 532 Z M271 445 L271 370 L300 370 L300 327 L179 327 L179 370 L207 370 L207 573 L179 573 L179 617 L323 617 Q374 617 397.5 593 Q421 569 421 531 Q421 512 409 489.5 Q397 467 371 456 L413 370 Q417 369 429 368 Q441 367 446 366 L446 328 Q435 325 420.5 323.5 Q406 322 397 322 Q379 322 369.5 330.5 Q360 339 354 354 L311 445 L271 445 Z " />
<glyph glyph-name="macron" unicode="&#xaf;" horiz-adv-x="556" d="M96 687 L459 687 L459 596 L96 596 L96 687 Z " />
<glyph glyph-name="degree" unicode="&#xb0;" horiz-adv-x="373" d="M336 538 Q336 507 324.5 480 Q313 453 293 432.5 Q273 412 246 400.5 Q219 389 188 389 Q155 389 128 400 Q101 411 81 431 Q61 451 50 478 Q39 505 39 538 Q39 568 51 595.5 Q63 623 83 643 Q103 663 130.5 675 Q158 687 188 687 Q219 687 246 676.5 Q273 666 293 646.5 Q313 627 324.5 599.5 Q336 572 336 538 Z M266 536 Q266 571 245.5 595 Q225 619 187 619 Q152 619 130 595 Q108 571 108 536 Q108 502 130 479.5 Q152 457 187 457 Q220 457 243 479.5 Q266 502 266 536 Z " />
<glyph glyph-name="plusminus" unicode="&#xb1;" horiz-adv-x="597" d="M350 277 L350 125 L264 125 L264 277 L101 277 L101 360 L264 360 L264 510 L350 510 L350 360 L512 360 L512 277 L350 277 Z M512 79 L512 0 L101 0 L101 79 L512 79 Z " />
<glyph glyph-name="twosuperior" unicode="&#xb2;" horiz-adv-x="392" d="M332 646 Q332 615 314.5 584 Q297 553 270.5 525 Q244 497 213.5 473 Q183 449 158 431 L270 431 L270 470 L351 470 L351 355 L25 355 L25 421 Q57 445 92 473 Q127 501 156.5 530 Q186 559 205.5 586.5 Q225 614 225 636 Q225 660 208.5 671.5 Q192 683 163 683 Q146 683 119 676.5 Q92 670 55 650 L20 715 Q63 744 103 754.5 Q143 765 177 765 Q250 765 291 734 Q332 703 332 646 Z " />
<glyph glyph-name="threesuperior" unicode="&#xb3;" horiz-adv-x="392" d="M102 587 Q113 597 128 610 Q143 623 158.5 636 Q174 649 188.5 662 Q203 675 214 685 L118 685 L118 642 L41 642 L41 759 L331 759 Q332 755 334 747.5 Q336 740 338 731.5 Q340 723 341.5 715.5 Q343 708 345 704 Q334 694 319 681 Q304 668 289 654.5 Q274 641 259 627.5 Q244 614 233 604 Q285 596 318.5 568.5 Q352 541 352 490 Q352 456 338 430 Q324 404 299.5 386.5 Q275 369 242.5 360 Q210 351 173 351 Q139 351 98 356.5 Q57 362 20 381 Q22 386 26 396 Q30 406 34 416.5 Q38 427 41.5 437 Q45 447 47 452 Q89 439 117.5 436 Q146 433 165 433 Q202 433 224 448.5 Q246 464 246 491 Q246 514 226.5 529 Q207 544 161 544 Q149 544 138.5 543 Q128 542 115 540 L102 587 Z " />
<glyph glyph-name="acute" unicode="&#xb4;" horiz-adv-x="522" d="M237 545 L187 597 L335 767 L411 685 L237 545 Z " />
<glyph glyph-name="mu" unicode="&#xb5;" horiz-adv-x="612" d="M272 -5 Q253 -8 240.5 -8.5 Q228 -9 217 -9 L217 -118 L286 -118 L286 -209 L12 -209 L12 -118 L78 -118 Q78 -41 77.5 20.5 Q77 82 77 140.5 Q77 199 77 260 Q77 321 77 396 L13 396 L13 489 L217 489 L217 177 Q217 144 233 120.5 Q249 97 293 97 Q314 97 340.5 108 Q367 119 393 143 L393 397 L337 397 L337 490 L533 490 Q533 390 532.5 292.5 Q532 195 532 95 L597 95 Q597 74 597.5 53.5 Q598 33 599 13 Q565 1 536 -3.5 Q507 -8 488 -8 Q443 -8 423.5 7.5 Q404 23 399 58 Q363 25 330.5 12 Q298 -1 272 -5 Z " />
<glyph glyph-name="paragraph" unicode="&#xb6;" horiz-adv-x="611" d="M244 295 Q200 295 163 309.5 Q126 324 99 350.5 Q72 377 57 414 Q42 451 42 496 Q42 538 56.5 576 Q71 614 97.5 642 Q124 670 161.5 686.5 Q199 703 244 703 L580 703 L580 611 L513 611 L513 -206 L419 -206 L419 611 L358 611 L358 -206 L176 -206 L176 -120 L263 -120 L263 295 L244 295 Z " />
<glyph glyph-name="periodcentered" unicode="&#xb7;" horiz-adv-x="259" d="M209 275 Q209 244 188.5 223.5 Q168 203 130 203 Q92 203 72.5 224 Q53 245 53 275 Q53 307 72.5 327 Q92 347 130 347 Q168 347 188.5 327 Q209 307 209 275 Z " />
<glyph glyph-name="cedilla" unicode="&#xb8;" horiz-adv-x="477" d="M314 18 Q300 0 285 -19 Q270 -38 256 -58 Q306 -61 335 -82.5 Q364 -104 364 -144 Q364 -165 352.5 -184.5 Q341 -204 318 -219 Q295 -234 258.5 -243 Q222 -252 173 -252 Q173 -240 172.5 -228 Q172 -216 172 -204 Q226 -199 256 -185.5 Q286 -172 286 -149 Q286 -137 278 -130 Q270 -123 256.5 -119 Q243 -115 226.5 -114 Q210 -113 192 -113 Q187 -106 184 -100.5 Q181 -95 176 -89 Q202 -56 226 -23.5 Q250 9 276 41 Q285 34 295 29 Q305 24 314 18 Z " />
<glyph glyph-name="onesuperior" unicode="&#xb9;" horiz-adv-x="392" d="M55 430 L144 430 L144 669 Q136 668 123.5 666.5 Q111 665 97.5 663.5 Q84 662 71.5 660.5 Q59 659 52 658 L39 722 L160 759 L250 759 L250 430 L337 430 L337 355 L55 355 L55 430 Z " />
<glyph glyph-name="ordmasculine" unicode="&#xba;" horiz-adv-x="397" d="M370 431 Q370 397 360.5 367 Q351 337 330 314 Q309 291 275.5 277.5 Q242 264 195 264 Q150 264 117.5 277 Q85 290 65 312.5 Q45 335 35.5 365.5 Q26 396 26 431 Q26 465 36 495.5 Q46 526 67 549 Q88 572 121 585.5 Q154 599 200 599 Q246 599 278.5 585.5 Q311 572 331 549 Q351 526 360.5 495.5 Q370 465 370 431 Z M266 431 Q266 449 263.5 466.5 Q261 484 253.5 498 Q246 512 233.5 521 Q221 530 200 530 Q179 530 166 521 Q153 512 145 497.5 Q137 483 134 465.5 Q131 448 131 430 Q131 411 133.5 393.5 Q136 376 143.5 362.5 Q151 349 164.5 341 Q178 333 200 333 Q220 333 233 341.5 Q246 350 253.5 363.5 Q261 377 263.5 395 Q266 413 266 431 Z " />
<glyph glyph-name="guillemotright" unicode="&#xbb;" horiz-adv-x="493" d="M451 178 L286 -1 L230 41 L332 197 L229 355 L286 395 L451 216 L451 178 Z M265 178 L101 -1 L44 41 L147 197 L43 355 L100 395 L265 216 L265 178 Z " />
<glyph glyph-name="onequarter" unicode="&#xbc;" horiz-adv-x="900" d="M81 340 L170 340 L170 579 Q162 578 149.5 576.5 Q137 575 123.5 573.5 Q110 572 97.5 570.5 Q85 569 78 568 L65 632 L186 669 L276 669 L276 340 L363 340 L363 265 L81 265 L81 340 Z M358 -20 L276 -20 L591 708 L673 708 L358 -20 Z M779 403 L779 179 L841 179 L841 113 L779 113 L779 66 L822 66 L822 1 L640 1 L640 66 L679 66 L679 113 L484 113 L484 168 Q516 207 547.5 245 Q579 283 605.5 315 Q632 347 651.5 370.5 Q671 394 679 403 L779 403 Z M680 302 Q654 268 628 238 Q602 208 579 179 L680 179 L680 302 Z " />
<glyph glyph-name="onehalf" unicode="&#xbd;" horiz-adv-x="900" d="M59 340 L148 340 L148 579 Q140 578 127.5 576.5 Q115 575 101.5 573.5 Q88 572 75.5 570.5 Q63 569 56 568 L43 632 L164 669 L254 669 L254 340 L341 340 L341 265 L59 265 L59 340 Z M329 -20 L247 -20 L562 708 L644 708 L329 -20 Z M832 290 Q832 259 814.5 228.5 Q797 198 770.5 170 Q744 142 713.5 117.5 Q683 93 658 75 L770 75 L770 115 L851 115 L851 -1 L525 -1 L525 65 Q557 89 592 117 Q627 145 656.5 174 Q686 203 705.5 230.5 Q725 258 725 281 Q725 304 708.5 315.5 Q692 327 663 327 Q646 327 619 320.5 Q592 314 555 294 L520 359 Q563 388 603 398.5 Q643 409 677 409 Q750 409 791 378.5 Q832 348 832 290 Z " />
<glyph glyph-name="threequarters" unicode="&#xbe;" horiz-adv-x="900" d="M130 497 Q141 507 156 520 Q171 533 186.5 546 Q202 559 216.5 572 Q231 585 242 595 L146 595 L146 552 L69 552 L69 669 L359 669 Q360 665 362 657.5 Q364 650 366 641.5 Q368 633 369.5 625.5 Q371 618 373 614 Q362 604 347 591 Q332 578 317 564.5 Q302 551 287 537.5 Q272 524 261 514 Q313 506 346.5 478.5 Q380 451 380 400 Q380 366 366 340 Q352 314 327.5 296.5 Q303 279 270.5 270 Q238 261 201 261 Q167 261 126 266.5 Q85 272 48 291 Q50 296 54 306 Q58 316 62 326.5 Q66 337 69.5 347 Q73 357 75 362 Q117 349 145.5 346 Q174 343 193 343 Q230 343 252 358.5 Q274 374 274 401 Q274 424 254.5 439 Q235 454 189 454 Q177 454 166.5 453 Q156 452 143 450 L130 497 Z M344 -20 L262 -20 L577 708 L659 708 L344 -20 Z M777 403 L777 179 L839 179 L839 113 L777 113 L777 66 L820 66 L820 1 L638 1 L638 66 L677 66 L677 113 L482 113 L482 168 Q514 207 545.5 245 Q577 283 603.5 315 Q630 347 649.5 370.5 Q669 394 677 403 L777 403 Z M678 302 Q652 268 626 238 Q600 208 577 179 L678 179 L678 302 Z " />
<glyph glyph-name="questiondown" unicode="&#xbf;" horiz-adv-x="495" d="M189 -53 Q189 -88 217 -103 Q245 -118 284 -118 Q317 -118 335 -115 Q353 -112 368 -107 L368 -25 L467 -25 L467 -185 Q408 -207 354 -214.5 Q300 -222 258 -222 Q162 -222 108 -185.5 Q54 -149 49 -86 Q49 -64 53.5 -46 Q58 -28 66 -13 Q74 2 85 16.5 Q96 31 110 46 Q139 78 164 104 Q189 130 208 154 Q227 178 237.5 200.5 Q248 223 248 249 Q248 260 246 271 Q244 282 242 298 Q271 299 298.5 300 Q326 301 355 303 Q359 280 360.5 261.5 Q362 243 362 229 Q362 193 351 165.5 Q340 138 322 114.5 Q304 91 281.5 69.5 Q259 48 236 24 Q216 6 202.5 -12 Q189 -30 189 -53 Z M211 427 Q211 456 232.5 477 Q254 498 283 498 Q315 498 336.5 477 Q358 456 358 427 Q358 399 336.5 378.5 Q315 358 284 358 Q254 358 232.5 378 Q211 398 211 427 Z " />
<glyph glyph-name="Agrave" unicode="&#xc0;" horiz-adv-x="736" d="M516 94 Q509 117 501 143 Q493 169 486 190 L241 190 Q235 171 226 144 Q217 117 211 94 L276 94 L276 0 L20 0 L20 94 L75 94 Q100 164 126.5 239.5 Q153 315 179.5 391.5 Q206 468 232.5 543 Q259 618 283 687 L460 687 Q509 541 560.5 390.5 Q612 240 661 94 L716 94 L716 0 L453 0 L453 94 L516 94 Z M383 521 Q380 534 376 546.5 Q372 559 368 573 L365 573 Q363 568 360 557 Q357 546 349 520 Q341 495 331 464 Q321 433 310.5 401 Q300 369 290 338 Q280 307 272 282 L458 282 L383 521 Z M198 885 L271 964 L420 796 L371 746 L198 885 Z " />
<glyph glyph-name="Aacute" unicode="&#xc1;" horiz-adv-x="736" d="M516 94 Q509 117 501 143 Q493 169 486 190 L241 190 Q235 171 226 144 Q217 117 211 94 L276 94 L276 0 L20 0 L20 94 L75 94 Q100 164 126.5 239.5 Q153 315 179.5 391.5 Q206 468 232.5 543 Q259 618 283 687 L460 687 Q509 541 560.5 390.5 Q612 240 661 94 L716 94 L716 0 L453 0 L453 94 L516 94 Z M383 521 Q380 534 376 546.5 Q372 559 368 573 L365 573 Q363 568 360 557 Q357 546 349 520 Q341 495 331 464 Q321 433 310.5 401 Q300 369 290 338 Q280 307 272 282 L458 282 L383 521 Z M378 743 L331 792 L478 961 L554 882 L378 743 Z " />
<glyph glyph-name="Acircumflex" unicode="&#xc2;" horiz-adv-x="736" d="M516 94 Q509 117 501 143 Q493 169 486 190 L241 190 Q235 171 226 144 Q217 117 211 94 L276 94 L276 0 L20 0 L20 94 L75 94 Q100 164 126.5 239.5 Q153 315 179.5 391.5 Q206 468 232.5 543 Q259 618 283 687 L460 687 Q509 541 560.5 390.5 Q612 240 661 94 L716 94 L716 0 L453 0 L453 94 L516 94 Z M383 521 Q380 534 376 546.5 Q372 559 368 573 L365 573 Q363 568 360 557 Q357 546 349 520 Q341 495 331 464 Q321 433 310.5 401 Q300 369 290 338 Q280 307 272 282 L458 282 L383 521 Z M531 737 L366 828 L203 736 L169 777 L323 924 L411 924 L566 778 L531 737 Z " />
<glyph glyph-name="Atilde" unicode="&#xc3;" horiz-adv-x="736" d="M516 94 Q509 117 501 143 Q493 169 486 190 L241 190 Q235 171 226 144 Q217 117 211 94 L276 94 L276 0 L20 0 L20 94 L75 94 Q100 164 126.5 239.5 Q153 315 179.5 391.5 Q206 468 232.5 543 Q259 618 283 687 L460 687 Q509 541 560.5 390.5 Q612 240 661 94 L716 94 L716 0 L453 0 L453 94 L516 94 Z M383 521 Q380 534 376 546.5 Q372 559 368 573 L365 573 Q363 568 360 557 Q357 546 349 520 Q341 495 331 464 Q321 433 310.5 401 Q300 369 290 338 Q280 307 272 282 L458 282 L383 521 Z M451 768 Q426 768 401.5 774 Q377 780 354.5 787.5 Q332 795 312.5 801 Q293 807 278 807 L222 768 L181 800 Q198 848 224.5 870 Q251 892 284 892 Q305 892 327.5 886 Q350 880 372.5 873 Q395 866 416.5 860 Q438 854 456 854 L512 895 L553 862 Q538 817 512 792.5 Q486 768 451 768 Z " />
<glyph glyph-name="Adieresis" unicode="&#xc4;" horiz-adv-x="736" d="M516 94 Q509 117 501 143 Q493 169 486 190 L241 190 Q235 171 226 144 Q217 117 211 94 L276 94 L276 0 L20 0 L20 94 L75 94 Q100 164 126.5 239.5 Q153 315 179.5 391.5 Q206 468 232.5 543 Q259 618 283 687 L460 687 Q509 541 560.5 390.5 Q612 240 661 94 L716 94 L716 0 L453 0 L453 94 L516 94 Z M383 521 Q380 534 376 546.5 Q372 559 368 573 L365 573 Q363 568 360 557 Q357 546 349 520 Q341 495 331 464 Q321 433 310.5 401 Q300 369 290 338 Q280 307 272 282 L458 282 L383 521 Z M532 825 Q532 799 513 780.5 Q494 762 465 762 Q439 762 420.5 780.5 Q402 799 402 825 Q402 852 420.5 870.5 Q439 889 465 889 Q494 889 513 871 Q532 853 532 825 Z M332 825 Q332 799 313.5 780.5 Q295 762 267 762 Q240 762 221.5 780.5 Q203 799 203 825 Q203 852 222 870.5 Q241 889 266 889 Q295 889 313.5 871 Q332 853 332 825 Z " />
<glyph glyph-name="Aring" unicode="&#xc5;" horiz-adv-x="736" d="M516 94 Q509 117 501 143 Q493 169 486 190 L241 190 Q235 171 226 144 Q217 117 211 94 L276 94 L276 0 L20 0 L20 94 L75 94 Q100 164 126.5 239.5 Q153 315 179.5 391.5 Q206 468 232.5 543 Q259 618 283 687 L460 687 Q509 541 560.5 390.5 Q612 240 661 94 L716 94 L716 0 L453 0 L453 94 L516 94 Z M383 521 Q380 534 376 546.5 Q372 559 368 573 L365 573 Q363 568 360 557 Q357 546 349 520 Q341 495 331 464 Q321 433 310.5 401 Q300 369 290 338 Q280 307 272 282 L458 282 L383 521 Z M372 639 Q346 639 323 648.5 Q300 658 283.5 674.5 Q267 691 257.5 712.5 Q248 734 248 759 Q248 783 257.5 804.5 Q267 826 283.5 842.5 Q300 859 323 868.5 Q346 878 372 878 Q398 878 420 868.5 Q442 859 458 842.5 Q474 826 483 804.5 Q492 783 492 759 Q492 733 482.5 711.5 Q473 690 457 673.5 Q441 657 419 648 Q397 639 372 639 Z M372 813 Q348 813 331.5 796 Q315 779 315 756 Q315 735 330.5 718.5 Q346 702 372 702 Q395 702 410 718.5 Q425 735 425 756 Q425 779 410.5 796 Q396 813 372 813 Z " />
<glyph glyph-name="AE" unicode="&#xc6;" horiz-adv-x="1026" d="M518 202 L279 202 L212 94 L274 94 L274 0 L10 0 L10 94 L66 94 L377 592 L324 592 L324 687 L974 687 L974 489 L872 489 L872 594 L661 594 L661 400 L872 406 L872 308 L661 313 L661 94 L884 94 L884 204 L986 204 L986 0 L447 0 L447 94 L518 94 L518 202 Z M330 293 L518 293 L518 588 L513 588 L330 293 Z " />
<glyph glyph-name="Ccedilla" unicode="&#xc7;" horiz-adv-x="623" d="M201 345 Q201 284 211.5 239 Q222 194 246 164 Q270 134 309.5 119.5 Q349 105 406 105 Q418 105 437.5 106 Q457 107 479 109.5 Q501 112 524 116 Q547 120 566 126 L588 26 Q567 18 540.5 11 Q514 4 485.5 -0.5 Q457 -5 428 -7.5 Q399 -10 373 -10 Q279 -10 216.5 17.5 Q154 45 117 92.5 Q80 140 65 204 Q50 268 50 342 Q50 402 64 466 Q78 530 115 582 Q152 634 217 667.5 Q282 701 383 701 Q438 701 483 693.5 Q528 686 566 673 L566 480 L465 480 L465 583 Q445 588 424.5 590 Q404 592 386 592 Q336 592 300.5 574.5 Q265 557 243 524.5 Q221 492 211 446.5 Q201 401 201 345 Z M407 1 Q393 -17 378 -36 Q363 -55 349 -75 Q399 -78 428 -99.5 Q457 -121 457 -161 Q457 -182 445.5 -201.5 Q434 -221 411 -236 Q388 -251 351.5 -260 Q315 -269 266 -269 Q266 -257 265.5 -245 Q265 -233 265 -221 Q319 -216 349 -202.5 Q379 -189 379 -166 Q379 -154 371 -147 Q363 -140 349.5 -136 Q336 -132 319.5 -131 Q303 -130 285 -130 Q280 -123 277 -117.5 Q274 -112 269 -106 Q295 -73 319 -40.5 Q343 -8 369 24 Q378 17 388 12 Q398 7 407 1 Z " />
<glyph glyph-name="Egrave" unicode="&#xc8;" horiz-adv-x="649" d="M43 0 L43 96 L112 96 L112 592 L44 592 L44 687 L604 687 L604 485 L503 485 L503 592 L256 592 L256 400 L486 406 L486 307 L256 313 L256 96 L515 96 L515 208 L617 208 L617 0 L43 0 Z M198 885 L271 964 L420 796 L371 746 L198 885 Z " />
<glyph glyph-name="Eacute" unicode="&#xc9;" horiz-adv-x="649" d="M43 0 L43 96 L112 96 L112 592 L44 592 L44 687 L604 687 L604 485 L503 485 L503 592 L256 592 L256 400 L486 406 L486 307 L256 313 L256 96 L515 96 L515 208 L617 208 L617 0 L43 0 Z M312 743 L265 792 L412 961 L488 882 L312 743 Z " />
<glyph glyph-name="Ecircumflex" unicode="&#xca;" horiz-adv-x="649" d="M43 0 L43 96 L112 96 L112 592 L44 592 L44 687 L604 687 L604 485 L503 485 L503 592 L256 592 L256 400 L486 406 L486 307 L256 313 L256 96 L515 96 L515 208 L617 208 L617 0 L43 0 Z M509 737 L344 828 L181 736 L147 777 L301 924 L389 924 L544 778 L509 737 Z " />
<glyph glyph-name="Edieresis" unicode="&#xcb;" horiz-adv-x="649" d="M43 0 L43 96 L112 96 L112 592 L44 592 L44 687 L604 687 L604 485 L503 485 L503 592 L256 592 L256 400 L486 406 L486 307 L256 313 L256 96 L515 96 L515 208 L617 208 L617 0 L43 0 Z M511 835 Q511 809 492 790.5 Q473 772 444 772 Q418 772 399.5 790.5 Q381 809 381 835 Q381 862 399.5 880.5 Q418 899 444 899 Q473 899 492 881 Q511 863 511 835 Z M311 835 Q311 809 292.5 790.5 Q274 772 246 772 Q219 772 200.5 790.5 Q182 809 182 835 Q182 862 201 880.5 Q220 899 245 899 Q274 899 292.5 881 Q311 863 311 835 Z " />
<glyph glyph-name="Igrave" unicode="&#xcc;" horiz-adv-x="419" d="M70 0 L70 95 L138 95 L138 592 L70 592 L70 688 L349 688 L349 592 L281 592 L281 95 L349 95 L349 0 L70 0 Z M42 885 L115 964 L264 796 L215 746 L42 885 Z " />
<glyph glyph-name="Iacute" unicode="&#xcd;" horiz-adv-x="419" d="M70 0 L70 95 L138 95 L138 592 L70 592 L70 688 L349 688 L349 592 L281 592 L281 95 L349 95 L349 0 L70 0 Z M217 743 L170 792 L317 961 L393 882 L217 743 Z " />
<glyph glyph-name="Icircumflex" unicode="&#xce;" horiz-adv-x="419" d="M70 0 L70 95 L138 95 L138 592 L70 592 L70 688 L349 688 L349 592 L281 592 L281 95 L349 95 L349 0 L70 0 Z M375 737 L210 828 L47 736 L13 777 L167 924 L255 924 L410 778 L375 737 Z " />
<glyph glyph-name="Idieresis" unicode="&#xcf;" horiz-adv-x="419" d="M70 0 L70 95 L138 95 L138 592 L70 592 L70 688 L349 688 L349 592 L281 592 L281 95 L349 95 L349 0 L70 0 Z M374 835 Q374 809 355 790.5 Q336 772 307 772 Q281 772 262.5 790.5 Q244 809 244 835 Q244 862 262.5 880.5 Q281 899 307 899 Q336 899 355 881 Q374 863 374 835 Z M174 835 Q174 809 155.5 790.5 Q137 772 109 772 Q82 772 63.5 790.5 Q45 809 45 835 Q45 862 64 880.5 Q83 899 108 899 Q137 899 155.5 881 Q174 863 174 835 Z " />
<glyph glyph-name="Eth" unicode="&#xd0;" horiz-adv-x="729" d="M43 0 L43 95 L115 95 L115 330 L47 330 L47 394 L115 394 L115 591 L47 591 L47 688 L373 688 Q464 688 523 660.5 Q582 633 616.5 586 Q651 539 665 477 Q679 415 679 346 Q679 277 663.5 214 Q648 151 612 103.5 Q576 56 516 28 Q456 0 367 0 L43 0 Z M260 591 L260 394 L377 394 L377 330 L260 330 L260 95 L352 95 Q379 95 410 105 Q441 115 467.5 142 Q494 169 511 217 Q528 265 528 341 Q528 418 512 467 Q496 516 471 543.5 Q446 571 414.5 581 Q383 591 353 591 L260 591 Z " />
<glyph glyph-name="Ntilde" unicode="&#xd1;" horiz-adv-x="814" d="M570 207 L570 592 L502 592 L502 687 L770 687 L770 592 L704 592 L704 0 L564 0 Q497 104 429.5 206.5 Q362 309 296 414 Q283 435 270.5 456 Q258 477 244 498 Q243 498 243 497.5 Q243 497 242 497 L242 94 L310 94 L310 0 L40 0 L40 94 L109 94 Q109 219 109.5 342.5 Q110 466 110 592 L41 592 L41 687 L263 687 Q299 628 330 580.5 Q361 533 389.5 488 Q418 443 446.5 398 Q475 353 507 300 Q522 277 536.5 254 Q551 231 565 207 L570 207 Z M493 763 Q468 763 443.5 769 Q419 775 396.5 782.5 Q374 790 354.5 796 Q335 802 320 802 L264 763 L223 795 Q240 843 266.5 865 Q293 887 326 887 Q347 887 369.5 881 Q392 875 414.5 868 Q437 861 458.5 855 Q480 849 498 849 L554 890 L595 857 Q580 812 554 787.5 Q528 763 493 763 Z " />
<glyph glyph-name="Ograve" unicode="&#xd2;" horiz-adv-x="740" d="M690 344 Q690 268 670 203.5 Q650 139 610 91.5 Q570 44 511 17 Q452 -10 373 -10 Q289 -10 228 15.5 Q167 41 127.5 87.5 Q88 134 69 198.5 Q50 263 50 342 Q50 416 68.5 481 Q87 546 126 595 Q165 644 226 672 Q287 700 373 700 Q459 700 519.5 671.5 Q580 643 618 594.5 Q656 546 673 481.5 Q690 417 690 344 Z M538 342 Q538 390 531.5 436 Q525 482 506.5 517.5 Q488 553 456 575 Q424 597 373 597 Q322 597 288.5 575.5 Q255 554 235.5 518.5 Q216 483 208.5 437 Q201 391 201 341 Q201 222 240.5 157.5 Q280 93 373 93 Q417 93 448 112 Q479 131 499 164 Q519 197 528.5 242.5 Q538 288 538 342 Z M208 885 L281 964 L430 796 L381 746 L208 885 Z " />
<glyph glyph-name="Oacute" unicode="&#xd3;" horiz-adv-x="740" d="M690 344 Q690 268 670 203.5 Q650 139 610 91.5 Q570 44 511 17 Q452 -10 373 -10 Q289 -10 228 15.5 Q167 41 127.5 87.5 Q88 134 69 198.5 Q50 263 50 342 Q50 416 68.5 481 Q87 546 126 595 Q165 644 226 672 Q287 700 373 700 Q459 700 519.5 671.5 Q580 643 618 594.5 Q656 546 673 481.5 Q690 417 690 344 Z M538 342 Q538 390 531.5 436 Q525 482 506.5 517.5 Q488 553 456 575 Q424 597 373 597 Q322 597 288.5 575.5 Q255 554 235.5 518.5 Q216 483 208.5 437 Q201 391 201 341 Q201 222 240.5 157.5 Q280 93 373 93 Q417 93 448 112 Q479 131 499 164 Q519 197 528.5 242.5 Q538 288 538 342 Z M372 743 L325 792 L472 961 L548 882 L372 743 Z " />
<glyph glyph-name="Ocircumflex" unicode="&#xd4;" horiz-adv-x="740" d="M690 344 Q690 268 670 203.5 Q650 139 610 91.5 Q570 44 511 17 Q452 -10 373 -10 Q289 -10 228 15.5 Q167 41 127.5 87.5 Q88 134 69 198.5 Q50 263 50 342 Q50 416 68.5 481 Q87 546 126 595 Q165 644 226 672 Q287 700 373 700 Q459 700 519.5 671.5 Q580 643 618 594.5 Q656 546 673 481.5 Q690 417 690 344 Z M538 342 Q538 390 531.5 436 Q525 482 506.5 517.5 Q488 553 456 575 Q424 597 373 597 Q322 597 288.5 575.5 Q255 554 235.5 518.5 Q216 483 208.5 437 Q201 391 201 341 Q201 222 240.5 157.5 Q280 93 373 93 Q417 93 448 112 Q479 131 499 164 Q519 197 528.5 242.5 Q538 288 538 342 Z M538 737 L373 828 L210 736 L176 777 L330 924 L418 924 L573 778 L538 737 Z " />
<glyph glyph-name="Otilde" unicode="&#xd5;" horiz-adv-x="740" d="M690 344 Q690 268 670 203.5 Q650 139 610 91.5 Q570 44 511 17 Q452 -10 373 -10 Q289 -10 228 15.5 Q167 41 127.5 87.5 Q88 134 69 198.5 Q50 263 50 342 Q50 416 68.5 481 Q87 546 126 595 Q165 644 226 672 Q287 700 373 700 Q459 700 519.5 671.5 Q580 643 618 594.5 Q656 546 673 481.5 Q690 417 690 344 Z M538 342 Q538 390 531.5 436 Q525 482 506.5 517.5 Q488 553 456 575 Q424 597 373 597 Q322 597 288.5 575.5 Q255 554 235.5 518.5 Q216 483 208.5 437 Q201 391 201 341 Q201 222 240.5 157.5 Q280 93 373 93 Q417 93 448 112 Q479 131 499 164 Q519 197 528.5 242.5 Q538 288 538 342 Z M464 777 Q439 777 414.5 783 Q390 789 367.5 796.5 Q345 804 325.5 810 Q306 816 291 816 L235 777 L194 809 Q211 857 237.5 879 Q264 901 297 901 Q318 901 340.5 895 Q363 889 385.5 882 Q408 875 429.5 869 Q451 863 469 863 L525 904 L566 871 Q551 826 525 801.5 Q499 777 464 777 Z " />
<glyph glyph-name="Odieresis" unicode="&#xd6;" horiz-adv-x="740" d="M690 344 Q690 268 670 203.5 Q650 139 610 91.5 Q570 44 511 17 Q452 -10 373 -10 Q289 -10 228 15.5 Q167 41 127.5 87.5 Q88 134 69 198.5 Q50 263 50 342 Q50 416 68.5 481 Q87 546 126 595 Q165 644 226 672 Q287 700 373 700 Q459 700 519.5 671.5 Q580 643 618 594.5 Q656 546 673 481.5 Q690 417 690 344 Z M538 342 Q538 390 531.5 436 Q525 482 506.5 517.5 Q488 553 456 575 Q424 597 373 597 Q322 597 288.5 575.5 Q255 554 235.5 518.5 Q216 483 208.5 437 Q201 391 201 341 Q201 222 240.5 157.5 Q280 93 373 93 Q417 93 448 112 Q479 131 499 164 Q519 197 528.5 242.5 Q538 288 538 342 Z M541 835 Q541 809 522 790.5 Q503 772 474 772 Q448 772 429.5 790.5 Q411 809 411 835 Q411 862 429.5 880.5 Q448 899 474 899 Q503 899 522 881 Q541 863 541 835 Z M341 835 Q341 809 322.5 790.5 Q304 772 276 772 Q249 772 230.5 790.5 Q212 809 212 835 Q212 862 231 880.5 Q250 899 275 899 Q304 899 322.5 881 Q341 863 341 835 Z " />
<glyph glyph-name="multiply" unicode="&#xd7;" horiz-adv-x="597" d="M304 237 L176 109 L116 169 L244 297 L117 424 L176 483 L302 355 L426 481 L487 420 L363 295 L489 170 L430 110 L304 237 Z " />
<glyph glyph-name="Oslash" unicode="&#xd8;" horiz-adv-x="740" d="M690 344 Q690 268 670 203.5 Q650 139 610 91.5 Q570 44 511 17 Q452 -10 373 -10 Q304 -10 251.5 6.5 Q199 23 161 55 L116 0 L55 0 L126 88 Q87 135 68.5 199 Q50 263 50 342 Q50 416 68.5 481 Q87 546 126 595 Q165 644 226 672 Q287 700 373 700 Q439 700 488 684 Q537 668 575 637 L614 688 L681 688 L611 604 Q653 554 671.5 486.5 Q690 419 690 344 Z M538 342 Q538 380 532.5 419.5 Q527 459 513 491 L243 151 Q265 122 296.5 107 Q328 92 373 92 Q417 92 448 111 Q479 130 499 163.5 Q519 197 528.5 242.5 Q538 288 538 342 Z M201 341 Q201 253 223 202 L492 541 Q472 567 443.5 583 Q415 599 373 599 Q322 599 288.5 577.5 Q255 556 235.5 520 Q216 484 208.5 437.5 Q201 391 201 341 Z " />
<glyph glyph-name="Ugrave" unicode="&#xd9;" horiz-adv-x="757" d="M664 253 Q664 131 595 61 Q526 -9 378 -9 Q301 -9 246.5 9 Q192 27 157.5 60.5 Q123 94 107 142.5 Q91 191 91 253 L91 592 L33 592 L33 688 L296 688 L296 592 L231 592 L231 250 Q231 170 269 132.5 Q307 95 379 95 Q446 95 485.5 131.5 Q525 168 525 250 L525 592 L462 592 L462 688 L724 688 L724 592 L664 592 L664 253 Z M212 885 L285 964 L434 796 L385 746 L212 885 Z " />
<glyph glyph-name="Uacute" unicode="&#xda;" horiz-adv-x="757" d="M664 253 Q664 131 595 61 Q526 -9 378 -9 Q301 -9 246.5 9 Q192 27 157.5 60.5 Q123 94 107 142.5 Q91 191 91 253 L91 592 L33 592 L33 688 L296 688 L296 592 L231 592 L231 250 Q231 170 269 132.5 Q307 95 379 95 Q446 95 485.5 131.5 Q525 168 525 250 L525 592 L462 592 L462 688 L724 688 L724 592 L664 592 L664 253 Z M383 743 L336 792 L483 961 L559 882 L383 743 Z " />
<glyph glyph-name="Ucircumflex" unicode="&#xdb;" horiz-adv-x="757" d="M664 253 Q664 131 595 61 Q526 -9 378 -9 Q301 -9 246.5 9 Q192 27 157.5 60.5 Q123 94 107 142.5 Q91 191 91 253 L91 592 L33 592 L33 688 L296 688 L296 592 L231 592 L231 250 Q231 170 269 132.5 Q307 95 379 95 Q446 95 485.5 131.5 Q525 168 525 250 L525 592 L462 592 L462 688 L724 688 L724 592 L664 592 L664 253 Z M552.495 737.28 L381.15 826.586 L211.883 736.299 L176.575 776.536 L336.497 920.799 L427.881 920.799 L588.841 777.517 L552.495 737.28 Z " />
<glyph glyph-name="Udieresis" unicode="&#xdc;" horiz-adv-x="757" d="M664 253 Q664 131 595 61 Q526 -9 378 -9 Q301 -9 246.5 9 Q192 27 157.5 60.5 Q123 94 107 142.5 Q91 191 91 253 L91 592 L33 592 L33 688 L296 688 L296 592 L231 592 L231 250 Q231 170 269 132.5 Q307 95 379 95 Q446 95 485.5 131.5 Q525 168 525 250 L525 592 L462 592 L462 688 L724 688 L724 592 L664 592 L664 253 Z M545 835 Q545 809 526 790.5 Q507 772 478 772 Q452 772 433.5 790.5 Q415 809 415 835 Q415 862 433.5 880.5 Q452 899 478 899 Q507 899 526 881 Q545 863 545 835 Z M345 835 Q345 809 326.5 790.5 Q308 772 280 772 Q253 772 234.5 790.5 Q216 809 216 835 Q216 862 235 880.5 Q254 899 279 899 Q308 899 326.5 881 Q345 863 345 835 Z " />
<glyph glyph-name="Yacute" unicode="&#xdd;" horiz-adv-x="666" d="M457 591 L399 591 L399 688 L654 688 L654 591 L599 591 L406 272 L406 95 L484 95 L484 0 L177 0 L177 95 L255 95 L255 270 L66 591 L13 591 L13 688 L270 688 L270 591 L213 591 L332 370 L336 370 L457 591 Z M339 742 L292 791 L439 960 L515 881 L339 742 Z " />
<glyph glyph-name="Thorn" unicode="&#xde;" horiz-adv-x="633" d="M254 540 L371 540 Q489 540 548.5 491.5 Q608 443 608 353 Q608 318 595.5 283.5 Q583 249 556 221.5 Q529 194 486.5 177 Q444 160 383 161 L254 161 L254 87 L329 87 L329 0 L41 0 L41 87 L111 87 L111 596 L41 596 L41 688 L329 688 L329 596 L254 596 L254 540 Z M254 460 L254 242 L349 242 Q372 242 392 248 Q412 254 427 267 Q442 280 450.5 301 Q459 322 459 351 Q459 408 427.5 434 Q396 460 345 460 L254 460 Z " />
<glyph glyph-name="germandbls" unicode="&#xdf;" horiz-adv-x="663" d="M496 128 Q496 149 488.5 165 Q481 181 468.5 195.5 Q456 210 440.5 222.5 Q425 235 410 249 Q391 266 372 284 Q353 302 338 321 Q323 340 313.5 361 Q304 382 304 405 Q304 435 319.5 457.5 Q335 480 353 498.5 Q371 517 386.5 534.5 Q402 552 402 573 Q402 580 399.5 591 Q397 602 388.5 612 Q380 622 364.5 629 Q349 636 323 636 Q297 636 280 628 Q263 620 252.5 606 Q242 592 237.5 574 Q233 556 233 535 L233 0 L24 0 L24 91 L95 91 L95 377 L28 377 L28 454 L95 454 L95 527 Q95 547 101 582 Q107 617 129.5 650.5 Q152 684 197 708.5 Q242 733 320 733 Q382 733 422.5 718 Q463 703 486.5 681.5 Q510 660 519 635 Q528 610 528 591 Q528 554 511.5 527 Q495 500 475.5 479.5 Q456 459 440 442.5 Q424 426 424 409 Q424 391 439.5 374.5 Q455 358 477.5 340.5 Q500 323 527 303 Q554 283 576.5 259 Q599 235 614.5 205.5 Q630 176 630 139 Q630 107 618 79.5 Q606 52 582 31.5 Q558 11 521.5 -1 Q485 -13 436 -13 Q397 -13 358 -6.5 Q319 0 287 10 L287 147 L369 147 L369 84 Q389 78 405 76 Q421 74 432 74 Q458 74 477 88 Q496 102 496 128 Z " />
<glyph glyph-name="agrave" unicode="&#xe0;" horiz-adv-x="565" d="M247 213 Q211 209 193.5 191 Q176 173 176 148 Q176 113 192 96.5 Q208 80 245 80 Q268 80 293.5 91.5 Q319 103 339 122 L339 222 L247 213 Z M472 93 L547 93 L554 18 Q518 2 483 -3 Q448 -8 424 -8 Q392 -8 370.5 3.5 Q349 15 348 55 Q347 55 347 55.5 Q347 56 346 56 Q321 32 296 18.5 Q271 5 249.5 -1 Q228 -7 210 -8.5 Q192 -10 182 -10 Q137 -10 107.5 4 Q78 18 61.5 39.5 Q45 61 38.5 86 Q32 111 32 132 Q32 160 43 185.5 Q54 211 75.5 230.5 Q97 250 129.5 262.5 Q162 275 204 278 L341 287 L341 311 Q341 354 322.5 376.5 Q304 399 251 399 Q215 399 174.5 392 Q134 385 101 374 Q95 395 89 416.5 Q83 438 78 460 Q121 479 177 489 Q233 499 285 499 Q328 499 363 490.5 Q398 482 422 462 Q446 442 459 409.5 Q472 377 472 330 L472 93 Z M140 681 Q146 688 157 700 Q168 712 179.5 725 Q191 738 202 750 Q213 762 220 769 Q232 754 252 731.5 Q272 709 294 685.5 Q316 662 336 639.5 Q356 617 369 602 L316 544 L140 681 Z " />
<glyph glyph-name="aacute" unicode="&#xe1;" horiz-adv-x="565" d="M247 213 Q211 209 193.5 191 Q176 173 176 148 Q176 113 192 96.5 Q208 80 245 80 Q268 80 293.5 91.5 Q319 103 339 122 L339 222 L247 213 Z M472 93 L547 93 L554 18 Q518 2 483 -3 Q448 -8 424 -8 Q392 -8 370.5 3.5 Q349 15 348 55 Q347 55 347 55.5 Q347 56 346 56 Q321 32 296 18.5 Q271 5 249.5 -1 Q228 -7 210 -8.5 Q192 -10 182 -10 Q137 -10 107.5 4 Q78 18 61.5 39.5 Q45 61 38.5 86 Q32 111 32 132 Q32 160 43 185.5 Q54 211 75.5 230.5 Q97 250 129.5 262.5 Q162 275 204 278 L341 287 L341 311 Q341 354 322.5 376.5 Q304 399 251 399 Q215 399 174.5 392 Q134 385 101 374 Q95 395 89 416.5 Q83 438 78 460 Q121 479 177 489 Q233 499 285 499 Q328 499 363 490.5 Q398 482 422 462 Q446 442 459 409.5 Q472 377 472 330 L472 93 Z M240 545 L190 597 L338 767 L414 685 L240 545 Z " />
<glyph glyph-name="acircumflex" unicode="&#xe2;" horiz-adv-x="565" d="M247 213 Q211 209 193.5 191 Q176 173 176 148 Q176 113 192 96.5 Q208 80 245 80 Q268 80 293.5 91.5 Q319 103 339 122 L339 222 L247 213 Z M472 93 L547 93 L554 18 Q518 2 483 -3 Q448 -8 424 -8 Q392 -8 370.5 3.5 Q349 15 348 55 Q347 55 347 55.5 Q347 56 346 56 Q321 32 296 18.5 Q271 5 249.5 -1 Q228 -7 210 -8.5 Q192 -10 182 -10 Q137 -10 107.5 4 Q78 18 61.5 39.5 Q45 61 38.5 86 Q32 111 32 132 Q32 160 43 185.5 Q54 211 75.5 230.5 Q97 250 129.5 262.5 Q162 275 204 278 L341 287 L341 311 Q341 354 322.5 376.5 Q304 399 251 399 Q215 399 174.5 392 Q134 385 101 374 Q95 395 89 416.5 Q83 438 78 460 Q121 479 177 489 Q233 499 285 499 Q328 499 363 490.5 Q398 482 422 462 Q446 442 459 409.5 Q472 377 472 330 L472 93 Z M442 556 L277 651 L113 555 L80 596 L234 750 L322 750 L478 598 L442 556 Z " />
<glyph glyph-name="atilde" unicode="&#xe3;" horiz-adv-x="565" d="M247 213 Q211 209 193.5 191 Q176 173 176 148 Q176 113 192 96.5 Q208 80 245 80 Q268 80 293.5 91.5 Q319 103 339 122 L339 222 L247 213 Z M472 93 L547 93 L554 18 Q518 2 483 -3 Q448 -8 424 -8 Q392 -8 370.5 3.5 Q349 15 348 55 Q347 55 347 55.5 Q347 56 346 56 Q321 32 296 18.5 Q271 5 249.5 -1 Q228 -7 210 -8.5 Q192 -10 182 -10 Q137 -10 107.5 4 Q78 18 61.5 39.5 Q45 61 38.5 86 Q32 111 32 132 Q32 160 43 185.5 Q54 211 75.5 230.5 Q97 250 129.5 262.5 Q162 275 204 278 L341 287 L341 311 Q341 354 322.5 376.5 Q304 399 251 399 Q215 399 174.5 392 Q134 385 101 374 Q95 395 89 416.5 Q83 438 78 460 Q121 479 177 489 Q233 499 285 499 Q328 499 363 490.5 Q398 482 422 462 Q446 442 459 409.5 Q472 377 472 330 L472 93 Z M366 580 Q341 580 316.5 586 Q292 592 269.5 599.5 Q247 607 227.5 613 Q208 619 193 619 L137 580 L96 612 Q113 660 139.5 682 Q166 704 199 704 Q220 704 242.5 698 Q265 692 287.5 685 Q310 678 331.5 672 Q353 666 371 666 L427 707 L468 674 Q453 629 427 604.5 Q401 580 366 580 Z " />
<glyph glyph-name="adieresis" unicode="&#xe4;" horiz-adv-x="565" d="M247 213 Q211 209 193.5 191 Q176 173 176 148 Q176 113 192 96.5 Q208 80 245 80 Q268 80 293.5 91.5 Q319 103 339 122 L339 222 L247 213 Z M472 93 L547 93 L554 18 Q518 2 483 -3 Q448 -8 424 -8 Q392 -8 370.5 3.5 Q349 15 348 55 Q347 55 347 55.5 Q347 56 346 56 Q321 32 296 18.5 Q271 5 249.5 -1 Q228 -7 210 -8.5 Q192 -10 182 -10 Q137 -10 107.5 4 Q78 18 61.5 39.5 Q45 61 38.5 86 Q32 111 32 132 Q32 160 43 185.5 Q54 211 75.5 230.5 Q97 250 129.5 262.5 Q162 275 204 278 L341 287 L341 311 Q341 354 322.5 376.5 Q304 399 251 399 Q215 399 174.5 392 Q134 385 101 374 Q95 395 89 416.5 Q83 438 78 460 Q121 479 177 489 Q233 499 285 499 Q328 499 363 490.5 Q398 482 422 462 Q446 442 459 409.5 Q472 377 472 330 L472 93 Z M421 613 Q421 587 402 568.5 Q383 550 354 550 Q328 550 309.5 568.5 Q291 587 291 613 Q291 640 309.5 658.5 Q328 677 354 677 Q383 677 402 659 Q421 641 421 613 Z M227 613 Q227 587 208.5 568.5 Q190 550 162 550 Q135 550 116.5 568.5 Q98 587 98 613 Q98 640 117 658.5 Q136 677 161 677 Q190 677 208.5 659 Q227 641 227 613 Z " />
<glyph glyph-name="aring" unicode="&#xe5;" horiz-adv-x="565" d="M247 213 Q211 209 193.5 191 Q176 173 176 148 Q176 113 192 96.5 Q208 80 245 80 Q268 80 293.5 91.5 Q319 103 339 122 L339 222 L247 213 Z M472 93 L547 93 L554 18 Q518 2 483 -3 Q448 -8 424 -8 Q392 -8 370.5 3.5 Q349 15 348 55 Q347 55 347 55.5 Q347 56 346 56 Q321 32 296 18.5 Q271 5 249.5 -1 Q228 -7 210 -8.5 Q192 -10 182 -10 Q137 -10 107.5 4 Q78 18 61.5 39.5 Q45 61 38.5 86 Q32 111 32 132 Q32 160 43 185.5 Q54 211 75.5 230.5 Q97 250 129.5 262.5 Q162 275 204 278 L341 287 L341 311 Q341 354 322.5 376.5 Q304 399 251 399 Q215 399 174.5 392 Q134 385 101 374 Q95 395 89 416.5 Q83 438 78 460 Q121 479 177 489 Q233 499 285 499 Q328 499 363 490.5 Q398 482 422 462 Q446 442 459 409.5 Q472 377 472 330 L472 93 Z M280 554 Q254 554 231 563.5 Q208 573 191.5 589.5 Q175 606 165.5 627.5 Q156 649 156 674 Q156 698 165.5 719.5 Q175 741 191.5 757.5 Q208 774 231 783.5 Q254 793 280 793 Q306 793 328 783.5 Q350 774 366 757.5 Q382 741 391 719.5 Q400 698 400 674 Q400 648 390.5 626.5 Q381 605 365 588.5 Q349 572 327 563 Q305 554 280 554 Z M280 728 Q256 728 239.5 711 Q223 694 223 671 Q223 650 238.5 633.5 Q254 617 280 617 Q303 617 318 633.5 Q333 650 333 671 Q333 694 318.5 711 Q304 728 280 728 Z " />
<glyph glyph-name="ae" unicode="&#xe6;" horiz-adv-x="831" d="M588 502 Q659 502 701 477 Q743 452 765 415.5 Q787 379 793.5 337.5 Q800 296 800 263 L800 224 L489 224 Q489 163 515.5 127.5 Q542 92 611 92 Q649 92 686 100 Q723 108 761 122 L787 39 Q740 13 689 2.5 Q638 -8 589 -8 Q515 -8 471.5 10.5 Q428 29 402 66 Q370 39 339.5 24 Q309 9 281.5 1 Q254 -7 231 -9 Q208 -11 190 -11 Q141 -11 110 3.5 Q79 18 61 39.5 Q43 61 36.5 86 Q30 111 30 132 Q30 158 38.5 185 Q47 212 68 233.5 Q89 255 123 269 Q157 283 208 283 L354 283 L354 312 Q354 361 330 380.5 Q306 400 253 400 Q210 400 169 393 Q128 386 95 375 L72 461 Q115 480 172 490.5 Q229 501 281 501 Q303 501 326 497.5 Q349 494 369 485.5 Q389 477 405.5 464 Q422 451 431 433 Q456 465 494.5 483.5 Q533 502 588 502 Z M248 78 Q258 78 273 81 Q288 84 305 90 Q322 96 338.5 105 Q355 114 368 126 Q353 169 352 222 L263 222 Q219 222 196.5 203 Q174 184 174 151 Q174 78 248 78 Z M589 406 Q563 406 545 396 Q527 386 515.5 369 Q504 352 498.5 329.5 Q493 307 492 283 L676 283 Q676 338 657.5 372 Q639 406 589 406 Z " />
<glyph glyph-name="ccedilla" unicode="&#xe7;" horiz-adv-x="494" d="M287 501 Q328 501 368 495 Q408 489 442 476 L442 328 L348 328 L348 394 Q320 399 301 399 Q238 399 209 359 Q180 319 180 244 Q180 161 212.5 126.5 Q245 92 302 92 Q337 92 372 99 Q407 106 438 117 L464 29 Q430 12 380.5 1.5 Q331 -9 280 -9 Q209 -9 162.5 11 Q116 31 89 64.5 Q62 98 51 143.5 Q40 189 40 240 Q40 283 50 329 Q60 375 87 413 Q114 451 162 476 Q210 501 287 501 Z M318 18 Q304 0 289 -19 Q274 -38 260 -58 Q310 -61 339 -82.5 Q368 -104 368 -144 Q368 -165 356.5 -184.5 Q345 -204 322 -219 Q299 -234 262.5 -243 Q226 -252 177 -252 Q177 -240 176.5 -228 Q176 -216 176 -204 Q230 -199 260 -185.5 Q290 -172 290 -149 Q290 -137 282 -130 Q274 -123 260.5 -119 Q247 -115 230.5 -114 Q214 -113 196 -113 Q191 -106 188 -100.5 Q185 -95 180 -89 Q206 -56 230 -23.5 Q254 9 280 41 Q289 34 299 29 Q309 24 318 18 Z " />
<glyph glyph-name="egrave" unicode="&#xe8;" horiz-adv-x="532" d="M279 405 Q254 405 236.5 395.5 Q219 386 207 371 Q195 356 189 337 Q183 318 182 298 L366 298 Q366 319 361.5 338.5 Q357 358 347.5 372.5 Q338 387 321 396 Q304 405 279 405 Z M279 502 Q350 502 392.5 478.5 Q435 455 457.5 419.5 Q480 384 487 342 Q494 300 494 263 L494 213 L180 213 Q179 151 206 121 Q233 91 302 91 Q341 91 378 99 Q415 107 453 122 L483 38 Q435 12 382.5 1 Q330 -10 280 -10 Q207 -10 160.5 11.5 Q114 33 87 68.5 Q60 104 50 149.5 Q40 195 40 244 Q40 284 50.5 329.5 Q61 375 88 413.5 Q115 452 161.5 477 Q208 502 279 502 Z M125 681 Q131 688 142 700 Q153 712 164.5 725 Q176 738 187 750 Q198 762 205 769 Q217 754 237 731.5 Q257 709 279 685.5 Q301 662 321 639.5 Q341 617 354 602 L301 544 L125 681 Z " />
<glyph glyph-name="eacute" unicode="&#xe9;" horiz-adv-x="532" d="M279 405 Q254 405 236.5 395.5 Q219 386 207 371 Q195 356 189 337 Q183 318 182 298 L366 298 Q366 319 361.5 338.5 Q357 358 347.5 372.5 Q338 387 321 396 Q304 405 279 405 Z M279 502 Q350 502 392.5 478.5 Q435 455 457.5 419.5 Q480 384 487 342 Q494 300 494 263 L494 213 L180 213 Q179 151 206 121 Q233 91 302 91 Q341 91 378 99 Q415 107 453 122 L483 38 Q435 12 382.5 1 Q330 -10 280 -10 Q207 -10 160.5 11.5 Q114 33 87 68.5 Q60 104 50 149.5 Q40 195 40 244 Q40 284 50.5 329.5 Q61 375 88 413.5 Q115 452 161.5 477 Q208 502 279 502 Z M244 545 L194 597 L342 767 L418 685 L244 545 Z " />
<glyph glyph-name="ecircumflex" unicode="&#xea;" horiz-adv-x="532" d="M279 405 Q254 405 236.5 395.5 Q219 386 207 371 Q195 356 189 337 Q183 318 182 298 L366 298 Q366 319 361.5 338.5 Q357 358 347.5 372.5 Q338 387 321 396 Q304 405 279 405 Z M279 502 Q350 502 392.5 478.5 Q435 455 457.5 419.5 Q480 384 487 342 Q494 300 494 263 L494 213 L180 213 Q179 151 206 121 Q233 91 302 91 Q341 91 378 99 Q415 107 453 122 L483 38 Q435 12 382.5 1 Q330 -10 280 -10 Q207 -10 160.5 11.5 Q114 33 87 68.5 Q60 104 50 149.5 Q40 195 40 244 Q40 284 50.5 329.5 Q61 375 88 413.5 Q115 452 161.5 477 Q208 502 279 502 Z M445 556 L280 651 L116 555 L83 596 L237 750 L325 750 L481 598 L445 556 Z " />
<glyph glyph-name="edieresis" unicode="&#xeb;" horiz-adv-x="532" d="M279 405 Q254 405 236.5 395.5 Q219 386 207 371 Q195 356 189 337 Q183 318 182 298 L366 298 Q366 319 361.5 338.5 Q357 358 347.5 372.5 Q338 387 321 396 Q304 405 279 405 Z M279 502 Q350 502 392.5 478.5 Q435 455 457.5 419.5 Q480 384 487 342 Q494 300 494 263 L494 213 L180 213 Q179 151 206 121 Q233 91 302 91 Q341 91 378 99 Q415 107 453 122 L483 38 Q435 12 382.5 1 Q330 -10 280 -10 Q207 -10 160.5 11.5 Q114 33 87 68.5 Q60 104 50 149.5 Q40 195 40 244 Q40 284 50.5 329.5 Q61 375 88 413.5 Q115 452 161.5 477 Q208 502 279 502 Z M449 613 Q449 587 430 568.5 Q411 550 382 550 Q356 550 337.5 568.5 Q319 587 319 613 Q319 640 337.5 658.5 Q356 677 382 677 Q411 677 430 659 Q449 641 449 613 Z M255 613 Q255 587 236.5 568.5 Q218 550 190 550 Q163 550 144.5 568.5 Q126 587 126 613 Q126 640 145 658.5 Q164 677 189 677 Q218 677 236.5 659 Q255 641 255 613 Z " />
<glyph glyph-name="igrave" unicode="&#xec;" horiz-adv-x="345" d="M47 401 L47 491 L239 491 L239 96 L310 96 L310 13 Q286 2 254 -3.5 Q222 -9 199 -9 Q145 -9 123.5 13 Q102 35 101 83 L101 401 L47 401 Z M11 681 Q17 688 28 700 Q39 712 50.5 725 Q62 738 73 750 Q84 762 91 769 Q103 754 123 731.5 Q143 709 165 685.5 Q187 662 207 639.5 Q227 617 240 602 L187 544 L11 681 Z " />
<glyph glyph-name="iacute" unicode="&#xed;" horiz-adv-x="345" d="M47 401 L47 491 L239 491 L239 96 L310 96 L310 13 Q286 2 254 -3.5 Q222 -9 199 -9 Q145 -9 123.5 13 Q102 35 101 83 L101 401 L47 401 Z M129 545 L79 597 L227 767 L303 685 L129 545 Z " />
<glyph glyph-name="icircumflex" unicode="&#xee;" horiz-adv-x="345" d="M47 401 L47 491 L239 491 L239 96 L310 96 L310 13 Q286 2 254 -3.5 Q222 -9 199 -9 Q145 -9 123.5 13 Q102 35 101 83 L101 401 L47 401 Z M331 556 L166 651 L2 555 L-31 596 L123 750 L211 750 L367 598 L331 556 Z " />
<glyph glyph-name="idieresis" unicode="&#xef;" horiz-adv-x="345" d="M47 401 L47 491 L239 491 L239 96 L310 96 L310 13 Q286 2 254 -3.5 Q222 -9 199 -9 Q145 -9 123.5 13 Q102 35 101 83 L101 401 L47 401 Z M323 613 Q323 587 304 568.5 Q285 550 256 550 Q230 550 211.5 568.5 Q193 587 193 613 Q193 640 211.5 658.5 Q230 677 256 677 Q285 677 304 659 Q323 641 323 613 Z M129 613 Q129 587 110.5 568.5 Q92 550 64 550 Q37 550 18.5 568.5 Q0 587 0 613 Q0 640 19 658.5 Q38 677 63 677 Q92 677 110.5 659 Q129 641 129 613 Z " />
<glyph glyph-name="eth" unicode="&#xf0;" horiz-adv-x="577" d="M445 716 L474 676 L399 626 Q472 557 506.5 466 Q541 375 535 263 Q533 219 521.5 171 Q510 123 481.5 83 Q453 43 404 17 Q355 -9 280 -9 Q209 -9 163 12 Q117 33 90 66.5 Q63 100 52 141 Q41 182 41 222 Q41 269 56.5 312 Q72 355 101.5 388 Q131 421 173.5 441 Q216 461 270 461 Q294 461 323 456 Q352 451 380 436 Q357 511 309 566 L221 507 L193 547 L274 601 Q253 621 230 638 Q207 655 182 671 L219 741 Q300 706 358 658 L445 716 Z M289 367 Q259 367 238 354.5 Q217 342 204.5 322 Q192 302 186.5 277 Q181 252 181 227 Q181 204 184.5 179.5 Q188 155 199 134.5 Q210 114 231 101 Q252 88 287 88 Q321 88 342.5 104.5 Q364 121 376 146 Q388 171 392.5 200.5 Q397 230 397 256 Q397 277 395.5 295.5 Q394 314 390 337 Q362 354 336 360.5 Q310 367 289 367 Z " />
<glyph glyph-name="ntilde" unicode="&#xf1;" horiz-adv-x="645" d="M393 502 Q444 502 475 486 Q506 470 522.5 445 Q539 420 544.5 390 Q550 360 550 333 L550 95 L620 95 L620 13 Q595 2 564 -3 Q533 -8 509 -8 Q471 -8 451 6 Q431 20 422 38 Q413 56 412 73 Q411 90 411 97 L411 306 Q411 353 396 373 Q381 393 339 393 Q313 393 282.5 381.5 Q252 370 229 354 L229 0 L89 0 L89 398 L23 398 L23 490 L227 490 L227 447 Q229 447 229.5 446.5 Q230 446 232 446 Q273 473 314 487.5 Q355 502 393 502 Z M382 589 Q357 589 332.5 595 Q308 601 285.5 608.5 Q263 616 243.5 622 Q224 628 209 628 L153 589 L112 621 Q129 669 155.5 691 Q182 713 215 713 Q236 713 258.5 707 Q281 701 303.5 694 Q326 687 347.5 681 Q369 675 387 675 L443 716 L484 683 Q469 638 443 613.5 Q417 589 382 589 Z " />
<glyph glyph-name="ograve" unicode="&#xf2;" horiz-adv-x="574" d="M534 245 Q534 194 520 148 Q506 102 476 67 Q446 32 398.5 11.5 Q351 -9 283 -9 Q218 -9 171.5 11 Q125 31 96 65 Q67 99 53.5 145 Q40 191 40 244 Q40 296 54.5 342.5 Q69 389 99.5 424 Q130 459 177 480 Q224 501 289 501 Q355 501 402 480.5 Q449 460 478 424.5 Q507 389 520.5 342.5 Q534 296 534 245 Z M391 244 Q391 272 387 300.5 Q383 329 372 351 Q361 373 341.5 387 Q322 401 291 401 Q259 401 238 387.5 Q217 374 205 352 Q193 330 188 301.5 Q183 273 183 244 Q183 212 187 184 Q191 156 202.5 135 Q214 114 234.5 101.5 Q255 89 288 89 Q319 89 339.5 102 Q360 115 371 137 Q382 159 386.5 186.5 Q391 214 391 244 Z M129 681 Q135 688 146 700 Q157 712 168.5 725 Q180 738 191 750 Q202 762 209 769 Q221 754 241 731.5 Q261 709 283 685.5 Q305 662 325 639.5 Q345 617 358 602 L305 544 L129 681 Z " />
<glyph glyph-name="oacute" unicode="&#xf3;" horiz-adv-x="574" d="M534 245 Q534 194 520 148 Q506 102 476 67 Q446 32 398.5 11.5 Q351 -9 283 -9 Q218 -9 171.5 11 Q125 31 96 65 Q67 99 53.5 145 Q40 191 40 244 Q40 296 54.5 342.5 Q69 389 99.5 424 Q130 459 177 480 Q224 501 289 501 Q355 501 402 480.5 Q449 460 478 424.5 Q507 389 520.5 342.5 Q534 296 534 245 Z M391 244 Q391 272 387 300.5 Q383 329 372 351 Q361 373 341.5 387 Q322 401 291 401 Q259 401 238 387.5 Q217 374 205 352 Q193 330 188 301.5 Q183 273 183 244 Q183 212 187 184 Q191 156 202.5 135 Q214 114 234.5 101.5 Q255 89 288 89 Q319 89 339.5 102 Q360 115 371 137 Q382 159 386.5 186.5 Q391 214 391 244 Z M259 545 L209 597 L357 767 L433 685 L259 545 Z " />
<glyph glyph-name="ocircumflex" unicode="&#xf4;" horiz-adv-x="574" d="M534 245 Q534 194 520 148 Q506 102 476 67 Q446 32 398.5 11.5 Q351 -9 283 -9 Q218 -9 171.5 11 Q125 31 96 65 Q67 99 53.5 145 Q40 191 40 244 Q40 296 54.5 342.5 Q69 389 99.5 424 Q130 459 177 480 Q224 501 289 501 Q355 501 402 480.5 Q449 460 478 424.5 Q507 389 520.5 342.5 Q534 296 534 245 Z M391 244 Q391 272 387 300.5 Q383 329 372 351 Q361 373 341.5 387 Q322 401 291 401 Q259 401 238 387.5 Q217 374 205 352 Q193 330 188 301.5 Q183 273 183 244 Q183 212 187 184 Q191 156 202.5 135 Q214 114 234.5 101.5 Q255 89 288 89 Q319 89 339.5 102 Q360 115 371 137 Q382 159 386.5 186.5 Q391 214 391 244 Z M453 556 L288 651 L124 555 L91 596 L245 750 L333 750 L489 598 L453 556 Z " />
<glyph glyph-name="otilde" unicode="&#xf5;" horiz-adv-x="574" d="M534 245 Q534 194 520 148 Q506 102 476 67 Q446 32 398.5 11.5 Q351 -9 283 -9 Q218 -9 171.5 11 Q125 31 96 65 Q67 99 53.5 145 Q40 191 40 244 Q40 296 54.5 342.5 Q69 389 99.5 424 Q130 459 177 480 Q224 501 289 501 Q355 501 402 480.5 Q449 460 478 424.5 Q507 389 520.5 342.5 Q534 296 534 245 Z M391 244 Q391 272 387 300.5 Q383 329 372 351 Q361 373 341.5 387 Q322 401 291 401 Q259 401 238 387.5 Q217 374 205 352 Q193 330 188 301.5 Q183 273 183 244 Q183 212 187 184 Q191 156 202.5 135 Q214 114 234.5 101.5 Q255 89 288 89 Q319 89 339.5 102 Q360 115 371 137 Q382 159 386.5 186.5 Q391 214 391 244 Z M379 581 Q354 581 329.5 587 Q305 593 282.5 600.5 Q260 608 240.5 614 Q221 620 206 620 L150 581 L109 613 Q126 661 152.5 683 Q179 705 212 705 Q233 705 255.5 699 Q278 693 300.5 686 Q323 679 344.5 673 Q366 667 384 667 L440 708 L481 675 Q466 630 440 605.5 Q414 581 379 581 Z " />
<glyph glyph-name="odieresis" unicode="&#xf6;" horiz-adv-x="574" d="M534 245 Q534 194 520 148 Q506 102 476 67 Q446 32 398.5 11.5 Q351 -9 283 -9 Q218 -9 171.5 11 Q125 31 96 65 Q67 99 53.5 145 Q40 191 40 244 Q40 296 54.5 342.5 Q69 389 99.5 424 Q130 459 177 480 Q224 501 289 501 Q355 501 402 480.5 Q449 460 478 424.5 Q507 389 520.5 342.5 Q534 296 534 245 Z M391 244 Q391 272 387 300.5 Q383 329 372 351 Q361 373 341.5 387 Q322 401 291 401 Q259 401 238 387.5 Q217 374 205 352 Q193 330 188 301.5 Q183 273 183 244 Q183 212 187 184 Q191 156 202.5 135 Q214 114 234.5 101.5 Q255 89 288 89 Q319 89 339.5 102 Q360 115 371 137 Q382 159 386.5 186.5 Q391 214 391 244 Z M451 613 Q451 587 432 568.5 Q413 550 384 550 Q358 550 339.5 568.5 Q321 587 321 613 Q321 640 339.5 658.5 Q358 677 384 677 Q413 677 432 659 Q451 641 451 613 Z M257 613 Q257 587 238.5 568.5 Q220 550 192 550 Q165 550 146.5 568.5 Q128 587 128 613 Q128 640 147 658.5 Q166 677 191 677 Q220 677 238.5 659 Q257 641 257 613 Z " />
<glyph glyph-name="divide" unicode="&#xf7;" horiz-adv-x="597" d="M364 474 Q364 447 344.5 427.5 Q325 408 299 408 Q272 408 252.5 428 Q233 448 233 474 Q233 501 252 520 Q271 539 299 539 Q326 539 345 520 Q364 501 364 474 Z M90 261 L90 344 L507 344 L507 261 L90 261 Z M364 131 Q364 104 344.5 84.5 Q325 65 299 65 Q272 65 252.5 85 Q233 105 233 131 Q233 159 252 177.5 Q271 196 299 196 Q326 196 345 177.5 Q364 159 364 131 Z " />
<glyph glyph-name="oslash" unicode="&#xf8;" horiz-adv-x="574" d="M288 500 Q337 500 374.5 488 Q412 476 441 455 Q451 466 458 473.5 Q465 481 474 493 L530 493 L473 429 Q505 393 519 345.5 Q533 298 533 244 Q533 193 519.5 147 Q506 101 476 66.5 Q446 32 398 12 Q350 -8 282 -8 Q186 -8 128 33 Q120 23 114.5 16 Q109 9 100 0 L43 0 Q58 17 69.5 30.5 Q81 44 96 61 Q66 96 53 142.5 Q40 189 40 243 Q40 295 54.5 341.5 Q69 388 99 423 Q129 458 176 479 Q223 500 288 500 Z M389 243 Q389 263 386.5 285.5 Q384 308 376 326 Q334 274 293 222.5 Q252 171 210 119 Q223 105 241.5 96 Q260 87 288 87 Q319 87 339 100 Q359 113 370 135 Q381 157 385 185 Q389 213 389 243 Z M288 402 Q258 402 238 389.5 Q218 377 205.5 356 Q193 335 187.5 308.5 Q182 282 182 254 Q182 230 184.5 207 Q187 184 195 164 L359 369 Q348 384 331 393 Q314 402 288 402 Z " />
<glyph glyph-name="ugrave" unicode="&#xf9;" horiz-adv-x="635" d="M242 -11 Q198 -11 169 1 Q140 13 122.5 34.5 Q105 56 97.5 85 Q90 114 90 148 L90 397 L24 397 L24 490 L230 490 L230 177 Q230 139 241.5 119 Q253 99 294 99 Q314 99 344.5 109.5 Q375 120 402 146 L402 397 L345 397 L345 490 L542 490 L542 95 L608 95 L608 13 Q573 1 544.5 -3.5 Q516 -8 497 -8 Q452 -8 432.5 7.5 Q413 23 408 58 Q366 20 323 4.5 Q280 -11 242 -11 Z M152 681 Q158 688 169 700 Q180 712 191.5 725 Q203 738 214 750 Q225 762 232 769 Q244 754 264 731.5 Q284 709 306 685.5 Q328 662 348 639.5 Q368 617 381 602 L328 544 L152 681 Z " />
<glyph glyph-name="uacute" unicode="&#xfa;" horiz-adv-x="635" d="M242 -11 Q198 -11 169 1 Q140 13 122.5 34.5 Q105 56 97.5 85 Q90 114 90 148 L90 397 L24 397 L24 490 L230 490 L230 177 Q230 139 241.5 119 Q253 99 294 99 Q314 99 344.5 109.5 Q375 120 402 146 L402 397 L345 397 L345 490 L542 490 L542 95 L608 95 L608 13 Q573 1 544.5 -3.5 Q516 -8 497 -8 Q452 -8 432.5 7.5 Q413 23 408 58 Q366 20 323 4.5 Q280 -11 242 -11 Z M270 545 L220 597 L368 767 L444 685 L270 545 Z " />
<glyph glyph-name="ucircumflex" unicode="&#xfb;" horiz-adv-x="635" d="M242 -11 Q198 -11 169 1 Q140 13 122.5 34.5 Q105 56 97.5 85 Q90 114 90 148 L90 397 L24 397 L24 490 L230 490 L230 177 Q230 139 241.5 119 Q253 99 294 99 Q314 99 344.5 109.5 Q375 120 402 146 L402 397 L345 397 L345 490 L542 490 L542 95 L608 95 L608 13 Q573 1 544.5 -3.5 Q516 -8 497 -8 Q452 -8 432.5 7.5 Q413 23 408 58 Q366 20 323 4.5 Q280 -11 242 -11 Z M473 556 L308 651 L144 555 L111 596 L265 750 L353 750 L509 598 L473 556 Z " />
<glyph glyph-name="udieresis" unicode="&#xfc;" horiz-adv-x="635" d="M242 -11 Q198 -11 169 1 Q140 13 122.5 34.5 Q105 56 97.5 85 Q90 114 90 148 L90 397 L24 397 L24 490 L230 490 L230 177 Q230 139 241.5 119 Q253 99 294 99 Q314 99 344.5 109.5 Q375 120 402 146 L402 397 L345 397 L345 490 L542 490 L542 95 L608 95 L608 13 Q573 1 544.5 -3.5 Q516 -8 497 -8 Q452 -8 432.5 7.5 Q413 23 408 58 Q366 20 323 4.5 Q280 -11 242 -11 Z M466 613 Q466 587 447 568.5 Q428 550 399 550 Q373 550 354.5 568.5 Q336 587 336 613 Q336 640 354.5 658.5 Q373 677 399 677 Q428 677 447 659 Q466 641 466 613 Z M272 613 Q272 587 253.5 568.5 Q235 550 207 550 Q180 550 161.5 568.5 Q143 587 143 613 Q143 640 162 658.5 Q181 677 206 677 Q235 677 253.5 659 Q272 641 272 613 Z " />
<glyph glyph-name="yacute" unicode="&#xfd;" horiz-adv-x="595" d="M23 397 L23 490 L257 490 L257 397 L203 397 L293 101 L297 101 Q301 116 314.5 157 Q328 198 343 245.5 Q358 293 372 336 Q386 379 392 397 L338 397 L338 490 L572 490 L572 397 L525 397 L344 -111 Q326 -162 294 -188.5 Q262 -215 196 -215 Q193 -215 181 -214.5 Q169 -214 151 -212.5 Q133 -211 111 -207 Q89 -203 66 -195 L85 -95 Q106 -99 124.5 -101.5 Q143 -104 160 -104 Q193 -104 207 -94.5 Q221 -85 229 -66 L259 11 L196 11 L71 397 L23 397 Z M287 545 L237 597 L385 767 L461 685 L287 545 Z " />
<glyph glyph-name="thorn" unicode="&#xfe;" horiz-adv-x="607" d="M15 -120 L84 -120 L84 597 L14 597 L14 687 L220 687 L220 449 Q221 449 221 448.5 Q221 448 222 448 Q254 472 294.5 484.5 Q335 497 367 497 Q424 497 462 478 Q500 459 523.5 426 Q547 393 556.5 348.5 Q566 304 566 254 Q566 197 555 148.5 Q544 100 519 64.5 Q494 29 454 9.5 Q414 -10 356 -10 Q344 -10 327 -8 Q310 -6 292 -2.5 Q274 1 256.5 6.5 Q239 12 224 20 L224 -120 L296 -120 L296 -209 L15 -209 L15 -120 Z M224 117 Q241 106 269.5 97.5 Q298 89 324 89 Q343 89 361.5 96 Q380 103 394.5 122 Q409 141 418 172.5 Q427 204 427 254 Q427 298 419 326 Q411 354 397.5 370 Q384 386 366 392 Q348 398 327 398 Q315 398 301 395 Q287 392 272.5 386.5 Q258 381 245.5 374 Q233 367 224 360 L224 117 Z " />
<glyph glyph-name="ydieresis" unicode="&#xff;" horiz-adv-x="595" d="M23 397 L23 490 L257 490 L257 397 L203 397 L293 101 L297 101 Q301 116 314.5 157 Q328 198 343 245.5 Q358 293 372 336 Q386 379 392 397 L338 397 L338 490 L572 490 L572 397 L525 397 L344 -111 Q326 -162 294 -188.5 Q262 -215 196 -215 Q193 -215 181 -214.5 Q169 -214 151 -212.5 Q133 -211 111 -207 Q89 -203 66 -195 L85 -95 Q106 -99 124.5 -101.5 Q143 -104 160 -104 Q193 -104 207 -94.5 Q221 -85 229 -66 L259 11 L196 11 L71 397 L23 397 Z M461 613 Q461 587 442 568.5 Q423 550 394 550 Q368 550 349.5 568.5 Q331 587 331 613 Q331 640 349.5 658.5 Q368 677 394 677 Q423 677 442 659 Q461 641 461 613 Z M267 613 Q267 587 248.5 568.5 Q230 550 202 550 Q175 550 156.5 568.5 Q138 587 138 613 Q138 640 157 658.5 Q176 677 201 677 Q230 677 248.5 659 Q267 641 267 613 Z " />
<glyph glyph-name="Amacron" unicode="&#x100;" horiz-adv-x="736" d="M516 94 Q509 117 501 143 Q493 169 486 190 L241 190 Q235 171 226 144 Q217 117 211 94 L276 94 L276 0 L20 0 L20 94 L75 94 Q100 164 126.5 239.5 Q153 315 179.5 391.5 Q206 468 232.5 543 Q259 618 283 687 L460 687 Q509 541 560.5 390.5 Q612 240 661 94 L716 94 L716 0 L453 0 L453 94 L516 94 Z M383 521 Q380 534 376 546.5 Q372 559 368 573 L365 573 Q363 568 360 557 Q357 546 349 520 Q341 495 331 464 Q321 433 310.5 401 Q300 369 290 338 Q280 307 272 282 L458 282 L383 521 Z M201 890 L555 890 L555 799 L201 799 L201 890 Z " />
<glyph glyph-name="amacron" unicode="&#x101;" horiz-adv-x="565" d="M247 213 Q211 209 193.5 191 Q176 173 176 148 Q176 113 192 96.5 Q208 80 245 80 Q268 80 293.5 91.5 Q319 103 339 122 L339 222 L247 213 Z M472 93 L547 93 L554 18 Q518 2 483 -3 Q448 -8 424 -8 Q392 -8 370.5 3.5 Q349 15 348 55 Q347 55 347 55.5 Q347 56 346 56 Q321 32 296 18.5 Q271 5 249.5 -1 Q228 -7 210 -8.5 Q192 -10 182 -10 Q137 -10 107.5 4 Q78 18 61.5 39.5 Q45 61 38.5 86 Q32 111 32 132 Q32 160 43 185.5 Q54 211 75.5 230.5 Q97 250 129.5 262.5 Q162 275 204 278 L341 287 L341 311 Q341 354 322.5 376.5 Q304 399 251 399 Q215 399 174.5 392 Q134 385 101 374 Q95 395 89 416.5 Q83 438 78 460 Q121 479 177 489 Q233 499 285 499 Q328 499 363 490.5 Q398 482 422 462 Q446 442 459 409.5 Q472 377 472 330 L472 93 Z M91 687 L454 687 L454 596 L91 596 L91 687 Z " />
<glyph glyph-name="Abreve" unicode="&#x102;" horiz-adv-x="736" d="M516 94 Q509 117 501 143 Q493 169 486 190 L241 190 Q235 171 226 144 Q217 117 211 94 L276 94 L276 0 L20 0 L20 94 L75 94 Q100 164 126.5 239.5 Q153 315 179.5 391.5 Q206 468 232.5 543 Q259 618 283 687 L460 687 Q509 541 560.5 390.5 Q612 240 661 94 L716 94 L716 0 L453 0 L453 94 L516 94 Z M383 521 Q380 534 376 546.5 Q372 559 368 573 L365 573 Q363 568 360 557 Q357 546 349 520 Q341 495 331 464 Q321 433 310.5 401 Q300 369 290 338 Q280 307 272 282 L458 282 L383 521 Z M369 759 Q339 759 313 770 Q287 781 264.5 799.5 Q242 818 222 842.5 Q202 867 185 894 L243 940 Q274 896 309.5 873.5 Q345 851 373 851 Q382 851 395.5 852.5 Q409 854 428 862.5 Q447 871 470.5 887.5 Q494 904 524 934 L562 894 Q539 856 514 830 Q489 804 464.5 788 Q440 772 415.5 765.5 Q391 759 369 759 Z " />
<glyph glyph-name="abreve" unicode="&#x103;" horiz-adv-x="565" d="M247 213 Q211 209 193.5 191 Q176 173 176 148 Q176 113 192 96.5 Q208 80 245 80 Q268 80 293.5 91.5 Q319 103 339 122 L339 222 L247 213 Z M472 93 L547 93 L554 18 Q518 2 483 -3 Q448 -8 424 -8 Q392 -8 370.5 3.5 Q349 15 348 55 Q347 55 347 55.5 Q347 56 346 56 Q321 32 296 18.5 Q271 5 249.5 -1 Q228 -7 210 -8.5 Q192 -10 182 -10 Q137 -10 107.5 4 Q78 18 61.5 39.5 Q45 61 38.5 86 Q32 111 32 132 Q32 160 43 185.5 Q54 211 75.5 230.5 Q97 250 129.5 262.5 Q162 275 204 278 L341 287 L341 311 Q341 354 322.5 376.5 Q304 399 251 399 Q215 399 174.5 392 Q134 385 101 374 Q95 395 89 416.5 Q83 438 78 460 Q121 479 177 489 Q233 499 285 499 Q328 499 363 490.5 Q398 482 422 462 Q446 442 459 409.5 Q472 377 472 330 L472 93 Z M277 564 Q247 564 220.5 575.5 Q194 587 171 606.5 Q148 626 128 651 Q108 676 91 703 L151 750 Q183 705 218 683 Q253 661 280 661 Q289 661 302 663 Q315 665 333 673 Q351 681 375 697.5 Q399 714 431 743 L474 702 Q450 663 424.5 637 Q399 611 373.5 594.5 Q348 578 323.5 571 Q299 564 277 564 Z " />
<glyph glyph-name="Aogonek" unicode="&#x104;" horiz-adv-x="736" d="M516 94 Q509 117 501 143 Q493 169 486 190 L241 190 Q235 171 226 144 Q217 117 211 94 L276 94 L276 0 L20 0 L20 94 L75 94 Q100 164 126.5 239.5 Q153 315 179.5 391.5 Q206 468 232.5 543 Q259 618 283 687 L460 687 Q509 541 560.5 390.5 Q612 240 661 94 L716 94 L716 0 L453 0 L453 94 L516 94 Z M383 521 Q380 534 376 546.5 Q372 559 368 573 L365 573 Q363 568 360 557 Q357 546 349 520 Q341 495 331 464 Q321 433 310.5 401 Q300 369 290 338 Q280 307 272 282 L458 282 L383 521 Z M612 36 Q618 31 624.5 27 Q631 23 637 18 Q611 -12 593.5 -49 Q576 -86 575 -113 Q575 -163 630 -163 Q650 -163 670 -159 Q690 -155 707 -150 Q709 -161 711.5 -172 Q714 -183 716 -194 Q689 -208 658 -216 Q627 -224 597 -224 Q545 -224 518 -202.5 Q491 -181 491 -143 Q491 -127 496 -106 Q501 -85 514.5 -61.5 Q528 -38 551.5 -13 Q575 12 612 36 Z " />
<glyph glyph-name="aogonek" unicode="&#x105;" horiz-adv-x="565" d="M247 213 Q211 209 193.5 191 Q176 173 176 148 Q176 113 192 96.5 Q208 80 245 80 Q268 80 293.5 91.5 Q319 103 339 122 L339 222 L247 213 Z M472 93 L547 93 L554 18 Q518 2 483 -3 Q448 -8 424 -8 Q392 -8 370.5 3.5 Q349 15 348 55 Q347 55 347 55.5 Q347 56 346 56 Q321 32 296 18.5 Q271 5 249.5 -1 Q228 -7 210 -8.5 Q192 -10 182 -10 Q137 -10 107.5 4 Q78 18 61.5 39.5 Q45 61 38.5 86 Q32 111 32 132 Q32 160 43 185.5 Q54 211 75.5 230.5 Q97 250 129.5 262.5 Q162 275 204 278 L341 287 L341 311 Q341 354 322.5 376.5 Q304 399 251 399 Q215 399 174.5 392 Q134 385 101 374 Q95 395 89 416.5 Q83 438 78 460 Q121 479 177 489 Q233 499 285 499 Q328 499 363 490.5 Q398 482 422 462 Q446 442 459 409.5 Q472 377 472 330 L472 93 Z M462 42 Q468 37 474.5 33 Q481 29 487 24 Q461 -6 443.5 -43 Q426 -80 425 -107 Q425 -157 480 -157 Q500 -157 520 -153 Q540 -149 557 -144 Q559 -155 561.5 -166 Q564 -177 566 -188 Q539 -202 508 -210 Q477 -218 447 -218 Q395 -218 368 -196.5 Q341 -175 341 -137 Q341 -121 346 -100 Q351 -79 364.5 -55.5 Q378 -32 401.5 -7 Q425 18 462 42 Z " />
<glyph glyph-name="Cacute" unicode="&#x106;" horiz-adv-x="623" d="M201 345 Q201 284 211.5 239 Q222 194 246 164 Q270 134 309.5 119.5 Q349 105 406 105 Q418 105 437.5 106 Q457 107 479 109.5 Q501 112 524 116 Q547 120 566 126 L588 26 Q567 18 540.5 11 Q514 4 485.5 -0.5 Q457 -5 428 -7.5 Q399 -10 373 -10 Q279 -10 216.5 17.5 Q154 45 117 92.5 Q80 140 65 204 Q50 268 50 342 Q50 402 64 466 Q78 530 115 582 Q152 634 217 667.5 Q282 701 383 701 Q438 701 483 693.5 Q528 686 566 673 L566 480 L465 480 L465 583 Q445 588 424.5 590 Q404 592 386 592 Q336 592 300.5 574.5 Q265 557 243 524.5 Q221 492 211 446.5 Q201 401 201 345 Z M358 743 L311 792 L458 961 L534 882 L358 743 Z " />
<glyph glyph-name="cacute" unicode="&#x107;" horiz-adv-x="494" d="M287 501 Q328 501 368 495 Q408 489 442 476 L442 328 L348 328 L348 394 Q320 399 301 399 Q238 399 209 359 Q180 319 180 244 Q180 161 212.5 126.5 Q245 92 302 92 Q337 92 372 99 Q407 106 438 117 L464 29 Q430 12 380.5 1.5 Q331 -9 280 -9 Q209 -9 162.5 11 Q116 31 89 64.5 Q62 98 51 143.5 Q40 189 40 240 Q40 283 50 329 Q60 375 87 413 Q114 451 162 476 Q210 501 287 501 Z M231 545 L181 597 L329 767 L405 685 L231 545 Z " />
<glyph glyph-name="Ccircumflex" unicode="&#x108;" horiz-adv-x="623" d="M201 345 Q201 284 211.5 239 Q222 194 246 164 Q270 134 309.5 119.5 Q349 105 406 105 Q418 105 437.5 106 Q457 107 479 109.5 Q501 112 524 116 Q547 120 566 126 L588 26 Q567 18 540.5 11 Q514 4 485.5 -0.5 Q457 -5 428 -7.5 Q399 -10 373 -10 Q279 -10 216.5 17.5 Q154 45 117 92.5 Q80 140 65 204 Q50 268 50 342 Q50 402 64 466 Q78 530 115 582 Q152 634 217 667.5 Q282 701 383 701 Q438 701 483 693.5 Q528 686 566 673 L566 480 L465 480 L465 583 Q445 588 424.5 590 Q404 592 386 592 Q336 592 300.5 574.5 Q265 557 243 524.5 Q221 492 211 446.5 Q201 401 201 345 Z M526 737 L361 828 L198 736 L164 777 L318 924 L406 924 L561 778 L526 737 Z " />
<glyph glyph-name="ccircumflex" unicode="&#x109;" horiz-adv-x="494" d="M287 501 Q328 501 368 495 Q408 489 442 476 L442 328 L348 328 L348 394 Q320 399 301 399 Q238 399 209 359 Q180 319 180 244 Q180 161 212.5 126.5 Q245 92 302 92 Q337 92 372 99 Q407 106 438 117 L464 29 Q430 12 380.5 1.5 Q331 -9 280 -9 Q209 -9 162.5 11 Q116 31 89 64.5 Q62 98 51 143.5 Q40 189 40 240 Q40 283 50 329 Q60 375 87 413 Q114 451 162 476 Q210 501 287 501 Z M435 556 L270 651 L106 555 L73 596 L227 750 L315 750 L471 598 L435 556 Z " />
<glyph glyph-name="Cdotaccent" unicode="&#x10a;" horiz-adv-x="623" d="M201 345 Q201 284 211.5 239 Q222 194 246 164 Q270 134 309.5 119.5 Q349 105 406 105 Q418 105 437.5 106 Q457 107 479 109.5 Q501 112 524 116 Q547 120 566 126 L588 26 Q567 18 540.5 11 Q514 4 485.5 -0.5 Q457 -5 428 -7.5 Q399 -10 373 -10 Q279 -10 216.5 17.5 Q154 45 117 92.5 Q80 140 65 204 Q50 268 50 342 Q50 402 64 466 Q78 530 115 582 Q152 634 217 667.5 Q282 701 383 701 Q438 701 483 693.5 Q528 686 566 673 L566 480 L465 480 L465 583 Q445 588 424.5 590 Q404 592 386 592 Q336 592 300.5 574.5 Q265 557 243 524.5 Q221 492 211 446.5 Q201 401 201 345 Z M444 857 Q444 823 423 800.5 Q402 778 362 778 Q323 778 303 800.5 Q283 823 283 857 Q283 892 303 914.5 Q323 937 362 937 Q402 937 423 914.5 Q444 892 444 857 Z " />
<glyph glyph-name="cdotaccent" unicode="&#x10b;" horiz-adv-x="494" d="M287 501 Q328 501 368 495 Q408 489 442 476 L442 328 L348 328 L348 394 Q320 399 301 399 Q238 399 209 359 Q180 319 180 244 Q180 161 212.5 126.5 Q245 92 302 92 Q337 92 372 99 Q407 106 438 117 L464 29 Q430 12 380.5 1.5 Q331 -9 280 -9 Q209 -9 162.5 11 Q116 31 89 64.5 Q62 98 51 143.5 Q40 189 40 240 Q40 283 50 329 Q60 375 87 413 Q114 451 162 476 Q210 501 287 501 Z M356.242 656.822 Q356.242 624.022 337.466 602.315 Q318.69 580.609 282.926 580.609 Q248.055 580.609 230.173 602.315 Q212.291 624.022 212.291 656.822 Q212.291 690.587 230.173 712.294 Q248.055 734 282.926 734 Q318.69 734 337.466 712.294 Q356.242 690.587 356.242 656.822 Z " />
<glyph glyph-name="Ccaron" unicode="&#x10c;" horiz-adv-x="623" d="M201 345 Q201 284 211.5 239 Q222 194 246 164 Q270 134 309.5 119.5 Q349 105 406 105 Q418 105 437.5 106 Q457 107 479 109.5 Q501 112 524 116 Q547 120 566 126 L588 26 Q567 18 540.5 11 Q514 4 485.5 -0.5 Q457 -5 428 -7.5 Q399 -10 373 -10 Q279 -10 216.5 17.5 Q154 45 117 92.5 Q80 140 65 204 Q50 268 50 342 Q50 402 64 466 Q78 530 115 582 Q152 634 217 667.5 Q282 701 383 701 Q438 701 483 693.5 Q528 686 566 673 L566 480 L465 480 L465 583 Q445 588 424.5 590 Q404 592 386 592 Q336 592 300.5 574.5 Q265 557 243 524.5 Q221 492 211 446.5 Q201 401 201 345 Z M560 896 L404 751 L317 751 L163 898 L197 937 L360 845 L525 938 L560 896 Z " />
<glyph glyph-name="ccaron" unicode="&#x10d;" horiz-adv-x="494" d="M287 501 Q328 501 368 495 Q408 489 442 476 L442 328 L348 328 L348 394 Q320 399 301 399 Q238 399 209 359 Q180 319 180 244 Q180 161 212.5 126.5 Q245 92 302 92 Q337 92 372 99 Q407 106 438 117 L464 29 Q430 12 380.5 1.5 Q331 -9 280 -9 Q209 -9 162.5 11 Q116 31 89 64.5 Q62 98 51 143.5 Q40 189 40 240 Q40 283 50 329 Q60 375 87 413 Q114 451 162 476 Q210 501 287 501 Z M481 712 L325 558 L238 558 L83 713 L116 753 L281 656 L445 753 L481 712 Z " />
<glyph glyph-name="Dcaron" unicode="&#x10e;" horiz-adv-x="729" d="M43 0 L43 95 L115 95 L115 591 L47 591 L47 688 L373 688 Q464 688 523 660.5 Q582 633 616.5 586 Q651 539 665 477 Q679 415 679 346 Q679 277 663.5 214 Q648 151 612 103.5 Q576 56 516 28 Q456 0 367 0 L43 0 Z M260 591 L260 95 L352 95 Q379 95 410 105 Q441 115 467.5 142 Q494 169 511 217 Q528 265 528 341 Q528 418 512 467 Q496 516 471 543.5 Q446 571 414.5 581 Q383 591 353 591 L260 591 Z M524 896 L368 751 L281 751 L127 898 L161 937 L324 845 L489 938 L524 896 Z " />
<glyph glyph-name="dcaron" unicode="&#x10f;" horiz-adv-x="751" d="M592 682 Q592 708 612 726.5 Q632 745 663 745 Q700 745 718 721.5 Q736 698 735 668 Q734 621 703 579.5 Q672 538 627 517 L595 556 Q635 588 638 625 Q615 630 603.5 644.5 Q592 659 592 682 Z M389 43 Q373 30 353.5 20.5 Q334 11 314 4.5 Q294 -2 274.5 -5.5 Q255 -9 239 -9 Q182 -9 144 10.5 Q106 30 82.5 63 Q59 96 49.5 140.5 Q40 185 40 235 Q40 292 51 341 Q62 390 87 426 Q112 462 152 482.5 Q192 503 250 503 Q276 503 313 497 Q350 491 383 474 L383 623 L309 623 L309 716 L522 716 L522 92 L591 92 L591 0 L391 0 L391 42 L389 43 Z M282 401 Q263 401 244.5 394.5 Q226 388 212 370 Q198 352 189 320 Q180 288 180 237 Q180 192 187.5 164 Q195 136 208.5 120 Q222 104 240.5 98 Q259 92 280 92 Q306 92 335.5 104 Q365 116 383 130 L383 373 Q366 384 337 392.5 Q308 401 282 401 Z " />
<glyph glyph-name="Dcroat" unicode="&#x110;" horiz-adv-x="729" d="M43 0 L43 95 L115 95 L115 330 L47 330 L47 394 L115 394 L115 591 L47 591 L47 688 L373 688 Q464 688 523 660.5 Q582 633 616.5 586 Q651 539 665 477 Q679 415 679 346 Q679 277 663.5 214 Q648 151 612 103.5 Q576 56 516 28 Q456 0 367 0 L43 0 Z M260 591 L260 394 L377 394 L377 330 L260 330 L260 95 L352 95 Q379 95 410 105 Q441 115 467.5 142 Q494 169 511 217 Q528 265 528 341 Q528 418 512 467 Q496 516 471 543.5 Q446 571 414.5 581 Q383 591 353 591 L260 591 Z " />
<glyph glyph-name="dcroat" unicode="&#x111;" horiz-adv-x="610" d="M387 44 Q371 31 352 21 Q333 11 313.5 4.5 Q294 -2 274.5 -5.5 Q255 -9 239 -9 Q182 -9 144 9.5 Q106 28 82.5 60 Q59 92 49.5 136 Q40 180 40 230 Q40 285 51 331.5 Q62 378 87 411.5 Q112 445 152 463.5 Q192 482 250 482 Q263 482 279.5 480 Q296 478 314 474 Q332 470 350 463.5 Q368 457 383 449 L383 527 L251 527 L251 580 L383 580 L383 631 L309 631 L309 716 L522 716 L522 580 L589 580 L589 527 L522 527 L522 90 L591 90 L591 0 L389 0 L389 42 L387 44 Z M282 383 Q263 383 245 377 Q227 371 212.5 355 Q198 339 189 311 Q180 283 180 239 Q180 212 183 185.5 Q186 159 196.5 138 Q207 117 227 104 Q247 91 280 91 Q291 91 305 94 Q319 97 333.5 102.5 Q348 108 361 114.5 Q374 121 383 128 L383 354 Q366 365 337 374 Q308 383 282 383 Z " />
<glyph glyph-name="Emacron" unicode="&#x112;" horiz-adv-x="649" d="M43 0 L43 96 L112 96 L112 592 L44 592 L44 687 L604 687 L604 485 L503 485 L503 592 L256 592 L256 400 L486 406 L486 307 L256 313 L256 96 L515 96 L515 208 L617 208 L617 0 L43 0 Z M179 890 L533 890 L533 799 L179 799 L179 890 Z " />
<glyph glyph-name="emacron" unicode="&#x113;" horiz-adv-x="532" d="M279 405 Q254 405 236.5 395.5 Q219 386 207 371 Q195 356 189 337 Q183 318 182 298 L366 298 Q366 319 361.5 338.5 Q357 358 347.5 372.5 Q338 387 321 396 Q304 405 279 405 Z M279 502 Q350 502 392.5 478.5 Q435 455 457.5 419.5 Q480 384 487 342 Q494 300 494 263 L494 213 L180 213 Q179 151 206 121 Q233 91 302 91 Q341 91 378 99 Q415 107 453 122 L483 38 Q435 12 382.5 1 Q330 -10 280 -10 Q207 -10 160.5 11.5 Q114 33 87 68.5 Q60 104 50 149.5 Q40 195 40 244 Q40 284 50.5 329.5 Q61 375 88 413.5 Q115 452 161.5 477 Q208 502 279 502 Z M96 687 L459 687 L459 596 L96 596 L96 687 Z " />
<glyph glyph-name="Ebreve" unicode="&#x114;" horiz-adv-x="649" d="M43 0 L43 96 L112 96 L112 592 L44 592 L44 687 L604 687 L604 485 L503 485 L503 592 L256 592 L256 400 L486 406 L486 307 L256 313 L256 96 L515 96 L515 208 L617 208 L617 0 L43 0 Z M347 759 Q317 759 291 770 Q265 781 242.5 799.5 Q220 818 200 842.5 Q180 867 163 894 L221 940 Q252 896 287.5 873.5 Q323 851 351 851 Q360 851 373.5 852.5 Q387 854 406 862.5 Q425 871 448.5 887.5 Q472 904 502 934 L540 894 Q517 856 492 830 Q467 804 442.5 788 Q418 772 393.5 765.5 Q369 759 347 759 Z " />
<glyph glyph-name="ebreve" unicode="&#x115;" horiz-adv-x="532" d="M279 405 Q254 405 236.5 395.5 Q219 386 207 371 Q195 356 189 337 Q183 318 182 298 L366 298 Q366 319 361.5 338.5 Q357 358 347.5 372.5 Q338 387 321 396 Q304 405 279 405 Z M279 502 Q350 502 392.5 478.5 Q435 455 457.5 419.5 Q480 384 487 342 Q494 300 494 263 L494 213 L180 213 Q179 151 206 121 Q233 91 302 91 Q341 91 378 99 Q415 107 453 122 L483 38 Q435 12 382.5 1 Q330 -10 280 -10 Q207 -10 160.5 11.5 Q114 33 87 68.5 Q60 104 50 149.5 Q40 195 40 244 Q40 284 50.5 329.5 Q61 375 88 413.5 Q115 452 161.5 477 Q208 502 279 502 Z M277 564 Q247 564 220.5 575.5 Q194 587 171 606.5 Q148 626 128 651 Q108 676 91 703 L151 750 Q183 705 218 683 Q253 661 280 661 Q289 661 302 663 Q315 665 333 673 Q351 681 375 697.5 Q399 714 431 743 L474 702 Q450 663 424.5 637 Q399 611 373.5 594.5 Q348 578 323.5 571 Q299 564 277 564 Z " />
<glyph glyph-name="Edotaccent" unicode="&#x116;" horiz-adv-x="649" d="M43 0 L43 96 L112 96 L112 592 L44 592 L44 687 L604 687 L604 485 L503 485 L503 592 L256 592 L256 400 L486 406 L486 307 L256 313 L256 96 L515 96 L515 208 L617 208 L617 0 L43 0 Z M422 851 Q422 817 401 794.5 Q380 772 340 772 Q301 772 281 794.5 Q261 817 261 851 Q261 886 281 908.5 Q301 931 340 931 Q380 931 401 908.5 Q422 886 422 851 Z " />
<glyph glyph-name="edotaccent" unicode="&#x117;" horiz-adv-x="532" d="M279 405 Q254 405 236.5 395.5 Q219 386 207 371 Q195 356 189 337 Q183 318 182 298 L366 298 Q366 319 361.5 338.5 Q357 358 347.5 372.5 Q338 387 321 396 Q304 405 279 405 Z M279 502 Q350 502 392.5 478.5 Q435 455 457.5 419.5 Q480 384 487 342 Q494 300 494 263 L494 213 L180 213 Q179 151 206 121 Q233 91 302 91 Q341 91 378 99 Q415 107 453 122 L483 38 Q435 12 382.5 1 Q330 -10 280 -10 Q207 -10 160.5 11.5 Q114 33 87 68.5 Q60 104 50 149.5 Q40 195 40 244 Q40 284 50.5 329.5 Q61 375 88 413.5 Q115 452 161.5 477 Q208 502 279 502 Z M366 657 Q366 623 345 600.5 Q324 578 284 578 Q245 578 225 600.5 Q205 623 205 657 Q205 692 225 714.5 Q245 737 284 737 Q324 737 345 714.5 Q366 692 366 657 Z " />
<glyph glyph-name="Eogonek" unicode="&#x118;" horiz-adv-x="649" d="M43 0 L43 96 L112 96 L112 592 L44 592 L44 687 L604 687 L604 485 L503 485 L503 592 L256 592 L256 400 L486 406 L486 307 L256 313 L256 96 L515 96 L515 208 L617 208 L617 0 L43 0 Z M550 39 Q556 34 562.5 30 Q569 26 575 21 Q549 -9 531.5 -46 Q514 -83 513 -110 Q513 -160 568 -160 Q588 -160 608 -156 Q628 -152 645 -147 Q647 -158 649.5 -169 Q652 -180 654 -191 Q627 -205 596 -213 Q565 -221 535 -221 Q483 -221 456 -199.5 Q429 -178 429 -140 Q429 -124 434 -103 Q439 -82 452.5 -58.5 Q466 -35 489.5 -10 Q513 15 550 39 Z " />
<glyph glyph-name="eogonek" unicode="&#x119;" horiz-adv-x="532" d="M279 405 Q254 405 236.5 395.5 Q219 386 207 371 Q195 356 189 337 Q183 318 182 298 L366 298 Q366 319 361.5 338.5 Q357 358 347.5 372.5 Q338 387 321 396 Q304 405 279 405 Z M279 502 Q350 502 392.5 478.5 Q435 455 457.5 419.5 Q480 384 487 342 Q494 300 494 263 L494 213 L180 213 Q179 151 206 121 Q233 91 302 91 Q341 91 378 99 Q415 107 453 122 L483 38 Q435 12 382.5 1 Q330 -10 280 -10 Q207 -10 160.5 11.5 Q114 33 87 68.5 Q60 104 50 149.5 Q40 195 40 244 Q40 284 50.5 329.5 Q61 375 88 413.5 Q115 452 161.5 477 Q208 502 279 502 Z M428 69 Q434 64 440.5 60 Q447 56 453 51 Q427 21 409.5 -16 Q392 -53 391 -80 Q391 -130 446 -130 Q466 -130 486 -126 Q506 -122 523 -117 Q525 -128 527.5 -139 Q530 -150 532 -161 Q505 -175 474 -183 Q443 -191 413 -191 Q361 -191 334 -169.5 Q307 -148 307 -110 Q307 -94 312 -73 Q317 -52 330.5 -28.5 Q344 -5 367.5 20 Q391 45 428 69 Z " />
<glyph glyph-name="Ecaron" unicode="&#x11a;" horiz-adv-x="649" d="M43 0 L43 96 L112 96 L112 592 L44 592 L44 687 L604 687 L604 485 L503 485 L503 592 L256 592 L256 400 L486 406 L486 307 L256 313 L256 96 L515 96 L515 208 L617 208 L617 0 L43 0 Z M555 901 L399 756 L312 756 L158 903 L192 942 L355 850 L520 943 L555 901 Z " />
<glyph glyph-name="ecaron" unicode="&#x11b;" horiz-adv-x="532" d="M279 405 Q254 405 236.5 395.5 Q219 386 207 371 Q195 356 189 337 Q183 318 182 298 L366 298 Q366 319 361.5 338.5 Q357 358 347.5 372.5 Q338 387 321 396 Q304 405 279 405 Z M279 502 Q350 502 392.5 478.5 Q435 455 457.5 419.5 Q480 384 487 342 Q494 300 494 263 L494 213 L180 213 Q179 151 206 121 Q233 91 302 91 Q341 91 378 99 Q415 107 453 122 L483 38 Q435 12 382.5 1 Q330 -10 280 -10 Q207 -10 160.5 11.5 Q114 33 87 68.5 Q60 104 50 149.5 Q40 195 40 244 Q40 284 50.5 329.5 Q61 375 88 413.5 Q115 452 161.5 477 Q208 502 279 502 Z M471 712 L315 558 L228 558 L73 713 L106 753 L271 656 L435 753 L471 712 Z " />
<glyph glyph-name="Gcircumflex" unicode="&#x11c;" horiz-adv-x="689" d="M394 701 Q449 701 498.5 693.5 Q548 686 586 673 L586 484 L485 484 L485 582 Q468 587 445 589.5 Q422 592 400 592 Q347 592 309.5 574.5 Q272 557 248 524.5 Q224 492 212.5 446.5 Q201 401 201 345 Q201 288 210 243 Q219 198 240 167 Q261 136 295 119.5 Q329 103 380 103 Q401 103 428 106 Q455 109 475 114 L475 276 L386 276 L386 365 L654 365 L654 276 L605 276 L605 27 Q548 7 487.5 -1.5 Q427 -10 373 -10 Q279 -10 217 18 Q155 46 118 94 Q81 142 65.5 206 Q50 270 50 342 Q50 382 56 424 Q62 466 76.5 506 Q91 546 116 581.5 Q141 617 179.5 643.5 Q218 670 270.5 685.5 Q323 701 394 701 Z M547 747 L382 838 L219 746 L185 787 L339 934 L427 934 L582 788 L547 747 Z " />
<glyph glyph-name="gcircumflex" unicode="&#x11d;" horiz-adv-x="576" d="M478 419 Q492 402 499.5 375 Q507 348 507 325 Q507 283 489.5 251 Q472 219 441.5 197.5 Q411 176 370 165 Q329 154 282 153 L225 153 Q194 153 178.5 146 Q163 139 163 121 Q163 94 203 94 L343 94 Q435 94 489 59.5 Q543 25 543 -50 Q543 -83 527.5 -113.5 Q512 -144 478 -167.5 Q444 -191 390 -204.5 Q336 -218 259 -218 Q192 -218 148 -207 Q104 -196 78 -178 Q52 -160 41.5 -136.5 Q31 -113 31 -87 Q31 -46 50 -16 Q69 14 95 28 Q67 35 52.5 54.5 Q38 74 38 103 Q38 140 63.5 161 Q89 182 121 192 Q92 205 71.5 236.5 Q51 268 51 320 Q51 369 70.5 403.5 Q90 438 121.5 460 Q153 482 193.5 492 Q234 502 276 502 Q305 502 332 498.5 Q359 495 379 490 L553 490 L553 422 L482 422 L478 419 Z M212 10 Q195 3 181.5 -15.5 Q168 -34 168 -54 Q168 -67 173 -79 Q178 -91 190.5 -100.5 Q203 -110 224.5 -115.5 Q246 -121 279 -121 Q336 -121 367.5 -102 Q399 -83 399 -53 Q399 -29 380 -9.5 Q361 10 314 10 L212 10 Z M367 326 Q367 339 362.5 354 Q358 369 347.5 381 Q337 393 320 401 Q303 409 278 409 Q235 409 213 385.5 Q191 362 191 325 Q191 287 212 266 Q233 245 272 245 Q313 245 340 265 Q367 285 367 326 Z M441 556 L276 651 L112 555 L79 596 L233 750 L321 750 L477 598 L441 556 Z " />
<glyph glyph-name="Gbreve" unicode="&#x11e;" horiz-adv-x="689" d="M394 701 Q449 701 498.5 693.5 Q548 686 586 673 L586 484 L485 484 L485 582 Q468 587 445 589.5 Q422 592 400 592 Q347 592 309.5 574.5 Q272 557 248 524.5 Q224 492 212.5 446.5 Q201 401 201 345 Q201 288 210 243 Q219 198 240 167 Q261 136 295 119.5 Q329 103 380 103 Q401 103 428 106 Q455 109 475 114 L475 276 L386 276 L386 365 L654 365 L654 276 L605 276 L605 27 Q548 7 487.5 -1.5 Q427 -10 373 -10 Q279 -10 217 18 Q155 46 118 94 Q81 142 65.5 206 Q50 270 50 342 Q50 382 56 424 Q62 466 76.5 506 Q91 546 116 581.5 Q141 617 179.5 643.5 Q218 670 270.5 685.5 Q323 701 394 701 Z M370 768 Q340 768 314 779 Q288 790 265.5 808.5 Q243 827 223 851.5 Q203 876 186 903 L244 949 Q275 905 310.5 882.5 Q346 860 374 860 Q383 860 396.5 861.5 Q410 863 429 871.5 Q448 880 471.5 896.5 Q495 913 525 943 L563 903 Q540 865 515 839 Q490 813 465.5 797 Q441 781 416.5 774.5 Q392 768 370 768 Z " />
<glyph glyph-name="gbreve" unicode="&#x11f;" horiz-adv-x="576" d="M478 419 Q492 402 499.5 375 Q507 348 507 325 Q507 283 489.5 251 Q472 219 441.5 197.5 Q411 176 370 165 Q329 154 282 153 L225 153 Q194 153 178.5 146 Q163 139 163 121 Q163 94 203 94 L343 94 Q435 94 489 59.5 Q543 25 543 -50 Q543 -83 527.5 -113.5 Q512 -144 478 -167.5 Q444 -191 390 -204.5 Q336 -218 259 -218 Q192 -218 148 -207 Q104 -196 78 -178 Q52 -160 41.5 -136.5 Q31 -113 31 -87 Q31 -46 50 -16 Q69 14 95 28 Q67 35 52.5 54.5 Q38 74 38 103 Q38 140 63.5 161 Q89 182 121 192 Q92 205 71.5 236.5 Q51 268 51 320 Q51 369 70.5 403.5 Q90 438 121.5 460 Q153 482 193.5 492 Q234 502 276 502 Q305 502 332 498.5 Q359 495 379 490 L553 490 L553 422 L482 422 L478 419 Z M212 10 Q195 3 181.5 -15.5 Q168 -34 168 -54 Q168 -67 173 -79 Q178 -91 190.5 -100.5 Q203 -110 224.5 -115.5 Q246 -121 279 -121 Q336 -121 367.5 -102 Q399 -83 399 -53 Q399 -29 380 -9.5 Q361 10 314 10 L212 10 Z M367 326 Q367 339 362.5 354 Q358 369 347.5 381 Q337 393 320 401 Q303 409 278 409 Q235 409 213 385.5 Q191 362 191 325 Q191 287 212 266 Q233 245 272 245 Q313 245 340 265 Q367 285 367 326 Z M275 569 Q245 569 218.5 580.5 Q192 592 169 611.5 Q146 631 126 656 Q106 681 89 708 L149 755 Q181 710 216 688 Q251 666 278 666 Q287 666 300 668 Q313 670 331 678 Q349 686 373 702.5 Q397 719 429 748 L472 707 Q448 668 422.5 642 Q397 616 371.5 599.5 Q346 583 321.5 576 Q297 569 275 569 Z " />
<glyph glyph-name="Gdotaccent" unicode="&#x120;" horiz-adv-x="689" d="M394 701 Q449 701 498.5 693.5 Q548 686 586 673 L586 484 L485 484 L485 582 Q468 587 445 589.5 Q422 592 400 592 Q347 592 309.5 574.5 Q272 557 248 524.5 Q224 492 212.5 446.5 Q201 401 201 345 Q201 288 210 243 Q219 198 240 167 Q261 136 295 119.5 Q329 103 380 103 Q401 103 428 106 Q455 109 475 114 L475 276 L386 276 L386 365 L654 365 L654 276 L605 276 L605 27 Q548 7 487.5 -1.5 Q427 -10 373 -10 Q279 -10 217 18 Q155 46 118 94 Q81 142 65.5 206 Q50 270 50 342 Q50 382 56 424 Q62 466 76.5 506 Q91 546 116 581.5 Q141 617 179.5 643.5 Q218 670 270.5 685.5 Q323 701 394 701 Z M476 853 Q476 819 455 796.5 Q434 774 394 774 Q355 774 335 796.5 Q315 819 315 853 Q315 888 335 910.5 Q355 933 394 933 Q434 933 455 910.5 Q476 888 476 853 Z " />
<glyph glyph-name="gdotaccent" unicode="&#x121;" horiz-adv-x="576" d="M478 419 Q492 402 499.5 375 Q507 348 507 325 Q507 283 489.5 251 Q472 219 441.5 197.5 Q411 176 370 165 Q329 154 282 153 L225 153 Q194 153 178.5 146 Q163 139 163 121 Q163 94 203 94 L343 94 Q435 94 489 59.5 Q543 25 543 -50 Q543 -83 527.5 -113.5 Q512 -144 478 -167.5 Q444 -191 390 -204.5 Q336 -218 259 -218 Q192 -218 148 -207 Q104 -196 78 -178 Q52 -160 41.5 -136.5 Q31 -113 31 -87 Q31 -46 50 -16 Q69 14 95 28 Q67 35 52.5 54.5 Q38 74 38 103 Q38 140 63.5 161 Q89 182 121 192 Q92 205 71.5 236.5 Q51 268 51 320 Q51 369 70.5 403.5 Q90 438 121.5 460 Q153 482 193.5 492 Q234 502 276 502 Q305 502 332 498.5 Q359 495 379 490 L553 490 L553 422 L482 422 L478 419 Z M212 10 Q195 3 181.5 -15.5 Q168 -34 168 -54 Q168 -67 173 -79 Q178 -91 190.5 -100.5 Q203 -110 224.5 -115.5 Q246 -121 279 -121 Q336 -121 367.5 -102 Q399 -83 399 -53 Q399 -29 380 -9.5 Q361 10 314 10 L212 10 Z M367 326 Q367 339 362.5 354 Q358 369 347.5 381 Q337 393 320 401 Q303 409 278 409 Q235 409 213 385.5 Q191 362 191 325 Q191 287 212 266 Q233 245 272 245 Q313 245 340 265 Q367 285 367 326 Z M375 657 Q375 623 354 600.5 Q333 578 293 578 Q254 578 234 600.5 Q214 623 214 657 Q214 692 234 714.5 Q254 737 293 737 Q333 737 354 714.5 Q375 692 375 657 Z " />
<glyph glyph-name="Gcommaaccent" unicode="&#x122;" horiz-adv-x="689" d="M394 701 Q449 701 498.5 693.5 Q548 686 586 673 L586 484 L485 484 L485 582 Q468 587 445 589.5 Q422 592 400 592 Q347 592 309.5 574.5 Q272 557 248 524.5 Q224 492 212.5 446.5 Q201 401 201 345 Q201 288 210 243 Q219 198 240 167 Q261 136 295 119.5 Q329 103 380 103 Q401 103 428 106 Q455 109 475 114 L475 276 L386 276 L386 365 L654 365 L654 276 L605 276 L605 27 Q548 7 487.5 -1.5 Q427 -10 373 -10 Q279 -10 217 18 Q155 46 118 94 Q81 142 65.5 206 Q50 270 50 342 Q50 382 56 424 Q62 466 76.5 506 Q91 546 116 581.5 Q141 617 179.5 643.5 Q218 670 270.5 685.5 Q323 701 394 701 Z M307 -104 Q307 -78 327 -59.5 Q347 -41 378 -41 Q415 -41 433 -64.5 Q451 -88 450 -118 Q449 -165 418 -206.5 Q387 -248 342 -269 L310 -230 Q350 -198 353 -161 Q330 -156 318.5 -141.5 Q307 -127 307 -104 Z " />
<glyph glyph-name="gcommaaccent" unicode="&#x123;" horiz-adv-x="576" d="M478 419 Q492 402 499.5 375 Q507 348 507 325 Q507 283 489.5 251 Q472 219 441.5 197.5 Q411 176 370 165 Q329 154 282 153 L225 153 Q194 153 178.5 146 Q163 139 163 121 Q163 94 203 94 L343 94 Q435 94 489 59.5 Q543 25 543 -50 Q543 -83 527.5 -113.5 Q512 -144 478 -167.5 Q444 -191 390 -204.5 Q336 -218 259 -218 Q192 -218 148 -207 Q104 -196 78 -178 Q52 -160 41.5 -136.5 Q31 -113 31 -87 Q31 -46 50 -16 Q69 14 95 28 Q67 35 52.5 54.5 Q38 74 38 103 Q38 140 63.5 161 Q89 182 121 192 Q92 205 71.5 236.5 Q51 268 51 320 Q51 369 70.5 403.5 Q90 438 121.5 460 Q153 482 193.5 492 Q234 502 276 502 Q305 502 332 498.5 Q359 495 379 490 L553 490 L553 422 L482 422 L478 419 Z M212 10 Q195 3 181.5 -15.5 Q168 -34 168 -54 Q168 -67 173 -79 Q178 -91 190.5 -100.5 Q203 -110 224.5 -115.5 Q246 -121 279 -121 Q336 -121 367.5 -102 Q399 -83 399 -53 Q399 -29 380 -9.5 Q361 10 314 10 L212 10 Z M367 326 Q367 339 362.5 354 Q358 369 347.5 381 Q337 393 320 401 Q303 409 278 409 Q235 409 213 385.5 Q191 362 191 325 Q191 287 212 266 Q233 245 272 245 Q313 245 340 265 Q367 285 367 326 Z M365.036 611.987 Q365.036 585.99 345.039 567.493 Q325.041 548.995 294.045 548.995 Q257.049 548.995 239.052 572.492 Q221.054 595.989 222.054 625.986 Q223.054 672.98 254.05 714.475 Q285.046 755.97 330.041 776.967 L362.037 737.972 Q322.042 705.976 319.042 668.98 Q342.039 663.981 353.538 649.483 Q365.036 634.984 365.036 611.987 Z " />
<glyph glyph-name="Hcircumflex" unicode="&#x124;" horiz-adv-x="786" d="M468 0 L468 95 L530 95 L530 312 L255 312 L255 95 L318 95 L318 0 L42 0 L42 95 L112 95 L112 592 L42 592 L42 687 L318 687 L318 592 L255 592 L255 402 L530 402 L530 592 L468 592 L468 687 L743 687 L743 592 L674 592 L674 95 L743 95 L743 0 L468 0 Z M552 747 L387 838 L224 746 L190 787 L344 934 L432 934 L587 788 L552 747 Z " />
<glyph glyph-name="hcircumflex" unicode="&#x125;" horiz-adv-x="640" d="M86 0 L86 623 L20 623 L20 715 L225 715 L225 446 Q266 473 308.5 487.5 Q351 502 389 502 Q440 502 471 486 Q502 470 519 445 Q536 420 541.5 390 Q547 360 547 333 L547 95 L617 95 L617 13 Q592 2 560.5 -3 Q529 -8 506 -8 Q472 -8 452.5 2.5 Q433 13 423 28.5 Q413 44 410.5 61 Q408 78 408 91 L408 306 Q408 353 393 373 Q378 393 336 393 Q310 393 279.5 381.5 Q249 370 225 354 L225 0 L86 0 Z M310 737 L145 828 L-18 736 L-52 777 L102 924 L190 924 L345 778 L310 737 Z " />
<glyph glyph-name="Hbar" unicode="&#x126;" horiz-adv-x="786" d="M468 0 L468 94 L530 94 L530 307 L255 307 L255 94 L318 94 L318 0 L42 0 L42 94 L112 94 L112 458 L41 458 L41 515 L112 515 L112 594 L42 594 L42 687 L318 687 L318 594 L255 594 L255 515 L530 515 L530 594 L468 594 L468 687 L743 687 L743 594 L674 594 L674 515 L743 515 L743 458 L674 458 L674 94 L743 94 L743 0 L468 0 Z M530 384 L530 458 L255 458 L255 384 L530 384 Z " />
<glyph glyph-name="hbar" unicode="&#x127;" horiz-adv-x="640" d="M24 517 L24 574 L86 574 L86 633 L20 633 L20 716 L227 716 L227 574 L379 574 L379 517 L227 517 L227 405 Q266 432 309.5 446.5 Q353 461 391 461 Q439 461 469.5 447.5 Q500 434 518 411 Q536 388 542.5 357.5 Q549 327 549 293 L549 96 L615 96 L615 13 Q589 2 560 -3.5 Q531 -9 507 -9 Q453 -9 431.5 13 Q410 35 410 83 L410 263 Q410 307 396 329.5 Q382 352 337 352 Q312 352 281 341 Q250 330 227 315 L227 0 L86 0 L86 517 L24 517 Z " />
<glyph glyph-name="Itilde" unicode="&#x128;" horiz-adv-x="419" d="M70 0 L70 95 L138 95 L138 592 L70 592 L70 688 L349 688 L349 592 L281 592 L281 95 L349 95 L349 0 L70 0 Z M295 767 Q270 767 245.5 773 Q221 779 198.5 786.5 Q176 794 156.5 800 Q137 806 122 806 L66 767 L25 799 Q42 847 68.5 869 Q95 891 128 891 Q149 891 171.5 885 Q194 879 216.5 872 Q239 865 260.5 859 Q282 853 300 853 L356 894 L397 861 Q382 816 356 791.5 Q330 767 295 767 Z " />
<glyph glyph-name="itilde" unicode="&#x129;" horiz-adv-x="357" d="M47 401 L47 491 L239 491 L239 96 L310 96 L310 13 Q286 2 254 -3.5 Q222 -9 199 -9 Q145 -9 123.5 13 Q102 35 101 83 L101 401 L47 401 Z M242 584 Q217 584 192.5 590 Q168 596 145.5 603.5 Q123 611 103.5 617 Q84 623 69 623 L13 584 L-28 616 Q-11 664 15.5 686 Q42 708 75 708 Q96 708 118.5 702 Q141 696 163.5 689 Q186 682 207.5 676 Q229 670 247 670 L303 711 L344 678 Q329 633 303 608.5 Q277 584 242 584 Z " />
<glyph glyph-name="Imacron" unicode="&#x12a;" horiz-adv-x="419" d="M70 0 L70 95 L138 95 L138 592 L70 592 L70 688 L349 688 L349 592 L281 592 L281 95 L349 95 L349 0 L70 0 Z M35 890 L389 890 L389 799 L35 799 L35 890 Z " />
<glyph glyph-name="imacron" unicode="&#x12b;" horiz-adv-x="360" d="M47 401 L47 491 L239 491 L239 96 L310 96 L310 13 Q286 2 254 -3.5 Q222 -9 199 -9 Q145 -9 123.5 13 Q102 35 101 83 L101 401 L47 401 Z M-28 687 L335 687 L335 596 L-28 596 L-28 687 Z " />
<glyph glyph-name="Ibreve" unicode="&#x12c;" horiz-adv-x="419" d="M209 762 Q179 762 153 773 Q127 784 104.5 802.5 Q82 821 62 845.5 Q42 870 25 897 L83 943 Q114 899 149.5 876.5 Q185 854 213 854 Q222 854 235.5 855.5 Q249 857 268 865.5 Q287 874 310.5 890.5 Q334 907 364 937 L402 897 Q379 859 354 833 Q329 807 304.5 791 Q280 775 255.5 768.5 Q231 762 209 762 Z M70 0 L70 95 L138 95 L138 592 L70 592 L70 688 L349 688 L349 592 L281 592 L281 95 L349 95 L349 0 L70 0 Z " />
<glyph glyph-name="ibreve" unicode="&#x12d;" horiz-adv-x="387" d="M63 401 L63 491 L255 491 L255 96 L326 96 L326 13 Q302 2 270 -3.5 Q238 -9 215 -9 Q161 -9 139.5 13 Q118 35 117 83 L117 401 L63 401 Z M174 564 Q144 564 117.5 575.5 Q91 587 68 606.5 Q45 626 25 651 Q5 676 -12 703 L48 750 Q80 705 115 683 Q150 661 177 661 Q186 661 199 663 Q212 665 230 673 Q248 681 272 697.5 Q296 714 328 743 L371 702 Q347 663 321.5 637 Q296 611 270.5 594.5 Q245 578 220.5 571 Q196 564 174 564 Z " />
<glyph glyph-name="Iogonek" unicode="&#x12e;" horiz-adv-x="419" d="M70 0 L70 95 L138 95 L138 592 L70 592 L70 688 L349 688 L349 592 L281 592 L281 95 L349 95 L349 0 L70 0 Z M220 40 Q226 35 232.5 31 Q239 27 245 22 Q219 -8 201.5 -45 Q184 -82 183 -109 Q183 -159 238 -159 Q258 -159 278 -155 Q298 -151 315 -146 Q317 -157 319.5 -168 Q322 -179 324 -190 Q297 -204 266 -212 Q235 -220 205 -220 Q153 -220 126 -198.5 Q99 -177 99 -139 Q99 -123 104 -102 Q109 -81 122.5 -57.5 Q136 -34 159.5 -9 Q183 16 220 40 Z " />
<glyph glyph-name="iogonek" unicode="&#x12f;" horiz-adv-x="345" d="M50 397 L50 490 L239 490 L239 96 L310 96 L310 13 Q286 2 254 -3.5 Q222 -9 199 -9 Q145 -9 123 13 Q101 35 100 83 L100 397 L50 397 Z M249 636 Q249 602 224.5 577.5 Q200 553 166 553 Q131 553 107.5 577.5 Q84 602 84 636 Q84 671 107.5 695 Q131 719 166 719 Q200 719 224.5 695 Q249 671 249 636 Z M245 47 Q251 42 257.5 38 Q264 34 270 29 Q244 -1 226.5 -38 Q209 -75 208 -102 Q208 -152 263 -152 Q283 -152 303 -148 Q323 -144 340 -139 Q342 -150 344.5 -161 Q347 -172 349 -183 Q322 -197 291 -205 Q260 -213 230 -213 Q178 -213 151 -191.5 Q124 -170 124 -132 Q124 -116 129 -95 Q134 -74 147.5 -50.5 Q161 -27 184.5 -2 Q208 23 245 47 Z " />
<glyph glyph-name="Idotaccent" unicode="&#x130;" horiz-adv-x="419" d="M70 0 L70 95 L138 95 L138 592 L70 592 L70 688 L349 688 L349 592 L281 592 L281 95 L349 95 L349 0 L70 0 Z M297 849 Q297 815 276 792.5 Q255 770 215 770 Q176 770 156 792.5 Q136 815 136 849 Q136 884 156 906.5 Q176 929 215 929 Q255 929 276 906.5 Q297 884 297 849 Z " />
<glyph glyph-name="dotlessi" unicode="&#x131;" horiz-adv-x="345" d="M47 401 L47 491 L239 491 L239 96 L310 96 L310 13 Q286 2 254 -3.5 Q222 -9 199 -9 Q145 -9 123.5 13 Q102 35 101 83 L101 401 L47 401 Z " />
<glyph glyph-name="IJ" unicode="&#x132;" horiz-adv-x="841" d="M70 0 L70 95 L138 95 L138 592 L70 592 L70 688 L349 688 L349 592 L281 592 L281 95 L349 95 L349 0 L70 0 Z M474 688 L786 688 L786 592 L707 592 L707 160 Q707 18 633 -64.5 Q559 -147 418 -181 L384 -84 Q443 -57 478.5 -32.5 Q514 -8 533 20.5 Q552 49 558 83.5 Q564 118 564 164 L564 592 L474 592 L474 688 Z " />
<glyph glyph-name="ij" unicode="&#x133;" horiz-adv-x="672" d="M50 397 L50 490 L239 490 L239 96 L310 96 L310 13 Q286 2 254 -3.5 Q222 -9 199 -9 Q145 -9 123 13 Q101 35 100 83 L100 397 L50 397 Z M249 636 Q249 602 224.5 577.5 Q200 553 166 553 Q131 553 107.5 577.5 Q84 602 84 636 Q84 671 107.5 695 Q131 719 166 719 Q200 719 224.5 695 Q249 671 249 636 Z M383 490 L584 490 L584 58 Q584 -4 572 -50.5 Q560 -97 533 -131.5 Q506 -166 463 -190.5 Q420 -215 358 -233 L320 -147 Q361 -123 385.5 -102.5 Q410 -82 423 -59.5 Q436 -37 440 -10 Q444 17 444 53 L444 397 L383 397 L383 490 Z M594 636 Q594 619 587 604 Q580 589 569 577.5 Q558 566 542.5 559.5 Q527 553 511 553 Q476 553 452 577.5 Q428 602 428 636 Q428 671 452 695 Q476 719 511 719 Q527 719 542.5 712.5 Q558 706 569 694.5 Q580 683 587 668 Q594 653 594 636 Z " />
<glyph glyph-name="Jcircumflex" unicode="&#x134;" horiz-adv-x="438" d="M71 689 L383 689 L383 593 L304 593 L304 161 Q304 19 230 -63.5 Q156 -146 15 -180 L-19 -83 Q40 -56 75.5 -31.5 Q111 -7 130 21.5 Q149 50 155 84.5 Q161 119 161 165 L161 593 L71 593 L71 689 Z M397 737 L232 828 L69 736 L35 777 L189 924 L277 924 L432 778 L397 737 Z " />
<glyph glyph-name="jcircumflex" unicode="&#x135;" horiz-adv-x="377" d="M69 491 L270 491 L270 55 Q270 -7 258 -52.5 Q246 -98 219 -131 Q192 -164 149 -187 Q106 -210 44 -226 L10 -141 Q49 -119 72.5 -101 Q96 -83 109 -62.5 Q122 -42 126 -16 Q130 10 130 48 L130 401 L69 401 L69 491 Z M342 556 L177 651 L13 555 L-20 596 L134 750 L222 750 L378 598 L342 556 Z " />
<glyph glyph-name="Kcommaaccent" unicode="&#x136;" horiz-adv-x="722" d="M429 418 L647 95 L704 95 L704 0 L427 0 L426 95 L485 95 L326 333 L251 264 L251 94 L313 94 L313 0 L43 0 L43 94 L112 94 L112 594 L43 594 L43 687 L316 687 L316 594 L251 594 L251 385 L476 594 L417 594 L417 687 L683 687 L683 594 L623 594 L429 418 Z M304 -104 Q304 -78 324 -59.5 Q344 -41 375 -41 Q412 -41 430 -64.5 Q448 -88 447 -118 Q446 -165 415 -206.5 Q384 -248 339 -269 L307 -230 Q347 -198 350 -161 Q327 -156 315.5 -141.5 Q304 -127 304 -104 Z " />
<glyph glyph-name="kcommaaccent" unicode="&#x137;" horiz-adv-x="595" d="M300 490 L554 490 L554 398 L491 398 L381 305 L509 91 Q526 89 542.5 85.5 Q559 82 576 80 L576 4 Q553 -4 525.5 -7.5 Q498 -11 481 -11 Q455 -11 435 -5.5 Q415 0 399 28 L282 232 L231 189 L231 91 L286 91 L286 0 L27 0 L27 91 L92 91 L92 622 L22 622 L22 713 L231 713 L231 303 L348 399 L300 399 L300 490 Z M262 -104 Q262 -78 282 -59.5 Q302 -41 333 -41 Q370 -41 388 -64.5 Q406 -88 405 -118 Q404 -165 373 -206.5 Q342 -248 297 -269 L265 -230 Q305 -198 308 -161 Q285 -156 273.5 -141.5 Q262 -127 262 -104 Z " />
<glyph glyph-name="kgreenlandic" unicode="&#x138;" horiz-adv-x="593" d="M300 490 L554 490 L554 398 L491 398 Q463 375 436 351.5 Q409 328 381 305 Q413 251 445 198 Q477 145 509 91 Q526 89 542.5 85.5 Q559 82 576 80 L576 4 Q553 -4 525.5 -7.5 Q498 -11 481 -11 Q455 -11 435 -5.5 Q415 0 399 28 L282 232 L231 189 L231 91 L286 91 L286 0 L27 0 L27 91 L92 91 L92 401 L22 401 L22 492 L231 492 L231 303 L348 399 L300 399 L300 490 Z " />
<glyph glyph-name="Lacute" unicode="&#x139;" horiz-adv-x="629" d="M43 0 L43 95 L113 95 L113 592 L44 592 L44 687 L329 687 L329 592 L257 592 L257 95 L515 95 L515 220 L618 220 L618 0 L43 0 Z M196 743 L149 792 L296 961 L372 882 L196 743 Z " />
<glyph glyph-name="lacute" unicode="&#x13a;" horiz-adv-x="349" d="M248 92 L314 92 L314 0 L43 0 L43 92 L108 92 L108 620 L38 620 L38 713 L248 713 L248 92 Z M168 753 L121 802 L268 971 L344 892 L168 753 Z " />
<glyph glyph-name="Lcommaaccent" unicode="&#x13b;" horiz-adv-x="629" d="M43 0 L43 95 L113 95 L113 592 L44 592 L44 687 L329 687 L329 592 L257 592 L257 95 L515 95 L515 220 L618 220 L618 0 L43 0 Z M246 -104 Q246 -78 266 -59.5 Q286 -41 317 -41 Q354 -41 372 -64.5 Q390 -88 389 -118 Q388 -165 357 -206.5 Q326 -248 281 -269 L249 -230 Q289 -198 292 -161 Q269 -156 257.5 -141.5 Q246 -127 246 -104 Z " />
<glyph glyph-name="lcommaaccent" unicode="&#x13c;" horiz-adv-x="349" d="M248 92 L314 92 L314 0 L43 0 L43 92 L108 92 L108 620 L38 620 L38 713 L248 713 L248 92 Z M116 -104 Q116 -78 136 -59.5 Q156 -41 187 -41 Q224 -41 242 -64.5 Q260 -88 259 -118 Q258 -165 227 -206.5 Q196 -248 151 -269 L119 -230 Q159 -198 162 -161 Q139 -156 127.5 -141.5 Q116 -127 116 -104 Z " />
<glyph glyph-name="Lcaron" unicode="&#x13d;" horiz-adv-x="629" d="M43 0 L43 95 L113 95 L113 592 L44 592 L44 687 L329 687 L329 592 L257 592 L257 95 L515 95 L515 220 L618 220 L618 0 L43 0 Z M454 626 Q454 652 474 670.5 Q494 689 525 689 Q562 689 580 665.5 Q598 642 597 612 Q596 565 565 523.5 Q534 482 489 461 L457 500 Q497 532 500 569 Q477 574 465.5 588.5 Q454 603 454 626 Z " />
<glyph glyph-name="lcaron" unicode="&#x13e;" horiz-adv-x="471" d="M315 661 Q315 687 335 705.5 Q355 724 386 724 Q423 724 441 700.5 Q459 677 458 647 Q457 600 426 558.5 Q395 517 350 496 L318 535 Q358 567 361 604 Q338 609 326.5 623.5 Q315 638 315 661 Z M248 92 L314 92 L314 0 L43 0 L43 92 L108 92 L108 620 L38 620 L38 713 L248 713 L248 92 Z " />
<glyph glyph-name="Ldot" unicode="&#x13f;" horiz-adv-x="629" d="M43 0 L43 95 L113 95 L113 592 L44 592 L44 687 L329 687 L329 592 L257 592 L257 95 L515 95 L515 220 L618 220 L618 0 L43 0 Z M561 434 Q561 400 540 377.5 Q519 355 479 355 Q440 355 420 377.5 Q400 400 400 434 Q400 469 420 491.5 Q440 514 479 514 Q519 514 540 491.5 Q561 469 561 434 Z " />
<glyph glyph-name="ldot" unicode="&#x140;" horiz-adv-x="486" d="M472 390 Q472 356 451 333.5 Q430 311 390 311 Q351 311 331 333.5 Q311 356 311 390 Q311 425 331 447.5 Q351 470 390 470 Q430 470 451 447.5 Q472 425 472 390 Z M248 92 L314 92 L314 0 L43 0 L43 92 L108 92 L108 620 L38 620 L38 713 L248 713 L248 92 Z " />
<glyph glyph-name="Lslash" unicode="&#x141;" horiz-adv-x="624" d="M43 0 L43 95 L113 95 L113 225 L55 192 L21 246 L113 299 L113 592 L44 592 L44 687 L329 687 L329 592 L257 592 L257 382 L360 441 L394 388 L257 309 L257 95 L515 95 L515 220 L618 220 L618 0 L43 0 Z " />
<glyph glyph-name="lslash" unicode="&#x142;" horiz-adv-x="349" d="M248 92 L314 92 L314 0 L43 0 L43 92 L108 92 L108 276 Q74 257 34 234 Q25 248 16.5 261.5 Q8 275 0 288 Q62 323 108 350 L108 620 L38 620 L38 713 L248 713 L248 431 Q252 433 256 435 Q278 448 291.5 455.5 Q305 463 312.5 467.5 Q320 472 327 476 Q336 462 344 449 L360 423 Q346 415 328.5 404.5 Q311 394 276 374 Q264 366 248 357 L248 92 Z " />
<glyph glyph-name="Nacute" unicode="&#x143;" horiz-adv-x="814" d="M570 207 L570 592 L502 592 L502 687 L770 687 L770 592 L704 592 L704 0 L564 0 Q497 104 429.5 206.5 Q362 309 296 414 Q283 435 270.5 456 Q258 477 244 498 Q243 498 243 497.5 Q243 497 242 497 L242 94 L310 94 L310 0 L40 0 L40 94 L109 94 Q109 219 109.5 342.5 Q110 466 110 592 L41 592 L41 687 L263 687 Q299 628 330 580.5 Q361 533 389.5 488 Q418 443 446.5 398 Q475 353 507 300 Q522 277 536.5 254 Q551 231 565 207 L570 207 Z M401 743 L354 792 L501 961 L577 882 L401 743 Z " />
<glyph glyph-name="nacute" unicode="&#x144;" horiz-adv-x="645" d="M393 502 Q444 502 475 486 Q506 470 522.5 445 Q539 420 544.5 390 Q550 360 550 333 L550 95 L620 95 L620 13 Q595 2 564 -3 Q533 -8 509 -8 Q471 -8 451 6 Q431 20 422 38 Q413 56 412 73 Q411 90 411 97 L411 306 Q411 353 396 373 Q381 393 339 393 Q313 393 282.5 381.5 Q252 370 229 354 L229 0 L89 0 L89 398 L23 398 L23 490 L227 490 L227 447 Q229 447 229.5 446.5 Q230 446 232 446 Q273 473 314 487.5 Q355 502 393 502 Z M252 545 L202 597 L350 767 L426 685 L252 545 Z " />
<glyph glyph-name="Ncommaaccent" unicode="&#x145;" horiz-adv-x="814" d="M570 207 L570 592 L502 592 L502 687 L770 687 L770 592 L704 592 L704 0 L564 0 Q497 104 429.5 206.5 Q362 309 296 414 Q283 435 270.5 456 Q258 477 244 498 Q243 498 243 497.5 Q243 497 242 497 L242 94 L310 94 L310 0 L40 0 L40 94 L109 94 Q109 219 109.5 342.5 Q110 466 110 592 L41 592 L41 687 L263 687 Q299 628 330 580.5 Q361 533 389.5 488 Q418 443 446.5 398 Q475 353 507 300 Q522 277 536.5 254 Q551 231 565 207 L570 207 Z M346 -104 Q346 -78 366 -59.5 Q386 -41 417 -41 Q454 -41 472 -64.5 Q490 -88 489 -118 Q488 -165 457 -206.5 Q426 -248 381 -269 L349 -230 Q389 -198 392 -161 Q369 -156 357.5 -141.5 Q346 -127 346 -104 Z " />
<glyph glyph-name="ncommaaccent" unicode="&#x146;" horiz-adv-x="645" d="M393 502 Q444 502 475 486 Q506 470 522.5 445 Q539 420 544.5 390 Q550 360 550 333 L550 95 L620 95 L620 13 Q595 2 564 -3 Q533 -8 509 -8 Q471 -8 451 6 Q431 20 422 38 Q413 56 412 73 Q411 90 411 97 L411 306 Q411 353 396 373 Q381 393 339 393 Q313 393 282.5 381.5 Q252 370 229 354 L229 0 L89 0 L89 398 L23 398 L23 490 L227 490 L227 447 Q229 447 229.5 446.5 Q230 446 232 446 Q273 473 314 487.5 Q355 502 393 502 Z M268 -104 Q268 -78 288 -59.5 Q308 -41 339 -41 Q376 -41 394 -64.5 Q412 -88 411 -118 Q410 -165 379 -206.5 Q348 -248 303 -269 L271 -230 Q311 -198 314 -161 Q291 -156 279.5 -141.5 Q268 -127 268 -104 Z " />
<glyph glyph-name="Ncaron" unicode="&#x147;" horiz-adv-x="814" d="M570 207 L570 592 L502 592 L502 687 L770 687 L770 592 L704 592 L704 0 L564 0 Q497 104 429.5 206.5 Q362 309 296 414 Q283 435 270.5 456 Q258 477 244 498 Q243 498 243 497.5 Q243 497 242 497 L242 94 L310 94 L310 0 L40 0 L40 94 L109 94 Q109 219 109.5 342.5 Q110 466 110 592 L41 592 L41 687 L263 687 Q299 628 330 580.5 Q361 533 389.5 488 Q418 443 446.5 398 Q475 353 507 300 Q522 277 536.5 254 Q551 231 565 207 L570 207 Z M597 896 L441 751 L354 751 L200 898 L234 937 L397 845 L562 938 L597 896 Z " />
<glyph glyph-name="ncaron" unicode="&#x148;" horiz-adv-x="645" d="M393 502 Q444 502 475 486 Q506 470 522.5 445 Q539 420 544.5 390 Q550 360 550 333 L550 95 L620 95 L620 13 Q595 2 564 -3 Q533 -8 509 -8 Q471 -8 451 6 Q431 20 422 38 Q413 56 412 73 Q411 90 411 97 L411 306 Q411 353 396 373 Q381 393 339 393 Q313 393 282.5 381.5 Q252 370 229 354 L229 0 L89 0 L89 398 L23 398 L23 490 L227 490 L227 447 Q229 447 229.5 446.5 Q230 446 232 446 Q273 473 314 487.5 Q355 502 393 502 Z M496 712 L340 558 L253 558 L98 713 L131 753 L296 656 L460 753 L496 712 Z " />
<glyph glyph-name="napostrophe" unicode="&#x149;" horiz-adv-x="781" d="M529 502 Q580 502 611 486 Q642 470 658.5 445 Q675 420 680.5 390 Q686 360 686 333 L686 95 L756 95 L756 13 Q731 2 700 -3 Q669 -8 645 -8 Q607 -8 587 6 Q567 20 558 38 Q549 56 548 73 Q547 90 547 97 L547 306 Q547 353 532 373 Q517 393 475 393 Q449 393 418.5 381.5 Q388 370 365 354 L365 0 L225 0 L225 398 L159 398 L159 490 L363 490 L363 447 Q365 447 365.5 446.5 Q366 446 368 446 Q409 473 450 487.5 Q491 502 529 502 Z M-3 630 Q-3 656 17 674.5 Q37 693 68 693 Q105 693 123 669.5 Q141 646 140 616 Q139 569 108 527.5 Q77 486 32 465 L0 504 Q40 536 43 573 Q20 578 8.5 592.5 Q-3 607 -3 630 Z " />
<glyph glyph-name="Eng" unicode="&#x14a;" horiz-adv-x="814" d="M423 -104 Q439 -106 458 -107 Q477 -108 506 -108 Q519 -108 531.5 -105.5 Q544 -103 553.5 -95.5 Q563 -88 568.5 -74.5 Q574 -61 574 -38 L574 0 Q556 26 530.5 66 Q505 106 474 153.5 Q443 201 408.5 253.5 Q374 306 340 358 Q335 365 321 386.5 Q307 408 291.5 432 Q276 456 262 477 Q248 498 244 504 L242 504 L242 93 L311 93 L311 0 L41 0 L41 93 L110 93 L110 593 L41 593 L41 687 L256 687 Q271 665 296.5 626.5 Q322 588 352.5 541.5 Q383 495 415.5 445 Q448 395 477.5 349.5 Q507 304 530 267 Q553 230 565 210 L570 210 L570 593 L502 593 L502 687 L770 687 L770 593 L704 593 L704 3 Q704 -41 698.5 -80.5 Q693 -120 673.5 -149 Q654 -178 616 -195 Q578 -212 512 -212 Q490 -212 461.5 -208.5 Q433 -205 411 -200 Q414 -176 417 -152.5 Q420 -129 423 -104 Z " />
<glyph glyph-name="eng" unicode="&#x14b;" horiz-adv-x="613" d="M553 48 Q553 -1 548.5 -43.5 Q544 -86 525 -117 Q506 -148 467 -165.5 Q428 -183 360 -183 Q339 -183 309 -180 Q279 -177 257 -172 L269 -73 Q284 -74 299.5 -75 Q315 -76 329 -76 Q347 -76 362.5 -73 Q378 -70 389.5 -62 Q401 -54 407.5 -39.5 Q414 -25 414 -1 L414 304 Q414 349 398.5 372 Q383 395 341 395 Q315 395 284.5 383 Q254 371 231 356 L231 0 L90 0 L90 401 L24 401 L24 491 L228 491 L228 449 Q230 447 232 447 Q271 473 314.5 487.5 Q358 502 394 502 Q442 502 473 488.5 Q504 475 522 452.5 Q540 430 546.5 399 Q553 368 553 334 L553 48 Z " />
<glyph glyph-name="Omacron" unicode="&#x14c;" horiz-adv-x="740" d="M690 344 Q690 268 670 203.5 Q650 139 610 91.5 Q570 44 511 17 Q452 -10 373 -10 Q289 -10 228 15.5 Q167 41 127.5 87.5 Q88 134 69 198.5 Q50 263 50 342 Q50 416 68.5 481 Q87 546 126 595 Q165 644 226 672 Q287 700 373 700 Q459 700 519.5 671.5 Q580 643 618 594.5 Q656 546 673 481.5 Q690 417 690 344 Z M538 342 Q538 390 531.5 436 Q525 482 506.5 517.5 Q488 553 456 575 Q424 597 373 597 Q322 597 288.5 575.5 Q255 554 235.5 518.5 Q216 483 208.5 437 Q201 391 201 341 Q201 222 240.5 157.5 Q280 93 373 93 Q417 93 448 112 Q479 131 499 164 Q519 197 528.5 242.5 Q538 288 538 342 Z M201 890 L555 890 L555 799 L201 799 L201 890 Z " />
<glyph glyph-name="omacron" unicode="&#x14d;" horiz-adv-x="574" d="M534 245 Q534 194 520 148 Q506 102 476 67 Q446 32 398.5 11.5 Q351 -9 283 -9 Q218 -9 171.5 11 Q125 31 96 65 Q67 99 53.5 145 Q40 191 40 244 Q40 296 54.5 342.5 Q69 389 99.5 424 Q130 459 177 480 Q224 501 289 501 Q355 501 402 480.5 Q449 460 478 424.5 Q507 389 520.5 342.5 Q534 296 534 245 Z M391 244 Q391 272 387 300.5 Q383 329 372 351 Q361 373 341.5 387 Q322 401 291 401 Q259 401 238 387.5 Q217 374 205 352 Q193 330 188 301.5 Q183 273 183 244 Q183 212 187 184 Q191 156 202.5 135 Q214 114 234.5 101.5 Q255 89 288 89 Q319 89 339.5 102 Q360 115 371 137 Q382 159 386.5 186.5 Q391 214 391 244 Z M104 674 L467 674 L467 583 L104 583 L104 674 Z " />
<glyph glyph-name="Obreve" unicode="&#x14e;" horiz-adv-x="740" d="M690 344 Q690 268 670 203.5 Q650 139 610 91.5 Q570 44 511 17 Q452 -10 373 -10 Q289 -10 228 15.5 Q167 41 127.5 87.5 Q88 134 69 198.5 Q50 263 50 342 Q50 416 68.5 481 Q87 546 126 595 Q165 644 226 672 Q287 700 373 700 Q459 700 519.5 671.5 Q580 643 618 594.5 Q656 546 673 481.5 Q690 417 690 344 Z M538 342 Q538 390 531.5 436 Q525 482 506.5 517.5 Q488 553 456 575 Q424 597 373 597 Q322 597 288.5 575.5 Q255 554 235.5 518.5 Q216 483 208.5 437 Q201 391 201 341 Q201 222 240.5 157.5 Q280 93 373 93 Q417 93 448 112 Q479 131 499 164 Q519 197 528.5 242.5 Q538 288 538 342 Z M368 759 Q338 759 312 770 Q286 781 263.5 799.5 Q241 818 221 842.5 Q201 867 184 894 L242 940 Q273 896 308.5 873.5 Q344 851 372 851 Q381 851 394.5 852.5 Q408 854 427 862.5 Q446 871 469.5 887.5 Q493 904 523 934 L561 894 Q538 856 513 830 Q488 804 463.5 788 Q439 772 414.5 765.5 Q390 759 368 759 Z " />
<glyph glyph-name="obreve" unicode="&#x14f;" horiz-adv-x="574" d="M534 245 Q534 194 520 148 Q506 102 476 67 Q446 32 398.5 11.5 Q351 -9 283 -9 Q218 -9 171.5 11 Q125 31 96 65 Q67 99 53.5 145 Q40 191 40 244 Q40 296 54.5 342.5 Q69 389 99.5 424 Q130 459 177 480 Q224 501 289 501 Q355 501 402 480.5 Q449 460 478 424.5 Q507 389 520.5 342.5 Q534 296 534 245 Z M391 244 Q391 272 387 300.5 Q383 329 372 351 Q361 373 341.5 387 Q322 401 291 401 Q259 401 238 387.5 Q217 374 205 352 Q193 330 188 301.5 Q183 273 183 244 Q183 212 187 184 Q191 156 202.5 135 Q214 114 234.5 101.5 Q255 89 288 89 Q319 89 339.5 102 Q360 115 371 137 Q382 159 386.5 186.5 Q391 214 391 244 Z M285 564 Q255 564 228.5 575.5 Q202 587 179 606.5 Q156 626 136 651 Q116 676 99 703 L159 750 Q191 705 226 683 Q261 661 288 661 Q297 661 310 663 Q323 665 341 673 Q359 681 383 697.5 Q407 714 439 743 L482 702 Q458 663 432.5 637 Q407 611 381.5 594.5 Q356 578 331.5 571 Q307 564 285 564 Z " />
<glyph glyph-name="Ohungarumlaut" unicode="&#x150;" horiz-adv-x="740" d="M690 344 Q690 268 670 203.5 Q650 139 610 91.5 Q570 44 511 17 Q452 -10 373 -10 Q289 -10 228 15.5 Q167 41 127.5 87.5 Q88 134 69 198.5 Q50 263 50 342 Q50 416 68.5 481 Q87 546 126 595 Q165 644 226 672 Q287 700 373 700 Q459 700 519.5 671.5 Q580 643 618 594.5 Q656 546 673 481.5 Q690 417 690 344 Z M538 342 Q538 390 531.5 436 Q525 482 506.5 517.5 Q488 553 456 575 Q424 597 373 597 Q322 597 288.5 575.5 Q255 554 235.5 518.5 Q216 483 208.5 437 Q201 391 201 341 Q201 222 240.5 157.5 Q280 93 373 93 Q417 93 448 112 Q479 131 499 164 Q519 197 528.5 242.5 Q538 288 538 342 Z M313 748 L258 790 L388 975 L474 907 L313 748 Z M469 748 L415 790 L544 975 L630 907 L469 748 Z " />
<glyph glyph-name="ohungarumlaut" unicode="&#x151;" horiz-adv-x="574" d="M534 245 Q534 194 520 148 Q506 102 476 67 Q446 32 398.5 11.5 Q351 -9 283 -9 Q218 -9 171.5 11 Q125 31 96 65 Q67 99 53.5 145 Q40 191 40 244 Q40 296 54.5 342.5 Q69 389 99.5 424 Q130 459 177 480 Q224 501 289 501 Q355 501 402 480.5 Q449 460 478 424.5 Q507 389 520.5 342.5 Q534 296 534 245 Z M391 244 Q391 272 387 300.5 Q383 329 372 351 Q361 373 341.5 387 Q322 401 291 401 Q259 401 238 387.5 Q217 374 205 352 Q193 330 188 301.5 Q183 273 183 244 Q183 212 187 184 Q191 156 202.5 135 Q214 114 234.5 101.5 Q255 89 288 89 Q319 89 339.5 102 Q360 115 371 137 Q382 159 386.5 186.5 Q391 214 391 244 Z M190 543 L138 586 L268 771 L351 704 L190 543 Z M348 543 L297 586 L426 771 L510 704 L348 543 Z " />
<glyph glyph-name="OE" unicode="&#x152;" horiz-adv-x="894" d="M367 700 Q396 700 423 696 Q450 692 473 686 L850 686 L850 488 L750 488 L750 592 L533 592 L533 400 L734 405 L734 308 L533 311 L533 94 L761 94 L761 203 L864 203 L864 0 L453 0 Q433 -4 411.5 -6 Q390 -8 367 -8 Q283 -8 222 17 Q161 42 121.5 87.5 Q82 133 63 197.5 Q44 262 44 341 Q44 414 62.5 479.5 Q81 545 120 594 Q159 643 220 671.5 Q281 700 367 700 Z M367 90 Q372 90 378 90 Q384 90 389 91 L389 597 Q384 597 378.5 597.5 Q373 598 364 598 Q313 597 280.5 575.5 Q248 554 229 518 Q210 482 202.5 435.5 Q195 389 195 340 Q195 221 234.5 155.5 Q274 90 367 90 Z " />
<glyph glyph-name="oe" unicode="&#x153;" horiz-adv-x="880" d="M835 42 Q787 16 735.5 5 Q684 -6 634 -6 Q568 -6 526.5 13 Q485 32 459 67 Q430 33 387 12 Q344 -9 281 -9 Q215 -9 169 11 Q123 31 93.5 65 Q64 99 50.5 145 Q37 191 37 244 Q37 296 51.5 342.5 Q66 389 96.5 424 Q127 459 174 480 Q221 501 286 501 Q348 501 389.5 479.5 Q431 458 457 423 Q483 458 524.5 481 Q566 504 632 504 Q703 504 746 479 Q789 454 811.5 417.5 Q834 381 841 340 Q848 299 848 266 L848 230 L533 230 Q533 170 560 132 Q587 94 656 94 Q694 94 731 102 Q768 110 806 125 L835 42 Z M388 244 Q388 273 384 301.5 Q380 330 369 352.5 Q358 375 338 389 Q318 403 286 403 Q254 403 233.5 389 Q213 375 201 352.5 Q189 330 184.5 301.5 Q180 273 180 244 Q180 212 184 184 Q188 156 200 134.5 Q212 113 232.5 100.5 Q253 88 286 88 Q317 88 337 101.5 Q357 115 368.5 136.5 Q380 158 384 186 Q388 214 388 244 Z M722 285 Q721 341 702.5 375 Q684 409 633 409 Q607 409 589 399 Q571 389 559.5 372 Q548 355 542 332.5 Q536 310 535 285 L722 285 Z " />
<glyph glyph-name="Racute" unicode="&#x154;" horiz-adv-x="688" d="M463 488 Q463 516 454.5 536 Q446 556 431 568.5 Q416 581 396.5 586.5 Q377 592 355 592 L252 592 L252 377 L352 377 Q372 377 392 382 Q412 387 427.5 399.5 Q443 412 453 433.5 Q463 455 463 488 Z M252 285 L252 96 L325 96 L325 0 L45 0 L45 96 L110 96 L110 592 L45 592 L45 688 L385 688 Q444 688 487 673.5 Q530 659 558.5 632.5 Q587 606 600.5 569 Q614 532 614 487 Q614 463 608 436.5 Q602 410 588 385.5 Q574 361 551.5 340.5 Q529 320 496 309 L596 92 L673 82 L673 4 Q661 -1 646 -4 Q631 -7 615.5 -9 Q600 -11 586 -12 Q572 -13 563 -13 Q520 -13 499 5.5 Q478 24 462 60 L363 285 L252 285 Z M296 743 L249 792 L396 961 L472 882 L296 743 Z " />
<glyph glyph-name="racute" unicode="&#x155;" horiz-adv-x="458" d="M239 418 Q255 431 276.5 446 Q298 461 322 473.5 Q346 486 371.5 494 Q397 502 421 502 Q439 502 446.5 492.5 Q454 483 454 460 Q454 448 451.5 433 Q449 418 444 402 Q439 386 431 371.5 Q423 357 413 346 L237 356 L237 92 L305 92 L305 0 L34 0 L34 92 L98 92 L98 398 L37 398 L37 491 L235 491 L235 419 L239 418 Z M187 545 L137 597 L285 767 L361 685 L187 545 Z " />
<glyph glyph-name="Rcommaaccent" unicode="&#x156;" horiz-adv-x="688" d="M463 488 Q463 516 454.5 536 Q446 556 431 568.5 Q416 581 396.5 586.5 Q377 592 355 592 L252 592 L252 377 L352 377 Q372 377 392 382 Q412 387 427.5 399.5 Q443 412 453 433.5 Q463 455 463 488 Z M252 285 L252 96 L325 96 L325 0 L45 0 L45 96 L110 96 L110 592 L45 592 L45 688 L385 688 Q444 688 487 673.5 Q530 659 558.5 632.5 Q587 606 600.5 569 Q614 532 614 487 Q614 463 608 436.5 Q602 410 588 385.5 Q574 361 551.5 340.5 Q529 320 496 309 L596 92 L673 82 L673 4 Q661 -1 646 -4 Q631 -7 615.5 -9 Q600 -11 586 -12 Q572 -13 563 -13 Q520 -13 499 5.5 Q478 24 462 60 L363 285 L252 285 Z M271 -104 Q271 -78 291 -59.5 Q311 -41 342 -41 Q379 -41 397 -64.5 Q415 -88 414 -118 Q413 -165 382 -206.5 Q351 -248 306 -269 L274 -230 Q314 -198 317 -161 Q294 -156 282.5 -141.5 Q271 -127 271 -104 Z " />
<glyph glyph-name="rcommaaccent" unicode="&#x157;" horiz-adv-x="458" d="M239 418 Q255 431 276.5 446 Q298 461 322 473.5 Q346 486 371.5 494 Q397 502 421 502 Q439 502 446.5 492.5 Q454 483 454 460 Q454 448 451.5 433 Q449 418 444 402 Q439 386 431 371.5 Q423 357 413 346 L237 356 L237 92 L305 92 L305 0 L34 0 L34 92 L98 92 L98 398 L37 398 L37 491 L235 491 L235 419 L239 418 Z M106 -104 Q106 -78 126 -59.5 Q146 -41 177 -41 Q214 -41 232 -64.5 Q250 -88 249 -118 Q248 -165 217 -206.5 Q186 -248 141 -269 L109 -230 Q149 -198 152 -161 Q129 -156 117.5 -141.5 Q106 -127 106 -104 Z " />
<glyph glyph-name="Rcaron" unicode="&#x158;" horiz-adv-x="688" d="M463 488 Q463 516 454.5 536 Q446 556 431 568.5 Q416 581 396.5 586.5 Q377 592 355 592 L252 592 L252 377 L352 377 Q372 377 392 382 Q412 387 427.5 399.5 Q443 412 453 433.5 Q463 455 463 488 Z M252 285 L252 96 L325 96 L325 0 L45 0 L45 96 L110 96 L110 592 L45 592 L45 688 L385 688 Q444 688 487 673.5 Q530 659 558.5 632.5 Q587 606 600.5 569 Q614 532 614 487 Q614 463 608 436.5 Q602 410 588 385.5 Q574 361 551.5 340.5 Q529 320 496 309 L596 92 L673 82 L673 4 Q661 -1 646 -4 Q631 -7 615.5 -9 Q600 -11 586 -12 Q572 -13 563 -13 Q520 -13 499 5.5 Q478 24 462 60 L363 285 L252 285 Z M528 896 L372 751 L285 751 L131 898 L165 937 L328 845 L493 938 L528 896 Z " />
<glyph glyph-name="rcaron" unicode="&#x159;" horiz-adv-x="458" d="M239 418 Q255 431 276.5 446 Q298 461 322 473.5 Q346 486 371.5 494 Q397 502 421 502 Q439 502 446.5 492.5 Q454 483 454 460 Q454 448 451.5 433 Q449 418 444 402 Q439 386 431 371.5 Q423 357 413 346 L237 356 L237 92 L305 92 L305 0 L34 0 L34 92 L98 92 L98 398 L37 398 L37 491 L235 491 L235 419 L239 418 Z M412 712 L256 558 L169 558 L14 713 L47 753 L212 656 L376 753 L412 712 Z " />
<glyph glyph-name="Sacute" unicode="&#x15a;" horiz-adv-x="614" d="M142 199 Q142 179 142.5 161 Q143 143 143 123 Q177 108 214 102.5 Q251 97 280 97 Q319 97 345 105 Q371 113 386.5 126 Q402 139 409 156 Q416 173 416 190 Q416 214 405 230.5 Q394 247 374.5 258.5 Q355 270 328.5 278.5 Q302 287 270 295 Q221 307 180 322.5 Q139 338 109 360.5 Q79 383 62 414 Q45 445 45 489 Q45 539 64 577.5 Q83 616 117.5 642.5 Q152 669 200 683 Q248 697 305 697 Q355 697 414.5 687.5 Q474 678 522 653 Q522 614 522.5 575.5 Q523 537 523 498 L421 498 Q421 518 420.5 537 Q420 556 420 576 Q398 585 366 589 Q334 593 310 593 Q250 593 222 568 Q194 543 194 504 Q194 483 204 468.5 Q214 454 232.5 442.5 Q251 431 278.5 422 Q306 413 342 404 Q385 392 427 378 Q469 364 501.5 341.5 Q534 319 554 284.5 Q574 250 574 198 Q574 145 554 105.5 Q534 66 497 40.5 Q460 15 407 2.5 Q354 -10 289 -10 Q228 -10 163.5 0.5 Q99 11 42 38 Q42 78 41.5 118 Q41 158 41 199 L142 199 Z M294 741 L247 790 L394 959 L470 880 L294 741 Z " />
<glyph glyph-name="sacute" unicode="&#x15b;" horiz-adv-x="499" d="M128 158 L130 100 Q147 92 175 87.5 Q203 83 225 83 Q263 83 291 95.5 Q319 108 319 134 Q319 159 298 173 Q277 187 246 198 Q215 209 178 218.5 Q141 228 110 244 Q79 260 58 284 Q37 308 37 348 Q37 427 94 464 Q151 501 248 501 Q293 501 340.5 492 Q388 483 425 463 Q425 432 425 401.5 Q425 371 426 339 L328 339 L328 395 Q313 401 293.5 404 Q274 407 257 407 Q223 407 201 394 Q179 381 179 356 Q179 335 200 324 Q221 313 252.5 305 Q284 297 320.5 288 Q357 279 388.5 261 Q420 243 441 213 Q462 183 462 134 Q462 62 402.5 26.5 Q343 -9 234 -9 Q213 -9 187.5 -7.5 Q162 -6 135.5 -1.5 Q109 3 82.5 10.5 Q56 18 33 30 Q33 61 33 94 Q33 127 32 158 L128 158 Z M198 545 L148 597 L296 767 L372 685 L198 545 Z " />
<glyph glyph-name="Scircumflex" unicode="&#x15c;" horiz-adv-x="614" d="M142 199 Q142 179 142.5 161 Q143 143 143 123 Q177 108 214 102.5 Q251 97 280 97 Q319 97 345 105 Q371 113 386.5 126 Q402 139 409 156 Q416 173 416 190 Q416 214 405 230.5 Q394 247 374.5 258.5 Q355 270 328.5 278.5 Q302 287 270 295 Q221 307 180 322.5 Q139 338 109 360.5 Q79 383 62 414 Q45 445 45 489 Q45 539 64 577.5 Q83 616 117.5 642.5 Q152 669 200 683 Q248 697 305 697 Q355 697 414.5 687.5 Q474 678 522 653 Q522 614 522.5 575.5 Q523 537 523 498 L421 498 Q421 518 420.5 537 Q420 556 420 576 Q398 585 366 589 Q334 593 310 593 Q250 593 222 568 Q194 543 194 504 Q194 483 204 468.5 Q214 454 232.5 442.5 Q251 431 278.5 422 Q306 413 342 404 Q385 392 427 378 Q469 364 501.5 341.5 Q534 319 554 284.5 Q574 250 574 198 Q574 145 554 105.5 Q534 66 497 40.5 Q460 15 407 2.5 Q354 -10 289 -10 Q228 -10 163.5 0.5 Q99 11 42 38 Q42 78 41.5 118 Q41 158 41 199 L142 199 Z M477 737 L312 828 L149 736 L115 777 L269 924 L357 924 L512 778 L477 737 Z " />
<glyph glyph-name="scircumflex" unicode="&#x15d;" horiz-adv-x="499" d="M128 158 L130 100 Q147 92 175 87.5 Q203 83 225 83 Q263 83 291 95.5 Q319 108 319 134 Q319 159 298 173 Q277 187 246 198 Q215 209 178 218.5 Q141 228 110 244 Q79 260 58 284 Q37 308 37 348 Q37 427 94 464 Q151 501 248 501 Q293 501 340.5 492 Q388 483 425 463 Q425 432 425 401.5 Q425 371 426 339 L328 339 L328 395 Q313 401 293.5 404 Q274 407 257 407 Q223 407 201 394 Q179 381 179 356 Q179 335 200 324 Q221 313 252.5 305 Q284 297 320.5 288 Q357 279 388.5 261 Q420 243 441 213 Q462 183 462 134 Q462 62 402.5 26.5 Q343 -9 234 -9 Q213 -9 187.5 -7.5 Q162 -6 135.5 -1.5 Q109 3 82.5 10.5 Q56 18 33 30 Q33 61 33 94 Q33 127 32 158 L128 158 Z M404 556 L239 651 L75 555 L42 596 L196 750 L284 750 L440 598 L404 556 Z " />
<glyph glyph-name="Scedilla" unicode="&#x15e;" horiz-adv-x="614" d="M142 199 Q142 179 142.5 161 Q143 143 143 123 Q177 108 214 102.5 Q251 97 280 97 Q319 97 345 105 Q371 113 386.5 126 Q402 139 409 156 Q416 173 416 190 Q416 214 405 230.5 Q394 247 374.5 258.5 Q355 270 328.5 278.5 Q302 287 270 295 Q221 307 180 322.5 Q139 338 109 360.5 Q79 383 62 414 Q45 445 45 489 Q45 539 64 577.5 Q83 616 117.5 642.5 Q152 669 200 683 Q248 697 305 697 Q355 697 414.5 687.5 Q474 678 522 653 Q522 614 522.5 575.5 Q523 537 523 498 L421 498 Q421 518 420.5 537 Q420 556 420 576 Q398 585 366 589 Q334 593 310 593 Q250 593 222 568 Q194 543 194 504 Q194 483 204 468.5 Q214 454 232.5 442.5 Q251 431 278.5 422 Q306 413 342 404 Q385 392 427 378 Q469 364 501.5 341.5 Q534 319 554 284.5 Q574 250 574 198 Q574 145 554 105.5 Q534 66 497 40.5 Q460 15 407 2.5 Q354 -10 289 -10 Q228 -10 163.5 0.5 Q99 11 42 38 Q42 78 41.5 118 Q41 158 41 199 L142 199 Z M352 17 Q338 -1 323 -20 Q308 -39 294 -59 Q344 -62 373 -83.5 Q402 -105 402 -145 Q402 -166 390.5 -185.5 Q379 -205 356 -220 Q333 -235 296.5 -244 Q260 -253 211 -253 Q211 -241 210.5 -229 Q210 -217 210 -205 Q264 -200 294 -186.5 Q324 -173 324 -150 Q324 -138 316 -131 Q308 -124 294.5 -120 Q281 -116 264.5 -115 Q248 -114 230 -114 Q225 -107 222 -101.5 Q219 -96 214 -90 Q240 -57 264 -24.5 Q288 8 314 40 Q323 33 333 28 Q343 23 352 17 Z " />
<glyph glyph-name="scedilla" unicode="&#x15f;" horiz-adv-x="499" d="M128 158 L130 100 Q147 92 175 87.5 Q203 83 225 83 Q263 83 291 95.5 Q319 108 319 134 Q319 159 298 173 Q277 187 246 198 Q215 209 178 218.5 Q141 228 110 244 Q79 260 58 284 Q37 308 37 348 Q37 427 94 464 Q151 501 248 501 Q293 501 340.5 492 Q388 483 425 463 Q425 432 425 401.5 Q425 371 426 339 L328 339 L328 395 Q313 401 293.5 404 Q274 407 257 407 Q223 407 201 394 Q179 381 179 356 Q179 335 200 324 Q221 313 252.5 305 Q284 297 320.5 288 Q357 279 388.5 261 Q420 243 441 213 Q462 183 462 134 Q462 62 402.5 26.5 Q343 -9 234 -9 Q213 -9 187.5 -7.5 Q162 -6 135.5 -1.5 Q109 3 82.5 10.5 Q56 18 33 30 Q33 61 33 94 Q33 127 32 158 L128 158 Z M292 16 Q278 -2 263 -21 Q248 -40 234 -60 Q284 -63 313 -84.5 Q342 -106 342 -146 Q342 -167 330.5 -186.5 Q319 -206 296 -221 Q273 -236 236.5 -245 Q200 -254 151 -254 Q151 -242 150.5 -230 Q150 -218 150 -206 Q204 -201 234 -187.5 Q264 -174 264 -151 Q264 -139 256 -132 Q248 -125 234.5 -121 Q221 -117 204.5 -116 Q188 -115 170 -115 Q165 -108 162 -102.5 Q159 -97 154 -91 Q180 -58 204 -25.5 Q228 7 254 39 Q263 32 273 27 Q283 22 292 16 Z " />
<glyph glyph-name="Scaron" unicode="&#x160;" horiz-adv-x="614" d="M142 199 Q142 179 142.5 161 Q143 143 143 123 Q177 108 214 102.5 Q251 97 280 97 Q319 97 345 105 Q371 113 386.5 126 Q402 139 409 156 Q416 173 416 190 Q416 214 405 230.5 Q394 247 374.5 258.5 Q355 270 328.5 278.5 Q302 287 270 295 Q221 307 180 322.5 Q139 338 109 360.5 Q79 383 62 414 Q45 445 45 489 Q45 539 64 577.5 Q83 616 117.5 642.5 Q152 669 200 683 Q248 697 305 697 Q355 697 414.5 687.5 Q474 678 522 653 Q522 614 522.5 575.5 Q523 537 523 498 L421 498 Q421 518 420.5 537 Q420 556 420 576 Q398 585 366 589 Q334 593 310 593 Q250 593 222 568 Q194 543 194 504 Q194 483 204 468.5 Q214 454 232.5 442.5 Q251 431 278.5 422 Q306 413 342 404 Q385 392 427 378 Q469 364 501.5 341.5 Q534 319 554 284.5 Q574 250 574 198 Q574 145 554 105.5 Q534 66 497 40.5 Q460 15 407 2.5 Q354 -10 289 -10 Q228 -10 163.5 0.5 Q99 11 42 38 Q42 78 41.5 118 Q41 158 41 199 L142 199 Z M497 896 L341 751 L254 751 L100 898 L134 937 L297 845 L462 938 L497 896 Z " />
<glyph glyph-name="scaron" unicode="&#x161;" horiz-adv-x="499" d="M128 158 L130 100 Q147 92 175 87.5 Q203 83 225 83 Q263 83 291 95.5 Q319 108 319 134 Q319 159 298 173 Q277 187 246 198 Q215 209 178 218.5 Q141 228 110 244 Q79 260 58 284 Q37 308 37 348 Q37 427 94 464 Q151 501 248 501 Q293 501 340.5 492 Q388 483 425 463 Q425 432 425 401.5 Q425 371 426 339 L328 339 L328 395 Q313 401 293.5 404 Q274 407 257 407 Q223 407 201 394 Q179 381 179 356 Q179 335 200 324 Q221 313 252.5 305 Q284 297 320.5 288 Q357 279 388.5 261 Q420 243 441 213 Q462 183 462 134 Q462 62 402.5 26.5 Q343 -9 234 -9 Q213 -9 187.5 -7.5 Q162 -6 135.5 -1.5 Q109 3 82.5 10.5 Q56 18 33 30 Q33 61 33 94 Q33 127 32 158 L128 158 Z M447 712 L291 558 L204 558 L49 713 L82 753 L247 656 L411 753 L447 712 Z " />
<glyph glyph-name="Tcommaaccent" unicode="&#x162;" horiz-adv-x="630" d="M163 0 L163 95 L245 95 L245 592 L116 592 L117 480 L16 480 L16 688 L615 688 L615 480 L514 480 L514 592 L387 592 L387 95 L468 95 L468 0 L163 0 Z M242 -104 Q242 -78 262 -59.5 Q282 -41 313 -41 Q350 -41 368 -64.5 Q386 -88 385 -118 Q384 -165 353 -206.5 Q322 -248 277 -269 L245 -230 Q285 -198 288 -161 Q265 -156 253.5 -141.5 Q242 -127 242 -104 Z " />
<glyph glyph-name="tcommaaccent" unicode="&#x163;" horiz-adv-x="421" d="M224 626 L224 491 L366 491 L366 398 L223 398 L223 177 Q223 135 235.5 117 Q248 99 290 99 Q305 99 327.5 102 Q350 105 376 111 L394 20 Q362 6 324 -1 Q286 -8 254 -8 Q202 -8 169 3.5 Q136 15 117.5 35 Q99 55 92 81.5 Q85 108 85 137 L85 398 L16 398 L16 475 L94 498 L129 617 L224 626 Z M123 -104 Q123 -78 143 -59.5 Q163 -41 194 -41 Q231 -41 249 -64.5 Q267 -88 266 -118 Q265 -165 234 -206.5 Q203 -248 158 -269 L126 -230 Q166 -198 169 -161 Q146 -156 134.5 -141.5 Q123 -127 123 -104 Z " />
<glyph glyph-name="Tcaron" unicode="&#x164;" horiz-adv-x="630" d="M163 0 L163 95 L245 95 L245 592 L116 592 L117 480 L16 480 L16 688 L615 688 L615 480 L514 480 L514 592 L387 592 L387 95 L468 95 L468 0 L163 0 Z M519 896 L363 751 L276 751 L122 898 L156 937 L319 845 L484 938 L519 896 Z " />
<glyph glyph-name="tcaron" unicode="&#x165;" horiz-adv-x="533" d="M377 655 Q377 681 397 699.5 Q417 718 448 718 Q485 718 503 694.5 Q521 671 520 641 Q519 594 488 552.5 Q457 511 412 490 L380 529 Q420 561 423 598 Q400 603 388.5 617.5 Q377 632 377 655 Z M224 626 L224 491 L366 491 L366 398 L223 398 L223 177 Q223 135 235.5 117 Q248 99 290 99 Q305 99 327.5 102 Q350 105 376 111 L394 20 Q362 6 324 -1 Q286 -8 254 -8 Q202 -8 169 3.5 Q136 15 117.5 35 Q99 55 92 81.5 Q85 108 85 137 L85 398 L16 398 L16 475 L94 498 L129 617 L224 626 Z " />
<glyph glyph-name="Tbar" unicode="&#x166;" horiz-adv-x="630" d="M163 0 L163 95 L245 95 L245 316 L101 316 L101 383 L245 383 L245 592 L116 592 L117 480 L16 480 L16 688 L615 688 L615 480 L514 480 L514 592 L387 592 L387 383 L525 383 L525 316 L387 316 L387 95 L468 95 L468 0 L163 0 Z " />
<glyph glyph-name="tbar" unicode="&#x167;" horiz-adv-x="421" d="M224 626 L224 491 L366 491 L366 398 L223 398 L223 332 L358 332 L358 268 L223 268 L223 177 Q223 135 235.5 117 Q248 99 290 99 Q305 99 327.5 102 Q350 105 376 111 L394 20 Q362 6 324 -1 Q286 -8 254 -8 Q202 -8 169 3.5 Q136 15 117.5 35 Q99 55 92 81.5 Q85 108 85 137 L85 268 L20 268 L20 332 L85 332 L85 398 L16 398 L16 475 L94 498 L129 617 L224 626 Z " />
<glyph glyph-name="Utilde" unicode="&#x168;" horiz-adv-x="757" d="M664 253 Q664 131 595 61 Q526 -9 378 -9 Q301 -9 246.5 9 Q192 27 157.5 60.5 Q123 94 107 142.5 Q91 191 91 253 L91 592 L33 592 L33 688 L296 688 L296 592 L231 592 L231 250 Q231 170 269 132.5 Q307 95 379 95 Q446 95 485.5 131.5 Q525 168 525 250 L525 592 L462 592 L462 688 L724 688 L724 592 L664 592 L664 253 Z M463 781 Q438 781 413.5 787 Q389 793 366.5 800.5 Q344 808 324.5 814 Q305 820 290 820 L234 781 L193 813 Q210 861 236.5 883 Q263 905 296 905 Q317 905 339.5 899 Q362 893 384.5 886 Q407 879 428.5 873 Q450 867 468 867 L524 908 L565 875 Q550 830 524 805.5 Q498 781 463 781 Z " />
<glyph glyph-name="utilde" unicode="&#x169;" horiz-adv-x="635" d="M242 -11 Q198 -11 169 1 Q140 13 122.5 34.5 Q105 56 97.5 85 Q90 114 90 148 L90 397 L24 397 L24 490 L230 490 L230 177 Q230 139 241.5 119 Q253 99 294 99 Q314 99 344.5 109.5 Q375 120 402 146 L402 397 L345 397 L345 490 L542 490 L542 95 L608 95 L608 13 Q573 1 544.5 -3.5 Q516 -8 497 -8 Q452 -8 432.5 7.5 Q413 23 408 58 Q366 20 323 4.5 Q280 -11 242 -11 Z M402 590 Q377 590 352.5 596 Q328 602 305.5 609.5 Q283 617 263.5 623 Q244 629 229 629 L173 590 L132 622 Q149 670 175.5 692 Q202 714 235 714 Q256 714 278.5 708 Q301 702 323.5 695 Q346 688 367.5 682 Q389 676 407 676 L463 717 L504 684 Q489 639 463 614.5 Q437 590 402 590 Z " />
<glyph glyph-name="Umacron" unicode="&#x16a;" horiz-adv-x="757" d="M664 253 Q664 131 595 61 Q526 -9 378 -9 Q301 -9 246.5 9 Q192 27 157.5 60.5 Q123 94 107 142.5 Q91 191 91 253 L91 592 L33 592 L33 688 L296 688 L296 592 L231 592 L231 250 Q231 170 269 132.5 Q307 95 379 95 Q446 95 485.5 131.5 Q525 168 525 250 L525 592 L462 592 L462 688 L724 688 L724 592 L664 592 L664 253 Z M208 890 L562 890 L562 799 L208 799 L208 890 Z " />
<glyph glyph-name="umacron" unicode="&#x16b;" horiz-adv-x="635" d="M242 -11 Q198 -11 169 1 Q140 13 122.5 34.5 Q105 56 97.5 85 Q90 114 90 148 L90 397 L24 397 L24 490 L230 490 L230 177 Q230 139 241.5 119 Q253 99 294 99 Q314 99 344.5 109.5 Q375 120 402 146 L402 397 L345 397 L345 490 L542 490 L542 95 L608 95 L608 13 Q573 1 544.5 -3.5 Q516 -8 497 -8 Q452 -8 432.5 7.5 Q413 23 408 58 Q366 20 323 4.5 Q280 -11 242 -11 Z M126 687 L489 687 L489 596 L126 596 L126 687 Z " />
<glyph glyph-name="Ubreve" unicode="&#x16c;" horiz-adv-x="757" d="M664 253 Q664 131 595 61 Q526 -9 378 -9 Q301 -9 246.5 9 Q192 27 157.5 60.5 Q123 94 107 142.5 Q91 191 91 253 L91 592 L33 592 L33 688 L296 688 L296 592 L231 592 L231 250 Q231 170 269 132.5 Q307 95 379 95 Q446 95 485.5 131.5 Q525 168 525 250 L525 592 L462 592 L462 688 L724 688 L724 592 L664 592 L664 253 Z M376 745 Q346 745 319.5 756.5 Q293 768 270 787.5 Q247 807 227 832 Q207 857 190 884 L250 931 Q282 886 317 864 Q352 842 379 842 Q388 842 401 844 Q414 846 432 854 Q450 862 474 878.5 Q498 895 530 924 L573 883 Q549 844 523.5 818 Q498 792 472.5 775.5 Q447 759 422.5 752 Q398 745 376 745 Z " />
<glyph glyph-name="ubreve" unicode="&#x16d;" horiz-adv-x="635" d="M242 -11 Q198 -11 169 1 Q140 13 122.5 34.5 Q105 56 97.5 85 Q90 114 90 148 L90 397 L24 397 L24 490 L230 490 L230 177 Q230 139 241.5 119 Q253 99 294 99 Q314 99 344.5 109.5 Q375 120 402 146 L402 397 L345 397 L345 490 L542 490 L542 95 L608 95 L608 13 Q573 1 544.5 -3.5 Q516 -8 497 -8 Q452 -8 432.5 7.5 Q413 23 408 58 Q366 20 323 4.5 Q280 -11 242 -11 Z M299 564 Q269 564 242.5 575.5 Q216 587 193 606.5 Q170 626 150 651 Q130 676 113 703 L173 750 Q205 705 240 683 Q275 661 302 661 Q311 661 324 663 Q337 665 355 673 Q373 681 397 697.5 Q421 714 453 743 L496 702 Q472 663 446.5 637 Q421 611 395.5 594.5 Q370 578 345.5 571 Q321 564 299 564 Z " />
<glyph glyph-name="Uring" unicode="&#x16e;" horiz-adv-x="757" d="M664 253 Q664 131 595 61 Q526 -9 378 -9 Q301 -9 246.5 9 Q192 27 157.5 60.5 Q123 94 107 142.5 Q91 191 91 253 L91 592 L33 592 L33 688 L296 688 L296 592 L231 592 L231 250 Q231 170 269 132.5 Q307 95 379 95 Q446 95 485.5 131.5 Q525 168 525 250 L525 592 L462 592 L462 688 L724 688 L724 592 L664 592 L664 253 Z M383 740 Q357 740 334 749.5 Q311 759 294.5 775.5 Q278 792 268.5 813.5 Q259 835 259 860 Q259 884 268.5 905.5 Q278 927 294.5 943.5 Q311 960 334 969.5 Q357 979 383 979 Q409 979 431 969.5 Q453 960 469 943.5 Q485 927 494 905.5 Q503 884 503 860 Q503 834 493.5 812.5 Q484 791 468 774.5 Q452 758 430 749 Q408 740 383 740 Z M383 914 Q359 914 342.5 897 Q326 880 326 857 Q326 836 341.5 819.5 Q357 803 383 803 Q406 803 421 819.5 Q436 836 436 857 Q436 880 421.5 897 Q407 914 383 914 Z " />
<glyph glyph-name="uring" unicode="&#x16f;" horiz-adv-x="635" d="M242 -11 Q198 -11 169 1 Q140 13 122.5 34.5 Q105 56 97.5 85 Q90 114 90 148 L90 397 L24 397 L24 490 L230 490 L230 177 Q230 139 241.5 119 Q253 99 294 99 Q314 99 344.5 109.5 Q375 120 402 146 L402 397 L345 397 L345 490 L542 490 L542 95 L608 95 L608 13 Q573 1 544.5 -3.5 Q516 -8 497 -8 Q452 -8 432.5 7.5 Q413 23 408 58 Q366 20 323 4.5 Q280 -11 242 -11 Z M300 554 Q274 554 251 563.5 Q228 573 211.5 589.5 Q195 606 185.5 627.5 Q176 649 176 674 Q176 698 185.5 719.5 Q195 741 211.5 757.5 Q228 774 251 783.5 Q274 793 300 793 Q326 793 348 783.5 Q370 774 386 757.5 Q402 741 411 719.5 Q420 698 420 674 Q420 648 410.5 626.5 Q401 605 385 588.5 Q369 572 347 563 Q325 554 300 554 Z M300 728 Q276 728 259.5 711 Q243 694 243 671 Q243 650 258.5 633.5 Q274 617 300 617 Q323 617 338 633.5 Q353 650 353 671 Q353 694 338.5 711 Q324 728 300 728 Z " />
<glyph glyph-name="Uhungarumlaut" unicode="&#x170;" horiz-adv-x="757" d="M664 253 Q664 131 595 61 Q526 -9 378 -9 Q301 -9 246.5 9 Q192 27 157.5 60.5 Q123 94 107 142.5 Q91 191 91 253 L91 592 L33 592 L33 688 L296 688 L296 592 L231 592 L231 250 Q231 170 269 132.5 Q307 95 379 95 Q446 95 485.5 131.5 Q525 168 525 250 L525 592 L462 592 L462 688 L724 688 L724 592 L664 592 L664 253 Z M312 748 L257 790 L387 975 L473 907 L312 748 Z M468 748 L414 790 L543 975 L629 907 L468 748 Z " />
<glyph glyph-name="uhungarumlaut" unicode="&#x171;" horiz-adv-x="635" d="M242 -11 Q198 -11 169 1 Q140 13 122.5 34.5 Q105 56 97.5 85 Q90 114 90 148 L90 397 L24 397 L24 490 L230 490 L230 177 Q230 139 241.5 119 Q253 99 294 99 Q314 99 344.5 109.5 Q375 120 402 146 L402 397 L345 397 L345 490 L542 490 L542 95 L608 95 L608 13 Q573 1 544.5 -3.5 Q516 -8 497 -8 Q452 -8 432.5 7.5 Q413 23 408 58 Q366 20 323 4.5 Q280 -11 242 -11 Z M205 543 L153 586 L283 771 L366 704 L205 543 Z M363 543 L312 586 L441 771 L525 704 L363 543 Z " />
<glyph glyph-name="Uogonek" unicode="&#x172;" horiz-adv-x="757" d="M664 253 Q664 131 595 61 Q526 -9 378 -9 Q301 -9 246.5 9 Q192 27 157.5 60.5 Q123 94 107 142.5 Q91 191 91 253 L91 592 L33 592 L33 688 L296 688 L296 592 L231 592 L231 250 Q231 170 269 132.5 Q307 95 379 95 Q446 95 485.5 131.5 Q525 168 525 250 L525 592 L462 592 L462 688 L724 688 L724 592 L664 592 L664 253 Z M387 36 Q393 31 399.5 27 Q406 23 412 18 Q386 -12 368.5 -49 Q351 -86 350 -113 Q350 -163 405 -163 Q425 -163 445 -159 Q465 -155 482 -150 Q484 -161 486.5 -172 Q489 -183 491 -194 Q464 -208 433 -216 Q402 -224 372 -224 Q320 -224 293 -202.5 Q266 -181 266 -143 Q266 -127 271 -106 Q276 -85 289.5 -61.5 Q303 -38 326.5 -13 Q350 12 387 36 Z " />
<glyph glyph-name="uogonek" unicode="&#x173;" horiz-adv-x="635" d="M242 -11 Q198 -11 169 1 Q140 13 122.5 34.5 Q105 56 97.5 85 Q90 114 90 148 L90 397 L24 397 L24 490 L230 490 L230 177 Q230 139 241.5 119 Q253 99 294 99 Q314 99 344.5 109.5 Q375 120 402 146 L402 397 L345 397 L345 490 L542 490 L542 95 L608 95 L608 13 Q573 1 544.5 -3.5 Q516 -8 497 -8 Q452 -8 432.5 7.5 Q413 23 408 58 Q366 20 323 4.5 Q280 -11 242 -11 Z M532 49 Q538 44 544.5 40 Q551 36 557 31 Q531 1 513.5 -36 Q496 -73 495 -100 Q495 -150 550 -150 Q570 -150 590 -146 Q610 -142 627 -137 Q629 -148 631.5 -159 Q634 -170 636 -181 Q609 -195 578 -203 Q547 -211 517 -211 Q465 -211 438 -189.5 Q411 -168 411 -130 Q411 -114 416 -93 Q421 -72 434.5 -48.5 Q448 -25 471.5 0 Q495 25 532 49 Z " />
<glyph glyph-name="Wcircumflex" unicode="&#x174;" horiz-adv-x="1018" d="M506 483 Q501 459 496 434 Q491 409 485 383 L394 0 L216 0 L69 591 L11 591 L11 688 L279 688 L279 591 L221 591 L310 173 L314 173 L429 688 L588 688 L705 172 L709 172 L796 591 L739 591 L739 688 L1006 688 L1006 591 L949 591 L801 0 L623 0 L532 383 Q526 409 521 433.5 Q516 458 511 483 L506 483 Z M672 737 L507 828 L344 736 L310 777 L464 924 L552 924 L707 778 L672 737 Z " />
<glyph glyph-name="wcircumflex" unicode="&#x175;" horiz-adv-x="858" d="M426 330 Q420 303 414 274.5 Q408 246 399 211 L348 0 L177 0 L59 397 L15 397 L15 491 L232 491 L232 397 L193 397 L262 113 L266 113 L359 491 L502 491 L596 113 L600 113 L667 397 L628 397 L628 491 L845 491 L845 397 L801 397 L682 0 L511 0 L460 210 Q452 244 445 273 Q438 302 432 330 L426 330 Z M591 556 L426 651 L262 555 L229 596 L383 750 L471 750 L627 598 L591 556 Z " />
<glyph glyph-name="Ycircumflex" unicode="&#x176;" horiz-adv-x="666" d="M457 591 L399 591 L399 688 L654 688 L654 591 L599 591 L406 272 L406 95 L484 95 L484 0 L177 0 L177 95 L255 95 L255 270 L66 591 L13 591 L13 688 L270 688 L270 591 L213 591 L332 370 L336 370 L457 591 Z M506 737 L341 828 L178 736 L144 777 L298 924 L386 924 L541 778 L506 737 Z " />
<glyph glyph-name="ycircumflex" unicode="&#x177;" horiz-adv-x="595" d="M23 397 L23 490 L257 490 L257 397 L203 397 L293 101 L297 101 Q301 116 314.5 157 Q328 198 343 245.5 Q358 293 372 336 Q386 379 392 397 L338 397 L338 490 L572 490 L572 397 L525 397 L344 -111 Q326 -162 294 -188.5 Q262 -215 196 -215 Q193 -215 181 -214.5 Q169 -214 151 -212.5 Q133 -211 111 -207 Q89 -203 66 -195 L85 -95 Q106 -99 124.5 -101.5 Q143 -104 160 -104 Q193 -104 207 -94.5 Q221 -85 229 -66 L259 11 L196 11 L71 397 L23 397 Z M454 556 L289 651 L125 555 L92 596 L246 750 L334 750 L490 598 L454 556 Z " />
<glyph glyph-name="Ydieresis" unicode="&#x178;" horiz-adv-x="666" d="M457 591 L399 591 L399 688 L654 688 L654 591 L599 591 L406 272 L406 95 L484 95 L484 0 L177 0 L177 95 L255 95 L255 270 L66 591 L13 591 L13 688 L270 688 L270 591 L213 591 L332 370 L336 370 L457 591 Z M496 835 Q496 809 477 790.5 Q458 772 429 772 Q403 772 384.5 790.5 Q366 809 366 835 Q366 862 384.5 880.5 Q403 899 429 899 Q458 899 477 881 Q496 863 496 835 Z M296 835 Q296 809 277.5 790.5 Q259 772 231 772 Q204 772 185.5 790.5 Q167 809 167 835 Q167 862 186 880.5 Q205 899 230 899 Q259 899 277.5 881 Q296 863 296 835 Z " />
<glyph glyph-name="Zacute" unicode="&#x179;" horiz-adv-x="608" d="M203 96 L482 96 L482 223 L585 223 L585 0 L25 0 L25 94 L385 592 L151 592 L151 481 L49 481 L49 688 L565 688 L565 596 L203 96 Z M308 743 L261 792 L408 961 L484 882 L308 743 Z " />
<glyph glyph-name="zacute" unicode="&#x17a;" horiz-adv-x="507" d="M195 87 L381 87 L381 171 L475 171 L475 0 L25 0 L25 80 L300 402 L141 402 L141 325 L47 325 L47 491 L471 491 L471 413 L195 87 Z M205 545 L155 597 L303 767 L379 685 L205 545 Z " />
<glyph glyph-name="Zdotaccent" unicode="&#x17b;" horiz-adv-x="608" d="M203 96 L482 96 L482 223 L585 223 L585 0 L25 0 L25 94 L385 592 L151 592 L151 481 L49 481 L49 688 L565 688 L565 596 L203 96 Z M405 849 Q405 815 384 792.5 Q363 770 323 770 Q284 770 264 792.5 Q244 815 244 849 Q244 884 264 906.5 Q284 929 323 929 Q363 929 384 906.5 Q405 884 405 849 Z " />
<glyph glyph-name="zdotaccent" unicode="&#x17c;" horiz-adv-x="507" d="M195 87 L381 87 L381 171 L475 171 L475 0 L25 0 L25 80 L300 402 L141 402 L141 325 L47 325 L47 491 L471 491 L471 413 L195 87 Z M350 657 Q350 623 329 600.5 Q308 578 268 578 Q229 578 209 600.5 Q189 623 189 657 Q189 692 209 714.5 Q229 737 268 737 Q308 737 329 714.5 Q350 692 350 657 Z " />
<glyph glyph-name="Zcaron" unicode="&#x17d;" horiz-adv-x="608" d="M203 96 L482 96 L482 223 L585 223 L585 0 L25 0 L25 94 L385 592 L151 592 L151 481 L49 481 L49 688 L565 688 L565 596 L203 96 Z M518 896 L362 751 L275 751 L121 898 L155 937 L318 845 L483 938 L518 896 Z " />
<glyph glyph-name="zcaron" unicode="&#x17e;" horiz-adv-x="507" d="M195 87 L381 87 L381 171 L475 171 L475 0 L25 0 L25 80 L300 402 L141 402 L141 325 L47 325 L47 491 L471 491 L471 413 L195 87 Z M453 712 L297 558 L210 558 L55 713 L88 753 L253 656 L417 753 L453 712 Z " />
<glyph glyph-name="florin" unicode="&#x192;" horiz-adv-x="597" d="M155 409 L249 409 L257 466 Q263 506 273 547.5 Q283 589 304.5 623 Q326 657 362 678.5 Q398 700 455 700 Q481 700 512.5 696.5 Q544 693 576 682 L552 589 Q534 593 519 595 Q504 597 484 597 Q441 597 421 569 Q401 541 393 483 L383 409 L483 409 L483 320 L374 320 Q374 315 371.5 297.5 Q369 280 366 256 Q363 232 359.5 204 Q356 176 352 151 Q346 108 337 61 Q328 14 307 -25.5 Q286 -65 249 -91 Q212 -117 149 -117 Q124 -117 92 -112.5 Q60 -108 29 -97 L55 -5 Q78 -10 91.5 -11.5 Q105 -13 118 -13 Q143 -13 160 -3 Q177 7 188.5 29 Q200 51 207.5 86.5 Q215 122 222 174 Q223 181 225.5 203 Q228 225 231 249.5 Q234 274 236.5 294.5 Q239 315 240 320 L155 320 L155 409 Z " />
<glyph glyph-name="AEacute" unicode="&#x1fc;" horiz-adv-x="1026" d="M518 202 L279 202 L212 94 L274 94 L274 0 L10 0 L10 94 L66 94 L377 592 L324 592 L324 687 L974 687 L974 489 L872 489 L872 594 L661 594 L661 400 L872 406 L872 308 L661 313 L661 94 L884 94 L884 204 L986 204 L986 0 L447 0 L447 94 L518 94 L518 202 Z M330 293 L518 293 L518 588 L513 588 L330 293 Z M615 743 L568 792 L715 961 L791 882 L615 743 Z " />
<glyph glyph-name="aeacute" unicode="&#x1fd;" horiz-adv-x="831" d="M588 502 Q659 502 701 477 Q743 452 765 415.5 Q787 379 793.5 337.5 Q800 296 800 263 L800 224 L489 224 Q489 163 515.5 127.5 Q542 92 611 92 Q649 92 686 100 Q723 108 761 122 L787 39 Q740 13 689 2.5 Q638 -8 589 -8 Q515 -8 471.5 10.5 Q428 29 402 66 Q370 39 339.5 24 Q309 9 281.5 1 Q254 -7 231 -9 Q208 -11 190 -11 Q141 -11 110 3.5 Q79 18 61 39.5 Q43 61 36.5 86 Q30 111 30 132 Q30 158 38.5 185 Q47 212 68 233.5 Q89 255 123 269 Q157 283 208 283 L354 283 L354 312 Q354 361 330 380.5 Q306 400 253 400 Q210 400 169 393 Q128 386 95 375 L72 461 Q115 480 172 490.5 Q229 501 281 501 Q303 501 326 497.5 Q349 494 369 485.5 Q389 477 405.5 464 Q422 451 431 433 Q456 465 494.5 483.5 Q533 502 588 502 Z M248 78 Q258 78 273 81 Q288 84 305 90 Q322 96 338.5 105 Q355 114 368 126 Q353 169 352 222 L263 222 Q219 222 196.5 203 Q174 184 174 151 Q174 78 248 78 Z M589 406 Q563 406 545 396 Q527 386 515.5 369 Q504 352 498.5 329.5 Q493 307 492 283 L676 283 Q676 338 657.5 372 Q639 406 589 406 Z M431 545 L381 597 L529 767 L605 685 L431 545 Z " />
<glyph glyph-name="Oslashacute" unicode="&#x1fe;" horiz-adv-x="740" d="M690 344 Q690 268 670 203.5 Q650 139 610 91.5 Q570 44 511 17 Q452 -10 373 -10 Q304 -10 251.5 6.5 Q199 23 161 55 L116 0 L55 0 L126 88 Q87 135 68.5 199 Q50 263 50 342 Q50 416 68.5 481 Q87 546 126 595 Q165 644 226 672 Q287 700 373 700 Q439 700 488 684 Q537 668 575 637 L614 688 L681 688 L611 604 Q653 554 671.5 486.5 Q690 419 690 344 Z M538 342 Q538 380 532.5 419.5 Q527 459 513 491 L243 151 Q265 122 296.5 107 Q328 92 373 92 Q417 92 448 111 Q479 130 499 163.5 Q519 197 528.5 242.5 Q538 288 538 342 Z M201 341 Q201 253 223 202 L492 541 Q472 567 443.5 583 Q415 599 373 599 Q322 599 288.5 577.5 Q255 556 235.5 520 Q216 484 208.5 437.5 Q201 391 201 341 Z M381 743 L334 792 L481 961 L557 882 L381 743 Z " />
<glyph glyph-name="oslashacute" unicode="&#x1ff;" horiz-adv-x="574" d="M288 500 Q337 500 374.5 488 Q412 476 441 455 Q451 466 458 473.5 Q465 481 474 493 L530 493 L473 429 Q505 393 519 345.5 Q533 298 533 244 Q533 193 519.5 147 Q506 101 476 66.5 Q446 32 398 12 Q350 -8 282 -8 Q186 -8 128 33 Q120 23 114.5 16 Q109 9 100 0 L43 0 Q58 17 69.5 30.5 Q81 44 96 61 Q66 96 53 142.5 Q40 189 40 243 Q40 295 54.5 341.5 Q69 388 99 423 Q129 458 176 479 Q223 500 288 500 Z M389 243 Q389 263 386.5 285.5 Q384 308 376 326 Q334 274 293 222.5 Q252 171 210 119 Q223 105 241.5 96 Q260 87 288 87 Q319 87 339 100 Q359 113 370 135 Q381 157 385 185 Q389 213 389 243 Z M288 402 Q258 402 238 389.5 Q218 377 205.5 356 Q193 335 187.5 308.5 Q182 282 182 254 Q182 230 184.5 207 Q187 184 195 164 L359 369 Q348 384 331 393 Q314 402 288 402 Z M273 545 L223 597 L371 767 L447 685 L273 545 Z " />
<glyph glyph-name="Scommaaccent" unicode="&#x218;" horiz-adv-x="614" d="M142 199 Q142 179 142.5 161 Q143 143 143 123 Q177 108 214 102.5 Q251 97 280 97 Q319 97 345 105 Q371 113 386.5 126 Q402 139 409 156 Q416 173 416 190 Q416 214 405 230.5 Q394 247 374.5 258.5 Q355 270 328.5 278.5 Q302 287 270 295 Q221 307 180 322.5 Q139 338 109 360.5 Q79 383 62 414 Q45 445 45 489 Q45 539 64 577.5 Q83 616 117.5 642.5 Q152 669 200 683 Q248 697 305 697 Q355 697 414.5 687.5 Q474 678 522 653 Q522 614 522.5 575.5 Q523 537 523 498 L421 498 Q421 518 420.5 537 Q420 556 420 576 Q398 585 366 589 Q334 593 310 593 Q250 593 222 568 Q194 543 194 504 Q194 483 204 468.5 Q214 454 232.5 442.5 Q251 431 278.5 422 Q306 413 342 404 Q385 392 427 378 Q469 364 501.5 341.5 Q534 319 554 284.5 Q574 250 574 198 Q574 145 554 105.5 Q534 66 497 40.5 Q460 15 407 2.5 Q354 -10 289 -10 Q228 -10 163.5 0.5 Q99 11 42 38 Q42 78 41.5 118 Q41 158 41 199 L142 199 Z M239 -104 Q239 -78 259 -59.5 Q279 -41 310 -41 Q347 -41 365 -64.5 Q383 -88 382 -118 Q381 -165 350 -206.5 Q319 -248 274 -269 L242 -230 Q282 -198 285 -161 Q262 -156 250.5 -141.5 Q239 -127 239 -104 Z " />
<glyph glyph-name="scommaaccent" unicode="&#x219;" horiz-adv-x="499" d="M128 158 L130 100 Q147 92 175 87.5 Q203 83 225 83 Q263 83 291 95.5 Q319 108 319 134 Q319 159 298 173 Q277 187 246 198 Q215 209 178 218.5 Q141 228 110 244 Q79 260 58 284 Q37 308 37 348 Q37 427 94 464 Q151 501 248 501 Q293 501 340.5 492 Q388 483 425 463 Q425 432 425 401.5 Q425 371 426 339 L328 339 L328 395 Q313 401 293.5 404 Q274 407 257 407 Q223 407 201 394 Q179 381 179 356 Q179 335 200 324 Q221 313 252.5 305 Q284 297 320.5 288 Q357 279 388.5 261 Q420 243 441 213 Q462 183 462 134 Q462 62 402.5 26.5 Q343 -9 234 -9 Q213 -9 187.5 -7.5 Q162 -6 135.5 -1.5 Q109 3 82.5 10.5 Q56 18 33 30 Q33 61 33 94 Q33 127 32 158 L128 158 Z M188 -104 Q188 -78 208 -59.5 Q228 -41 259 -41 Q296 -41 314 -64.5 Q332 -88 331 -118 Q330 -165 299 -206.5 Q268 -248 223 -269 L191 -230 Q231 -198 234 -161 Q211 -156 199.5 -141.5 Q188 -127 188 -104 Z " />
<glyph glyph-name="schwa" unicode="&#x259;" horiz-adv-x="532" d="M257.034 86.0494 Q282.031 86.0494 299.529 95.5483 Q317.027 105.047 329.025 120.045 Q341.024 135.043 347.023 154.041 Q353.022 173.039 354.022 193.036 L170.045 193.036 Q170.045 172.039 174.544 152.541 Q179.044 133.044 188.542 118.545 Q198.041 104.047 215.039 95.0483 Q232.037 86.0494 257.034 86.0494 Z M257.034 -10.9387 Q186.043 -10.9387 143.548 12.5584 Q101.053 36.0555 78.5558 71.5512 Q56.0586 107.047 49.0594 149.042 Q42.0603 191.037 42.0603 228.032 L42.0603 278.026 L356.022 278.026 Q357.022 340.018 330.025 370.015 Q303.028 400.011 234.037 400.011 Q195.042 400.011 158.046 392.012 Q121.051 384.013 83.0553 369.015 L53.059 453.005 Q101.053 479.001 153.547 490 Q206.04 500.999 256.034 500.999 Q329.025 500.999 375.52 479.501 Q422.014 458.004 449.011 422.508 Q476.007 387.013 486.006 341.518 Q496.005 296.024 496.005 247.03 Q496.005 207.035 485.506 161.54 Q475.007 116.046 448.011 77.5505 Q421.014 39.0552 374.52 14.0582 Q328.025 -10.9387 257.034 -10.9387 Z " />
<glyph glyph-name="circumflex" unicode="&#x2c6;" horiz-adv-x="556" d="M442 556 L277 651 L113 555 L80 596 L234 750 L322 750 L478 598 L442 556 Z " />
<glyph glyph-name="caron" unicode="&#x2c7;" horiz-adv-x="556" d="M478 712 L322 558 L235 558 L80 713 L113 753 L278 656 L442 753 L478 712 Z " />
<glyph glyph-name="breve" unicode="&#x2d8;" horiz-adv-x="571" d="M282 564 Q252 564 225.5 575.5 Q199 587 176 606.5 Q153 626 133 651 Q113 676 96 703 L156 750 Q188 705 223 683 Q258 661 285 661 Q294 661 307 663 Q320 665 338 673 Q356 681 380 697.5 Q404 714 436 743 L479 702 Q455 663 429.5 637 Q404 611 378.5 594.5 Q353 578 328.5 571 Q304 564 282 564 Z " />
<glyph glyph-name="dotaccent" unicode="&#x2d9;" horiz-adv-x="559" d="M366 657 Q366 623 345 600.5 Q324 578 284 578 Q245 578 225 600.5 Q205 623 205 657 Q205 692 225 714.5 Q245 737 284 737 Q324 737 345 714.5 Q366 692 366 657 Z " />
<glyph glyph-name="ogonek" unicode="&#x2db;" horiz-adv-x="572" d="M420 32 Q426 27 432.5 23 Q439 19 445 14 Q419 -16 401.5 -53 Q384 -90 383 -117 Q383 -167 438 -167 Q458 -167 478 -163 Q498 -159 515 -154 Q517 -165 519.5 -176 Q522 -187 524 -198 Q497 -212 466 -220 Q435 -228 405 -228 Q353 -228 326 -206.5 Q299 -185 299 -147 Q299 -131 304 -110 Q309 -89 322.5 -65.5 Q336 -42 359.5 -17 Q383 8 420 32 Z " />
<glyph glyph-name="tilde" unicode="&#x2dc;" horiz-adv-x="556" d="M367 590 Q342 590 317.5 596 Q293 602 270.5 609.5 Q248 617 228.5 623 Q209 629 194 629 L138 590 L97 622 Q114 670 140.5 692 Q167 714 200 714 Q221 714 243.5 708 Q266 702 288.5 695 Q311 688 332.5 682 Q354 676 372 676 L428 717 L469 684 Q454 639 428 614.5 Q402 590 367 590 Z " />
<glyph glyph-name="hungarumlaut" unicode="&#x2dd;" horiz-adv-x="559" d="M174 543 L122 586 L252 771 L335 704 L174 543 Z M332 543 L281 586 L410 771 L494 704 L332 543 Z " />
<glyph glyph-name="endash" unicode="&#x2013;" horiz-adv-x="645" d="M40 214 L40 300 L609 300 L609 214 L40 214 Z " />
<glyph glyph-name="emdash" unicode="&#x2014;" horiz-adv-x="939" d="M50 214 L50 300 L897 300 L897 214 L50 214 Z " />
<glyph glyph-name="quoteleft" unicode="&#x2018;" horiz-adv-x="255" d="M205 522 Q205 493 183.5 471.5 Q162 450 129 450 Q88 450 69 477 Q50 504 50 539 Q50 566 60.5 594 Q71 622 89 647.5 Q107 673 130 693.5 Q153 714 178 726 L211 681 Q187 661 173 639 Q159 617 156 587 Q181 582 193 565 Q205 548 205 522 Z " />
<glyph glyph-name="quoteright" unicode="&#x2019;" horiz-adv-x="255" d="M57 655 Q57 684 78.5 705.5 Q100 727 134 727 Q174 727 193 700 Q212 673 212 638 Q212 611 201.5 583 Q191 555 174 530 Q157 505 133.5 484.5 Q110 464 85 451 L52 496 Q76 516 89.5 538.5 Q103 561 107 590 Q81 595 69 612.5 Q57 630 57 655 Z " />
<glyph glyph-name="quotesinglbase" unicode="&#x201a;" horiz-adv-x="261" d="M51 70 Q51 99 72 120 Q93 141 128 141 Q168 141 187.5 114.5 Q207 88 207 53 Q207 26 197.5 -1.5 Q188 -29 171.5 -54.5 Q155 -80 132.5 -102 Q110 -124 83 -140 L48 -96 Q74 -72 87.5 -48 Q101 -24 105 5 Q75 8 63 26.5 Q51 45 51 70 Z " />
<glyph glyph-name="quotedblleft" unicode="&#x201c;" horiz-adv-x="421" d="M202 522 Q202 493 180.5 471.5 Q159 450 125 450 Q85 450 66 477 Q47 504 47 539 Q47 567 57.5 595 Q68 623 85.5 647.5 Q103 672 126 692.5 Q149 713 174 726 Q183 715 191 703.5 Q199 692 208 681 Q184 661 169.5 639 Q155 617 152 587 Q177 582 189.5 565 Q202 548 202 522 Z M377 522 Q377 493 355 471.5 Q333 450 300 450 Q259 450 240.5 477 Q222 504 222 539 Q222 566 232.5 594 Q243 622 260.5 647.5 Q278 673 300.5 693.5 Q323 714 348 726 Q357 715 365 703.5 Q373 692 383 681 Q359 661 344.5 639 Q330 617 327 587 Q352 582 364.5 565 Q377 548 377 522 Z " />
<glyph glyph-name="quotedblright" unicode="&#x201d;" horiz-adv-x="421" d="M229 655 Q229 684 251 705.5 Q273 727 307 727 Q347 727 366 700 Q385 673 385 638 Q385 611 374.5 583 Q364 555 347 530 Q330 505 306.5 484.5 Q283 464 258 451 L224 496 Q247 516 262 538.5 Q277 561 279 590 Q254 595 241.5 612.5 Q229 630 229 655 Z M55 655 Q55 684 76 705.5 Q97 727 132 727 Q172 727 191 700 Q210 673 210 638 Q210 611 199.5 583 Q189 555 171.5 530 Q154 505 131 484.5 Q108 464 83 451 L48 496 Q73 516 87 538.5 Q101 561 104 590 Q79 595 67 612.5 Q55 630 55 655 Z " />
<glyph glyph-name="quotedblbase" unicode="&#x201e;" horiz-adv-x="448" d="M51 70 Q51 99 72 120 Q93 141 128 141 Q168 141 187.5 114.5 Q207 88 207 53 Q207 26 197.5 -1.5 Q188 -29 171.5 -54.5 Q155 -80 132.5 -102 Q110 -124 83 -140 L48 -96 Q74 -72 87.5 -48 Q101 -24 105 5 Q75 8 63 26.5 Q51 45 51 70 Z M240 70 Q240 99 261 120 Q282 141 317 141 Q358 141 377.5 114.5 Q397 88 397 53 Q397 26 387.5 -1.5 Q378 -29 361.5 -54.5 Q345 -80 322 -102 Q299 -124 272 -140 L237 -96 Q263 -72 277 -48 Q291 -24 293 5 Q264 8 252 26.5 Q240 45 240 70 Z " />
<glyph glyph-name="dagger" unicode="&#x2020;" horiz-adv-x="487" d="M299 399 L299 -69 L184 -69 L184 399 L36 399 L36 493 L184 493 L184 690 L299 690 L299 493 L450 493 L450 399 L299 399 Z " />
<glyph glyph-name="daggerdbl" unicode="&#x2021;" horiz-adv-x="487" d="M184 204 L184 399 L36 399 L36 493 L184 493 L184 690 L299 690 L299 493 L450 493 L450 399 L299 399 L299 204 L450 204 L450 109 L299 109 L299 -69 L184 -69 L184 109 L36 109 L36 204 L184 204 Z " />
<glyph glyph-name="bullet" unicode="&#x2022;" horiz-adv-x="390" d="M323 271 Q323 244 313 220.5 Q303 197 285.5 179.5 Q268 162 244.5 152 Q221 142 195 142 Q169 142 145.5 152 Q122 162 104.5 179.5 Q87 197 77 220.5 Q67 244 67 271 Q67 298 77 321.5 Q87 345 104.5 362.5 Q122 380 145.5 390 Q169 400 195 400 Q221 400 244.5 390 Q268 380 285.5 362.5 Q303 345 313 321.5 Q323 298 323 271 Z " />
<glyph glyph-name="ellipsis" unicode="&#x2026;" horiz-adv-x="756" d="M704 67 Q704 35 682 13 Q660 -9 630 -9 Q599 -9 576.5 13 Q554 35 554 67 Q554 97 576.5 119 Q599 141 629 141 Q661 141 682.5 119 Q704 97 704 67 Z M449 67 Q449 35 427 13 Q405 -9 374 -9 Q343 -9 321 13 Q299 35 299 67 Q299 97 320.5 119 Q342 141 374 141 Q405 141 427 119 Q449 97 449 67 Z M202 67 Q202 35 179.5 13 Q157 -9 127 -9 Q95 -9 73 13 Q51 35 51 67 Q51 97 73 119 Q95 141 127 141 Q158 141 180 119 Q202 97 202 67 Z " />
<glyph glyph-name="perthousand" unicode="&#x2030;" horiz-adv-x="1299" d="M378 465 Q378 426 369 389 Q360 352 339.5 324 Q319 296 285 279 Q251 262 201 262 Q148 262 113.5 278.5 Q79 295 59 323 Q39 351 30.5 387.5 Q22 424 22 465 Q22 503 30.5 540 Q39 577 59.5 606.5 Q80 636 114.5 654 Q149 672 202 672 Q256 672 290 653.5 Q324 635 343.5 605.5 Q363 576 370.5 539 Q378 502 378 465 Z M275 465 Q275 486 273 509.5 Q271 533 263.5 552.5 Q256 572 241.5 584.5 Q227 597 202 597 Q176 597 160.5 584.5 Q145 572 137 553 Q129 534 126.5 510 Q124 486 124 464 Q124 436 127 412.5 Q130 389 138.5 371.5 Q147 354 162 344.5 Q177 335 202 335 Q224 335 238.5 346 Q253 357 261 375 Q269 393 272 416.5 Q275 440 275 465 Z M336 -20 L254 -20 L569 708 L651 708 L336 -20 Z M877 200 Q877 161 868 124 Q859 87 838.5 58.5 Q818 30 784 13 Q750 -4 700 -4 Q647 -4 612.5 12.5 Q578 29 558 57 Q538 85 529.5 122 Q521 159 521 199 Q521 237 529.5 274 Q538 311 558.5 340.5 Q579 370 613.5 388 Q648 406 701 406 Q755 406 789 387.5 Q823 369 842.5 339.5 Q862 310 869.5 273.5 Q877 237 877 200 Z M774 199 Q774 220 772 243.5 Q770 267 762.5 286.5 Q755 306 740.5 319 Q726 332 701 332 Q675 332 659.5 319.5 Q644 307 636 287.5 Q628 268 625.5 244 Q623 220 623 198 Q623 171 626 147 Q629 123 637.5 106 Q646 89 661 79 Q676 69 701 69 Q723 69 737.5 80 Q752 91 760 109 Q768 127 771 150.5 Q774 174 774 199 Z M1275 200 Q1275 161 1266 124 Q1257 87 1236.5 58.5 Q1216 30 1182 13 Q1148 -4 1098 -4 Q1045 -4 1010.5 12.5 Q976 29 956 57 Q936 85 927.5 122 Q919 159 919 199 Q919 237 927.5 274 Q936 311 956.5 340.5 Q977 370 1011.5 388 Q1046 406 1099 406 Q1153 406 1187 387.5 Q1221 369 1240.5 339.5 Q1260 310 1267.5 273.5 Q1275 237 1275 200 Z M1172 199 Q1172 220 1170 243.5 Q1168 267 1160.5 286.5 Q1153 306 1138.5 319 Q1124 332 1099 332 Q1073 332 1057.5 319.5 Q1042 307 1034 287.5 Q1026 268 1023.5 244 Q1021 220 1021 198 Q1021 171 1024 147 Q1027 123 1035.5 106 Q1044 89 1059 79 Q1074 69 1099 69 Q1121 69 1135.5 80 Q1150 91 1158 109 Q1166 127 1169 150.5 Q1172 174 1172 199 Z " />
<glyph glyph-name="guilsinglleft" unicode="&#x2039;" horiz-adv-x="346" d="M55 216 L220 395 L277 355 L173 197 L276 41 L219 -1 L55 178 L55 216 Z " />
<glyph glyph-name="guilsinglright" unicode="&#x203a;" horiz-adv-x="346" d="M277 178 L114 -1 L57 41 L159 197 L55 355 L112 395 L277 216 L277 178 Z " />
<glyph glyph-name="Euro" unicode="&#x20ac;" horiz-adv-x="597" d="M454 586 Q435 591 419 593 Q403 595 388 595 Q346 595 316 582 Q286 569 266 546 Q246 523 234.5 491.5 Q223 460 218 423 L455 423 L455 369 L214 369 L214 323 L455 323 L455 267 L218 267 Q221 233 231.5 202.5 Q242 172 262.5 149 Q283 126 315 112.5 Q347 99 394 99 Q406 99 424 100 Q442 101 465 106 L465 175 L560 175 L560 18 Q542 12 518.5 7 Q495 2 469.5 -1.5 Q444 -5 418.5 -6.5 Q393 -8 371 -8 Q288 -8 234 16.5 Q180 41 146.5 80.5 Q113 120 97.5 169 Q82 218 77 267 L29 267 L29 323 L73 323 L73 342 Q73 348 73 355 Q73 362 74 369 L29 369 L29 423 L78 423 Q85 480 105.5 530.5 Q126 581 161.5 618.5 Q197 656 250 678 Q303 700 377 700 Q425 700 468.5 692.5 Q512 685 549 673 L549 517 L454 517 L454 586 Z " />
<glyph glyph-name="trademark" unicode="&#x2122;" horiz-adv-x="855" d="M598 491 Q603 502 609.5 516.5 Q616 531 622.5 546 Q629 561 636 575.5 Q643 590 648 601 Q656 618 668 644 Q680 670 687 687 L826 687 L826 632 L791 632 L791 396 L826 396 L826 342 L678 342 L678 396 L710 396 L710 571 L708 571 Q703 561 697 548 Q691 535 684.5 521 Q678 507 671.5 493.5 Q665 480 660 469 Q657 463 653.5 454.5 Q650 446 645.5 437 Q641 428 637.5 419 Q634 410 631 404 L564 404 Q558 416 548.5 437.5 Q539 459 532 471 Q522 491 508.5 519.5 Q495 548 485 568 L484 568 L484 396 L519 396 L519 342 L368 342 L368 396 L406 396 L406 632 L368 632 L368 687 L506 687 L546 601 Q557 578 571.5 545.5 Q586 513 597 491 L598 491 Z M102 342 L102 396 L145 396 L145 631 L88 631 L88 574 L30 574 L30 687 L346 687 L346 574 L288 574 L288 631 L229 631 L229 396 L272 396 L272 342 L102 342 Z " />
<glyph glyph-name="Circumflex" unicode="&#xf6c0;" horiz-adv-x="737" d="M533 737 L368 828 L205 736 L171 777 L325 924 L413 924 L568 778 L533 737 Z " />
<glyph glyph-name="commaaccent" unicode="&#xf6c3;" horiz-adv-x="736" d="M297 -104 Q297 -78 317 -59.5 Q337 -41 368 -41 Q405 -41 423 -64.5 Q441 -88 440 -118 Q439 -165 408 -206.5 Q377 -248 332 -269 L300 -230 Q340 -198 343 -161 Q320 -156 308.5 -141.5 Q297 -127 297 -104 Z " />
<glyph glyph-name="uniF6C7" unicode="&#xf6c7;" horiz-adv-x="558" d="M285 554 Q259 554 236 563.5 Q213 573 196.5 589.5 Q180 606 170.5 627.5 Q161 649 161 674 Q161 698 170.5 719.5 Q180 741 196.5 757.5 Q213 774 236 783.5 Q259 793 285 793 Q311 793 333 783.5 Q355 774 371 757.5 Q387 741 396 719.5 Q405 698 405 674 Q405 648 395.5 626.5 Q386 605 370 588.5 Q354 572 332 563 Q310 554 285 554 Z M285 728 Q261 728 244.5 711 Q228 694 228 671 Q228 650 243.5 633.5 Q259 617 285 617 Q308 617 323 633.5 Q338 650 338 671 Q338 694 323.5 711 Q309 728 285 728 Z " />
<glyph glyph-name="Acute" unicode="&#xf6c9;" horiz-adv-x="737" d="M381 743 L334 792 L481 961 L557 882 L381 743 Z " />
<glyph glyph-name="Caron" unicode="&#xf6ca;" horiz-adv-x="737" d="M570 896 L414 751 L327 751 L173 898 L207 937 L370 845 L535 938 L570 896 Z " />
<glyph glyph-name="Dieresis" unicode="&#xf6cb;" horiz-adv-x="737" d="M538 835 Q538 809 519 790.5 Q500 772 471 772 Q445 772 426.5 790.5 Q408 809 408 835 Q408 862 426.5 880.5 Q445 899 471 899 Q500 899 519 881 Q538 863 538 835 Z M338 835 Q338 809 319.5 790.5 Q301 772 273 772 Q246 772 227.5 790.5 Q209 809 209 835 Q209 862 228 880.5 Q247 899 272 899 Q301 899 319.5 881 Q338 863 338 835 Z " />
<glyph glyph-name="Grave" unicode="&#xf6ce;" horiz-adv-x="737" d="M197 885 L270 964 L419 796 L370 746 L197 885 Z " />
<glyph glyph-name="Hungarumlaut" unicode="&#xf6cf;" horiz-adv-x="737" d="M320 748 L265 790 L395 975 L481 907 L320 748 Z M476 748 L422 790 L551 975 L637 907 L476 748 Z " />
<glyph glyph-name="Macron" unicode="&#xf6d0;" horiz-adv-x="737" d="M200 890 L554 890 L554 799 L200 799 L200 890 Z " />
<glyph glyph-name="cyrBreve" unicode="&#xf6d1;" horiz-adv-x="737" d="M369 759 Q339 759 313 770 Q287 781 264.5 799.5 Q242 818 222 842.5 Q202 867 185 894 L243 940 Q274 896 309.5 873.5 Q345 851 373 851 Q382 851 395.5 852.5 Q409 854 428 862.5 Q447 871 470.5 887.5 Q494 904 524 934 L562 894 Q539 856 514 830 Q489 804 464.5 788 Q440 772 415.5 765.5 Q391 759 369 759 Z " />
<glyph glyph-name="uniF6DC" unicode="&#xf6dc;" horiz-adv-x="608" d="M391 766 Q364 766 338 772 Q312 778 288 785.5 Q264 793 243 799 Q222 805 205 805 L145 765 L100 799 Q119 847 147.5 869.5 Q176 892 211 892 Q234 892 259 886 Q284 880 308 872.5 Q332 865 355.5 859 Q379 853 399 853 L458 894 L501 862 Q485 815 457 790.5 Q429 766 391 766 Z " />
<glyph glyph-name="ff" unicode="&#xfb00;" horiz-adv-x="744" d="M369 91 L421 91 L421 397 L236 397 L236 91 L290 91 L290 0 L34 0 L34 91 L100 91 L100 397 L30 397 L30 474 Q43 478 65 484 Q87 490 101 494 L101 528 Q101 567 111 602.5 Q121 638 146 664.5 Q171 691 214 707 Q257 723 324 723 Q356 723 390.5 719.5 Q425 716 466 703 Q513 745 620 745 Q644 745 677 741 Q710 737 739 729 Q737 721 734.5 708 Q732 695 729.5 680.5 Q727 666 724 652.5 Q721 639 720 632 Q698 637 674.5 639 Q651 641 634 641 Q599 641 578 624.5 Q557 608 557 573 L557 490 L698 490 L698 397 L557 397 L557 91 L635 91 L635 0 L369 0 L369 91 Z M344 617 Q284 617 260 595 Q236 573 236 521 L236 490 L421 490 Q423 528 422.5 562 Q422 596 425 607 Q403 612 382 614.5 Q361 617 344 617 Z " />
<glyph glyph-name="fi" unicode="&#xfb01;" horiz-adv-x="663" d="M557 96 L629 96 L629 13 Q603 2 571.5 -3.5 Q540 -9 516 -9 Q463 -9 441 11 Q419 31 419 78 L419 398 L236 398 L236 92 L300 92 L300 0 L35 0 L35 92 L100 92 L100 398 L30 398 L30 475 L101 495 L101 555 Q101 594 112 627.5 Q123 661 148.5 686 Q174 711 214.5 725 Q255 739 315 739 Q331 739 353 738 Q375 737 400.5 734 Q426 731 453.5 726.5 Q481 722 507 715 L489 616 Q445 623 410 627 Q375 631 346 631 Q290 631 263 611 Q236 591 236 535 L236 491 L557 491 L557 96 Z " />
<glyph glyph-name="fl" unicode="&#xfb02;" horiz-adv-x="670" d="M569 92 L636 92 L636 0 L372 0 L372 92 L430 92 L430 617 Q384 625 346 625 Q290 625 263 605.5 Q236 586 236 530 L236 491 L366 491 L366 398 L236 398 L236 92 L294 92 L294 0 L35 0 L35 92 L100 92 L100 398 L30 398 L30 475 L101 495 L101 550 Q101 589 112 622.5 Q123 656 148.5 680.5 Q174 705 214.5 719.5 Q255 734 315 734 Q341 734 379 731 Q417 728 457 721 L569 734 L569 92 Z " />
<glyph glyph-name="ffi" unicode="&#xfb03;" horiz-adv-x="985" d="M422 562 Q422 576 422.5 586 Q423 596 428 606 Q405 611 383 613.5 Q361 616 344 616 Q283 616 259 594.5 Q235 573 235 521 L235 490 L422 490 L422 562 Z M556 397 L556 91 L627 91 L627 0 L361 0 L361 91 L421 91 L421 397 L235 397 L235 91 L292 91 L292 0 L34 0 L34 91 L100 91 L100 397 L29 397 L29 473 Q47 479 64.5 483.5 Q82 488 101 493 L101 558 Q103 594 116.5 624 Q130 654 156.5 676 Q183 698 224.5 710 Q266 722 324 722 Q356 722 392 718 Q428 714 471 701 Q520 749 642 749 Q680 749 731.5 743 Q783 737 827 724 Q822 700 818 675.5 Q814 651 809 626 Q764 634 729.5 637 Q695 640 666 640 Q610 640 583 620.5 Q556 601 556 546 L556 490 L878 490 L878 95 L949 95 L949 13 Q924 2 892 -3 Q860 -8 837 -8 Q807 -8 788 -1.5 Q769 5 758 17 Q747 29 743 45.5 Q739 62 739 82 L739 397 L556 397 Z " />
</font>
</svg>
