<svg xmlns="http://www.w3.org/2000/svg" viewBox="0 0 48 48"><path fill="#5e7200" d="M14.8 5.1h-.5c-.7 0-1.3.5-1.3 1.2v4.4c0 .7.6 1.2 1.3 1.2h.5c.7 0 1.3-.5 1.3-1.2V6.4c-.1-.7-.7-1.3-1.3-1.3zM33.8 5.1h-.5c-.7 0-1.3.5-1.3 1.2v4.4c0 .7.6 1.2 1.3 1.2h.5c.7 0 1.3-.5 1.3-1.2V6.4c-.1-.7-.7-1.3-1.3-1.3z"/><path fill="#a4b419" d="M39.1 10H37v.7c0 1.8-1.5 3.2-3.3 3.2h-.5c-1.8 0-3.3-1.4-3.3-3.2V10H18v.7c0 1.8-1.5 3.2-3.3 3.2h-.5c-1.8 0-3.3-1.4-3.3-3.2V10h-2c-1.1 0-1.9.9-1.9 2v4h34v-4c0-1.1-.9-2-1.9-2zM7 18V41.1c0 1 .9 1.9 1.9 1.9H39c1.1 0 1.9-.9 1.9-1.9V18H7zm9 22h-5v-5h5v5zm0-7h-5v-5h5v5zm0-7h-5v-5h5v5zm7 14h-5v-5h5v5zm0-7h-5v-5h5v5zm0-7h-5v-5h5v5zm7 14h-5v-5h5v5zm0-7h-5v-5h5v5zm0-7h-5v-5h5v5zm7 14h-5v-5h5v5zm0-7h-5v-5h5v5zm0-7h-5v-5h5v5z"/><g><path fill="none" d="M-37-21H3v15h-40z"/><text transform="translate(-36.997 -18.869)"><tspan x="0" y="0" font-family="MyriadPro-Regular" font-size="3">KfW-Dunkelblau (#005a8c)</tspan><tspan x="0" y="3.6" font-family="MyriadPro-Regular" font-size="3">KfW-Hellblau Digital (#519dc2)</tspan><tspan x="0" y="7.2" font-family="MyriadPro-Regular" font-size="3">KfW-Gr端n Digital (#5e7200)</tspan><tspan x="0" y="10.8" font-family="MyriadPro-Regular" font-size="3">KfW-Hellgr端n (#a4b419)</tspan></text><path fill="none" d="M13-22h37v16H13z"/><text transform="translate(13.003 -20.579)"><tspan x="0" y="0" font-family="MyriadPro-Regular" font-size="2">Kombination KfW-Dunkelblau (</tspan><tspan x="25.9" y="0" fill="#005a8c" font-family="MyriadPro-Regular" font-size="2">#005a8c</tspan><tspan x="32.8" y="0" font-family="MyriadPro-Regular" font-size="2">) </tspan><tspan x="0" y="2.4" font-family="MyriadPro-Regular" font-size="2">und KfW-Hellblau Digital (</tspan><tspan x="21.6" y="2.4" fill="#519dc2" font-family="MyriadPro-Regular" font-size="2">#519dc2</tspan><tspan x="28.7" y="2.4" font-family="MyriadPro-Regular" font-size="2">) </tspan><tspan x="0" y="9.6" font-family="MyriadPro-Regular" font-size="2">Kombination KfW-Gr端n Digital (</tspan><tspan x="26.3" y="9.6" fill="#5e7200" font-family="MyriadPro-Regular" font-size="2">#5e7200</tspan><tspan x="33.4" y="9.6" font-family="MyriadPro-Regular" font-size="2">) </tspan><tspan x="0" y="12" font-family="MyriadPro-Regular" font-size="2">und KfW-Hellgr端n (</tspan><tspan x="16" y="12" fill="#a4b419" font-family="MyriadPro-Regular" font-size="2">#a4b419</tspan><tspan x="23.2" y="12" font-family="MyriadPro-Regular" font-size="2">)</tspan></text><path fill="#a4b419" d="M-39-6h6v4h-6z"/></g></svg>