<svg xmlns="http://www.w3.org/2000/svg" viewBox="0 0 24 24"><path fill="#005A8C" fill-rule="evenodd" d="M9 16.073V7.927L16 12l-7 4.073zm12.15-9.724c-.543-.982-1.131-1.163-2.33-1.232C17.622 5.035 14.611 5 12.003 5c-2.614 0-5.627.035-6.823.115-1.197.071-1.786.25-2.333 1.234C2.287 7.331 2 9.021 2 11.996v.01c0 2.963.287 4.666.847 5.638.547.982 1.135 1.16 2.332 1.243 1.197.071 4.21.113 6.824.113 2.608 0 5.619-.042 6.818-.112 1.199-.082 1.787-.26 2.33-1.243.564-.972.849-2.674.849-5.637v-.011c0-2.976-.285-4.666-.85-5.648z"/></svg>