<svg xmlns="http://www.w3.org/2000/svg" viewBox="0 0 24 24"><path fill="#005A8C" fill-rule="evenodd" d="M22 5.923a8.518 8.518 0 0 1-2.362.646 4.063 4.063 0 0 0 1.803-2.263 8.197 8.197 0 0 1-2.599.991A4.112 4.112 0 0 0 15.847 4a4.098 4.098 0 0 0-4.098 4.1c0 .324.027.636.095.933a11.61 11.61 0 0 1-8.451-4.285 4.123 4.123 0 0 0-.561 2.07c0 1.42.731 2.678 1.821 3.406a4.031 4.031 0 0 1-1.852-.505v.045a4.117 4.117 0 0 0 3.284 4.027c-.333.09-.822.214-1.199.214-.263 0-.528-.016-.777-.07.532 1.623 2.163 2.736 3.956 2.775a8.243 8.243 0 0 1-5.084 1.748c-.335 0-.658-.016-.981-.057C3.816 19.572 5.552 20 7.873 20c7.545 0 12.087-6.006 12.087-11.42 0-.18-.006-.356-.015-.53A8.174 8.174 0 0 0 22 5.923"/></svg>